<?xml version="1.0" encoding="UTF-8"?>
<svg width="148px" height="51px" viewBox="0 0 148 51" version="1.1" xmlns="http://www.w3.org/2000/svg" xmlns:xlink="http://www.w3.org/1999/xlink">
    <title>Group 25</title>
    <defs>
        <filter x="-180.0%" y="-128.6%" width="460.0%" height="357.1%" filterUnits="objectBoundingBox" id="filter-1">
            <feGaussianBlur stdDeviation="2.1" in="SourceGraphic"></feGaussianBlur>
        </filter>
    </defs>
    <g id="Final-UI" stroke="none" stroke-width="1" fill="none" fill-rule="evenodd">
        <g id="website-home-copy" transform="translate(-135.000000, -25.000000)">
            <g id="Group-25" transform="translate(135.000000, 25.000000)">
                <g id="Group-Copy-3">
                    <path d="M46.9896,28.4368 C48.0816,28.4368 49.0947333,28.2305333 50.029,27.818 C50.9632667,27.4054667 51.6609333,26.8230667 52.122,26.0708 L52.122,26.0708 L52.2312,26.0708 L52.2312,28 L57.6912,28 L57.6912,18.8636 C57.6912,17.2134667 57.5395333,15.7878 57.2362,14.5866 C56.9328667,13.3854 56.4536,12.3904667 55.7984,11.6018 C55.1432,10.8131333 54.2878,10.2307333 53.2322,9.8546 C52.1766,9.47846667 50.8844,9.2904 49.3556,9.2904 C47.8753333,9.2904 46.4254,9.5452 45.0058,10.0548 C43.5862,10.5644 42.3425333,11.3288 41.2748,12.348 L41.2748,12.348 L44.296,15.5876 C44.8541333,15.078 45.5275333,14.6412 46.3162,14.2772 C47.1048667,13.9132 47.9238667,13.7312 48.7732,13.7312 C49.6953333,13.7312 50.4718667,13.9435333 51.1028,14.3682 C51.7337333,14.7928667 52.0492,15.4541333 52.0492,16.352 L52.0492,16.352 L52.0492,16.6432 C50.7388,16.6432 49.392,16.716 48.0088,16.8616 C46.6256,17.0072 45.3698,17.2984 44.2414,17.7352 C43.113,18.172 42.1908667,18.7908 41.475,19.5916 C40.7591333,20.3924 40.4012,21.448 40.4012,22.7584 C40.4012,23.8261333 40.6074667,24.724 41.02,25.452 C41.4325333,26.18 41.9603333,26.7624 42.6034,27.1992 C43.2464667,27.636 43.9562667,27.9514667 44.7328,28.1456 C45.5093333,28.3397333 46.2616,28.4368 46.9896,28.4368 Z M48.482,24.4328 C48.1908,24.4328 47.8874667,24.4024667 47.572,24.3418 C47.2565333,24.2811333 46.9774667,24.178 46.7348,24.0324 C46.4921333,23.8868 46.2919333,23.6926667 46.1342,23.45 C45.9764667,23.2073333 45.8976,22.9161333 45.8976,22.5764 C45.8976,22.0425333 46.0674667,21.6118 46.4072,21.2842 C46.7469333,20.9566 47.1776667,20.7078667 47.6994,20.538 C48.2211333,20.3681333 48.8156667,20.2528667 49.483,20.1922 C50.1503333,20.1315333 50.8116,20.1012 51.4668,20.1012 L51.4668,20.1012 L52.2312,20.1012 L52.2312,20.72 C52.2312,21.8605333 51.9096667,22.7644667 51.2666,23.4318 C50.6235333,24.0991333 49.6953333,24.4328 48.482,24.4328 Z M66.696,28.4368 C67.3269333,28.4368 67.9578667,28.3822 68.5888,28.273 C69.2197333,28.1638 69.7414667,28.0364 70.154,27.8908 L70.154,27.8908 L70.0812,23.5228 C69.8628,23.6198667 69.5898,23.6926667 69.2622,23.7412 C68.9346,23.7897333 68.6252,23.814 68.334,23.814 C67.4846667,23.814 66.8962,23.6016667 66.5686,23.177 C66.241,22.7523333 66.0772,22.1153333 66.0772,21.266 L66.0772,21.266 L66.0772,14.35 L70.336,14.35 L70.336,9.8728 L66.0772,9.8728 L66.0772,5.1044 L60.2168,5.1044 L60.2168,9.8728 L57.3412,9.8728 L57.3412,14.35 L60.2532,14.35 L60.2532,21.994 C60.2532,22.9646667 60.3624,23.8443333 60.5808,24.633 C60.7992,25.4216667 61.1571333,26.1011333 61.6546,26.6714 C62.1520667,27.2416667 62.8133333,27.6784667 63.6384,27.9818 C64.4634667,28.2851333 65.4826667,28.4368 66.696,28.4368 Z M77.0112,28 L77.0112,18.2084 C77.0112,17.1164 77.2902667,16.2003333 77.8484,15.4602 C78.4065333,14.7200667 79.2073333,14.35 80.2508,14.35 C80.7846667,14.35 81.2214667,14.4531333 81.5612,14.6594 C81.9009333,14.8656667 82.1739333,15.1447333 82.3802,15.4966 C82.5864667,15.8484667 82.726,16.2549333 82.7988,16.716 C82.8716,17.1770667 82.908,17.6624 82.908,18.172 L82.908,18.172 L82.908,28 L88.914,28 L88.914,16.7888 C88.914,15.8909333 88.7987333,14.9930667 88.5682,14.0952 C88.3376667,13.1973333 87.9615333,12.4026 87.4398,11.711 C86.9180667,11.0194 86.2386,10.4552 85.4014,10.0184 C84.5642,9.5816 83.5268,9.3632 82.2892,9.3632 C81.0273333,9.3632 79.9474667,9.64833333 79.0496,10.2186 C78.1517333,10.7888667 77.4965333,11.438 77.084,12.166 L77.084,12.166 L77.0112,12.166 L77.0112,0.4816 L71.0416,0.4816 L71.0416,28 L77.0112,28 Z M100.3212,28.5824 C102.165467,28.5824 103.785267,28.2487333 105.1806,27.5814 C106.575933,26.9140667 107.698267,25.9616 108.5476,24.724 L108.5476,24.724 L104.398,22.1032 C103.985467,22.6613333 103.4516,23.1163333 102.7964,23.4682 C102.1412,23.8200667 101.3404,23.996 100.394,23.996 C99.8601333,23.996 99.3444667,23.9110667 98.847,23.7412 C98.3495333,23.5713333 97.9006,23.3347333 97.5002,23.0314 C97.0998,22.7280667 96.7722,22.3701333 96.5174,21.9576 C96.2626,21.5450667 96.1109333,21.084 96.0624,20.5744 L96.0624,20.5744 L109.2028,20.5744 C109.227067,20.356 109.2392,20.1254667 109.2392,19.8828 L109.2392,19.8828 L109.2392,19.1548 C109.2392,17.6017333 109.014733,16.2185333 108.5658,15.0052 C108.116867,13.7918667 107.492,12.7605333 106.6912,11.9112 C105.8904,11.0618667 104.931867,10.4127333 103.8156,9.9638 C102.699333,9.51486667 101.473867,9.2904 100.1392,9.2904 C98.756,9.2904 97.4698667,9.52093333 96.2808,9.982 C95.0917333,10.4430667 94.0604,11.0922 93.1868,11.9294 C92.3132,12.7666 91.6216,13.7858 91.112,14.987 C90.6024,16.1882 90.3476,17.5289333 90.3476,19.0092 C90.3476,20.538 90.6084667,21.8969333 91.1302,23.086 C91.6519333,24.2750667 92.3678,25.2760667 93.2778,26.089 C94.1878,26.9019333 95.2494667,27.5207333 96.4628,27.9454 C97.6761333,28.3700667 98.9622667,28.5824 100.3212,28.5824 Z M103.7428,16.8616 L96.0624,16.8616 C96.0866667,16.4005333 96.208,15.9576667 96.4264,15.533 C96.6448,15.1083333 96.936,14.7382667 97.3,14.4228 C97.664,14.1073333 98.0886667,13.8586 98.574,13.6766 C99.0593333,13.4946 99.5932,13.4036 100.1756,13.4036 C101.364667,13.4036 102.256467,13.7433333 102.851,14.4228 C103.445533,15.1022667 103.7428,15.9152 103.7428,16.8616 L103.7428,16.8616 Z M116.788,28 L116.788,18.172 C116.788,17.6624 116.854733,17.171 116.9882,16.6978 C117.121667,16.2246 117.321867,15.806 117.5888,15.442 C117.855733,15.078 118.1894,14.7928667 118.5898,14.5866 C118.9902,14.3803333 119.457333,14.2772 119.9912,14.2772 C120.525067,14.2772 120.967933,14.3803333 121.3198,14.5866 C121.671667,14.7928667 121.944667,15.0719333 122.1388,15.4238 C122.332933,15.7756667 122.472467,16.1821333 122.5574,16.6432 C122.642333,17.1042667 122.6848,17.5896 122.6848,18.0992 L122.6848,18.0992 L122.6848,28 L128.6908,28 L128.6908,16.7888 C128.6908,15.8909333 128.575533,14.9930667 128.345,14.0952 C128.114467,13.1973333 127.738333,12.4026 127.2166,11.711 C126.694867,11.0194 126.009333,10.4552 125.16,10.0184 C124.310667,9.5816 123.279333,9.3632 122.066,9.3632 C121.435067,9.3632 120.840533,9.44813333 120.2824,9.618 C119.724267,9.78786667 119.2086,10.0062667 118.7354,10.2732 C118.2622,10.5401333 117.849667,10.8616667 117.4978,11.2378 C117.145933,11.6139333 116.8608,11.9961333 116.6424,12.3844 L116.6424,12.3844 L116.5696,12.3844 L116.5696,9.8728 L110.782,9.8728 L110.782,28 L116.788,28 Z M136.4944,28.4368 C137.5864,28.4368 138.599533,28.2305333 139.5338,27.818 C140.468067,27.4054667 141.165733,26.8230667 141.6268,26.0708 L141.6268,26.0708 L141.736,26.0708 L141.736,28 L147.196,28 L147.196,18.8636 C147.196,17.2134667 147.044333,15.7878 146.741,14.5866 C146.437667,13.3854 145.9584,12.3904667 145.3032,11.6018 C144.648,10.8131333 143.7926,10.2307333 142.737,9.8546 C141.6814,9.47846667 140.3892,9.2904 138.8604,9.2904 C137.380133,9.2904 135.9302,9.5452 134.5106,10.0548 C133.091,10.5644 131.847333,11.3288 130.7796,12.348 L130.7796,12.348 L133.8008,15.5876 C134.358933,15.078 135.032333,14.6412 135.821,14.2772 C136.609667,13.9132 137.428667,13.7312 138.278,13.7312 C139.200133,13.7312 139.976667,13.9435333 140.6076,14.3682 C141.238533,14.7928667 141.554,15.4541333 141.554,16.352 L141.554,16.352 L141.554,16.6432 C140.2436,16.6432 138.8968,16.716 137.5136,16.8616 C136.1304,17.0072 134.8746,17.2984 133.7462,17.7352 C132.6178,18.172 131.695667,18.7908 130.9798,19.5916 C130.263933,20.3924 129.906,21.448 129.906,22.7584 C129.906,23.8261333 130.112267,24.724 130.5248,25.452 C130.937333,26.18 131.465133,26.7624 132.1082,27.1992 C132.751267,27.636 133.461067,27.9514667 134.2376,28.1456 C135.014133,28.3397333 135.7664,28.4368 136.4944,28.4368 Z M137.9868,24.4328 C137.6956,24.4328 137.392267,24.4024667 137.0768,24.3418 C136.761333,24.2811333 136.482267,24.178 136.2396,24.0324 C135.996933,23.8868 135.796733,23.6926667 135.639,23.45 C135.481267,23.2073333 135.4024,22.9161333 135.4024,22.5764 C135.4024,22.0425333 135.572267,21.6118 135.912,21.2842 C136.251733,20.9566 136.682467,20.7078667 137.2042,20.538 C137.725933,20.3681333 138.320467,20.2528667 138.9878,20.1922 C139.655133,20.1315333 140.3164,20.1012 140.9716,20.1012 L140.9716,20.1012 L141.736,20.1012 L141.736,20.72 C141.736,21.8605333 141.414467,22.7644667 140.7714,23.4318 C140.128333,24.0991333 139.200133,24.4328 137.9868,24.4328 Z" id="athena" fill="#303030" fill-rule="nonzero"></path>
                    <path d="M18.1356,28 L18.1356,18.172 C18.1356,17.6624 18.2023333,17.171 18.3358,16.6978 C18.4692667,16.2246 18.6694667,15.806 18.9364,15.442 C19.2033333,15.078 19.537,14.7928667 19.9374,14.5866 C20.3378,14.3803333 20.8049333,14.2772 21.3388,14.2772 C21.8726667,14.2772 22.3155333,14.3803333 22.6674,14.5866 C23.0192667,14.7928667 23.2922667,15.0719333 23.4864,15.4238 C23.6805333,15.7756667 23.8200667,16.1821333 23.905,16.6432 C23.9899333,17.1042667 24.0324,17.5896 24.0324,18.0992 L24.0324,28 L30.0384,28 L30.0384,16.7888 C30.0384,15.8909333 29.9231333,14.9930667 29.6926,14.0952 C29.4620667,13.1973333 29.0859333,12.4026 28.5642,11.711 C28.0424667,11.0194 27.3569333,10.4552 26.5076,10.0184 C25.6582667,9.5816 24.6269333,9.3632 23.4136,9.3632 C22.7826667,9.3632 22.1881333,9.44813333 21.63,9.618 C21.0718667,9.78786667 20.5562,10.0062667 20.083,10.2732 C19.6098,10.5401333 19.1972667,10.8616667 18.8454,11.2378 C18.4935333,11.6139333 18.2084,11.9961333 17.99,12.3844 L17.9172,12.3844 C17.9172,10.9972816 16.7927184,9.8728 15.4056,9.8728 L15.0234,9.8728 C13.4251984,9.8728 12.1296,11.1683984 12.1296,12.7666 L12.1296,28 L12.1296,28 L18.1356,28 Z" id="n-copy-2" fill="#909090" fill-rule="nonzero"></path>
                    <rect id="Rectangle-Copy-2" fill="#000000" filter="url(#filter-1)" x="14.7" y="11.9" width="3.5" height="4.9"></rect>
                    <path d="M6.5884,28.4368 C7.21933333,28.4368 7.81993333,28.3518667 8.3902,28.182 C8.96046667,28.0121333 9.4822,27.7937333 9.9554,27.5268 C10.4286,27.2598667 10.8411333,26.9444 11.193,26.5804 C11.5448667,26.2164 11.83,25.8281333 12.0484,25.4156 L12.1212,25.4156 L12.1212,27.9272 L17.8724,27.9272 L17.8724,12.7848 C17.8724,11.1363405 16.5360595,9.8 14.8876,9.8 C13.2391405,9.8 11.9028,11.1363405 11.9028,12.7848 L11.9028,19.5916 L11.9028,19.5916 C11.9028,20.6350667 11.6298,21.5450667 11.0838,22.3216 C10.5378,23.0981333 9.74306667,23.4864 8.6996,23.4864 C8.14146667,23.4864 7.69253333,23.3832667 7.3528,23.177 C7.01306667,22.9707333 6.74006667,22.6856 6.5338,22.3216 C6.32753333,21.9576 6.188,21.5450667 6.1152,21.084 C6.0424,20.6229333 6.006,20.1376 6.006,19.628 L6.006,15.806 C6.006,12.4889778 3.31702221,9.8 0,9.8 L0,9.8 L0,9.8 L0,21.0112 C0,21.9333333 0.115266667,22.8372667 0.3458,23.723 C0.576333333,24.6087333 0.952466667,25.3974 1.4742,26.089 C1.99593333,26.7806 2.6754,27.3448 3.5126,27.7816 C4.3498,28.2184 5.37506667,28.4368 6.5884,28.4368 Z" id="u-copy-2" fill="#909090" fill-rule="nonzero"></path>
                </g>
                <polygon id="i-copy-5" fill="#909090" fill-rule="nonzero" points="38.5 28 38.5 9.8 32.2 9.8 32.2 28"></polygon>
                <path d="M35.7,7 C36.1716312,7 36.6246454,6.91833333 37.0590426,6.755 C37.4934397,6.59166667 37.8657801,6.37 38.1760638,6.09 C38.4863475,5.81 38.7345745,5.4775 38.9207447,5.0925 C39.1069149,4.7075 39.2,4.29333333 39.2,3.85 C39.2,3.40666667 39.1069149,2.9925 38.9207447,2.6075 C38.7345745,2.2225 38.4863475,1.89 38.1760638,1.61 C37.8657801,1.33 37.4934397,1.10833333 37.0590426,0.945 C36.6246454,0.781666667 36.1716312,0.7 35.7,0.7 C35.2035461,0.7 34.7443262,0.7875 34.3223404,0.9625 C33.9003546,1.1375 33.5280142,1.365 33.2053191,1.645 C32.8826241,1.925 32.6343972,2.2575 32.4606383,2.6425 C32.2868794,3.0275 32.2,3.43 32.2,3.85 C32.2,4.71333333 32.5351064,5.45416667 33.2053191,6.0725 C33.8755319,6.69083333 34.7070922,7 35.7,7 Z" id="Path-Copy-5" fill="#909090"></path>
                <g id="upload-copy-2" transform="translate(91.000000, 0.700000)" fill="#FFC100" fill-rule="nonzero">
                    <path d="M9.38008671,0.102467253 C9.22559734,-0.0341557511 8.97515024,-0.0341557511 8.82062378,0.102467253 L0.116325597,7.80198069 C0.0418813811,7.86763454 0,7.95678072 0,8.04976574 L0,10.8493857 C-0.000403823931,11.0426725 0.176452191,11.199638 0.394962843,11.2 C0.500304933,11.200163 0.60138141,11.1631527 0.675788534,11.0971707 L9.10000287,3.64472053 L17.5242172,11.0971707 C17.6785211,11.2340234 17.9290424,11.2342859 18.0837543,11.0977941 C18.1583469,11.0319762 18.200187,10.9425676 18.2,10.8493857 L18.2,8.04976574 C18.200187,7.95687915 18.1586436,7.86773297 18.0844591,7.80198069 L9.38008671,0.102467253 Z" id="Path"></path>
                </g>
                <path d="M3.066,44.1 L3.6624,42.6384 L6.4848,42.6384 L7.0896,44.1 L8.0304,44.1 L5.4768,38.1528 L4.7208,38.1528 L2.142,44.1 L3.066,44.1 Z M6.1824,41.9076 L3.9564,41.9076 L5.0736,39.1188 L6.1824,41.9076 Z M11.4640001,44.1 L11.4640001,38.8836 L13.3708001,38.8836 L13.3708001,38.1528 L8.7256001,38.1528 L8.7256001,38.8836 L10.6324001,38.8836 L10.6324001,44.1 L11.4640001,44.1 Z M16.0820002,44.1 L16.0820002,41.3784 L19.0892002,41.3784 L19.0892002,44.1 L19.9292002,44.1 L19.9292002,38.1528 L19.0892002,38.1528 L19.0892002,40.6392 L16.0820002,40.6392 L16.0820002,38.1528 L15.2504002,38.1528 L15.2504002,44.1 L16.0820002,44.1 Z M26.4036003,44.1 L26.4036003,43.3608 L23.2956003,43.3608 L23.2956003,41.3784 L26.1012003,41.3784 L26.1012003,40.6644 L23.2956003,40.6644 L23.2956003,38.8836 L26.2776003,38.8836 L26.2776003,38.1528 L22.4640003,38.1528 L22.4640003,44.1 L26.4036003,44.1 Z M29.4340004,44.1 L29.4340004,39.2448 L29.4508004,39.2448 L32.5924004,44.1 L33.6424004,44.1 L33.6424004,38.1528 L32.8108004,38.1528 L32.8108004,42.9072 L32.7940004,42.9072 L29.6860004,38.1528 L28.6024004,38.1528 L28.6024004,44.1 L29.4340004,44.1 Z M36.4208005,44.1 L37.0172005,42.6384 L39.8396005,42.6384 L40.4444005,44.1 L41.3852005,44.1 L38.8316005,38.1528 L38.0756005,38.1528 L35.4968005,44.1 L36.4208005,44.1 Z M39.5372005,41.9076 L37.3112005,41.9076 L38.4284005,39.1188 L39.5372005,41.9076 Z M49.1512007,44.2512 C49.5880007,44.2512 49.9912007,44.2064 50.3608007,44.1168 C50.7304007,44.0272 51.0720007,43.8984 51.3856007,43.7304 L51.3856007,43.7304 L51.3856007,40.8492 L49.2436007,40.8492 L49.2436007,41.5548 L50.5624007,41.5548 L50.5624007,43.2096 C50.3888007,43.3048 50.1844007,43.3776 49.9492007,43.428 C49.7140007,43.4784 49.4564007,43.5036 49.1764007,43.5036 C48.8236007,43.5036 48.5044007,43.442 48.2188007,43.3188 C47.9332007,43.1956 47.6924007,43.0262 47.4964007,42.8106 C47.3004007,42.595 47.1492007,42.3416 47.0428007,42.0504 C46.9364007,41.7592 46.8832007,41.4484 46.8832007,41.118 C46.8832007,40.7932 46.9364007,40.4866 47.0428007,40.1982 C47.1492007,39.9098 47.3004007,39.6564 47.4964007,39.438 C47.6924007,39.2196 47.9304007,39.0474 48.2104007,38.9214 C48.4904007,38.7954 48.8040007,38.7324 49.1512007,38.7324 C49.4928007,38.7324 49.8022007,38.7912 50.0794007,38.9088 C50.3566007,39.0264 50.5848007,39.1832 50.7640007,39.3792 L50.7640007,39.3792 L51.3436007,38.7744 C51.0972007,38.5392 50.7878007,38.3516 50.4154007,38.2116 C50.0430007,38.0716 49.6188007,38.0016 49.1428007,38.0016 C48.6892007,38.0016 48.2692007,38.0772 47.8828007,38.2284 C47.4964007,38.3796 47.1618007,38.591 46.8790007,38.8626 C46.5962007,39.1342 46.3750007,39.4618 46.2154007,39.8454 C46.0558007,40.229 45.9760007,40.6532 45.9760007,41.118 C45.9760007,41.5772 46.0544007,41.9986 46.2112007,42.3822 C46.3680007,42.7658 46.5864007,43.0962 46.8664007,43.3734 C47.1464007,43.6506 47.4810007,43.8662 47.8702007,44.0202 C48.2594007,44.1742 48.6864007,44.2512 49.1512007,44.2512 Z M57.3896008,44.1 L57.3896008,43.3608 L54.7352008,43.3608 L54.7352008,38.1528 L53.9036008,38.1528 L53.9036008,44.1 L57.3896008,44.1 Z M61.8732009,44.2512 C62.3268009,44.2512 62.7468009,44.1742 63.1332009,44.0202 C63.5196009,43.8662 63.8528009,43.6506 64.1328009,43.3734 C64.4128009,43.0962 64.6326009,42.7658 64.7922009,42.3822 C64.9518009,41.9986 65.0316009,41.5772 65.0316009,41.118 C65.0316009,40.6532 64.9518009,40.229 64.7922009,39.8454 C64.6326009,39.4618 64.4128009,39.1342 64.1328009,38.8626 C63.8528009,38.591 63.5196009,38.3796 63.1332009,38.2284 C62.7468009,38.0772 62.3268009,38.0016 61.8732009,38.0016 C61.4196009,38.0016 61.0010009,38.0772 60.6174009,38.2284 C60.2338009,38.3796 59.9020009,38.591 59.6220009,38.8626 C59.3420009,39.1342 59.1236009,39.4618 58.9668009,39.8454 C58.8100009,40.229 58.7316009,40.6532 58.7316009,41.118 C58.7316009,41.5772 58.8100009,41.9986 58.9668009,42.3822 C59.1236009,42.7658 59.3420009,43.0962 59.6220009,43.3734 C59.9020009,43.6506 60.2338009,43.8662 60.6174009,44.0202 C61.0010009,44.1742 61.4196009,44.2512 61.8732009,44.2512 Z M61.8732009,43.5036 C61.5316009,43.5036 61.2236009,43.442 60.9492009,43.3188 C60.6748009,43.1956 60.4396009,43.0262 60.2436009,42.8106 C60.0476009,42.595 59.8964009,42.3416 59.7900009,42.0504 C59.6836009,41.7592 59.6304009,41.4484 59.6304009,41.118 C59.6304009,40.7932 59.6836009,40.4866 59.7900009,40.1982 C59.8964009,39.9098 60.0462009,39.6564 60.2394009,39.438 C60.4326009,39.2196 60.6678009,39.0474 60.9450009,38.9214 C61.2222009,38.7954 61.5316009,38.7324 61.8732009,38.7324 C62.2204009,38.7324 62.5326009,38.7954 62.8098009,38.9214 C63.0870009,39.0474 63.3236009,39.2196 63.5196009,39.438 C63.7156009,39.6564 63.8668009,39.9098 63.9732009,40.1982 C64.0796009,40.4866 64.1328009,40.7932 64.1328009,41.118 C64.1328009,41.4484 64.0796009,41.7592 63.9732009,42.0504 C63.8668009,42.3416 63.7156009,42.595 63.5196009,42.8106 C63.3236009,43.0262 63.0856009,43.1956 62.8056009,43.3188 C62.5256009,43.442 62.2148009,43.5036 61.8732009,43.5036 Z M69.212801,44.1 C69.520801,44.1 69.810601,44.065 70.082201,43.995 C70.353801,43.925 70.590401,43.8214 70.792001,43.6842 C70.993601,43.547 71.153201,43.372 71.270801,43.1592 C71.388401,42.9464 71.447201,42.6972 71.447201,42.4116 C71.447201,42.2044 71.415001,42.0168 71.350601,41.8488 C71.286201,41.6808 71.195201,41.5352 71.077601,41.412 C70.960001,41.2888 70.820001,41.1894 70.657601,41.1138 C70.495201,41.0382 70.318801,40.9892 70.128401,40.9668 L70.128401,40.9668 L70.128401,40.95 C70.442001,40.866 70.694001,40.712 70.884401,40.488 C71.074801,40.264 71.170001,39.9868 71.170001,39.6564 C71.170001,39.3708 71.115401,39.1328 71.006201,38.9424 C70.897001,38.752 70.754201,38.598 70.577801,38.4804 C70.401401,38.3628 70.201201,38.2788 69.977201,38.2284 C69.753201,38.178 69.529201,38.1528 69.305201,38.1528 L69.305201,38.1528 L67.255601,38.1528 L67.255601,44.1 L69.212801,44.1 Z M69.170801,40.6644 L68.087201,40.6644 L68.087201,38.85 L69.036401,38.85 C69.434001,38.85 69.750401,38.9186 69.985601,39.0558 C70.220801,39.193 70.338401,39.4212 70.338401,39.7404 C70.338401,39.9028 70.307601,40.0414 70.246001,40.1562 C70.184401,40.271 70.100401,40.3662 69.994001,40.4418 C69.887601,40.5174 69.763001,40.5734 69.620201,40.6098 C69.477401,40.6462 69.327601,40.6644 69.170801,40.6644 L69.170801,40.6644 Z M69.128801,43.3944 L68.087201,43.3944 L68.087201,41.37 L69.204401,41.37 C69.658001,41.37 70.005201,41.4484 70.246001,41.6052 C70.486801,41.762 70.607201,42.0168 70.607201,42.3696 C70.607201,42.5712 70.563801,42.7378 70.477001,42.8694 C70.390201,43.001 70.275401,43.106 70.132601,43.1844 C69.989801,43.2628 69.830201,43.3174 69.653801,43.3482 C69.477401,43.379 69.302401,43.3944 69.128801,43.3944 L69.128801,43.3944 Z M73.9820011,44.1 L74.5784011,42.6384 L77.4008011,42.6384 L78.0056011,44.1 L78.9464011,44.1 L76.3928011,38.1528 L75.6368011,38.1528 L73.0580011,44.1 L73.9820011,44.1 Z M77.0984011,41.9076 L74.8724011,41.9076 L75.9896011,39.1188 L77.0984011,41.9076 Z M84.2868012,44.1 L84.2868012,43.3608 L81.6324012,43.3608 L81.6324012,38.1528 L80.8008012,38.1528 L80.8008012,44.1 L84.2868012,44.1 Z M93.1112014,44.1 L93.1112014,43.3608 L90.0032014,43.3608 L90.0032014,41.3784 L92.8088014,41.3784 L92.8088014,40.6644 L90.0032014,40.6644 L90.0032014,38.8836 L92.9852014,38.8836 L92.9852014,38.1528 L89.1716014,38.1528 L89.1716014,44.1 L93.1112014,44.1 Z M97.3512015,44.1 C97.7320015,44.1 98.1128015,44.0398 98.4936015,43.9194 C98.8744015,43.799 99.2188015,43.617 99.5268015,43.3734 C99.8348015,43.1298 100.084001,42.8218 100.274401,42.4494 C100.464801,42.077 100.560001,41.636 100.560001,41.1264 C100.560001,40.6 100.464801,40.1492 100.274401,39.774 C100.084001,39.3988 99.8348015,39.0908 99.5268015,38.85 C99.2188015,38.6092 98.8744015,38.4328 98.4936015,38.3208 C98.1128015,38.2088 97.7320015,38.1528 97.3512015,38.1528 L97.3512015,38.1528 L95.3100015,38.1528 L95.3100015,44.1 L97.3512015,44.1 Z M97.1832015,43.3692 L96.1416015,43.3692 L96.1416015,38.8752 L97.1832015,38.8752 C97.5416015,38.8752 97.8734015,38.9242 98.1786015,39.0222 C98.4838015,39.1202 98.7470015,39.263 98.9682015,39.4506 C99.1894015,39.6382 99.3616015,39.872 99.4848015,40.152 C99.6080015,40.432 99.6696015,40.7568 99.6696015,41.1264 C99.6696015,41.4792 99.6080015,41.7956 99.4848015,42.0756 C99.3616015,42.3556 99.1894015,42.5908 98.9682015,42.7812 C98.7470015,42.9716 98.4838015,43.1172 98.1786015,43.218 C97.8734015,43.3188 97.5416015,43.3692 97.1832015,43.3692 L97.1832015,43.3692 Z M105.060402,44.2512 C105.452402,44.2512 105.794002,44.1854 106.085202,44.0538 C106.376402,43.9222 106.617202,43.7472 106.807602,43.5288 C106.998002,43.3104 107.139402,43.0598 107.231802,42.777 C107.324202,42.4942 107.370402,42.2016 107.370402,41.8992 L107.370402,41.8992 L107.370402,38.1528 L106.538802,38.1528 L106.538802,41.8488 C106.538802,42.0504 106.513602,42.2506 106.463202,42.4494 C106.412802,42.6482 106.330202,42.826 106.215402,42.9828 C106.100602,43.1396 105.948002,43.2656 105.757602,43.3608 C105.567202,43.456 105.334802,43.5036 105.060402,43.5036 C104.780402,43.5036 104.546602,43.456 104.359002,43.3608 C104.171402,43.2656 104.020202,43.1396 103.905402,42.9828 C103.790602,42.826 103.708002,42.6482 103.657602,42.4494 C103.607202,42.2506 103.582002,42.0504 103.582002,41.8488 L103.582002,41.8488 L103.582002,38.1528 L102.750402,38.1528 L102.750402,41.8992 C102.750402,42.2016 102.796602,42.4942 102.889002,42.777 C102.981402,43.0598 103.122802,43.3104 103.313202,43.5288 C103.503602,43.7472 103.744402,43.9222 104.035602,44.0538 C104.326802,44.1854 104.668402,44.2512 105.060402,44.2512 Z M112.694002,44.2512 C113.220402,44.2512 113.671202,44.1518 114.046402,43.953 C114.421602,43.7542 114.726802,43.4952 114.962002,43.176 L114.962002,43.176 L114.298402,42.7224 C114.119202,42.98 113.892402,43.176 113.618002,43.3104 C113.343602,43.4448 113.038402,43.512 112.702402,43.512 C112.360802,43.512 112.051402,43.4504 111.774202,43.3272 C111.497002,43.204 111.261802,43.0346 111.068602,42.819 C110.875402,42.6034 110.727002,42.35 110.623402,42.0588 C110.519802,41.7676 110.468002,41.454 110.468002,41.118 C110.468002,40.7932 110.521202,40.4866 110.627602,40.1982 C110.734002,39.9098 110.885202,39.6564 111.081202,39.438 C111.277202,39.2196 111.513802,39.0474 111.791002,38.9214 C112.068202,38.7954 112.380402,38.7324 112.727602,38.7324 C113.035602,38.7324 113.322602,38.7982 113.588602,38.9298 C113.854602,39.0614 114.060402,39.228 114.206002,39.4296 L114.206002,39.4296 L114.861202,38.9256 C114.749202,38.7744 114.614802,38.6414 114.458002,38.5266 C114.301202,38.4118 114.127602,38.3152 113.937202,38.2368 C113.746802,38.1584 113.548002,38.0996 113.340802,38.0604 C113.133602,38.0212 112.929202,38.0016 112.727602,38.0016 C112.274002,38.0016 111.854002,38.0772 111.467602,38.2284 C111.081202,38.3796 110.746602,38.591 110.463802,38.8626 C110.181002,39.1342 109.959802,39.4618 109.800202,39.8454 C109.640602,40.229 109.560802,40.6532 109.560802,41.118 C109.560802,41.5772 109.639202,41.9986 109.796002,42.3822 C109.952802,42.7658 110.169802,43.0962 110.447002,43.3734 C110.724202,43.6506 111.054602,43.8662 111.438202,44.0202 C111.821802,44.1742 112.240402,44.2512 112.694002,44.2512 Z M117.043202,44.1 L117.639602,42.6384 L120.462002,42.6384 L121.066802,44.1 L122.007602,44.1 L119.454002,38.1528 L118.698002,38.1528 L116.119202,44.1 L117.043202,44.1 Z M120.159602,41.9076 L117.933602,41.9076 L119.050802,39.1188 L120.159602,41.9076 Z M125.441202,44.1 L125.441202,38.8836 L127.348002,38.8836 L127.348002,38.1528 L122.702802,38.1528 L122.702802,38.8836 L124.609602,38.8836 L124.609602,44.1 L125.441202,44.1 Z M130.059202,44.1 L130.059202,38.1528 L129.227602,38.1528 L129.227602,44.1 L130.059202,44.1 Z M135.433202,44.2512 C135.886802,44.2512 136.306802,44.1742 136.693202,44.0202 C137.079602,43.8662 137.412802,43.6506 137.692802,43.3734 C137.972802,43.0962 138.192602,42.7658 138.352202,42.3822 C138.511802,41.9986 138.591602,41.5772 138.591602,41.118 C138.591602,40.6532 138.511802,40.229 138.352202,39.8454 C138.192602,39.4618 137.972802,39.1342 137.692802,38.8626 C137.412802,38.591 137.079602,38.3796 136.693202,38.2284 C136.306802,38.0772 135.886802,38.0016 135.433202,38.0016 C134.979602,38.0016 134.561002,38.0772 134.177402,38.2284 C133.793802,38.3796 133.462002,38.591 133.182002,38.8626 C132.902002,39.1342 132.683602,39.4618 132.526802,39.8454 C132.370002,40.229 132.291602,40.6532 132.291602,41.118 C132.291602,41.5772 132.370002,41.9986 132.526802,42.3822 C132.683602,42.7658 132.902002,43.0962 133.182002,43.3734 C133.462002,43.6506 133.793802,43.8662 134.177402,44.0202 C134.561002,44.1742 134.979602,44.2512 135.433202,44.2512 Z M135.433202,43.5036 C135.091602,43.5036 134.783602,43.442 134.509202,43.3188 C134.234802,43.1956 133.999602,43.0262 133.803602,42.8106 C133.607602,42.595 133.456402,42.3416 133.350002,42.0504 C133.243602,41.7592 133.190402,41.4484 133.190402,41.118 C133.190402,40.7932 133.243602,40.4866 133.350002,40.1982 C133.456402,39.9098 133.606202,39.6564 133.799402,39.438 C133.992602,39.2196 134.227802,39.0474 134.505002,38.9214 C134.782202,38.7954 135.091602,38.7324 135.433202,38.7324 C135.780402,38.7324 136.092602,38.7954 136.369802,38.9214 C136.647002,39.0474 136.883602,39.2196 137.079602,39.438 C137.275602,39.6564 137.426802,39.9098 137.533202,40.1982 C137.639602,40.4866 137.692802,40.7932 137.692802,41.118 C137.692802,41.4484 137.639602,41.7592 137.533202,42.0504 C137.426802,42.3416 137.275602,42.595 137.079602,42.8106 C136.883602,43.0262 136.645602,43.1956 136.365602,43.3188 C136.085602,43.442 135.774802,43.5036 135.433202,43.5036 Z M141.647202,44.1 L141.647202,39.2448 L141.664002,39.2448 L144.805602,44.1 L145.855602,44.1 L145.855602,38.1528 L145.024002,38.1528 L145.024002,42.9072 L145.007202,42.9072 L141.899202,38.1528 L140.815602,38.1528 L140.815602,44.1 L141.647202,44.1 Z" id="ATHENAGLOBALEDUCATION" fill="#818181" fill-rule="nonzero"></path>
                <line x1="146.50891" y1="49.899872" x2="1.4" y2="50.05" id="Path-2-Copy" stroke="#FFC100" stroke-width="0.7" stroke-linecap="round"></line>
                <line x1="146.50891" y1="32.399872" x2="1.4" y2="32.55" id="Path-2-Copy" stroke="#FFC100" stroke-width="0.7" stroke-linecap="round"></line>
            </g>
        </g>
    </g>
</svg>