<?xml version="1.0" encoding="UTF-8"?>
<svg width="35px" height="36px" viewBox="0 0 35 36" version="1.1" xmlns="http://www.w3.org/2000/svg" xmlns:xlink="http://www.w3.org/1999/xlink">
    <title>mortarboard (4)</title>
    <g id="Page-1" stroke="none" stroke-width="1" fill="none" fill-rule="evenodd">
        <g id="Landing--page-rsu-ucam-new" transform="translate(-121.000000, -826.000000)" fill-rule="nonzero">
            <g id="Group-16" transform="translate(121.000000, 826.000000)">
                <g id="mortarboard-(4)">
                    <polygon id="Path" fill="#FF7CB9" points="18.9110204 12.6073469 30.3722449 12.6073469 30.3722449 16.0457143 18.9110204 16.0457143"></polygon>
                    <path d="M33.237551,6.87673469 L13.7534694,6.87673469 C12.1717899,6.8786293 10.8900579,8.16036138 10.8881633,9.74204082 L10.8881633,32.6644898 C10.8900579,34.2461692 12.1717899,35.5279013 13.7534694,35.5297959 L33.237551,35.5297959 C34.1870299,35.5297959 34.9567347,34.7600912 34.9567347,33.8106122 L34.9567347,8.59591837 C34.9567347,7.64643944 34.1870299,6.87673469 33.237551,6.87673469 L33.237551,6.87673469 Z M17.764898,12.0342857 C17.764898,11.7177927 18.0214662,11.4612245 18.3379592,11.4612245 L30.9453061,11.4612245 C31.2617991,11.4612245 31.5183673,11.7177927 31.5183673,12.0342857 L31.5183673,16.6187755 C31.5183673,16.9352685 31.2617991,17.1918367 30.9453061,17.1918367 L18.3379592,17.1918367 C18.0214662,17.1918367 17.764898,16.9352685 17.764898,16.6187755 L17.764898,12.0342857 Z M14.3265306,9.74204082 C14.3265306,9.42554784 14.5830989,9.16897959 14.8995918,9.16897959 C15.2160848,9.16897959 15.4726531,9.42554784 15.4726531,9.74204082 L15.4726531,28.08 C15.4726531,28.396493 15.2160848,28.6530612 14.8995918,28.6530612 C14.5830989,28.6530612 14.3265306,28.396493 14.3265306,28.08 L14.3265306,9.74204082 Z M33.8106122,32.0914286 L13.7534694,32.0914286 C13.4369764,32.0914286 13.1804082,32.3479968 13.1804082,32.6644898 C13.1804082,32.9809828 13.4369764,33.237551 13.7534694,33.237551 L33.8106122,33.237551 L33.8106122,33.8106122 C33.8106122,34.1271052 33.554044,34.3836735 33.237551,34.3836735 L13.7534694,34.3836735 C12.8039905,34.3836735 12.0342857,33.6139687 12.0342857,32.6644898 C12.0342857,31.7150109 12.8039905,30.9453061 13.7534694,30.9453061 L33.8106122,30.9453061 L33.8106122,32.0914286 Z" id="Shape" fill="#FF7CB9"></path>
                    <path d="M23.7900637,6.95868245 L12.3288392,0.0819477551 C12.1473596,-0.0269412288 11.9206388,-0.0269412288 11.7391592,0.0819477551 L0.277934694,6.95868245 C0.10532172,7.06224701 -0.000295719784,7.24878452 -0.000295719784,7.45008245 C-0.000295719784,7.65138038 0.10532172,7.83791789 0.277934694,7.94148245 L2.86530612,9.49333224 L2.86530612,14.8995918 C2.86538096,15.0452374 2.92090928,15.1853901 3.02060571,15.2915657 C3.81978708,16.1460786 4.7314783,16.8879242 5.73061224,17.4967053 L5.73061224,20.6302041 C5.73061224,20.9466971 5.98718049,21.2032653 6.30367347,21.2032653 C6.62016644,21.2032653 6.87673469,20.9466971 6.87673469,20.6302041 L6.87673469,18.1138922 C8.48914856,18.8763791 10.2506758,19.2715484 12.0342857,19.2709029 C15.4629546,19.2617431 18.7314938,17.8188483 21.0485388,15.2915657 C21.1480264,15.1853016 21.2033458,15.0451591 21.2032653,14.8995918 L21.2032653,9.49333224 L23.7906367,7.94148245 C23.9631894,7.83781728 24.0685808,7.65121817 24.0685808,7.44992022 C24.0685808,7.24862226 23.9627371,7.06214632 23.7900637,6.95868245 L23.7900637,6.95868245 Z M4.01142857,14.6703673 L4.01142857,10.1810057 L5.73061224,11.2125159 L5.73061224,16.1311004 C5.11227456,15.7001347 4.53659021,15.2109949 4.01142857,14.6703673 L4.01142857,14.6703673 Z M20.0571429,14.6703673 C17.9662622,16.868419 15.0679527,18.1165553 12.0342857,18.1253535 C10.2343478,18.1242334 8.46260342,17.6781475 6.87673469,16.8267967 L6.87673469,11.8984702 L11.7397322,14.816498 C11.9212118,14.9253869 12.1479326,14.9253869 12.3294122,14.816498 L20.0571429,10.1810057 L20.0571429,14.6703673 Z M12.0342857,13.6589143 L7.41713143,10.8881633 L12.3288392,7.94148245 C12.6002319,7.77864681 12.6882348,7.42663518 12.5253992,7.15524246 C12.3625635,6.88384975 12.0105519,6.79584683 11.7391592,6.95868245 L6.30367347,10.2199739 L1.68651918,7.44979592 L12.0342857,1.24125061 L22.3814792,7.44979592 L12.0342857,13.6589143 Z" id="Shape" fill="#151A6A"></path>
                </g>
            </g>
        </g>
    </g>
</svg>