<?xml version="1.0" encoding="UTF-8"?>
<svg width="36px" height="36px" viewBox="0 0 36 36" version="1.1" xmlns="http://www.w3.org/2000/svg" xmlns:xlink="http://www.w3.org/1999/xlink">
    <title>banks</title>
    <g id="Page-1" stroke="none" stroke-width="1" fill="none" fill-rule="evenodd">
        <g id="Landing--page-rsu-ucam-new" transform="translate(-123.000000, -1016.000000)" fill-rule="nonzero">
            <g id="banks" transform="translate(123.000000, 1016.000000)">
                <path d="M16.704,16.2 C11.2960277,16.2 6.912,20.5840277 6.912,25.992 C6.912,31.3999723 11.2960277,35.784 16.704,35.784 C22.1119723,35.784 26.496,31.3999723 26.496,25.992 C26.4899687,20.5865279 22.1094721,16.2060313 16.704,16.2 Z M16.704,33.48 C12.5704656,33.4752388 9.22076123,30.1255344 9.216,25.992 C9.216,25.673884 9.47388398,25.416 9.792,25.416 C10.110116,25.416 10.368,25.673884 10.368,25.992 C10.3721262,29.4895656 13.2064344,32.3238738 16.704,32.328 C17.022116,32.328 17.28,32.585884 17.28,32.904 C17.28,33.222116 17.022116,33.48 16.704,33.48 L16.704,33.48 Z M23.616,26.568 C23.297884,26.568 23.04,26.310116 23.04,25.992 C23.0358738,22.4944344 20.2015656,19.6601262 16.704,19.656 C16.385884,19.656 16.128,19.398116 16.128,19.08 C16.128,18.761884 16.385884,18.504 16.704,18.504 C20.8375344,18.5087612 24.1872388,21.8584656 24.192,25.992 C24.192,26.310116 23.934116,26.568 23.616,26.568 L23.616,26.568 Z" id="Shape" fill="#FF7CB9"></path>
                <path d="M28.8,6.984 C25.3007238,6.984 22.464,9.82072383 22.464,13.32 C22.464,16.8192762 25.3007238,19.656 28.8,19.656 C32.2992762,19.656 35.136,16.8192762 35.136,13.32 C35.1318738,9.82243437 32.2975656,6.98812618 28.8,6.984 L28.8,6.984 Z M25.92,13.32 C25.92,13.638116 25.662116,13.896 25.344,13.896 C25.025884,13.896 24.768,13.638116 24.768,13.32 C24.7705394,11.0942406 26.5742406,9.29053937 28.8,9.288 C29.118116,9.288 29.376,9.54588398 29.376,9.864 C29.376,10.182116 29.118116,10.44 28.8,10.44 C27.2102094,10.4419043 25.9219043,11.7302094 25.92,13.32 Z M28.8,17.352 C28.481884,17.352 28.224,17.094116 28.224,16.776 C28.224,16.457884 28.481884,16.2 28.8,16.2 C30.3897906,16.1980957 31.6780957,14.9097906 31.68,13.32 C31.68,13.001884 31.937884,12.744 32.256,12.744 C32.574116,12.744 32.832,13.001884 32.832,13.32 C32.8294606,15.5457594 31.0257594,17.3494606 28.8,17.352 L28.8,17.352 Z" id="Shape" fill="#FF7CB9"></path>
                <g id="Group" fill="#151A6A">
                    <path d="M23.105664,4.431168 L12.310272,0.111168 C12.1726614,0.0564631577 12.0193386,0.0564631577 11.881728,0.111168 L1.086336,4.431168 C0.42876847,4.69190026 -0.00220508328,5.32853457 -8.42209371e-06,6.035904 L-8.42209371e-06,8.712 C-8.42209371e-06,9.66634805 0.773651952,10.44 1.728,10.44 L22.464,10.44 C23.418348,10.44 24.1920084,9.66634805 24.1920084,8.712 L24.1920084,6.035904 C24.1942051,5.32853457 23.7632315,4.69190026 23.105664,4.431168 Z M23.0400034,8.712 C23.0400034,9.03011602 22.782116,9.288 22.464,9.288 L1.728,9.288 C1.40988398,9.288 1.15199655,9.03011602 1.15199655,8.712 L1.15199655,6.035904 C1.15118455,5.80012421 1.29499374,5.58795421 1.514304,5.501376 L12.096,1.268352 L22.677696,5.501376 C22.8970063,5.58795421 23.0408155,5.80012421 23.0400034,6.035904 L23.0400034,8.712 Z" id="Shape"></path>
                    <path d="M12.096,3.528 C10.8235359,3.528 9.792,4.55953594 9.792,5.832 C9.792,7.10446406 10.8235359,8.136 12.096,8.136 C13.3684641,8.136 14.4,7.10446406 14.4,5.832 C14.4,4.55953594 13.3684641,3.528 12.096,3.528 L12.096,3.528 Z M12.096,6.984 C11.459768,6.984 10.944,6.46823203 10.944,5.832 C10.944,5.19576797 11.459768,4.68 12.096,4.68 C12.732232,4.68 13.248,5.19576797 13.248,5.832 C13.248,6.46823203 12.732232,6.984 12.096,6.984 Z" id="Shape"></path>
                    <path d="M22.464,24.264 L1.728,24.264 C0.773651952,24.264 0,25.037652 0,25.992 L0,27.144 C0,28.098348 0.773651952,28.872 1.728,28.872 L22.464,28.872 C23.418348,28.872 24.192,28.098348 24.192,27.144 L24.192,25.992 C24.192,25.037652 23.418348,24.264 22.464,24.264 Z M23.04,27.144 C23.04,27.462116 22.782116,27.72 22.464,27.72 L1.728,27.72 C1.40988398,27.72 1.152,27.462116 1.152,27.144 L1.152,25.992 C1.152,25.673884 1.40988398,25.416 1.728,25.416 L22.464,25.416 C22.782116,25.416 23.04,25.673884 23.04,25.992 L23.04,27.144 Z" id="Shape"></path>
                    <path d="M21.312,21.384 L21.312,13.32 C21.312,12.365652 20.538348,11.592 19.584,11.592 C18.629652,11.592 17.856,12.365652 17.856,13.32 L17.856,21.384 C17.856,22.338348 18.629652,23.112 19.584,23.112 C20.538348,23.112 21.312,22.338348 21.312,21.384 Z M19.008,21.384 L19.008,13.32 C19.008,13.001884 19.265884,12.744 19.584,12.744 C19.902116,12.744 20.16,13.001884 20.16,13.32 L20.16,21.384 C20.16,21.702116 19.902116,21.96 19.584,21.96 C19.265884,21.96 19.008,21.702116 19.008,21.384 Z" id="Shape"></path>
                    <path d="M13.824,21.384 L13.824,13.32 C13.824,12.365652 13.050348,11.592 12.096,11.592 C11.141652,11.592 10.368,12.365652 10.368,13.32 L10.368,21.384 C10.368,22.338348 11.141652,23.112 12.096,23.112 C13.050348,23.112 13.824,22.338348 13.824,21.384 Z M11.52,21.384 L11.52,13.32 C11.52,13.001884 11.777884,12.744 12.096,12.744 C12.414116,12.744 12.672,13.001884 12.672,13.32 L12.672,21.384 C12.672,21.702116 12.414116,21.96 12.096,21.96 C11.777884,21.96 11.52,21.702116 11.52,21.384 Z" id="Shape"></path>
                    <path d="M6.336,21.384 L6.336,13.32 C6.336,12.365652 5.56234803,11.592 4.608,11.592 C3.65365197,11.592 2.88,12.365652 2.88,13.32 L2.88,21.384 C2.88,22.338348 3.65365195,23.112 4.608,23.112 C5.56234805,23.112 6.336,22.338348 6.336,21.384 L6.336,21.384 Z M4.032,21.384 L4.032,13.32 C4.032,13.001884 4.28988398,12.744 4.608,12.744 C4.92611602,12.744 5.184,13.001884 5.184,13.32 L5.184,21.384 C5.184,21.702116 4.92611602,21.96 4.608,21.96 C4.28988398,21.96 4.032,21.702116 4.032,21.384 Z" id="Shape"></path>
                </g>
            </g>
        </g>
    </g>
</svg>