<?xml version="1.0" encoding="UTF-8"?>
<svg width="35px" height="36px" viewBox="0 0 35 36" version="1.1" xmlns="http://www.w3.org/2000/svg" xmlns:xlink="http://www.w3.org/1999/xlink">
    <title>desktop copy</title>
    <g id="Page-1" stroke="none" stroke-width="1" fill="none" fill-rule="evenodd">
        <g id="Landing--page-rsu-ucam-new" transform="translate(-121.000000, -926.000000)" fill-rule="nonzero">
            <g id="Group-14" transform="translate(121.000000, 916.000000)">
                <g id="desktop-copy" transform="translate(0.000000, 10.000000)">
                    <g id="Group" transform="translate(5.670000, 15.876000)" fill="#FF7CB9">
                        <path d="M24.064614,1.009827 C23.7914548,0.395571615 23.1821541,-0.000184915015 22.5099,-6.47723711e-08 L5.8401,-6.47723711e-08 C5.16784587,-0.000184915015 4.55854525,0.395571615 4.285386,1.009827 L0.19845,10.206 L28.15155,10.206 L24.064614,1.009827 Z" id="Path"></path>
                        <polygon id="Path" points="3.402 14.742 11.907 14.742 11.907 15.876 3.402 15.876"></polygon>
                        <circle id="Oval" cx="23.814" cy="15.309" r="1.134"></circle>
                        <circle id="Oval" cx="17.8605" cy="15.309" r="1"></circle>
                        <path d="M0,11.34 L0,17.577 C0,18.5164364 0.761563641,19.278 1.701,19.278 L26.649,19.278 C27.5884364,19.278 28.35,18.5164364 28.35,17.577 L28.35,11.34 L0,11.34 Z M13.041,16.443 C13.041,16.7561455 12.7871455,17.01 12.474,17.01 L2.835,17.01 C2.52185455,17.01 2.268,16.7561455 2.268,16.443 L2.268,14.175 C2.268,13.8618545 2.52185455,13.608 2.835,13.608 L12.474,13.608 C12.7871455,13.608 13.041,13.8618545 13.041,14.175 L13.041,16.443 Z M23.814,17.5770086 C22.7829606,17.573136 21.8842684,16.8743085 21.626514,15.876 L19.755414,15.876 C19.4738875,16.8202687 18.542157,17.4149636 17.5671367,17.2727101 C16.5921165,17.1304565 15.8691382,16.2943428 15.8691382,15.309 C15.8691382,14.3236572 16.5921165,13.4875435 17.5671367,13.3452899 C18.542157,13.2030364 19.4738875,13.7977313 19.755414,14.742 L21.629349,14.742 C21.9261042,13.6033456 23.0456395,12.881827 24.2051913,13.0819202 C25.3647431,13.2820133 26.177722,14.3370079 26.0757043,15.5092664 C25.9736867,16.6815249 24.9906848,17.5802215 23.814,17.5770086 L23.814,17.5770086 Z" id="Shape"></path>
                    </g>
                    <path d="M26.649,0 L1.701,0 C0.761563641,0 0,0.761563641 0,1.701 L0,20.412 C0,21.3514364 0.761563641,22.113 1.701,22.113 L9.639,22.113 L9.639,23.814 L6.804,23.814 C5.86456364,23.814 5.103,24.5755636 5.103,25.515 L5.103,26.649 C5.103,26.9621455 5.35685455,27.216 5.67,27.216 L22.68,27.216 C22.9931455,27.216 23.247,26.9621455 23.247,26.649 L23.247,25.515 C23.247,24.5755636 22.4854364,23.814 21.546,23.814 L18.711,23.814 L18.711,22.113 L26.649,22.113 C27.5884364,22.113 28.35,21.3514364 28.35,20.412 L28.35,1.701 C28.35,0.761563641 27.5884364,0 26.649,0 Z M1.701,1.134 L26.649,1.134 C26.9621455,1.134 27.216,1.38785455 27.216,1.701 L27.216,17.01 L1.134,17.01 L1.134,1.701 C1.134,1.38785455 1.38785455,1.134 1.701,1.134 Z M22.113,25.515 L22.113,26.082 L6.237,26.082 L6.237,25.515 C6.237,25.2018545 6.49085455,24.948 6.804,24.948 L21.546,24.948 C21.8591455,24.948 22.113,25.2018545 22.113,25.515 Z M17.577,23.814 L10.773,23.814 L10.773,22.113 L17.577,22.113 L17.577,23.814 Z M26.649,20.979 L23.814,20.979 L23.814,19.845 C23.814,19.5318545 23.5601455,19.278 23.247,19.278 C22.9338545,19.278 22.68,19.5318545 22.68,19.845 L22.68,20.979 L21.546,20.979 L21.546,19.845 C21.546,19.5318545 21.2921455,19.278 20.979,19.278 C20.6658545,19.278 20.412,19.5318545 20.412,19.845 L20.412,20.979 L1.701,20.979 C1.38785455,20.979 1.134,20.7251455 1.134,20.412 L1.134,18.144 L27.216,18.144 L27.216,20.412 C27.216,20.7251455 26.9621455,20.979 26.649,20.979 Z" id="Shape" fill="#151A6A"></path>
                    <path d="M5.289543,4.851819 L6.642972,11.647314 C6.79125831,12.4545807 7.49484899,13.0408268 8.315622,13.041 L11.672262,13.041 L13.774131,15.142869 C13.9955444,15.3642156 14.3544556,15.3642156 14.575869,15.142869 L16.677738,13.041 L20.034378,13.041 C20.8524186,13.0423578 21.5550031,12.4599303 21.705327,11.655819 L23.062158,4.843881 C23.1535596,4.34724044 23.0195707,3.83566278 22.6964512,3.44759077 C22.3733317,3.05951876 21.8944893,2.835 21.389508,2.835 L6.960492,2.835 C6.45551071,2.835 5.97666834,3.05951876 5.65354883,3.44759077 C5.33042932,3.83566278 5.19644038,4.34724044 5.287842,4.843881 L5.289543,4.851819 Z M6.960492,3.969 L21.389508,3.969 C21.5564447,3.969 21.7149015,4.04255108 21.8226398,4.17006695 C21.9303782,4.29758281 21.9764484,4.46609665 21.94857,4.630689 L20.591739,11.443194 C20.5420016,11.7119123 20.3076605,11.9069184 20.034378,11.907 L16.443,11.907 C16.2926345,11.9070321 16.1484394,11.9667905 16.042131,12.073131 L14.175,13.940262 L12.307869,12.073131 C12.2015606,11.9667905 12.0573655,11.9070321 11.907,11.907 L8.315622,11.907 C8.03900631,11.9070119 7.80275482,11.7074201 7.75656,11.434689 L6.402564,4.635225 C6.37321981,4.47013165 6.41845502,4.30051675 6.52611351,4.17196113 C6.633772,4.04340551 6.79281109,3.969 6.960492,3.969 L6.960492,3.969 Z" id="Shape" fill="#151A6A"></path>
                </g>
            </g>
        </g>
    </g>
</svg>