<?xml version="1.0" encoding="UTF-8"?>
<svg width="36px" height="35px" viewBox="0 0 36 35" version="1.1" xmlns="http://www.w3.org/2000/svg" xmlns:xlink="http://www.w3.org/1999/xlink">
    <title>capitol</title>
    <g id="Page-1" stroke="none" stroke-width="1" fill="none" fill-rule="evenodd">
        <g id="Landing--page-rsu-ucam-new" transform="translate(-121.000000, -1096.000000)" fill-rule="nonzero">
            <g id="Group-13" transform="translate(121.000000, 1096.000000)">
                <g id="capitol">
                    <g id="Group" transform="translate(13.552941, 11.858824)" fill="#FF7CB9">
                        <rect id="Rectangle" x="0" y="6.21176471" width="21.4588235" height="2.82352941" rx="0.72"></rect>
                        <rect id="Rectangle" x="0" y="19.2" width="21.4588235" height="2.82352941" rx="0.72"></rect>
                        <polygon id="Path" points="16.3764706 10.1647059 20.3294118 10.1647059 20.3294118 18.0705882 16.3764706 18.0705882"></polygon>
                        <polygon id="Path" points="11.2941176 10.1647059 15.2470588 10.1647059 15.2470588 18.0705882 11.2941176 18.0705882"></polygon>
                        <polygon id="Path" points="6.21176471 10.1647059 10.1647059 10.1647059 10.1647059 18.0705882 6.21176471 18.0705882"></polygon>
                        <polygon id="Path" points="1.12941176 10.1647059 5.08235294 10.1647059 5.08235294 18.0705882 1.12941176 18.0705882"></polygon>
                        <path d="M10.9925647,0.0649411765 C10.8278536,-0.0218091523 10.6309699,-0.0218091523 10.4662588,0.0649411765 L2.0064,5.08235294 L19.4524235,5.08235294 L10.9925647,0.0649411765 Z" id="Path"></path>
                    </g>
                    <path d="M23.7176471,13.5529412 L23.7176471,12.9882353 C23.7176471,12.0526 22.9591648,11.2941176 22.0235294,11.2941176 L17.5058824,11.2941176 L17.5058824,9.03529412 L18.0705882,9.03529412 C18.3824667,9.03529412 18.6352941,8.78246668 18.6352941,8.47058824 C18.6352941,8.15870979 18.3824667,7.90588235 18.0705882,7.90588235 L17.4770824,7.90588235 C17.2051923,5.23559022 15.0938215,3.12421948 12.4235294,2.85232941 L12.4235294,0.564705882 C12.4235294,0.252827435 12.170702,-2.00623831e-15 11.8588235,-2.00623831e-15 C11.5469451,-2.00623831e-15 11.2941176,0.252827435 11.2941176,0.564705882 L11.2941176,2.85232941 C8.62382551,3.12421948 6.51245477,5.23559022 6.24056471,7.90588235 L5.64705882,7.90588235 C5.33518039,7.90588237 5.08235296,8.1587098 5.08235296,8.47058824 C5.08235296,8.78246667 5.33518039,9.0352941 5.64705882,9.03529412 L6.21176471,9.03529412 L6.21176471,11.2941176 L1.69411765,11.2941176 C0.758482306,11.2941176 -2.00623831e-15,12.0526 -2.00623831e-15,12.9882353 L-2.00623831e-15,13.5529412 C-2.00623831e-15,14.4885765 0.758482306,15.2470588 1.69411765,15.2470588 L1.69411765,22.0235294 C0.758482306,22.0235294 -2.00623831e-15,22.7820117 -2.00623831e-15,23.7176471 L-2.00623831e-15,25.4117647 C-2.00623831e-15,25.7236432 0.252827435,25.9764706 0.564705882,25.9764706 L23.1529412,25.9764706 C23.4648196,25.9764706 23.7176471,25.7236432 23.7176471,25.4117647 L23.7176471,23.7176471 C23.7176471,22.7820117 22.9591648,22.0235294 22.0235294,22.0235294 L22.0235294,15.2470588 C22.9591648,15.2470588 23.7176471,14.4885765 23.7176471,13.5529412 L23.7176471,13.5529412 Z M10.7294118,11.2941176 L10.7294118,9.03529412 L12.9882353,9.03529412 L12.9882353,11.2941176 L10.7294118,11.2941176 Z M14.1176471,9.03529412 L16.3764706,9.03529412 L16.3764706,11.2941176 L14.1176471,11.2941176 L14.1176471,9.03529412 Z M11.8588235,3.95294118 C14.1344331,3.95598313 16.053779,5.64852807 16.3414588,7.90588235 L7.37618824,7.90588235 C7.66386803,5.64852807 9.58321399,3.95598313 11.8588235,3.95294118 L11.8588235,3.95294118 Z M7.34117647,9.03529412 L9.6,9.03529412 L9.6,11.2941176 L7.34117647,11.2941176 L7.34117647,9.03529412 Z M1.12941176,13.5529412 L1.12941176,12.9882353 C1.12941176,12.6763568 1.3822392,12.4235294 1.69411765,12.4235294 L22.0235294,12.4235294 C22.3354079,12.4235294 22.5882353,12.6763568 22.5882353,12.9882353 L22.5882353,13.5529412 C22.5882353,13.8648196 22.3354079,14.1176471 22.0235294,14.1176471 L1.69411765,14.1176471 C1.3822392,14.1176471 1.12941176,13.8648196 1.12941176,13.5529412 Z M16.3764706,22.0235294 L16.3764706,15.2470588 L18.6352941,15.2470588 L18.6352941,22.0235294 L16.3764706,22.0235294 Z M14.1176471,22.0235294 L14.1176471,15.2470588 L15.2470588,15.2470588 L15.2470588,22.0235294 L14.1176471,22.0235294 Z M10.7294118,22.0235294 L10.7294118,15.2470588 L12.9882353,15.2470588 L12.9882353,22.0235294 L10.7294118,22.0235294 Z M8.47058824,22.0235294 L8.47058824,15.2470588 L9.6,15.2470588 L9.6,22.0235294 L8.47058824,22.0235294 Z M5.08235294,22.0235294 L5.08235294,15.2470588 L7.34117647,15.2470588 L7.34117647,22.0235294 L5.08235294,22.0235294 Z M2.82352941,15.2470588 L3.95294118,15.2470588 L3.95294118,22.0235294 L2.82352941,22.0235294 L2.82352941,15.2470588 Z M22.5882353,23.7176471 L22.5882353,24.8470588 L1.12941176,24.8470588 L1.12941176,23.7176471 C1.12941176,23.4057686 1.3822392,23.1529412 1.69411765,23.1529412 L22.0235294,23.1529412 C22.3354079,23.1529412 22.5882353,23.4057686 22.5882353,23.7176471 Z M20.8941176,22.0235294 L19.7647059,22.0235294 L19.7647059,15.2470588 L20.8941176,15.2470588 L20.8941176,22.0235294 Z" id="Shape" fill="#151A6A"></path>
                </g>
            </g>
        </g>
    </g>
</svg>