<?xml version="1.0" encoding="UTF-8"?>
<svg width="94px" height="76px" viewBox="0 0 94 76" version="1.1" xmlns="http://www.w3.org/2000/svg" xmlns:xlink="http://www.w3.org/1999/xlink">
    <title>leader</title>
    <g id="SMO" stroke="none" stroke-width="1" fill="none" fill-rule="evenodd">
        <g id="Shortcourse-SMO-v2" transform="translate(-814.000000, -2551.000000)" fill-rule="nonzero">
            <g id="leader" transform="translate(814.000000, 2551.000000)">
                <path d="M78,44 C75.2398967,44.003332 73.0031854,46.3430248 73,49.2302072 L73,50.7697928 C73,53.6583565 75.2385763,56 78,56 C80.7614237,56 83,53.6583565 83,50.7697928 L83,49.227184 C82.9948263,46.3413547 80.7588122,44.0037433 78,44 L78,44 Z M80.4710983,50.7697928 C80.4710983,52.1973777 79.3647499,53.354664 78,53.354664 C76.6352501,53.354664 75.5289017,52.1973777 75.5289017,50.7697928 L75.5289017,49.227184 C75.5289017,47.799599 76.6352501,46.6423128 78,46.6423128 C79.3647499,46.6423128 80.4710983,47.799599 80.4710983,49.227184 L80.4710983,50.7697928 Z" id="Shape" fill="#FF2584"></path>
                <path d="M77.7323289,39.351517 C72.775599,39.3681136 68.0945923,41.6181652 65.0074797,45.4680574 C61.3580001,39.0033096 54.4753846,35 47.0104666,35 C39.5455487,35 32.6629332,39.0033096 29.0134536,45.4680574 C24.7136402,40.0835962 17.4525234,37.9899824 10.9162027,40.2500372 C4.379882,42.5100919 0,48.6287982 0,55.5 C0,62.3712018 4.379882,68.4899081 10.9162027,70.7499628 C17.4525234,73.0100176 24.7136402,70.9164038 29.0134536,65.5319426 C32.6629332,71.9966904 39.5455487,76 47.0104666,76 C54.4753846,76 61.3580001,71.9966904 65.0074797,65.5319426 C69.7285552,71.4325939 77.9340866,73.3051944 84.7767963,70.0435372 C91.6195061,66.78188 95.2784102,59.2539584 93.5920737,51.9067634 C91.9057371,44.5595684 85.3229283,39.3483378 77.7323289,39.351517 L77.7323289,39.351517 Z M7.4622636,65.8817924 C7.58010535,63.1439904 9.84781705,60.9833145 12.608148,60.9787934 L19.9697949,60.9787934 C22.7260347,60.9834588 24.9917869,63.1380823 25.1149451,65.8715884 C20.0286707,70.170023 12.5535768,70.1743439 7.4622636,65.8817924 L7.4622636,65.8817924 Z M27.2660995,63.5990225 C26.1926526,60.5072592 23.2639619,58.4301024 19.9697949,58.4241611 L12.608148,58.4241611 C9.31335729,58.4288673 6.38339462,60.505505 5.30890664,63.5975648 C2.20935935,59.4789878 1.72003281,53.975317 4.0449626,49.3814299 C6.36989239,44.7875429 11.1099272,41.8921328 16.2886043,41.9024773 C20.9196313,41.9198059 25.230848,44.2500274 27.7587359,48.1021348 C25.8958744,52.860681 25.8958744,58.139319 27.7587359,62.8978652 C27.6016209,63.1379011 27.4374087,63.3713772 27.2660995,63.5982937 L27.2660995,63.5990225 Z M35.2121556,69.0829179 L35.2121556,67.3125322 C35.2162015,63.454173 38.3656632,60.327244 42.2522305,60.3228251 L51.7679685,60.3228251 C55.6548226,60.3268424 58.804731,63.4538888 58.8087777,67.3125322 L58.8087777,69.082189 C52.0364545,74.904347 41.9844788,74.904347 35.2121556,69.082189 L35.2121556,69.0829179 Z M61.333631,66.4342635 C60.8734114,61.5294399 56.7300367,57.7773026 51.7679685,57.771837 L42.2522305,57.771837 C37.2907003,57.777643 33.1478504,61.5292773 32.6873023,66.4335346 C26.9619948,59.0541811 27.8744917,48.5532062 34.7882208,42.2562545 C41.7019499,35.9593028 52.3189834,35.9593028 59.2327125,42.2562545 C66.1464416,48.5532062 67.0589384,59.0541811 61.333631,66.4335346 L61.333631,66.4342635 Z M68.9059882,65.8715884 C69.0291463,63.1380823 71.2948985,60.9834588 74.0511384,60.9787934 L81.4127853,60.9787934 C84.1731162,60.9833145 86.4408279,63.1439904 86.5586697,65.8817924 C81.4673565,70.1743439 73.9922625,70.170023 68.9059882,65.8715884 L68.9059882,65.8715884 Z M88.7120266,63.5975648 C87.6368917,60.5076664 84.7086645,58.4325935 81.415722,58.4270765 L74.0511384,58.4270765 C70.7569714,58.4330178 67.8282806,60.5101746 66.7548338,63.6019379 C66.5835245,63.3745356 66.4193124,63.1410594 66.2621974,62.9015095 C68.1250589,58.1429633 68.1250589,52.8643252 66.2621974,48.105779 C69.5591489,43.0520934 75.8139582,40.7562368 81.6295679,42.4651148 C87.4451777,44.1739927 91.4335282,49.4797332 91.4285062,55.5007289 C91.4280793,58.4201662 90.4750137,61.2609124 88.7120266,63.5975648 L88.7120266,63.5975648 Z" id="Shape" fill="#477CA8"></path>
                <path d="M16,44 C13.2400615,44.0037475 11.0035825,46.3431972 11,49.2302072 L11,50.7697928 C11,53.6583565 13.2385763,56 16,56 C18.7614237,56 21,53.6583565 21,50.7697928 L21,49.227184 C20.995223,46.3411823 18.7589768,44.0033282 16,44 L16,44 Z M18.4710983,50.7697928 C18.4710983,52.1973777 17.3647499,53.354664 16,53.354664 C14.6352501,53.354664 13.5289017,52.1973777 13.5289017,50.7697928 L13.5289017,49.227184 C13.5289017,47.799599 14.6352501,46.6423128 16,46.6423128 C17.3647499,46.6423128 18.4710983,47.799599 18.4710983,49.227184 L18.4710983,50.7697928 Z" id="Shape" fill="#FF2584"></path>
                <path d="M47,42 C43.6879168,42.0039563 41.0039206,44.712454 41,48.0547721 L41,49.9452281 C41,53.2891863 43.6862916,56 47,56 C50.3137084,56 53,53.2891863 53,49.9452281 L53,48.0547721 C52.9960794,44.712454 50.3120832,42.0039563 47,42 L47,42 Z M50.509783,49.9452281 C50.509783,51.9013227 48.9383996,53.4870508 47,53.4870508 C45.0616004,53.4870508 43.490217,51.9013227 43.490217,49.9452281 L43.490217,48.0547721 C43.490217,46.0986775 45.0616004,44.5129494 47,44.5129494 C48.9383996,44.5129494 50.509783,46.0986775 50.509783,48.0547721 L50.509783,49.9452281 Z" id="Shape" fill="#FF2584"></path>
                <path d="M29.2820817,16.7423434 C28.9598776,17.1353349 28.9091415,17.6800876 29.1533928,18.1240745 L36.4290452,31.3445176 C36.6514949,31.7482602 37.0809469,32 37.5479848,32 L57.451151,32 C57.9184496,32 58.3482437,31.7484856 58.5708177,31.3445176 L65.8464701,18.1240745 C66.0910198,17.6800921 66.0401121,17.1350973 65.7174022,16.7423327 C65.3946923,16.3495681 64.8634572,16.1860469 64.3705458,16.3277526 L55.1427472,18.9818486 L48.3993001,12.3519697 C47.8947233,11.8826768 47.1051396,11.8826768 46.6005628,12.3519697 L39.8571156,18.9818486 L30.6322253,16.3277526 C30.1383148,16.1852182 29.605682,16.3487746 29.2820817,16.7423434 L29.2820817,16.7423434 Z M39.8658403,21.5916262 C40.3120294,21.7189582 40.7933479,21.5976427 41.1221936,21.2749646 L47.4999314,15.0053509 L53.8762152,21.2749646 C54.205529,21.5973516 54.6868745,21.7186037 55.1332955,21.5916262 L62.1566594,19.5715683 L56.6928313,29.4981589 L38.3063045,29.4981589 L32.8432035,19.5715683 L39.8658403,21.5916262 Z" id="Shape" fill="#FF2584"></path>
                <path d="M47,10 C49.7614237,10 52,7.76142375 52,5 C52,2.23857625 49.7614237,0 47,0 C44.2385763,0 42,2.23857625 42,5 C42.0028712,7.76023359 44.2397664,9.99712881 47,10 L47,10 Z M47,2.60455425 C48.3229682,2.60455425 49.3954458,3.67703184 49.3954458,5 C49.3954458,6.32296816 48.3229682,7.39544575 47,7.39544575 C45.6770318,7.39544575 44.6045542,6.32296816 44.6045542,5 C44.6061934,3.67759083 45.6775914,2.60585996 47,2.60381009 L47,2.60455425 Z" id="Shape" fill="#FF2584"></path>
                <path d="M67.9999269,16 C70.0222086,16 71.8453634,14.7818069 72.6192571,12.9134623 C73.3931508,11.0451176 72.9653782,8.89455992 71.5354092,7.46459084 C70.1054401,6.03462176 67.9548824,5.60684923 66.0865377,6.38074292 C64.2181931,7.15463661 63,8.97779141 63,11.0000731 C63.0028711,13.7602663 65.2397337,15.9971289 67.9999269,16 L67.9999269,16 Z M67.9999269,8.60540648 C68.9688478,8.60540648 69.8423486,9.18911017 70.213069,10.0843052 C70.5837894,10.9795002 70.3787118,12.0098674 69.6934748,12.6948915 C69.0082379,13.3799156 67.977807,13.5846731 67.0827272,13.2136745 C66.1876474,12.842676 65.6042152,11.9689939 65.6045161,11.0000731 C65.606566,9.67809478 66.6779481,8.60704557 67.9999269,8.60540648 L67.9999269,8.60540648 Z" id="Shape" fill="#FF2584"></path>
                <path d="M26,16 C28.7614237,16 31,13.7614237 31,11 C31,8.23857625 28.7614237,6 26,6 C23.2385763,6 21,8.23857625 21,11 C21.0028712,13.7602336 23.2397664,15.9971288 26,16 L26,16 Z M26,8.60529841 C26.9689351,8.60529841 27.8424486,9.18901062 28.2131744,10.0842187 C28.5839002,10.9794268 28.3788196,12.0098091 27.6935727,12.6948432 C27.0083257,13.3798773 25.9778797,13.5846378 25.0827868,13.2136338 C24.187694,12.8426298 23.6042532,11.968935 23.6045541,11 C23.6066041,9.67800239 24.6780018,8.60693752 26,8.60529841 L26,8.60529841 Z" id="Shape" fill="#FF2584"></path>
            </g>
        </g>
    </g>
</svg>