<?xml version="1.0" encoding="UTF-8"?>
<svg width="20px" height="20px" viewBox="0 0 20 20" version="1.1" xmlns="http://www.w3.org/2000/svg" xmlns:xlink="http://www.w3.org/1999/xlink">
    <title>noun_filters_3629719</title>
    <g id="SMO" stroke="none" stroke-width="1" fill="none" fill-rule="evenodd" opacity="0.800000012">
        <g id="Mobile-smo" transform="translate(-335.000000, -269.000000)" fill="#000000" fill-rule="nonzero">
            <g id="noun_filters_3629719" transform="translate(335.000000, 269.000000)">
                <g id="Group">
                    <g id="Shape">
                        <path d="M10,14 C11.3118,14 12.42695,14.841956 12.834535,16.014953 L12.883379,16.006728 L12.883379,16.006728 L13,16 L19,16 C19.552285,16 20,16.447715 20,17 C20,17.512836 19.61396,17.935507 19.116621,17.993272 L19,18 L13,18 C12.943445,18 12.887986,17.995305 12.833993,17.986284 C12.42695,19.158044 11.3118,20 10,20 C8.6882,20 7.57305,19.158044 7.165465,17.985047 L7.116621,17.993272 L7.116621,17.993272 L7,18 L1,18 C0.447715,18 0,17.552285 0,17 C0,16.487164 0.38604,16.064493 0.883379,16.006728 L1,16 L7,16 C7.056555,16 7.112014,16.004695 7.166007,16.013716 C7.57305,14.841956 8.6882,14 10,14 Z M10,16 C9.447715,16 9,16.447715 9,17 C9,17.552285 9.447715,18 10,18 C10.552285,18 11,17.552285 11,17 C11,16.447715 10.552285,16 10,16 Z M3,7 C4.3118,7 5.42695,7.841956 5.834535,9.014953 L5.883379,9.006728 L5.883379,9.006728 L6,9 L19,9 C19.552285,9 20,9.447715 20,10 C20,10.512836 19.61396,10.935507 19.116621,10.993272 L19,11 L6,11 C5.943445,11 5.887986,10.995305 5.833993,10.986284 C5.42695,12.158044 4.3118,13 3,13 C1.343146,13 0,11.656854 0,10 C0,8.343146 1.343146,7 3,7 Z M3,9 C2.447715,9 2,9.447715 2,10 C2,10.552285 2.447715,11 3,11 C3.552285,11 4,10.552285 4,10 C4,9.447715 3.552285,9 3,9 Z M14,0 C15.3118,0 16.42695,0.841956 16.834535,2.014953 L16.883379,2.006728 L16.883379,2.006728 L17,2 L19,2 C19.552285,2 20,2.447715 20,3 C20,3.512836 19.61396,3.935507 19.116621,3.993272 L19,4 L17,4 C16.943445,4 16.887986,3.995305 16.833993,3.986284 C16.42695,5.158044 15.3118,6 14,6 C12.6882,6 11.57305,5.158044 11.165465,3.985047 L11.116621,3.993272 L11.116621,3.993272 L11,4 L1,4 C0.447715,4 0,3.552285 0,3 C0,2.487164 0.38604,2.064493 0.883379,2.006728 L1,2 L11,2 C11.056555,2 11.112014,2.004695 11.166007,2.013716 C11.57305,0.841956 12.6882,0 14,0 Z M14,2 C13.447715,2 13,2.447715 13,3 C13,3.552285 13.447715,4 14,4 C14.552285,4 15,3.552285 15,3 C15,2.447715 14.552285,2 14,2 Z"></path>
                    </g>
                </g>
            </g>
        </g>
    </g>
</svg>