<?xml version="1.0" encoding="UTF-8"?>
<svg width="28px" height="28px" viewBox="0 0 28 28" version="1.1" xmlns="http://www.w3.org/2000/svg" xmlns:xlink="http://www.w3.org/1999/xlink">
    <title>facebook (2)</title>
    <g id="SMO" stroke="none" stroke-width="1" fill="none" fill-rule="evenodd">
        <g id="Shortcourse-SMO-v2" transform="translate(-703.000000, -743.000000)" fill-rule="nonzero">
            <g id="Group-7-Copy" transform="translate(703.000000, 743.000000)">
                <g id="facebook-(2)">
                    <path d="M13.927511,0.342584425 C21.4307024,0.342584425 27.5125309,6.42525236 27.5125309,13.9276043 C27.5125309,21.4307956 21.4307024,27.5125309 13.927511,27.5125309 C6.42431971,27.5125309 0.342584425,21.4307024 0.342584425,13.9276043 C0.342584425,6.42525236 6.42441297,0.342584425 13.927511,0.342584425 Z" id="Path" fill="#1977F2"></path>
                    <path d="M16.0113777,9.03290279 L18.2168199,9.03290279 L18.2168199,6.03829181 L15.6242622,6.03829181 L15.6242622,6.04909098 C12.4829287,6.15135916 11.8391069,7.77447503 11.7823613,9.47923266 L11.7758996,9.47923266 L11.7758996,10.9745943 L9.63683682,10.9745943 L9.63683682,13.907218 L11.7758996,13.907218 L11.7758996,21.7682608 L14.9995906,21.7682608 L14.9995906,13.907218 L17.6403174,13.907218 L18.1504405,10.9745943 L15.000648,10.9745943 L15.000648,10.0711354 C15.000648,9.49499945 15.4177223,9.03290279 16.0113777,9.03290279 Z" id="Path" fill="#FFFFFF"></path>
                </g>
            </g>
        </g>
    </g>
</svg>