<?xml version="1.0" encoding="UTF-8"?>
<svg width="28px" height="28px" viewBox="0 0 28 28" version="1.1" xmlns="http://www.w3.org/2000/svg" xmlns:xlink="http://www.w3.org/1999/xlink">
    <title>linkedin (4)</title>
    <g id="SMO" stroke="none" stroke-width="1" fill="none" fill-rule="evenodd">
        <g id="Shortcourse-SMO-v2" transform="translate(-779.000000, -744.000000)" fill-rule="nonzero">
            <g id="Group-7-Copy" transform="translate(703.000000, 743.000000)">
                <g id="linkedin-(4)" transform="translate(76.606992, 1.021427)">
                    <circle id="Oval" fill="#007AB9" cx="13.448644" cy="13.4484043" r="13.448644"></circle>
                    <path d="M21.4840758,14.5305673 L21.4840758,20.0751543 L18.2694716,20.0751543 L18.2694716,14.9021563 C18.2694716,13.603273 17.805345,12.7162542 16.6414324,12.7162542 C15.7532149,12.7162542 15.2255585,13.3134336 14.9925363,13.891674 C14.9079099,14.0983254 14.886094,14.385288 14.886094,14.6751274 L14.886094,20.0749145 L11.6712501,20.0749145 C11.6712501,20.0749145 11.7144023,11.3135657 11.6712501,10.4066489 L14.8863338,10.4066489 L14.8863338,11.7767334 C14.8798609,11.7875215 14.870751,11.7980698 14.8649974,11.8083784 L14.8863338,11.8083784 L14.8863338,11.7767334 C15.3135412,11.1193805 16.0754185,10.17962 17.7835291,10.17962 C19.8984697,10.17962 21.4840758,11.5614515 21.4840758,14.5305673 L21.4840758,14.5305673 Z M8.30824999,5.74620395 C7.20858636,5.74620395 6.48914216,6.4680455 6.48914216,7.41643645 C6.48914216,8.34468968 7.18772943,9.08738816 8.26605666,9.08738816 L8.28691359,9.08738816 C9.40815336,9.08738816 10.1053022,8.34468968 10.1053022,7.41643645 C10.0839658,6.4680455 9.40815336,5.74620395 8.30824999,5.74620395 L8.30824999,5.74620395 Z M6.68021082,20.0751543 L9.8938561,20.0751543 L9.8938561,10.4066489 L6.68021082,10.4066489 L6.68021082,20.0751543 Z" id="Shape" fill="#F1F2F2"></path>
                </g>
            </g>
        </g>
    </g>
</svg>