<?xml version="1.0" encoding="UTF-8"?>
<svg width="81px" height="87px" viewBox="0 0 81 87" version="1.1" xmlns="http://www.w3.org/2000/svg" xmlns:xlink="http://www.w3.org/1999/xlink">
    <title>social-media</title>
    <g id="SMO" stroke="none" stroke-width="1" fill="none" fill-rule="evenodd">
        <g id="Shortcourse-SMO-v2" transform="translate(-210.000000, -2545.000000)" fill-rule="nonzero">
            <g id="social-media" transform="translate(210.000000, 2545.000000)">
                <path d="M71.5214021,0 L67.810817,0 C66.1797442,0 66.1797442,2.54919371 67.810817,2.54919371 L71.5214021,2.54919371 C75.3533694,2.54919371 78.4710365,5.68062326 78.4710365,9.52956587 L78.4710365,39.0274759 C78.4710365,42.8765885 75.353538,46.008018 71.5214021,46.008018 L67.3129816,46.008018 C67.0353199,46.008018 66.7654132,46.1001289 66.5447337,46.2702451 L58.8224682,52.2248217 L58.8224682,47.2826149 C58.8224682,46.5786975 58.2565239,46.008018 57.5580707,46.008018 L42.1695104,46.008018 C40.9093276,46.008018 39.6982034,45.6727141 38.6300404,45.0352457 L38.6300404,30.7271313 C38.6300404,28.0470789 37.275955,25.6792179 35.2197075,24.278351 L35.2197075,9.52956587 C35.2197075,5.68062326 38.3373745,2.54919371 42.1695104,2.54919371 L59.8872595,2.54919371 C61.5181636,2.54919371 61.5181636,0 59.8872595,0 L42.1695104,0 C36.942997,0 32.6909126,4.27499785 32.6909126,9.52956587 L32.6909126,23.1580653 C32.1119871,23.0187094 31.5087852,22.9427434 30.8880504,22.9427434 L7.74182148,22.9427434 C3.473047,22.9427434 0,26.4347989 0,30.7271313 L0,33.4794107 C0,35.1234707 2.52879496,35.1234707 2.52879496,33.4794107 L2.52879496,30.7271313 C2.52879496,27.8404243 4.86725596,25.4919371 7.74182148,25.4919371 L30.8882189,25.4919371 C33.7627845,25.4919371 36.101414,27.8404243 36.101414,30.7271313 L36.101414,45.5427052 C36.0862413,45.6552096 36.0869156,45.7685638 36.101414,45.8802185 L36.101414,53.9886938 C36.101414,54.1489531 36.0918046,54.3085326 36.0774748,54.4672624 L33.46995,54.4672624 C30.5967332,54.4672624 28.2014586,56.5577712 27.7048033,59.3052922 C27.5898274,59.3489684 27.4794033,59.4099791 27.3770714,59.4895139 L21.721843,63.8912917 L21.721843,60.4984848 C21.721843,59.7945675 21.1558986,59.223888 20.4574455,59.223888 L7.74182148,59.223888 C4.86725596,59.223888 2.52879496,56.8754008 2.52879496,53.9886938 L2.52879496,41.1269919 C2.52879496,39.4829319 0,39.4829319 0,41.1269919 L0,53.9888638 C0,58.2811961 3.473047,61.7732516 7.74182148,61.7732516 L19.1932166,61.7732516 L19.1932166,66.4858611 C19.1932166,67.5082577 20.4247397,68.1215937 21.2304138,67.4948319 L27.6088776,62.5301922 L27.6088776,76.8694068 C27.6088776,80.1196288 30.2383186,82.7636525 33.4701186,82.7636525 L41.2293045,82.7636525 L41.2293045,85.7378818 C41.2293045,86.7599385 42.4608276,87.3739543 43.2663331,86.7468527 L48.3839398,82.7636525 L49.895822,82.7636525 C53.1276219,82.7636525 55.7570629,80.1194589 55.7570629,76.8694068 L55.7570629,74.6064026 C55.7570629,72.9623426 53.228268,72.9623426 53.228268,74.6064026 L53.228268,76.8694068 C53.228268,78.7140034 51.733413,80.2144588 49.895822,80.2144588 L47.9525273,80.2144588 C47.6728426,80.2144588 47.4010815,80.3079292 47.1798962,80.4800848 L43.7579308,83.1433124 L43.7579308,81.4888857 C43.7579308,80.7849684 43.1919865,80.2142889 42.4935334,80.2142889 L33.46995,80.2142889 C31.6325276,80.2142889 30.137504,78.7136635 30.137504,76.8692369 L30.137504,60.3616781 C30.137504,58.5170815 31.632359,57.0166261 33.46995,57.0166261 L49.895822,57.0166261 C51.7332444,57.0166261 53.228268,58.5172515 53.228268,60.3616781 L53.228268,66.618929 C53.228268,68.262989 55.7570629,68.262989 55.7570629,66.618929 L55.7570629,60.361848 C55.7570629,57.1116261 53.1276219,54.4676023 49.895822,54.4676023 L38.6157106,54.4676023 C38.62532,54.3083627 38.630209,47.8706289 38.630209,47.8706289 C39.7450704,48.322516 40.9403475,48.5573817 42.169679,48.5573817 L56.2938418,48.5573817 L56.2938418,54.8046057 C56.2938418,55.8244532 57.5201388,56.438469 58.3264872,55.8169755 L67.7413594,48.5573817 L71.5215707,48.5573817 C76.7479156,48.5573817 81,44.2823838 81,39.0276459 L81,9.52956587 C81,4.27499785 76.747747,0 71.5214021,0 Z" id="Path" fill="#477CA8"></path>
                <path d="M60.6487332,9.14711884 C59.0487019,8.74200299 57.4182595,9.99584572 57.4182595,11.6356401 C57.4182595,13.4272487 56.7599666,15.1538655 55.5655297,16.4965304 L52.0936148,20.3932083 C51.8688072,20.0510846 51.4803506,19.824613 51.0379604,19.824613 L44.2601317,19.824613 C43.564035,19.824613 43,20.3842094 43,21.0744562 L43,36.2000591 C43,36.8903058 43.564035,37.4499023 44.2601317,37.4499023 L51.0379604,37.4499023 C51.5472216,37.4499023 51.9847394,37.1497733 52.1835042,36.7188274 C53.5557036,37.5503897 55.1458219,38 56.763663,38 L68.7419714,38 C70.5723547,38 72.0823286,36.4246976 71.9964716,34.6139247 C71.9583316,33.8120253 72,23.0445424 72,22.8054058 C72,21.0236292 70.5384152,19.5738111 68.7456678,19.5738111 L62.5167525,19.5553134 L62.7746595,18.949556 C63.9533027,16.1810699 63.7592424,12.9708059 62.2561573,10.3616332 C61.9053366,9.75204297 61.3342449,9.32093037 60.6487332,9.14711884 C59.9628855,8.97347395 61.3342449,9.32093037 60.6487332,9.14711884 C59.0488699,8.74200299 61.3342449,9.32093037 60.6487332,9.14711884 L60.6487332,9.14711884 Z M49.7778286,34.9502158 L45.5202635,34.9502158 L45.5202635,22.3242994 L49.7778286,22.3242994 L49.7778286,34.9502158 Z M68.7419714,22.0733309 C69.1489099,22.0733309 69.4799045,22.4016231 69.4799045,22.8052391 C69.4799045,23.0430426 69.4773843,23.6884617 69.4740239,24.5635186 C69.455374,29.3949126 69.4429407,33.970672 69.4788964,34.7312433 C69.4920018,35.0057089 69.3574197,35.1886859 69.2760992,35.273342 C69.1353005,35.419657 68.9456087,35.5001469 68.7419714,35.5001469 L56.763663,35.5001469 C55.3358497,35.5001469 53.9384476,35.0093751 52.8285236,34.1183202 L52.2980921,33.6923736 L52.2980921,23.9384303 L57.4547193,18.1509895 C59.0564307,16.3505487 59.938523,14.0366722 59.938523,11.6354734 C59.938523,11.5648156 60.0358051,11.5464846 60.0680645,11.6014777 C61.1840372,13.5384014 61.3278602,15.9216025 60.4529927,17.9768447 L59.4584968,20.3130517 C59.2943436,20.6985034 59.3356759,21.1396147 59.5680442,21.4885709 C59.8007485,21.8375272 60.1939097,22.0478341 60.6154657,22.0491673 L68.7419714,22.0733309 Z" id="Shape" fill="#FF2584"></path>
                <path d="M10.2316335,43.0020602 C9.55127917,43.0020602 9,43.5534837 9,44.2336493 C9,44.9138149 9.55127917,45.4652385 10.2316335,45.4652385 L13.8621608,45.4652385 L13.1839412,49.5670871 C13.07293,50.2380569 13.5271564,50.8720789 14.1981504,50.9830862 C14.2663008,50.9944168 14.3337943,51 14.4004667,51 C14.9923077,51 15.5143561,50.5720638 15.6142005,49.9689136 L16.358764,45.4654027 L19.3299568,45.4654027 L18.6517373,49.5672513 C18.540726,50.2382211 18.9949525,50.8722432 19.6659464,50.9832504 C19.7340968,50.994581 19.8015903,51 19.8682627,51 C20.4601037,51 20.9821521,50.572228 21.0819965,49.9690778 L21.8265601,45.4655669 L26.7683665,45.4655669 C27.4487208,45.4655669 28,44.9141434 28,44.2339777 C28,43.5538121 27.4487208,43.0023886 26.7683665,43.0023886 L22.2338202,43.0023886 L22.7305791,39.997968 L26.7683665,39.997968 C27.4487208,39.997968 28,39.4465445 28,38.7663789 C28,38.0862132 27.4487208,37.5347897 26.7683665,37.5347897 L23.1378392,37.5347897 L23.8160588,33.4329411 C23.92707,32.7619713 23.4728436,32.1279492 22.8018496,32.016942 C22.1300346,31.9056063 21.4968107,32.3601448 21.3857995,33.0311146 L20.641236,37.5346255 L17.6700432,37.5346255 L18.3482627,33.4327769 C18.459274,32.7618071 18.0050475,32.127785 17.3340536,32.0167778 C16.6614175,31.9054421 16.0291789,32.3599806 15.9180035,33.0309504 L15.1734399,37.5344613 L10.2316335,37.5344613 C9.55127917,37.5344613 9,38.0858848 9,38.7660504 C9,39.4462161 9.55127917,39.9976396 10.2316335,39.9976396 L14.7661798,39.9976396 L14.2694209,43.0020602 L10.2316335,43.0020602 Z M17.2629473,39.9976396 L20.23414,39.9976396 L19.7373812,43.0020602 L16.7661884,43.0020602 L17.2629473,39.9976396 Z" id="Shape" fill="#FF2583"></path>
                <path d="M42.9852994,63.9086437 C42.001578,63.1192762 40.6928191,62.8078672 39.3799993,63.1189596 C37.6976342,63.5171263 36,65.0499493 36,67.5765266 C36,69.1490871 36.5888359,70.5140943 37.8001323,71.7495984 C38.789539,72.7588678 40.2173646,73.7185841 42.4294383,74.8616311 C42.6079571,74.9539298 42.8040192,75 43.0000812,75 C43.1961433,75 43.3922053,74.9539298 43.5707241,74.8616311 C47.429914,72.8676314 50,70.8657158 50,67.5765266 C50,65.0361757 48.2421015,63.5190261 46.499797,63.1423905 C45.1908757,62.8593201 43.921914,63.1598053 42.9852994,63.9086437 L42.9852994,63.9086437 Z M47.5632752,67.5765266 C47.5632752,69.3506243 46.3558773,70.6625954 42.9999188,72.4631321 C39.6439602,70.6624371 38.4363999,69.350466 38.4363999,67.5765266 C38.4363999,66.2564814 39.2206481,65.6004167 39.9547031,65.4265849 C40.0900136,65.3946049 40.2349078,65.3765568 40.383863,65.3765568 C40.935988,65.3765568 41.5430169,65.6251141 41.9172729,66.3323151 C42.1305533,66.7347563 42.5616624,66.9842636 43.024122,66.9749229 C43.4885308,66.9658988 43.907457,66.7002433 44.103844,66.2898862 C44.4980798,65.4663224 45.3271607,65.3214625 45.9717127,65.4609396 C46.7413415,65.6270139 47.5632752,66.2702549 47.5632752,67.5765266 L47.5632752,67.5765266 Z" id="Shape" fill="#FF3089"></path>
            </g>
        </g>
    </g>
</svg>