<?xml version="1.0" encoding="UTF-8"?>
<svg width="15px" height="15px" viewBox="0 0 15 15" version="1.1" xmlns="http://www.w3.org/2000/svg" xmlns:xlink="http://www.w3.org/1999/xlink">
    <title>Slice</title>
    <g id="SMO" stroke="none" stroke-width="1" fill="none" fill-rule="evenodd" opacity="0.839913504">
        <g id="search-(1)" fill="#000000" fill-rule="nonzero">
            <path d="M14.686951,13.8110465 L10.458727,9.58282248 C11.2777421,8.571156 11.7708703,7.28564232 11.7708703,5.8855368 C11.7708703,2.64049104 9.1304664,8.712e-05 5.88542064,8.712e-05 C2.64037488,8.712e-05 0,2.640462 0,5.88550776 C0,9.13055352 2.64040392,11.7709574 5.88544968,11.7709574 C7.2855552,11.7709574 8.57106888,11.2778292 9.58273536,10.4588141 L13.8109594,14.6870381 C13.9317658,14.8078445 14.0903532,14.8685671 14.2489697,14.8685671 C14.4075862,14.8685671 14.5661736,14.8078445 14.68698,14.6870381 C14.9292026,14.4448154 14.9292026,14.0532691 14.686951,13.8110465 Z M5.88544968,10.5319078 C3.32310528,10.5319078 1.23904968,8.44785216 1.23904968,5.88550776 C1.23904968,3.32316336 3.32310528,1.23910776 5.88544968,1.23910776 C8.44779408,1.23910776 10.5318497,3.32316336 10.5318497,5.88550776 C10.5318497,8.44785216 8.44776504,10.5319078 5.88544968,10.5319078 Z" id="Shape"></path>
        </g>
    </g>
</svg>