<?xml version="1.0" encoding="UTF-8"?>
<svg width="28px" height="27px" viewBox="0 0 28 27" version="1.1" xmlns="http://www.w3.org/2000/svg" xmlns:xlink="http://www.w3.org/1999/xlink">
    <title>twitter (3)</title>
    <g id="SMO" stroke="none" stroke-width="1" fill="none" fill-rule="evenodd">
        <g id="Shortcourse-SMO-v2" transform="translate(-741.000000, -743.000000)" fill-rule="nonzero">
            <g id="Group-7-Copy" transform="translate(703.000000, 743.000000)">
                <g id="twitter-(3)" transform="translate(38.814209, 0.000000)">
                    <circle id="Oval" fill="#55ACEE" cx="13.488556" cy="13.4883156" r="13.4883156"></circle>
                    <path d="M21.7506242,9.69365985 C21.1726016,9.94997103 20.5508186,10.1233297 19.8987398,10.200752 C20.5645238,9.80185875 21.075463,9.17069849 21.3166263,8.41739369 C20.6936411,8.78695305 20.0033321,9.05504589 19.2692627,9.19955153 C18.6811415,8.57320011 17.8432011,8.18176053 16.9153355,8.18176053 C15.1351029,8.18176053 13.6912486,9.62561476 13.6912486,11.4058474 C13.6912486,11.6585519 13.7198612,11.9045241 13.7751629,12.1406381 C11.0956772,12.006231 8.71986973,10.7227516 7.12958631,8.77156476 C6.85211624,9.24763993 6.69294363,9.80185875 6.69294363,10.3926248 C6.69294363,11.5109205 7.26255074,12.4981754 8.12718019,13.076198 C7.59892911,13.0596075 7.1014546,12.9146209 6.6669759,12.6724958 C6.66673546,12.686201 6.66673546,12.6999062 6.66673546,12.713371 C6.66673546,14.2755227 7.77853928,15.5784779 9.2531701,15.874462 C8.98291328,15.9485182 8.69750862,15.9877102 8.40392894,15.9877102 C8.19570616,15.9877102 7.99397532,15.9677535 7.79729376,15.9302446 C8.20748782,17.2108387 9.39791618,18.1430323 10.8090703,18.1692405 C9.70544151,19.0341104 8.31544628,19.5493776 6.80450872,19.5493776 C6.54483136,19.5493776 6.28755841,19.5342298 6.03581564,19.5041745 C7.46187716,20.4192968 9.1569933,20.9528376 10.9776202,20.9528376 C16.9078817,20.9528376 20.1509635,16.0401266 20.1509635,11.7792538 C20.1509635,11.639557 20.1478378,11.5003411 20.1415863,11.3623274 C20.7720252,10.907892 21.3185499,10.3402084 21.7506242,9.69365985 L21.7506242,9.69365985 Z" id="Path" fill="#F1F2F2"></path>
                </g>
            </g>
        </g>
    </g>
</svg>