<?xml version="1.0" encoding="UTF-8"?>
<svg width="40px" height="39px" viewBox="0 0 40 39" version="1.1" xmlns="http://www.w3.org/2000/svg" xmlns:xlink="http://www.w3.org/1999/xlink">
    <title>capitol</title>
    <g id="SMO" stroke="none" stroke-width="1" fill="none" fill-rule="evenodd">
        <g id="SMO-Landing-Page--new" transform="translate(-1156.000000, -405.000000)" fill-rule="nonzero">
            <g id="Group-23" transform="translate(133.000000, 385.000000)">
                <g id="Group-9" transform="translate(963.000000, 20.000000)">
                    <g id="capitol" transform="translate(60.000000, 0.000000)">
                        <g id="Group" transform="translate(15.058824, 13.176471)" fill="#FF7CB9">
                            <rect id="Rectangle" x="0" y="6.90196078" width="23.8431373" height="3.1372549" rx="0.8"></rect>
                            <rect id="Rectangle" x="0" y="21.3333333" width="23.8431373" height="3.1372549" rx="0.8"></rect>
                            <polygon id="Path" points="18.1960784 11.2941176 22.5882353 11.2941176 22.5882353 20.0784314 18.1960784 20.0784314"></polygon>
                            <polygon id="Path" points="12.5490196 11.2941176 16.9411765 11.2941176 16.9411765 20.0784314 12.5490196 20.0784314"></polygon>
                            <polygon id="Path" points="6.90196078 11.2941176 11.2941176 11.2941176 11.2941176 20.0784314 6.90196078 20.0784314"></polygon>
                            <polygon id="Path" points="1.25490196 11.2941176 5.64705882 11.2941176 5.64705882 20.0784314 1.25490196 20.0784314"></polygon>
                            <path d="M12.2139608,0.0721568627 C12.0309485,-0.0242323915 11.8121888,-0.0242323915 11.6291765,0.0721568627 L2.22933333,5.64705882 L21.6138039,5.64705882 L12.2139608,0.0721568627 Z" id="Path"></path>
                        </g>
                        <path d="M26.3529412,15.0588235 L26.3529412,14.4313725 C26.3529412,13.3917777 25.5101831,12.5490196 24.4705882,12.5490196 L19.4509804,12.5490196 L19.4509804,10.0392157 L20.0784314,10.0392157 C20.424963,10.0392157 20.7058824,9.75829631 20.7058824,9.41176471 C20.7058824,9.0652331 20.424963,8.78431373 20.0784314,8.78431373 L19.4189804,8.78431373 C19.1168803,5.81732246 16.7709128,3.47135498 13.8039216,3.1692549 L13.8039216,0.62745098 C13.8039216,0.280919373 13.5230022,-2.22915368e-15 13.1764706,-2.22915368e-15 C12.829939,-2.22915368e-15 12.5490196,0.280919373 12.5490196,0.62745098 L12.5490196,3.1692549 C9.58202834,3.47135498 7.23606086,5.81732246 6.93396078,8.78431373 L6.2745098,8.78431373 C5.92797821,8.78431374 5.64705885,9.06523311 5.64705885,9.41176471 C5.64705885,9.7582963 5.92797821,10.0392157 6.2745098,10.0392157 L6.90196078,10.0392157 L6.90196078,12.5490196 L1.88235294,12.5490196 C0.842758118,12.5490196 -2.22915368e-15,13.3917777 -2.22915368e-15,14.4313725 L-2.22915368e-15,15.0588235 C-2.22915368e-15,16.0984184 0.842758118,16.9411765 1.88235294,16.9411765 L1.88235294,24.4705882 C0.842758118,24.4705882 -2.22915368e-15,25.3133464 -2.22915368e-15,26.3529412 L-2.22915368e-15,28.2352941 C-2.22915368e-15,28.5818257 0.280919373,28.8627451 0.62745098,28.8627451 L25.7254902,28.8627451 C26.0720218,28.8627451 26.3529412,28.5818257 26.3529412,28.2352941 L26.3529412,26.3529412 C26.3529412,25.3133464 25.5101831,24.4705882 24.4705882,24.4705882 L24.4705882,16.9411765 C25.5101831,16.9411765 26.3529412,16.0984184 26.3529412,15.0588235 L26.3529412,15.0588235 Z M11.9215686,12.5490196 L11.9215686,10.0392157 L14.4313725,10.0392157 L14.4313725,12.5490196 L11.9215686,12.5490196 Z M15.6862745,10.0392157 L18.1960784,10.0392157 L18.1960784,12.5490196 L15.6862745,12.5490196 L15.6862745,10.0392157 Z M13.1764706,4.39215686 C15.7049256,4.39553682 17.8375322,6.2761423 18.1571765,8.78431373 L8.19576471,8.78431373 C8.51540893,6.2761423 10.6480155,4.39553682 13.1764706,4.39215686 L13.1764706,4.39215686 Z M8.15686275,10.0392157 L10.6666667,10.0392157 L10.6666667,12.5490196 L8.15686275,12.5490196 L8.15686275,10.0392157 Z M1.25490196,15.0588235 L1.25490196,14.4313725 C1.25490196,14.0848409 1.53582133,13.8039216 1.88235294,13.8039216 L24.4705882,13.8039216 C24.8171198,13.8039216 25.0980392,14.0848409 25.0980392,14.4313725 L25.0980392,15.0588235 C25.0980392,15.4053551 24.8171198,15.6862745 24.4705882,15.6862745 L1.88235294,15.6862745 C1.53582133,15.6862745 1.25490196,15.4053551 1.25490196,15.0588235 Z M18.1960784,24.4705882 L18.1960784,16.9411765 L20.7058824,16.9411765 L20.7058824,24.4705882 L18.1960784,24.4705882 Z M15.6862745,24.4705882 L15.6862745,16.9411765 L16.9411765,16.9411765 L16.9411765,24.4705882 L15.6862745,24.4705882 Z M11.9215686,24.4705882 L11.9215686,16.9411765 L14.4313725,16.9411765 L14.4313725,24.4705882 L11.9215686,24.4705882 Z M9.41176471,24.4705882 L9.41176471,16.9411765 L10.6666667,16.9411765 L10.6666667,24.4705882 L9.41176471,24.4705882 Z M5.64705882,24.4705882 L5.64705882,16.9411765 L8.15686275,16.9411765 L8.15686275,24.4705882 L5.64705882,24.4705882 Z M3.1372549,16.9411765 L4.39215686,16.9411765 L4.39215686,24.4705882 L3.1372549,24.4705882 L3.1372549,16.9411765 Z M25.0980392,26.3529412 L25.0980392,27.6078431 L1.25490196,27.6078431 L1.25490196,26.3529412 C1.25490196,26.0064096 1.53582133,25.7254902 1.88235294,25.7254902 L24.4705882,25.7254902 C24.8171198,25.7254902 25.0980392,26.0064096 25.0980392,26.3529412 Z M23.2156863,24.4705882 L21.9607843,24.4705882 L21.9607843,16.9411765 L23.2156863,16.9411765 L23.2156863,24.4705882 Z" id="Shape" fill="#151A6A"></path>
                    </g>
                </g>
            </g>
        </g>
    </g>
</svg>