<?xml version="1.0" encoding="UTF-8"?>
<svg width="40px" height="40px" viewBox="0 0 40 40" version="1.1" xmlns="http://www.w3.org/2000/svg" xmlns:xlink="http://www.w3.org/1999/xlink">
    <title>desktop copy</title>
    <g id="SMO" stroke="none" stroke-width="1" fill="none" fill-rule="evenodd">
        <g id="SMO-Landing-Page--new" transform="translate(-918.000000, -404.000000)" fill-rule="nonzero">
            <g id="Group-23" transform="translate(133.000000, 385.000000)">
                <g id="Group-10" transform="translate(732.000000, 19.000000)">
                    <g id="desktop-copy" transform="translate(53.500000, 0.000000)">
                        <g id="Group" transform="translate(6.300000, 17.640000)" fill="#FF7CB9">
                            <path d="M26.73846,1.12203 C26.4349497,0.439524017 25.757949,-0.000205461128 25.011,-7.19693012e-08 L6.489,-7.19693012e-08 C5.74205096,-0.000205461128 5.06505027,0.439524017 4.76154,1.12203 L0.2205,11.34 L31.2795,11.34 L26.73846,1.12203 Z" id="Path"></path>
                            <polygon id="Path" points="3.78 16.38 13.23 16.38 13.23 17.64 3.78 17.64"></polygon>
                            <circle id="Oval" cx="26.46" cy="17.01" r="1.26"></circle>
                            <circle id="Oval" cx="19.845" cy="17.01" r="1"></circle>
                            <path d="M0,12.6 L0,19.53 C0,20.5738182 0.846181823,21.42 1.89,21.42 L29.61,21.42 C30.6538182,21.42 31.5,20.5738182 31.5,19.53 L31.5,12.6 L0,12.6 Z M14.49,18.27 C14.49,18.6179394 14.2079394,18.9 13.86,18.9 L3.15,18.9 C2.80206061,18.9 2.52,18.6179394 2.52,18.27 L2.52,15.75 C2.52,15.4020606 2.80206061,15.12 3.15,15.12 L13.86,15.12 C14.2079394,15.12 14.49,15.4020606 14.49,15.75 L14.49,18.27 Z M26.46,19.5300096 C25.3144007,19.5257067 24.3158538,18.7492316 24.02946,17.64 L21.95046,17.64 C21.6376528,18.6891874 20.6023966,19.3499595 19.5190408,19.1919001 C18.435685,19.0338406 17.6323758,18.1048254 17.6323758,17.01 C17.6323758,15.9151746 18.435685,14.9861594 19.5190408,14.8280999 C20.6023966,14.6700405 21.6376528,15.3308126 21.95046,16.38 L24.03261,16.38 C24.362338,15.1148284 25.6062662,14.3131411 26.894657,14.5354668 C28.1830479,14.7577925 29.0863577,15.9300088 28.9730048,17.2325182 C28.8596519,18.5350277 27.7674276,19.5335794 26.46,19.5300096 L26.46,19.5300096 Z" id="Shape"></path>
                        </g>
                        <path d="M29.61,0 L1.89,0 C0.846181823,0 0,0.846181823 0,1.89 L0,22.68 C0,23.7238182 0.846181823,24.57 1.89,24.57 L10.71,24.57 L10.71,26.46 L7.56,26.46 C6.51618182,26.46 5.67,27.3061818 5.67,28.35 L5.67,29.61 C5.67,29.9579394 5.95206061,30.24 6.3,30.24 L25.2,30.24 C25.5479394,30.24 25.83,29.9579394 25.83,29.61 L25.83,28.35 C25.83,27.3061818 24.9838182,26.46 23.94,26.46 L20.79,26.46 L20.79,24.57 L29.61,24.57 C30.6538182,24.57 31.5,23.7238182 31.5,22.68 L31.5,1.89 C31.5,0.846181823 30.6538182,0 29.61,0 Z M1.89,1.26 L29.61,1.26 C29.9579394,1.26 30.24,1.54206061 30.24,1.89 L30.24,18.9 L1.26,18.9 L1.26,1.89 C1.26,1.54206061 1.54206061,1.26 1.89,1.26 Z M24.57,28.35 L24.57,28.98 L6.93,28.98 L6.93,28.35 C6.93,28.0020606 7.21206061,27.72 7.56,27.72 L23.94,27.72 C24.2879394,27.72 24.57,28.0020606 24.57,28.35 Z M19.53,26.46 L11.97,26.46 L11.97,24.57 L19.53,24.57 L19.53,26.46 Z M29.61,23.31 L26.46,23.31 L26.46,22.05 C26.46,21.7020606 26.1779394,21.42 25.83,21.42 C25.4820606,21.42 25.2,21.7020606 25.2,22.05 L25.2,23.31 L23.94,23.31 L23.94,22.05 C23.94,21.7020606 23.6579394,21.42 23.31,21.42 C22.9620606,21.42 22.68,21.7020606 22.68,22.05 L22.68,23.31 L1.89,23.31 C1.54206061,23.31 1.26,23.0279394 1.26,22.68 L1.26,20.16 L30.24,20.16 L30.24,22.68 C30.24,23.0279394 29.9579394,23.31 29.61,23.31 Z" id="Shape" fill="#151A6A"></path>
                        <path d="M5.87727,5.39091 L7.38108,12.94146 C7.54584256,13.838423 8.32760999,14.4898075 9.23958,14.49 L12.96918,14.49 L15.30459,16.82541 C15.5506049,17.0713506 15.9493951,17.0713506 16.19541,16.82541 L18.53082,14.49 L22.26042,14.49 C23.169354,14.4915087 23.9500034,13.844367 24.11703,12.95091 L25.62462,5.38209 C25.7261774,4.83026715 25.5773008,4.26184753 25.2182791,3.83065641 C24.8592574,3.39946528 24.3272103,3.15 23.76612,3.15 L7.73388,3.15 C7.17278968,3.15 6.6407426,3.39946528 6.28172092,3.83065641 C5.92269924,4.26184753 5.77382264,4.83026715 5.87538,5.38209 L5.87727,5.39091 Z M7.73388,4.41 L23.76612,4.41 C23.9516052,4.41 24.1276683,4.49172342 24.2473776,4.63340772 C24.3670868,4.77509202 24.418276,4.96232961 24.3873,5.14521 L22.87971,12.71466 C22.8244462,13.0132359 22.5640673,13.2299093 22.26042,13.23 L18.27,13.23 C18.1029273,13.2300357 17.9427104,13.2964339 17.82459,13.41459 L15.75,15.48918 L13.67541,13.41459 C13.5572896,13.2964339 13.3970727,13.2300357 13.23,13.23 L9.23958,13.23 C8.93222924,13.2300132 8.66972758,13.0082446 8.6184,12.70521 L7.11396,5.15025 C7.08135534,4.96681294 7.13161668,4.77835194 7.25123723,4.63551237 C7.37085778,4.49267279 7.54756788,4.41 7.73388,4.41 L7.73388,4.41 Z" id="Shape" fill="#151A6A"></path>
                    </g>
                </g>
            </g>
        </g>
    </g>
</svg>