<?xml version="1.0" encoding="UTF-8"?>
<svg width="39px" height="40px" viewBox="0 0 39 40" version="1.1" xmlns="http://www.w3.org/2000/svg" xmlns:xlink="http://www.w3.org/1999/xlink">
    <title>mortarboard (4)</title>
    <g id="SMO" stroke="none" stroke-width="1" fill="none" fill-rule="evenodd">
        <g id="SMO-Landing-Page--new" transform="translate(-691.000000, -404.000000)" fill-rule="nonzero">
            <g id="Group-23" transform="translate(133.000000, 385.000000)">
                <g id="Group-12" transform="translate(504.000000, 19.000000)">
                    <g id="mortarboard-(4)" transform="translate(54.000000, 0.000000)">
                        <polygon id="Path" fill="#FF7CB9" points="21.0122449 14.0081633 33.7469388 14.0081633 33.7469388 17.8285714 21.0122449 17.8285714"></polygon>
                        <path d="M36.9306122,7.64081633 L15.2816327,7.64081633 C13.5242111,7.64292145 12.1000643,9.0670682 12.0979592,10.8244898 L12.0979592,36.2938776 C12.1000643,38.0512991 13.5242111,39.4754459 15.2816327,39.477551 L36.9306122,39.477551 C37.9855888,39.477551 38.8408163,38.6223235 38.8408163,37.5673469 L38.8408163,9.55102041 C38.8408163,8.49604382 37.9855888,7.64081633 36.9306122,7.64081633 L36.9306122,7.64081633 Z M19.7387755,13.3714286 C19.7387755,13.0197697 20.0238513,12.7346939 20.3755102,12.7346939 L34.3836735,12.7346939 C34.7353323,12.7346939 35.0204082,13.0197697 35.0204082,13.3714286 L35.0204082,18.4653061 C35.0204082,18.816965 34.7353323,19.1020408 34.3836735,19.1020408 L20.3755102,19.1020408 C20.0238513,19.1020408 19.7387755,18.816965 19.7387755,18.4653061 L19.7387755,13.3714286 Z M15.9183673,10.8244898 C15.9183673,10.4728309 16.2034432,10.1877551 16.555102,10.1877551 C16.9067609,10.1877551 17.1918367,10.4728309 17.1918367,10.8244898 L17.1918367,31.2 C17.1918367,31.5516589 16.9067609,31.8367347 16.555102,31.8367347 C16.2034432,31.8367347 15.9183673,31.5516589 15.9183673,31.2 L15.9183673,10.8244898 Z M37.5673469,35.6571429 L15.2816327,35.6571429 C14.9299738,35.6571429 14.644898,35.9422187 14.644898,36.2938776 C14.644898,36.6455364 14.9299738,36.9306122 15.2816327,36.9306122 L37.5673469,36.9306122 L37.5673469,37.5673469 C37.5673469,37.9190058 37.2822711,38.2040816 36.9306122,38.2040816 L15.2816327,38.2040816 C14.2266561,38.2040816 13.3714286,37.3488541 13.3714286,36.2938776 C13.3714286,35.238901 14.2266561,34.3836735 15.2816327,34.3836735 L37.5673469,34.3836735 L37.5673469,35.6571429 Z" id="Shape" fill="#FF7CB9"></path>
                        <path d="M26.4334041,7.73186939 L13.6987102,0.0910530612 C13.4970662,-0.0299346987 13.2451542,-0.0299346987 13.0435102,0.0910530612 L0.308816327,7.73186939 C0.117024133,7.84694112 -0.000328577538,8.05420502 -0.000328577538,8.27786939 C-0.000328577538,8.50153375 0.117024133,8.70879766 0.308816327,8.82386939 L3.18367347,10.5481469 L3.18367347,16.555102 C3.18375662,16.7169305 3.24545475,16.8726556 3.35622857,16.9906286 C4.24420787,17.9400873 5.25719811,18.7643602 6.36734694,19.4407837 L6.36734694,22.922449 C6.36734694,23.2741078 6.65242277,23.5591837 7.00408163,23.5591837 C7.35574049,23.5591837 7.64081633,23.2741078 7.64081633,22.922449 L7.64081633,20.1265469 C9.43238729,20.9737546 11.3896398,21.4128315 13.3714286,21.4121143 C17.1810607,21.4019368 20.8127709,19.7987203 23.3872653,16.9906286 C23.4978071,16.8725573 23.5592731,16.7168435 23.5591837,16.555102 L23.5591837,10.5481469 L26.4340408,8.82386939 C26.625766,8.70868587 26.7428676,8.50135352 26.7428676,8.27768913 C26.7428676,8.05402474 26.6252634,7.84682924 26.4334041,7.73186939 L26.4334041,7.73186939 Z M4.45714286,16.3004082 L4.45714286,11.3122286 L6.36734694,12.458351 L6.36734694,17.9234449 C5.68030507,17.4445941 5.04065578,16.9011055 4.45714286,16.3004082 L4.45714286,16.3004082 Z M22.2857143,16.3004082 C19.9625136,18.7426877 16.7421696,20.1295059 13.3714286,20.1392816 C11.3714976,20.1380371 9.40289269,19.6423861 7.64081633,18.6964408 L7.64081633,13.2205224 L13.0441469,16.4627755 C13.2457909,16.5837633 13.4977029,16.5837633 13.6993469,16.4627755 L22.2857143,11.3122286 L22.2857143,16.3004082 Z M13.3714286,15.1765714 L8.24125714,12.0979592 L13.6987102,8.82386939 C14.0002577,8.6429409 14.0980387,8.25181687 13.9171102,7.9502694 C13.7361817,7.64872194 13.3450577,7.55094092 13.0435102,7.73186939 L7.00408163,11.3555265 L1.8739102,8.27755102 L13.3714286,1.37916735 L24.8683102,8.27755102 L13.3714286,15.1765714 Z" id="Shape" fill="#151A6A"></path>
                    </g>
                </g>
            </g>
        </g>
    </g>
</svg>