<?xml version="1.0" encoding="UTF-8"?>
<svg width="39px" height="37px" viewBox="0 0 39 37" version="1.1" xmlns="http://www.w3.org/2000/svg" xmlns:xlink="http://www.w3.org/1999/xlink">
    <title>calendar (1)</title>
    <g id="SMO" stroke="none" stroke-width="1" fill="none" fill-rule="evenodd">
        <g id="SMO-Landing-Page--new" transform="translate(-457.000000, -407.000000)" fill-rule="nonzero">
            <g id="Group-23" transform="translate(133.000000, 385.000000)">
                <g id="Group-16" transform="translate(303.000000, 22.000000)">
                    <g id="calendar-(1)" transform="translate(21.600000, 0.000000)">
                        <polygon id="Path" fill="#FF7CB9" points="17.6148 22.3776 20.6388 22.3776 20.6388 25.4016 17.6148 25.4016"></polygon>
                        <polygon id="Path" fill="#FF7CB9" points="17.6148 29.0304 20.6388 29.0304 20.6388 32.0544 17.6148 32.0544"></polygon>
                        <polygon id="Path" fill="#FF7CB9" points="10.962 29.0304 13.986 29.0304 13.986 32.0544 10.962 32.0544"></polygon>
                        <polygon id="Path" fill="#FF7CB9" points="37.1081088 32.1529824 33.3450432 31.2149376 32.1439104 36.03096"></polygon>
                        <polygon id="Path" fill="#FF7CB9" points="10.962 22.3776 13.986 22.3776 13.986 25.4016 10.962 25.4016"></polygon>
                        <path d="M32.317488,30.3355584 C32.3562115,30.179879 32.4551996,30.0459623 32.5926712,29.9632752 C32.7301427,29.8805881 32.8948337,29.8559058 33.0505056,29.8946592 L37.5732,31.0220064 L37.5732,13.3056 C37.5732,12.3035345 36.7608655,11.4912 35.7588,11.4912 L32.7348,11.4912 L32.7348,14.0216832 C33.5679402,14.3162428 34.0677018,15.1681821 33.91827,16.0391346 C33.7688382,16.910087 33.0136787,17.5467159 32.13,17.5467159 C31.2463213,17.5467159 30.4911618,16.910087 30.34173,16.0391346 C30.1922982,15.1681821 30.6920598,14.3162428 31.5252,14.0216832 L31.5252,11.4912 L23.058,11.4912 L23.058,14.0216832 C23.8911402,14.3162428 24.3909018,15.1681821 24.24147,16.0391346 C24.0920382,16.910087 23.3368787,17.5467159 22.4532,17.5467159 C21.5695213,17.5467159 20.8143618,16.910087 20.66493,16.0391346 C20.5154982,15.1681821 21.0152598,14.3162428 21.8484,14.0216832 L21.8484,11.4912 L13.3812,11.4912 L13.3812,14.0216832 C14.2143402,14.3162428 14.7141018,15.1681821 14.56467,16.0391346 C14.4152382,16.910087 13.6600787,17.5467159 12.7764,17.5467159 C11.8927213,17.5467159 11.1375618,16.910087 10.98813,16.0391346 C10.8386982,15.1681821 11.3384598,14.3162428 12.1716,14.0216832 L12.1716,11.4912 L9.1476,11.4912 C8.14553455,11.4912 7.3332,12.3035345 7.3332,13.3056 L7.3332,34.4736 C7.3332,35.4756655 8.14553455,36.288 9.1476,36.288 L30.8333088,36.288 L32.317488,30.3355584 Z M10.3572,18.7488 L34.5492,18.7488 C34.8832218,18.7488 35.154,19.0195782 35.154,19.3536 C35.154,19.6876218 34.8832218,19.9584 34.5492,19.9584 L10.3572,19.9584 C10.0231782,19.9584 9.7524,19.6876218 9.7524,19.3536 C9.7524,19.0195782 10.0231782,18.7488 10.3572,18.7488 Z M15.1956,32.6592 C15.1956,32.9932218 14.9248218,33.264 14.5908,33.264 L10.3572,33.264 C10.0231782,33.264 9.7524,32.9932218 9.7524,32.6592 L9.7524,28.4256 C9.7524,28.0915782 10.0231782,27.8208 10.3572,27.8208 L14.5908,27.8208 C14.9248218,27.8208 15.1956,28.0915782 15.1956,28.4256 L15.1956,32.6592 Z M15.1956,26.0064 C15.1956,26.3404218 14.9248218,26.6112 14.5908,26.6112 L10.3572,26.6112 C10.0231782,26.6112 9.7524,26.3404218 9.7524,26.0064 L9.7524,21.7728 C9.7524,21.4387782 10.0231782,21.168 10.3572,21.168 L14.5908,21.168 C14.9248218,21.168 15.1956,21.4387782 15.1956,21.7728 L15.1956,26.0064 Z M21.8484,32.6592 C21.8484,32.9932218 21.5776218,33.264 21.2436,33.264 L17.01,33.264 C16.6759782,33.264 16.4052,32.9932218 16.4052,32.6592 L16.4052,28.4256 C16.4052,28.0915782 16.6759782,27.8208 17.01,27.8208 L21.2436,27.8208 C21.5776218,27.8208 21.8484,28.0915782 21.8484,28.4256 L21.8484,32.6592 Z M21.8484,26.0064 C21.8484,26.3404218 21.5776218,26.6112 21.2436,26.6112 L17.01,26.6112 C16.6759782,26.6112 16.4052,26.3404218 16.4052,26.0064 L16.4052,21.7728 C16.4052,21.4387782 16.6759782,21.168 17.01,21.168 L21.2436,21.168 C21.5776218,21.168 21.8484,21.4387782 21.8484,21.7728 L21.8484,26.0064 Z M28.5012,32.6592 C28.5012,32.9932218 28.2304218,33.264 27.8964,33.264 L23.6628,33.264 C23.3287782,33.264 23.058,32.9932218 23.058,32.6592 L23.058,28.4256 C23.058,28.0915782 23.3287782,27.8208 23.6628,27.8208 L27.8964,27.8208 C28.2304218,27.8208 28.5012,28.0915782 28.5012,28.4256 L28.5012,32.6592 Z M28.5012,26.0064 C28.5012,26.3404218 28.2304218,26.6112 27.8964,26.6112 L23.6628,26.6112 C23.3287782,26.6112 23.058,26.3404218 23.058,26.0064 L23.058,21.7728 C23.058,21.4387782 23.3287782,21.168 23.6628,21.168 L27.8964,21.168 C28.2304218,21.168 28.5012,21.4387782 28.5012,21.7728 L28.5012,26.0064 Z M29.7108,26.0064 L29.7108,21.7728 C29.7108,21.4387782 29.9815782,21.168 30.3156,21.168 L34.5492,21.168 C34.8832218,21.168 35.154,21.4387782 35.154,21.7728 L35.154,26.0064 C35.154,26.3404218 34.8832218,26.6112 34.5492,26.6112 L30.3156,26.6112 C29.9815782,26.6112 29.7108,26.3404218 29.7108,26.0064 Z" id="Shape" fill="#FF7CB9"></path>
                        <polygon id="Path" fill="#FF7CB9" points="30.9204 22.3776 33.9444 22.3776 33.9444 25.4016 30.9204 25.4016"></polygon>
                        <polygon id="Path" fill="#FF7CB9" points="24.2676 22.3776 27.2916 22.3776 27.2916 25.4016 24.2676 25.4016"></polygon>
                        <polygon id="Path" fill="#FF7CB9" points="24.2676 29.0304 27.2916 29.0304 27.2916 32.0544 24.2676 32.0544"></polygon>
                        <g id="Group" fill="#151A6A">
                            <path d="M23.8152096,4.0690944 C19.9534527,0.219472278 14.2019999,-1.02575825 9.0937728,0.8817984 C8.88683902,0.954075314 8.7352077,1.13265883 8.69744381,1.34857416 C8.65967991,1.56448949 8.74169486,1.78393806 8.91181181,1.92216168 C9.08192875,2.06038529 9.31351822,2.09574694 9.5171328,2.0145888 C15.5951459,-0.264654448 22.4136735,2.40610244 25.326739,8.20707155 C28.2398044,14.0080407 26.3097727,21.0720507 20.8517198,24.5858594 C15.3936669,28.0996681 8.16438888,26.9322778 4.08973757,21.8791194 C0.0150862675,16.825961 0.406579055,9.51350628 4.9974624,4.9242816 L5.6766528,4.245696 L5.6766528,6.2070624 C5.6766528,6.54108422 5.94743098,6.8118624 6.2814528,6.8118624 C6.61547462,6.8118624 6.8862528,6.54108422 6.8862528,6.2070624 L6.8862528,2.78208 C6.8862528,2.44805818 6.61547462,2.17728 6.2814528,2.17728 L2.85768,2.17728 C2.52365818,2.17728 2.25288,2.44805818 2.25288,2.78208 C2.25288,3.11610182 2.52365818,3.38688 2.85768,3.38688 L4.8214656,3.38688 L4.14288,4.0690944 C-1.28944747,9.50145128 -1.28943157,18.3090157 4.14291551,23.741353 C9.57526259,29.1736903 18.382827,29.1736903 23.8151741,23.741353 C29.2475212,18.3090157 29.2475371,9.50145128 23.8152096,4.0690944 L23.8152096,4.0690944 Z" id="Path"></path>
                            <path d="M13.9793472,4.8329568 C14.313369,4.8329568 14.5841472,4.56217862 14.5841472,4.2281568 L14.5841472,3.0185568 C14.5841472,2.68453498 14.313369,2.4137568 13.9793472,2.4137568 C13.6453254,2.4137568 13.3745472,2.68453498 13.3745472,3.0185568 L13.3745472,4.2281568 C13.3745472,4.56217862 13.6453254,4.8329568 13.9793472,4.8329568 Z" id="Path"></path>
                            <path d="M8.6171904,5.8266432 C8.72445868,6.01531103 8.92459404,6.13203891 9.14162355,6.13251749 C9.35865306,6.13299314 9.55929971,6.01714635 9.66739648,5.82895197 C9.77549326,5.6407576 9.77446575,5.40907139 9.664704,5.2218432 L9.059904,4.1743296 C8.95263572,3.98566177 8.75250036,3.86893389 8.53547085,3.86845531 C8.31844134,3.86797966 8.11779469,3.98382645 8.00969792,4.17202083 C7.90160114,4.3602152 7.90262865,4.59190141 8.0123904,4.7791296 L8.6171904,5.8266432 Z" id="Path"></path>
                            <path d="M5.9010336,8.5428 L4.85352,7.938 C4.56451029,7.77368171 4.19705771,7.8734427 4.03082596,8.16135609 C3.86459422,8.44926947 3.96191561,8.81737571 4.24872,8.9855136 L5.2962336,9.5903136 C5.48346179,9.70007535 5.715148,9.70110286 5.90334237,9.59300608 C6.09153675,9.48490931 6.20738354,9.28426266 6.20690789,9.06723315 C6.20642931,8.85020364 6.08970143,8.65006828 5.9010336,8.5428 Z" id="Path"></path>
                            <path d="M4.9073472,13.9049568 C4.9073472,13.570935 4.63656902,13.3001568 4.3025472,13.3001568 L3.0929472,13.3001568 C2.75892538,13.3001568 2.4881472,13.570935 2.4881472,13.9049568 C2.4881472,14.2389786 2.75892538,14.5097568 3.0929472,14.5097568 L4.3025472,14.5097568 C4.63656902,14.5097568 4.9073472,14.2389786 4.9073472,13.9049568 Z" id="Path"></path>
                            <path d="M4.85352,19.8719136 L5.9010336,19.2671136 C6.08970143,19.1598453 6.20642931,18.95971 6.20690789,18.7426805 C6.20738354,18.5256509 6.09153675,18.3250043 5.90334237,18.2169075 C5.715148,18.1088107 5.48346179,18.1098382 5.2962336,18.2196 L4.24872,18.8244 C4.06005217,18.9316683 3.94332429,19.1318036 3.94284571,19.3488331 C3.94237006,19.5658627 4.05821685,19.7665093 4.24641123,19.8746061 C4.4346056,19.9827029 4.66629181,19.9816754 4.85352,19.8719136 L4.85352,19.8719136 Z" id="Path"></path>
                            <path d="M8.2337472,23.856336 C8.52301113,24.023339 8.89288825,23.9242358 9.059904,23.6349792 L9.664704,22.5874656 C9.82902229,22.2984559 9.7292613,21.9310033 9.44134791,21.7647716 C9.15343453,21.5985398 8.78532829,21.6958612 8.6171904,21.9826656 L8.0123904,23.0301792 C7.84538738,23.3194431 7.94449062,23.6893202 8.2337472,23.856336 L8.2337472,23.856336 Z" id="Path"></path>
                            <path d="M13.3745472,24.7913568 C13.3745472,25.1253786 13.6453254,25.3961568 13.9793472,25.3961568 C14.313369,25.3961568 14.5841472,25.1253786 14.5841472,24.7913568 L14.5841472,23.5817568 C14.5841472,23.247735 14.313369,22.9769568 13.9793472,22.9769568 C13.6453254,22.9769568 13.3745472,23.247735 13.3745472,23.5817568 L13.3745472,24.7913568 Z" id="Path"></path>
                            <path d="M19.341504,21.9826656 C19.1733661,21.6958612 18.8052599,21.5985398 18.5173465,21.7647716 C18.2294331,21.9310033 18.1296721,22.2984559 18.2939904,22.5874656 L18.8987904,23.6349792 C19.0669283,23.9217836 19.4350345,24.019105 19.7229479,23.8528732 C20.0108613,23.6866415 20.1106223,23.3191889 19.946304,23.0301792 L19.341504,21.9826656 Z" id="Path"></path>
                            <path d="M22.057056,19.2671136 L23.1051744,19.8719136 C23.2924026,19.9816754 23.5240888,19.9827029 23.7122832,19.8746061 C23.9004775,19.7665093 24.0163243,19.5658627 24.0158487,19.3488331 C24.0153701,19.1318036 23.8986422,18.9316683 23.7099744,18.8244 L22.661856,18.2196 C22.3728463,18.0552817 22.0053937,18.1550427 21.839162,18.4429561 C21.6729302,18.7308695 21.7702516,19.0989757 22.057056,19.2671136 Z" id="Path"></path>
                            <path d="M23.0513472,13.9049568 C23.0513472,14.2389786 23.3221254,14.5097568 23.6561472,14.5097568 L24.8657472,14.5097568 C25.199769,14.5097568 25.4705472,14.2389786 25.4705472,13.9049568 C25.4705472,13.570935 25.199769,13.3001568 24.8657472,13.3001568 L23.6561472,13.3001568 C23.3221254,13.3001568 23.0513472,13.570935 23.0513472,13.9049568 Z" id="Path"></path>
                            <path d="M23.1051744,7.938 L22.057056,8.5428 C21.8683882,8.65006828 21.7516603,8.85020364 21.7511817,9.06723315 C21.7507061,9.28426266 21.8665529,9.48490931 22.0547472,9.59300608 C22.2429416,9.70110286 22.4746278,9.70007535 22.661856,9.5903136 L23.7099744,8.9855136 C23.9967788,8.81737571 24.0941002,8.44926947 23.9278684,8.16135609 C23.7616367,7.8734427 23.3941841,7.77368171 23.1051744,7.938 L23.1051744,7.938 Z" id="Path"></path>
                            <path d="M19.7249472,3.9529728 C19.4356833,3.78596978 19.0658062,3.88507302 18.8987904,4.1743296 L18.2939904,5.2218432 C18.1842286,5.40907139 18.1832011,5.6407576 18.2912979,5.82895197 C18.3993947,6.01714635 18.6000413,6.13299314 18.8170709,6.13251749 C19.0341004,6.13203891 19.2342357,6.01531103 19.341504,5.8266432 L19.946304,4.7791296 C20.113307,4.48986567 20.0142038,4.11998855 19.7249472,3.9529728 Z" id="Path"></path>
                            <path d="M13.3745472,13.9049568 C13.3745472,14.1210283 13.4898291,14.3206841 13.6769539,14.4287174 C13.8640786,14.5367508 14.0946238,14.5367493 14.2817472,14.4287136 L19.5193152,11.4047136 C19.8061196,11.2365757 19.903441,10.8684695 19.7372092,10.5805561 C19.5709775,10.2926427 19.2035249,10.1928817 18.9145152,10.3572 L14.5841472,12.8574432 L14.5841472,7.2521568 C14.5841472,6.91813498 14.313369,6.6473568 13.9793472,6.6473568 C13.6453254,6.6473568 13.3745472,6.91813498 13.3745472,7.2521568 L13.3745472,13.9049568 Z" id="Path"></path>
                        </g>
                    </g>
                </g>
            </g>
        </g>
    </g>
</svg>