<?xml version="1.0" encoding="UTF-8"?>
<svg width="38px" height="35px" viewBox="0 0 38 35" version="1.1" xmlns="http://www.w3.org/2000/svg" xmlns:xlink="http://www.w3.org/1999/xlink">
    <title>rich</title>
    <g id="SMO" stroke="none" stroke-width="1" fill="none" fill-rule="evenodd">
        <g id="SMO-Landing-Page--new" transform="translate(-232.000000, -408.000000)" fill-rule="nonzero">
            <g id="Group-23" transform="translate(133.000000, 385.000000)">
                <g id="Group-18" transform="translate(39.000000, 23.000000)">
                    <g id="rich" transform="translate(60.000000, 0.000000)">
                        <g id="Group" transform="translate(7.153920, 4.247640)" fill="#FF7CB9">
                            <ellipse id="Oval" cx="10.1168352" cy="4.77285696" rx="10.1168352" ry="4.77285696"></ellipse>
                            <path d="M10.1168352,10.7392262 C5.54249952,10.7392262 1.85048064,9.51352128 0.03457728,7.59865536 L0.05246208,9.05924736 C0.05246208,11.7002362 5.26468896,13.1256547 10.1692973,13.1256547 C15.0739056,13.1256547 20.2861325,11.7002362 20.2861325,9.05149728 L20.26944,7.5205584 C18.48096,9.478944 14.7525754,10.7392262 10.1168352,10.7392262 L10.1168352,10.7392262 Z" id="Path"></path>
                            <path d="M9.851544,14.3155901 C10.9633824,16.3854576 14.859288,17.8758576 19.6387027,17.8758576 C25.3117613,17.8758576 29.7555379,15.7791629 29.7555379,13.1030006 C29.7555379,10.7225338 26.2381939,8.80468704 21.4689139,8.4088368 L21.476664,9.03718944 C21.476664,13.216271 14.1021648,14.367456 9.851544,14.3155901 Z" id="Path"></path>
                            <path d="M29.7889229,15.8507021 C28.0004429,17.8096838 24.2738467,19.0699661 19.6387027,19.0699661 C15.064367,19.0699661 11.371752,17.8442611 9.55584864,15.9293952 L9.5743296,17.3995258 C9.5743296,20.0351491 14.7865565,21.4563946 19.6911648,21.4563946 C24.5957731,21.4563946 29.808,20.0339568 29.808,17.3911795 L29.7889229,15.8507021 Z" id="Path"></path>
                            <path d="M10.1168352,26.23104 C14.9135386,26.23104 18.8207712,24.7305053 19.9159171,22.6493107 C15.7308739,22.683888 8.38379808,21.5404531 8.38379808,17.4031027 L8.376048,16.752096 C3.56265216,17.1348307 -4.23597157e-15,19.0604275 -4.23597157e-15,21.4552022 C-4.23597157e-15,24.1319606 4.4443728,26.23104 10.1168352,26.23104 L10.1168352,26.23104 Z" id="Path"></path>
                            <path d="M10.1168352,27.42336 C5.54249952,27.42336 1.84988448,26.197655 0.03398112,24.2827891 L0.05246208,25.7529197 C0.05246208,28.3879469 5.26468896,29.8097885 10.1692973,29.8097885 C15.0739056,29.8097885 20.2861325,28.3879469 20.2861325,25.7451696 L20.26944,24.204096 C18.48096,26.1618854 14.7519792,27.42336 10.1168352,27.42336 Z" id="Path"></path>
                        </g>
                        <path d="M14.367456,19.4062003 C18.6953731,17.4178685 21.0548447,12.684208 20.0371767,8.03139362 C19.0195087,3.3785792 14.8993154,0.0621571874 10.1365085,0.0621571874 C5.37370152,0.0621571874 1.2535083,3.3785792 0.2358403,8.03139362 C-0.781827697,12.684208 1.57764382,17.4178685 5.90556096,19.4062003 C2.91701088,19.7680694 -2.11798579e-15,20.5687123 -2.11798579e-15,22.13244 L-2.11798579e-15,25.377935 C-2.11798579e-15,27.5217264 6.37056576,28.09404 10.13472,28.09404 C13.8988742,28.09404 20.26944,27.5217264 20.26944,25.377935 L20.26944,22.13244 C20.26944,20.5687123 17.3524291,19.7680694 14.367456,19.4062003 Z M1.19232,10.20924 C1.19232,5.27048885 5.19596885,1.26684 10.13472,1.26684 C15.0734711,1.26684 19.07712,5.27048885 19.07712,10.20924 C19.07712,15.1479911 15.0734711,19.15164 10.13472,19.15164 C5.19828414,19.1460549 1.19790514,15.1456759 1.19232,10.20924 Z M10.13472,20.34396 C15.9431069,20.34396 19.07712,21.6131846 19.07712,22.13244 C19.07712,22.6516954 15.9431069,23.92092 10.13472,23.92092 C4.32633312,23.92092 1.19232,22.6516954 1.19232,22.13244 C1.19232,21.6131846 4.32633312,20.34396 10.13472,20.34396 Z M10.13472,26.90172 C4.61189376,26.90172 1.4218416,25.9049405 1.19232,25.377935 L1.19232,23.649071 C3.26159136,24.7728326 7.5473856,25.11324 10.13472,25.11324 C12.7220544,25.11324 17.0108294,24.7728326 19.07712,23.6460902 L19.07712,25.3469347 C18.8475984,25.9049405 15.6575462,26.90172 10.13472,26.90172 L10.13472,26.90172 Z" id="Shape" fill="#151A6A"></path>
                        <path d="M10.73088,9.434232 L10.73088,6.20662176 C10.9938862,6.28040156 11.2400789,6.40451022 11.4558106,6.57206784 C11.7001803,6.78083414 12.0660535,6.75830487 12.2829639,6.52113446 C12.4998743,6.28396405 12.4897302,5.91753829 12.2600304,5.69273184 C11.8204552,5.32685888 11.2936484,5.08101572 10.73088,4.97912832 L10.73088,4.24764 C10.73088,3.91838992 10.4639701,3.65148 10.13472,3.65148 C9.80546992,3.65148 9.53856,3.91838992 9.53856,4.24764 L9.53856,4.9660128 C8.37541392,5.09284011 7.43690518,5.97468325 7.23797856,7.12768896 C7.04639807,7.96030596 7.33441111,8.83032143 7.98496704,9.38415456 C8.46270509,9.73773213 8.98509631,10.0265908 9.53856,10.2432211 L9.53856,14.203512 C8.92634176,14.2112241 8.3289782,14.0148996 7.84069632,13.6455062 C7.66242582,13.5288956 7.43548606,13.5162491 7.24536304,13.6123306 C7.05524002,13.7084121 6.93081796,13.8986244 6.91896544,14.1113165 C6.90711292,14.3240086 7.00963062,14.5268674 7.18790112,14.6434781 C7.87048269,15.1398853 8.69459521,15.4036515 9.53856,15.395832 L9.53856,16.17084 C9.53856,16.5000901 9.80546992,16.767 10.13472,16.767 C10.4639701,16.767 10.73088,16.5000901 10.73088,16.17084 L10.73088,15.2974656 C11.9485496,14.9908568 12.8684654,13.991335 13.0731926,12.7524586 C13.3682918,10.9943827 12.381647,10.048873 10.73088,9.434232 Z M8.72062848,8.44579872 C8.42292885,8.16503757 8.30340616,7.74350253 8.40943296,7.34826816 C8.5000765,6.7599676 8.95314955,6.29349851 9.53856,6.18575616 L9.53856,8.93524608 C9.24944651,8.80134523 8.97528227,8.63728631 8.72062848,8.44579872 L8.72062848,8.44579872 Z M11.896969,12.5545334 C11.7860005,13.2184186 11.3474251,13.7814363 10.73088,14.0514912 L10.73088,10.7022643 C11.552436,10.9084099 12.0662656,11.7246004 11.896969,12.5545334 Z" id="Shape" fill="#151A6A"></path>
                    </g>
                </g>
            </g>
        </g>
    </g>
</svg>