<svg xmlns="http://www.w3.org/2000/svg" width="29" height="14" viewBox="0 0 29 14">
    <g fill="none" fill-rule="evenodd">
        <g fill="#000" fill-rule="nonzero">
            <g>
                <g>
                    <path d="M28.344 6.151h-.002L22.49.325c-.438-.436-1.147-.435-1.584.004-.436.438-.434 1.148.004 1.584l3.93 3.91H1.12c-.619 0-1.12.501-1.12 1.12 0 .619.501 1.12 1.12 1.12h23.72l-3.93 3.91c-.438.436-.44 1.146-.004 1.584.437.439 1.146.44 1.584.004l5.853-5.824v-.001c.44-.438.438-1.15 0-1.586z" transform="translate(-314 -336) translate(136 316) translate(178 20)"/>
                </g>
            </g>
        </g>
    </g>
</svg>
