<?xml version="1.0" encoding="UTF-8"?>
<svg width="29px" height="29px" viewBox="0 0 29 29" version="1.1" xmlns="http://www.w3.org/2000/svg" xmlns:xlink="http://www.w3.org/1999/xlink">
    <title>customer-service-agent</title>
    <g id="SMO" stroke="none" stroke-width="1" fill="none" fill-rule="evenodd">
        <g id="SMO-Landing-Page--new" transform="translate(-1378.000000, -232.000000)" fill="#303030" fill-rule="nonzero">
            <g id="Group-22" transform="translate(1174.000000, 206.000000)">
                <g id="customer-service-agent" transform="translate(204.000000, 26.000000)">
                    <path d="M26.6428571,0.5 L17.3571429,0.5 C16.3314712,0.5 15.5,1.32656025 15.5,2.346174 L15.5,7.884696 C15.5,8.90430974 16.3314712,9.73087 17.3571429,9.73087 L17.6436071,9.73087 L17.3608571,11.9813561 C17.337037,12.1713072 17.433637,12.3561608 17.6036699,12.4460021 C17.7737029,12.5358433 17.9818747,12.5120239 18.1269286,12.3861298 L21.181,9.73087 L26.6428571,9.73087 C27.6685288,9.73087 28.5,8.90430974 28.5,7.884696 L28.5,2.346174 C28.5,1.32656025 27.6685288,0.5 26.6428571,0.5 Z M27.5714286,7.884696 C27.5714286,8.39450287 27.155693,8.807783 26.6428571,8.807783 L21.0064286,8.807783 C20.8940739,8.80778531 20.7855316,8.84828921 20.7009286,8.92178424 L18.4333571,10.8934981 L18.6302143,9.32655789 C18.6467244,9.19521997 18.6057186,9.0631564 18.5176147,8.9639186 C18.4295108,8.86468079 18.3027887,8.80782034 18.1696429,8.807783 L17.3571429,8.807783 C16.844307,8.807783 16.4285714,8.39450287 16.4285714,7.884696 L16.4285714,2.346174 C16.4285714,1.83636713 16.844307,1.423087 17.3571429,1.423087 L26.6428571,1.423087 C27.155693,1.423087 27.5714286,1.83636713 27.5714286,2.346174 L27.5714286,7.884696 Z" id="Shape"></path>
                    <path d="M19,4.5 C18.1715729,4.5 17.5,5.17157287 17.5,6 C17.5,6.8284271 18.1715729,7.5 19,7.5 C19.8284271,7.5 20.5,6.8284271 20.5,6 C20.5,5.17157287 19.8284271,4.5 19,4.5 Z M19,6.5 C18.7238576,6.5 18.5,6.27614235 18.5,6 C18.5,5.72385762 18.7238576,5.5 19,5.5 C19.2761424,5.5 19.5,5.72385762 19.5,6 C19.5,6.27614235 19.2761424,6.5 19,6.5 Z" id="Shape"></path>
                    <path d="M22,4.5 C21.1715729,4.5 20.5,5.17157287 20.5,6 C20.5,6.8284271 21.1715729,7.5 22,7.5 C22.8284271,7.5 23.5,6.8284271 23.5,6 C23.5,5.17157287 22.8284271,4.5 22,4.5 Z M22,6.5 C21.7238576,6.5 21.5,6.27614235 21.5,6 C21.5,5.72385762 21.7238576,5.5 22,5.5 C22.2761424,5.5 22.5,5.72385762 22.5,6 C22.5,6.27614235 22.2761424,6.5 22,6.5 Z" id="Shape"></path>
                    <path d="M25,4.5 C24.1715729,4.5 23.5,5.17157287 23.5,6 C23.5,6.8284271 24.1715729,7.5 25,7.5 C25.8284271,7.5 26.5,6.8284271 26.5,6 C26.5,5.17157287 25.8284271,4.5 25,4.5 Z M25,6.5 C24.7238576,6.5 24.5,6.27614235 24.5,6 C24.5,5.72385762 24.7238576,5.5 25,5.5 C25.2761424,5.5 25.5,5.72385762 25.5,6 C25.5,6.27614235 25.2761424,6.5 25,6.5 Z" id="Shape"></path>
                    <path d="M2.38235294,16.7977914 L3.61717647,16.7977914 C3.93242927,17.3386829 4.33588991,17.8236805 4.81105882,18.2329503 C2.44027515,19.557257 0.972093986,22.0506965 0.970588235,24.7552933 L0.970588235,27.095735 C0.970588235,27.8712891 1.60265682,28.5 2.38235294,28.5 L14.6176471,28.5 C15.3973432,28.5 16.0294118,27.8712891 16.0294118,27.095735 L16.0294118,24.7552933 C16.0241816,22.0517139 14.5582327,19.5596453 12.1912941,18.2306098 C12.6653393,17.8217767 13.0679732,17.337608 13.3828235,16.7977914 L14.6176471,16.7977914 C15.6572419,16.7977914 16.5,15.9595103 16.5,14.925438 L16.5,13.0530847 C16.4980672,12.3941048 16.1469763,11.7849612 15.5762353,11.4503502 C14.503594,8.48058724 11.6724607,6.5 8.5,6.5 C5.32753934,6.5 2.49640605,8.48058724 1.42376471,11.4503502 C0.85302368,11.7849612 0.501932847,12.3941048 0.5,13.0530847 L0.5,14.925438 C0.5,15.9595103 1.34275812,16.7977914 2.38235294,16.7977914 Z M2.38235294,15.8616147 C1.86255553,15.8616147 1.44117647,15.4424742 1.44117647,14.925438 L1.44117647,13.0530847 C1.44117647,12.5360486 1.86255553,12.116908 2.38235294,12.116908 L3.18235294,12.116908 C2.74315424,13.3269193 2.74315424,14.6516034 3.18235294,15.8616147 L2.38235294,15.8616147 Z M3.79411293,13.9892614 C3.79348435,12.1490513 4.87689733,10.4792023 6.56293454,9.72172329 C8.24897172,8.96424425 10.2247804,9.25968935 11.6123963,10.4767754 C13.0000123,11.6938615 13.5419562,13.6067521 12.9974118,15.3654411 C12.1211782,15.6495267 11.2085169,15.8071604 10.2872941,15.8335294 C10.0803114,15.288419 9.55639271,14.9270884 8.97058824,14.925438 L8.02941176,14.925438 C7.24971567,14.925438 6.61764706,15.5541489 6.61764706,16.3297031 C6.61764706,17.1052572 7.24971567,17.7339681 8.02941176,17.7339681 L8.97058824,17.7339681 C9.57708273,17.7321215 10.1142371,17.3441734 10.3037647,16.7711104 C11.0334092,16.7420322 11.7589717,16.6480393 12.4717647,16.4902574 C11.354268,18.2528448 9.19911431,19.0672435 7.18693591,18.4873109 C5.17475753,17.9073783 3.79116588,16.0730733 3.79411293,13.9892614 Z M9.44117647,16.3297031 C9.44117647,16.5882211 9.23048692,16.7977914 8.97058824,16.7977914 L8.02941176,16.7977914 C7.76951308,16.7977914 7.55882353,16.5882211 7.55882353,16.3297031 C7.55882353,16.071185 7.76951308,15.8616147 8.02941176,15.8616147 L8.97058824,15.8616147 C9.23048692,15.8616147 9.44117647,16.071185 9.44117647,16.3297031 Z M13.156,20.1249634 C14.3974543,21.3487604 15.0935063,23.016751 15.088265,24.7552933 L15.088265,27.095735 C15.088265,27.354253 14.8775457,27.5638233 14.6176471,27.5638233 L12.2647059,27.5638233 L12.2647059,24.7552933 C12.2647059,24.4967752 12.0540163,24.2872049 11.7941176,24.2872049 C11.534219,24.2872049 11.3235294,24.4967752 11.3235294,24.7552933 L11.3235294,27.5638233 L5.67647059,27.5638233 L5.67647059,24.7552933 C5.67647059,24.4967752 5.46578104,24.2872049 5.20588235,24.2872049 C4.94598365,24.2872049 4.73529412,24.4967752 4.73529412,24.7552933 L4.73529412,27.5638233 L2.38235294,27.5638233 C2.12245424,27.5638233 1.91176471,27.354253 1.91176471,27.095735 L1.91176471,24.7552933 C1.91393089,22.2285373 3.37633569,19.9281105 5.67035294,18.8428694 C7.41752946,19.8600301 9.58058819,19.8600301 11.3277647,18.8428694 C12.007671,19.1609292 12.6264064,19.5948324 13.156,20.1249634 L13.156,20.1249634 Z M15.5588235,14.925438 C15.5588235,15.4424742 15.1374445,15.8616147 14.6176471,15.8616147 L13.8176471,15.8616147 C14.2568457,14.6516034 14.2568457,13.3269193 13.8176471,12.116908 L14.6176471,12.116908 C15.1374445,12.116908 15.5588235,12.5360486 15.5588235,13.0530847 L15.5588235,14.925438 Z M8.5,7.43602386 C11.0432921,7.43486337 13.3589677,8.89338742 14.4454118,11.1807313 L13.3828235,11.1807313 C12.3774101,9.44322796 10.5154667,8.37230408 8.5,8.37230408 C6.48453327,8.37230408 4.62258995,9.44322796 3.61717647,11.1807313 L2.55458824,11.1807313 C3.64103234,8.89338742 5.95670791,7.43486337 8.5,7.43602386 Z" id="Shape"></path>
                </g>
            </g>
        </g>
    </g>
</svg>