<?xml version="1.0" encoding="UTF-8"?>
<svg width="25px" height="24px" viewBox="0 0 25 24" version="1.1" xmlns="http://www.w3.org/2000/svg" xmlns:xlink="http://www.w3.org/1999/xlink">
    <title>textbook</title>
    <g id="Final-UI" stroke="none" stroke-width="1" fill="none" fill-rule="evenodd">
        <g id="website-home-copy-2" transform="translate(-326.000000, -114.000000)" fill-rule="nonzero">
            <g id="Group-28" transform="translate(315.000000, 76.000000)">
                <g id="textbook" transform="translate(11.000000, 38.000000)">
                    <path d="M24.306876,14.61834 L14.83218,10.72764 C14.7347297,10.68705 14.6251063,10.68705 14.527656,10.72764 L4.994352,14.75892 C4.84737187,14.8212595 4.75220256,14.9657641 4.75297661,15.1254161 C4.75376014,15.2850681 4.85033469,15.4286374 4.997916,15.48954 L14.472612,19.38024 C14.5701776,19.42094 14.6799664,19.42094 14.777532,19.38024 L24.310836,15.349356 C24.4580368,15.2870558 24.5533504,15.1423677 24.5524904,14.9825282 C24.5516186,14.8226888 24.4547431,14.6790418 24.306876,14.61834 L24.306876,14.61834 Z" id="Path" fill="#FF7CB9"></path>
                    <path d="M14.476968,20.237976 L7.92,17.545968 L7.92,20.99394 C7.92,21.1082217 7.96937581,21.2169306 8.055432,21.292128 C11.8378108,24.5825504 17.4665852,24.5825504 21.248964,21.292128 C21.3348731,21.2168577 21.3840001,21.108159 21.3840001,20.99394 L21.3840001,17.44578 L14.781492,20.2356 C14.6843587,20.2769517 14.5747348,20.277807 14.476968,20.237976 L14.476968,20.237976 Z" id="Path" fill="#FF7CB9"></path>
                    <path d="M15.975432,1.01376 C15.8202,0.97416 12.73536,-1.064844 9.0981,0.753192 L8.316,1.144044 L7.5339,0.7524 C3.964356,-1.0296 0.755964,0.99 0.656568,1.01376 C0.253268911,1.21401713 -0.00129039593,1.62594875 -4.88287094e-06,2.076228 L-4.88287094e-06,14.130468 C0.000314160014,14.470868 0.164072365,14.7904109 0.440211616,14.989457 C0.716350866,15.1885031 1.07127658,15.2428369 1.394316,15.135516 C5.014548,13.928904 7.73784,15.340644 8.190864,15.426576 C8.27209444,15.4536311 8.35990556,15.4536311 8.441136,15.426576 C8.980488,15.324012 11.569536,13.912272 15.237684,15.135516 C15.5607234,15.2428369 15.9156491,15.1885031 16.1917884,14.989457 C16.4679276,14.7904109 16.6316858,14.470868 16.6320049,14.130468 L16.6320049,2.076228 C16.6332904,1.62594875 16.3787311,1.21401713 15.975432,1.01376 L15.975432,1.01376 Z M13.068,0.858924 L13.068,4.015044 L12.49578,3.6333 C12.3627094,3.54451698 12.1892906,3.54451698 12.05622,3.6333 L11.484,4.015044 L11.484,0.858924 C12.0100272,0.794375829 12.5419728,0.794375829 13.068,0.858924 Z M9.452124,1.461636 C9.84797762,1.26690468 10.2636715,1.1154174 10.692,1.0098 L10.692,4.754772 C10.6919781,4.90085119 10.7723795,5.03507904 10.901181,5.10399409 C11.0299826,5.17290915 11.186264,5.16531796 11.30778,5.084244 L12.276,4.438764 L13.24422,5.084244 C13.365736,5.16531796 13.5220174,5.17290915 13.650819,5.10399409 C13.7796205,5.03507904 13.8600219,4.90085119 13.86,4.754772 L13.86,1.0098 C14.4743649,1.17323435 15.0659381,1.41268379 15.621012,1.7226 C15.7550214,1.78956449 15.8397701,1.92641908 15.84,2.076228 L15.84,12.52152 L15.487956,12.40272 C13.2788376,11.688381 10.8947199,11.7301807 8.712,12.52152 L8.712,1.831896 L9.452124,1.461636 Z M0.792,2.076228 C0.792080078,1.92627638 0.876851153,1.78923236 1.010988,1.722204 C1.174536,1.680228 3.92634,-0.165132 7.179876,1.461636 L7.92,1.831896 L7.92,12.52152 C5.74018397,11.7146076 3.35080615,11.6727157 1.144044,12.40272 L0.792,12.52152 L0.792,2.076228 Z M15.487956,14.383908 C11.750508,13.13928 8.567064,14.587056 8.316,14.633388 C6.02791094,13.7148039 3.49034845,13.6266737 1.144044,14.384304 C1.06246204,14.4115754 0.972740897,14.397919 0.902967413,14.3476099 C0.833193929,14.2973008 0.791999802,14.2164874 0.791999802,14.130468 L0.791999802,13.356288 L1.394316,13.155516 C5.014152,11.948508 7.732692,13.359456 8.190864,13.446576 C8.27153966,13.4737095 8.35887634,13.4737095 8.439552,13.446576 C8.978904,13.344012 11.567952,11.932272 15.2361,13.155516 L15.8400004,13.356288 L15.8400004,14.130468 C15.8401546,14.2164843 15.7988451,14.2973031 15.7290369,14.3475588 C15.6592286,14.3978145 15.5694787,14.4113466 15.487956,14.383908 L15.487956,14.383908 Z" id="Shape" fill="#151A6A"></path>
                </g>
            </g>
        </g>
    </g>
</svg>