<?xml version="1.0" encoding="UTF-8"?>
<svg width="53px" height="53px" viewBox="0 0 53 53" version="1.1" xmlns="http://www.w3.org/2000/svg" xmlns:xlink="http://www.w3.org/1999/xlink">
    <title>Group 12</title>
    <g id="Final-UI" stroke="none" stroke-width="1" fill="none" fill-rule="evenodd">
        <g id="course-page" transform="translate(-958.000000, -3113.000000)" fill-rule="nonzero">
            <g id="Group-12" transform="translate(958.000000, 3113.000000)">
                <path d="M34.3738592,32.5780291 C34.2221886,33.1461872 34.3941353,33.7517672 34.8217465,34.1554456 C35.1123039,34.3742182 35.4217895,34.5666474 35.7465272,34.7304476 L35.7465272,30.9613692 C35.0250076,31.2046434 34.4969107,31.8266097 34.3738592,32.5780291 L34.3738592,32.5780291 Z" id="Path" fill="#C4A2FC"></path>
                <path d="M37.4519115,37.2957756 L37.4519115,42.2814013 C38.4626433,41.9573059 39.2080832,41.0963475 39.3842254,40.0496428 C39.6410141,38.527679 38.7443863,37.7641378 37.4519115,37.2957756 L37.4519115,37.2957756 Z" id="Path" fill="#FF66BD"></path>
                <path d="M50.9252153,46.3908742 C52.9505191,32.2956468 42.5885392,23.9930955 42.2728853,23.507671 C42.7315504,23.2315996 43.0924658,22.8190823 43.305159,22.3278078 L46.7543179,23.0171277 C47.0577719,23.0887596 47.3761332,22.9891409 47.5846315,22.7573136 C47.7931298,22.5254862 47.8585508,22.1983809 47.7552552,21.9041948 C47.6519596,21.6100087 47.3964025,21.3956064 47.0887404,21.345015 L44.3860604,20.8041378 L46.6715654,18.5186327 C46.9948737,18.183887 46.9902499,17.6517918 46.6611732,17.3227151 C46.3320965,16.9936384 45.8000013,16.9890146 45.4652555,17.3123229 L42.9843863,19.792339 C42.7171863,19.4329458 42.3603602,19.1499559 41.9495533,18.9716388 L42.9050463,14.194174 C43.1420552,13.007343 42.5744174,11.8052263 41.5073422,11.234182 C40.4402671,10.6631377 39.1251872,10.8577198 38.2691992,11.7133048 L36.6841046,13.2966931 L35.0990101,11.7107454 C34.2429344,10.8548851 32.9275272,10.660277 31.8603074,11.231595 C30.7930876,11.8029131 30.2256339,13.0054789 30.463163,14.1924677 L31.4186559,18.9699325 C30.5341116,19.3428048 29.9339142,20.1808349 29.8656505,21.1383276 C29.7973869,22.0958204 30.2726246,23.0105227 31.0953239,23.5051116 C30.7600483,24.0169828 20.416837,32.2871156 22.442994,46.3883148 C21.066848,47.0269515 20.2775673,48.4974241 20.5058817,49.9972598 C20.7341961,51.4970956 21.9252753,52.6661053 23.4291184,52.8663321 C24.9329614,53.0665588 26.3884169,52.2499176 27.0012072,50.8620694 C33.4206076,51.8243902 39.9476017,51.8243902 46.367002,50.8620694 C46.9797924,52.2499176 48.4352478,53.0665588 49.9390909,52.8663321 C51.4429339,52.6661053 52.6340131,51.4970956 52.8623275,49.9972598 C53.0906419,48.4974241 52.3013613,47.0269515 50.9252153,46.3883148 L50.9252153,46.3908742 Z M41.0682817,40.3337313 C40.7631299,42.2081384 39.3178066,43.6913082 37.4519115,44.0447977 L37.4519115,45.2152766 C37.4519115,45.686441 37.0699572,46.0683953 36.5987928,46.0683953 C36.1276283,46.0683953 35.745674,45.686441 35.745674,45.2152766 L35.745674,44.1139003 C34.6218002,44.0799698 33.5342543,43.7080399 32.6249658,43.0466488 C32.3648117,42.8821108 32.2134692,42.5901856 32.2289409,42.282755 C32.2444126,41.9753245 32.424299,41.7000687 32.6996578,41.5624808 C32.9750166,41.4248928 33.3031417,41.4463115 33.5582777,41.6185281 C34.1912499,42.0959495 34.9536882,42.3710102 35.745674,42.4076629 L35.745674,36.6226649 C35.0422978,36.3315677 34.3779903,35.9538467 33.7681449,35.4982545 C32.8354418,34.7035045 32.4223989,33.4558257 32.6966278,32.2615221 C32.9331437,30.8811365 33.9207162,29.7483909 35.2559839,29.3259406 C35.4214889,29.2756066 35.5844346,29.23551 35.7431147,29.2022384 L35.7431147,28.1529023 C35.7431147,27.6817379 36.1250689,27.2997836 36.5962334,27.2997836 C37.0673979,27.2997836 37.4493521,27.6817379 37.4493521,28.1529023 L37.4493521,29.1382545 C38.3516261,29.2515722 39.2028182,29.6200472 39.9029215,30.2003873 C40.2383149,30.5209749 40.2560147,31.0508262 39.9427637,31.3930819 C39.6295127,31.7353376 39.1001688,31.7645049 38.7512113,31.4587374 C38.3731194,31.1575016 37.9275408,30.9525706 37.4527646,30.8615543 L37.4527646,35.4683953 C37.750503,35.5818601 38.0499477,35.6910593 38.3417143,35.7942867 C40.2774701,36.3873009 41.4537811,38.3453656 41.0682817,40.3328782 L41.0682817,40.3337313 Z M40.9496982,22.1810714 L32.4185111,22.1810714 C31.9473466,22.1810714 31.5653924,21.7991171 31.5653924,21.3279527 C31.5653924,20.8567882 31.9473466,20.4748339 32.4185111,20.4748339 L40.9496982,20.4748339 C41.4208626,20.4748339 41.8028169,20.8567882 41.8028169,21.3279527 C41.8028169,21.7991171 41.4208626,22.1810714 40.9496982,22.1810714 Z" id="Shape" fill="#FF72BB"></path>
                <path d="M35.8309859,12.4700211 L35.8309859,11.6169023 C35.8309859,10.203409 34.6851231,9.05754621 33.2716298,9.05754621 L32.6744467,9.05754621 L19.3052233,0.409481826 C18.4588628,-0.136493942 17.37127,-0.136493942 16.5249095,0.409481826 L3.16080483,9.05754621 L2.55935614,9.05754621 C1.14586277,9.05754621 1.00639803e-13,10.203409 1.00639803e-13,11.6169023 L1.00639803e-13,12.4700211 C1.00639803e-13,13.8835144 1.14586277,15.0293772 2.55935614,15.0293772 L2.55935614,29.5323953 C1.14586277,29.5323953 1.00639803e-13,30.6782581 1.00639803e-13,32.0917514 L1.00639803e-13,32.9448702 C1.00639803e-13,34.3583635 1.14586277,35.5042263 2.55935614,35.5042263 L33.2716298,35.5042263 C34.6851231,35.5042263 35.8309859,34.3583635 35.8309859,32.9448702 L35.8309859,32.0917514 C35.8309859,30.6782581 34.6851231,29.5323953 33.2716298,29.5323953 L33.2716298,15.0293772 C34.6851231,15.0293772 35.8309859,13.8835144 35.8309859,12.4700211 Z M17.4522495,1.84272126 C17.734175,1.66041855 18.0968109,1.66041855 18.3787364,1.84272126 L29.5307042,9.05839933 L6.30113481,9.05839933 L17.4522495,1.84272126 Z M1.70623742,12.4700211 L1.70623742,11.6169023 C1.70623742,11.1457379 2.08819168,10.7637836 2.55935614,10.7637836 L33.2716298,10.7637836 C33.7427942,10.7637836 34.1247485,11.1457379 34.1247485,11.6169023 L34.1247485,12.4700211 C34.1247485,12.9411855 33.7427942,13.3231398 33.2716298,13.3231398 L2.55935614,13.3231398 C2.08819168,13.3231398 1.70623742,12.9411855 1.70623742,12.4700211 Z M24.7404427,29.5323953 L24.7404427,15.0293772 L28.1529175,15.0293772 L28.1529175,29.5323953 L24.7404427,29.5323953 Z M16.2092555,29.5323953 L16.2092555,15.0293772 L19.6217304,15.0293772 L19.6217304,29.5323953 L16.2092555,29.5323953 Z M7.67806841,29.5323953 L7.67806841,15.0293772 L11.0905433,15.0293772 L11.0905433,29.5323953 L7.67806841,29.5323953 Z M12.7967807,15.0293772 L14.5030181,15.0293772 L14.5030181,29.5323953 L12.7967807,29.5323953 L12.7967807,15.0293772 Z M21.3279678,15.0293772 L23.0342052,15.0293772 L23.0342052,29.5323953 L21.3279678,29.5323953 L21.3279678,15.0293772 Z M4.26559356,15.0293772 L5.97183099,15.0293772 L5.97183099,29.5323953 L4.26559356,29.5323953 L4.26559356,15.0293772 Z M34.1247485,32.0917514 L34.1247485,32.9448702 C34.1247485,33.4160346 33.7427942,33.7979889 33.2716298,33.7979889 L2.55935614,33.7979889 C2.08819168,33.7979889 1.70623742,33.4160346 1.70623742,32.9448702 L1.70623742,32.0917514 C1.70623742,31.620587 2.08819168,31.2386327 2.55935614,31.2386327 L33.2716298,31.2386327 C33.7427942,31.2386327 34.1247485,31.620587 34.1247485,32.0917514 Z M31.5653924,29.5323953 L29.8591549,29.5323953 L29.8591549,15.0293772 L31.5653924,15.0293772 L31.5653924,29.5323953 Z" id="Shape" fill="#151A6A"></path>
            </g>
        </g>
    </g>
</svg>