<?xml version="1.0" encoding="UTF-8"?>
<svg width="66px" height="66px" viewBox="0 0 66 66" version="1.1" xmlns="http://www.w3.org/2000/svg" xmlns:xlink="http://www.w3.org/1999/xlink">
    <title>community</title>
    <g id="Desktop-Course-page" stroke="none" stroke-width="1" fill="none" fill-rule="evenodd">
        <g id="course--modules-copy-4" transform="translate(-687.000000, -5590.000000)" fill-rule="nonzero">
            <g id="community" transform="translate(687.000000, 5590.000000)">
                <g id="Group" opacity="0.600000024" transform="translate(12.672000, 12.672000)" fill="#FF008E">
                    <circle id="Oval" cx="9.504" cy="32.736" r="5.28"></circle>
                    <path d="M9.504,40.128 C4.25749825,40.1338198 0.00581975218,44.3854982 1.87583282e-15,49.632 C1.87583282e-15,51.3816381 1.41836191,52.8 3.168,52.8 L15.84,52.8 C17.5896381,52.8 19.008,51.3816381 19.008,49.632 C19.0021802,44.3854982 14.7505018,40.1338198 9.504,40.128 L9.504,40.128 Z" id="Path"></path>
                    <circle id="Oval" cx="43.296" cy="32.736" r="5.28"></circle>
                    <path d="M43.296,40.128 C38.0494982,40.1338198 33.7978198,44.3854982 33.792,49.632 C33.792,51.3816381 35.2103619,52.8 36.96,52.8 L49.632,52.8 C51.3816381,52.8 52.8,51.3816381 52.8,49.632 C52.7941802,44.3854982 48.5425018,40.1338198 43.296,40.128 Z" id="Path"></path>
                    <circle id="Oval" cx="43.296" cy="5.28" r="5.28"></circle>
                    <path d="M36.96,25.344 L49.632,25.344 C51.3816381,25.344 52.8,23.9256381 52.8,22.176 C52.8,16.9270857 48.5449143,12.672 43.296,12.672 C38.0470857,12.672 33.792,16.9270857 33.792,22.176 C33.792,23.9256381 35.2103619,25.344 36.96,25.344 Z" id="Path"></path>
                    <path d="M30.624,46.464 L22.176,46.464 C21.5927873,46.464 21.12,46.9367873 21.12,47.52 C21.12,48.1032127 21.5927873,48.576 22.176,48.576 L30.624,48.576 C31.2072127,48.576 31.68,48.1032127 31.68,47.52 C31.68,46.9367873 31.2072127,46.464 30.624,46.464 Z" id="Path"></path>
                    <path d="M30.624,14.784 L22.176,14.784 C21.5927873,14.784 21.12,15.2567873 21.12,15.84 C21.12,16.4232127 21.5927873,16.896 22.176,16.896 L30.624,16.896 C31.2072127,16.896 31.68,16.4232127 31.68,15.84 C31.68,15.2567873 31.2072127,14.784 30.624,14.784 Z" id="Path"></path>
                </g>
                <path d="M49.242336,22.243584 C47.4914185,12.7426089 40.0573911,5.30858147 30.556416,3.557664 C30.2357276,1.51048792 28.4721416,0.00165914895 26.4,0.00165914895 C24.3278584,0.00165914895 22.5642724,1.51048792 22.243584,3.557664 C12.7410557,5.30929943 5.30661465,12.7458412 3.557664,22.248864 C1.51048792,22.5695524 0.00165914895,24.3331384 0.00165914895,26.40528 C0.00165914895,28.4774216 1.51048792,30.2410076 3.557664,30.561696 C5.30733237,40.066272 12.744288,47.5032276 22.248864,49.252896 C22.5695524,51.3000721 24.3331384,52.8089009 26.40528,52.8089009 C28.4774216,52.8089009 30.2410076,51.3000721 30.561696,49.252896 C40.0647188,47.5039453 47.5012606,40.0695043 49.252896,30.566976 C51.3000721,30.2462876 52.8089009,28.4827016 52.8089009,26.41056 C52.8089009,24.3384184 51.3000721,22.5748324 49.252896,22.254144 L49.242336,22.243584 Z M26.4,2.112 C27.5664254,2.112 28.512,3.05757461 28.512,4.224 L28.503552,4.378176 C28.4058626,5.46709775 27.4932949,6.30146197 26.4,6.30146197 C25.3067051,6.30146197 24.3941374,5.46709775 24.296448,4.378176 C24.296448,4.351776 24.296448,4.249344 24.288,4.224 C24.288,3.05757461 25.2335746,2.112 26.4,2.112 L26.4,2.112 Z M4.224,28.512 C3.05757461,28.512 2.112,27.5664254 2.112,26.4 C2.112,25.2335746 3.05757461,24.288 4.224,24.288 L4.378176,24.296448 C5.46709775,24.3941374 6.30146197,25.3067051 6.30146197,26.4 C6.30146197,27.4932949 5.46709775,28.4058626 4.378176,28.503552 C4.351776,28.505664 4.249344,28.512 4.224,28.512 L4.224,28.512 Z M26.4,50.688 C25.2335746,50.688 24.288,49.7424254 24.288,48.576 L24.296448,48.421824 C24.373649,47.3175713 25.293054,46.4618601 26.4,46.463996 C27.5317762,46.4701273 28.4602903,47.3619651 28.512,48.492576 L28.512,48.576 C28.512,49.7424254 27.5664254,50.688 26.4,50.688 Z M30.376896,47.147232 C29.7756626,45.4675897 28.1840067,44.3467748 26.4,44.3467748 C24.6159933,44.3467748 23.0243374,45.4675897 22.423104,47.147232 C13.9364091,45.4995782 7.30042176,38.8635909 5.652768,30.376896 C7.3324103,29.7756626 8.45322516,28.1840067 8.45322516,26.4 C8.45322516,24.6159933 7.3324103,23.0243374 5.652768,22.423104 C7.30042176,13.9364091 13.9364091,7.30042176 22.423104,5.652768 C23.0243374,7.3324103 24.6159933,8.45322516 26.4,8.45322516 C28.1840067,8.45322516 29.7756626,7.3324103 30.376896,5.652768 C38.8635909,7.30042176 45.4995782,13.9364091 47.147232,22.423104 C45.4675897,23.0243374 44.3467748,24.6159933 44.3467748,26.4 C44.3467748,28.1840067 45.4675897,29.7756626 47.147232,30.376896 C45.4995782,38.8635909 38.8635909,45.4995782 30.376896,47.147232 Z M48.576,28.512 L48.421824,28.503552 C47.3329022,28.4058626 46.498538,27.4932949 46.498538,26.4 C46.498538,25.3067051 47.3329022,24.3941374 48.421824,24.296448 C48.448224,24.296448 48.550656,24.296448 48.576,24.288 C49.7424254,24.288 50.688,25.2335746 50.688,26.4 C50.688,27.5664254 49.7424254,28.512 48.576,28.512 Z" id="Shape" fill="#333333"></path>
                <path d="M26.4,25.344 C29.8992762,25.344 32.736,22.5072762 32.736,19.008 C32.736,15.5087238 29.8992762,12.672 26.4,12.672 C22.9007238,12.672 20.064,15.5087238 20.064,19.008 C20.0674926,22.5058285 22.9021715,25.3405074 26.4,25.344 L26.4,25.344 Z M26.4,14.784 C28.7328508,14.784 30.624,16.6751492 30.624,19.008 C30.624,21.3408508 28.7328508,23.232 26.4,23.232 C24.0671492,23.232 22.176,21.3408508 22.176,19.008 C22.176,16.6751492 24.0671492,14.784 26.4,14.784 Z" id="Shape" fill="#151A6A"></path>
                <path d="M26.4,27.456 C21.1534982,27.4618198 16.9018198,31.7134982 16.896,36.96 C16.896,38.7096381 18.3143619,40.128 20.064,40.128 L32.736,40.128 C34.4856381,40.128 35.904,38.7096381 35.904,36.96 C35.8981802,31.7134982 31.6465018,27.4618198 26.4,27.456 Z M32.736,38.016 L20.064,38.016 C19.4807873,38.016 19.008,37.5432127 19.008,36.96 C19.008,32.8775111 22.3175111,29.568 26.4,29.568 C30.4824889,29.568 33.792,32.8775111 33.792,36.96 C33.792,37.5432127 33.3192127,38.016 32.736,38.016 Z" id="Shape" fill="#151A6A"></path>
            </g>
        </g>
    </g>
</svg>