<?xml version="1.0" encoding="UTF-8"?>
<svg width="42px" height="41px" viewBox="0 0 42 41" version="1.1" xmlns="http://www.w3.org/2000/svg" xmlns:xlink="http://www.w3.org/1999/xlink">
    <title>calendar (1)</title>
    <g id="Final-UI" stroke="none" stroke-width="1" fill="none" fill-rule="evenodd">
        <g id="course-page" transform="translate(-965.000000, -835.000000)" fill-rule="nonzero">
            <g id="calendar-(1)" transform="translate(965.000000, 835.000000)">
                <polygon id="Path" fill="#FF7CB9" points="19.572 24.864 22.932 24.864 22.932 28.224 19.572 28.224"></polygon>
                <polygon id="Path" fill="#FF7CB9" points="19.572 32.256 22.932 32.256 22.932 35.616 19.572 35.616"></polygon>
                <polygon id="Path" fill="#FF7CB9" points="12.18 32.256 15.54 32.256 15.54 35.616 12.18 35.616"></polygon>
                <polygon id="Path" fill="#FF7CB9" points="41.231232 35.725536 37.050048 34.683264 35.715456 40.0344"></polygon>
                <polygon id="Path" fill="#FF7CB9" points="12.18 24.864 15.54 24.864 15.54 28.224 12.18 28.224"></polygon>
                <path d="M35.90832,33.706176 C35.9513461,33.5331989 36.0613329,33.3844026 36.2140791,33.292528 C36.3668252,33.2006535 36.5498152,33.1732286 36.722784,33.216288 L41.748,34.468896 L41.748,14.784 C41.748,13.6705939 40.8454061,12.768 39.732,12.768 L36.372,12.768 L36.372,15.579648 C37.2977114,15.9069364 37.853002,16.8535357 37.6869667,17.8212606 C37.5209314,18.7889855 36.6818652,19.496351 35.7,19.496351 C34.7181348,19.496351 33.8790686,18.7889855 33.7130333,17.8212606 C33.546998,16.8535357 34.1022886,15.9069364 35.028,15.579648 L35.028,12.768 L25.62,12.768 L25.62,15.579648 C26.5457114,15.9069364 27.101002,16.8535357 26.9349667,17.8212606 C26.7689314,18.7889855 25.9298652,19.496351 24.948,19.496351 C23.9661348,19.496351 23.1270686,18.7889855 22.9610333,17.8212606 C22.794998,16.8535357 23.3502886,15.9069364 24.276,15.579648 L24.276,12.768 L14.868,12.768 L14.868,15.579648 C15.7937114,15.9069364 16.349002,16.8535357 16.1829667,17.8212606 C16.0169314,18.7889855 15.1778652,19.496351 14.196,19.496351 C13.2141348,19.496351 12.3750686,18.7889855 12.2090333,17.8212606 C12.042998,16.8535357 12.5982886,15.9069364 13.524,15.579648 L13.524,12.768 L10.164,12.768 C9.05059394,12.768 8.148,13.6705939 8.148,14.784 L8.148,38.304 C8.148,39.4174061 9.05059394,40.32 10.164,40.32 L34.259232,40.32 L35.90832,33.706176 Z M11.508,20.832 L38.388,20.832 C38.7591354,20.832 39.06,21.1328646 39.06,21.504 C39.06,21.8751354 38.7591354,22.176 38.388,22.176 L11.508,22.176 C11.1368646,22.176 10.836,21.8751354 10.836,21.504 C10.836,21.1328646 11.1368646,20.832 11.508,20.832 Z M16.884,36.288 C16.884,36.6591354 16.5831354,36.96 16.212,36.96 L11.508,36.96 C11.1368646,36.96 10.836,36.6591354 10.836,36.288 L10.836,31.584 C10.836,31.2128646 11.1368646,30.912 11.508,30.912 L16.212,30.912 C16.5831354,30.912 16.884,31.2128646 16.884,31.584 L16.884,36.288 Z M16.884,28.896 C16.884,29.2671354 16.5831354,29.568 16.212,29.568 L11.508,29.568 C11.1368646,29.568 10.836,29.2671354 10.836,28.896 L10.836,24.192 C10.836,23.8208646 11.1368646,23.52 11.508,23.52 L16.212,23.52 C16.5831354,23.52 16.884,23.8208646 16.884,24.192 L16.884,28.896 Z M24.276,36.288 C24.276,36.6591354 23.9751354,36.96 23.604,36.96 L18.9,36.96 C18.5288646,36.96 18.228,36.6591354 18.228,36.288 L18.228,31.584 C18.228,31.2128646 18.5288646,30.912 18.9,30.912 L23.604,30.912 C23.9751354,30.912 24.276,31.2128646 24.276,31.584 L24.276,36.288 Z M24.276,28.896 C24.276,29.2671354 23.9751354,29.568 23.604,29.568 L18.9,29.568 C18.5288646,29.568 18.228,29.2671354 18.228,28.896 L18.228,24.192 C18.228,23.8208646 18.5288646,23.52 18.9,23.52 L23.604,23.52 C23.9751354,23.52 24.276,23.8208646 24.276,24.192 L24.276,28.896 Z M31.668,36.288 C31.668,36.6591354 31.3671354,36.96 30.996,36.96 L26.292,36.96 C25.9208646,36.96 25.62,36.6591354 25.62,36.288 L25.62,31.584 C25.62,31.2128646 25.9208646,30.912 26.292,30.912 L30.996,30.912 C31.3671354,30.912 31.668,31.2128646 31.668,31.584 L31.668,36.288 Z M31.668,28.896 C31.668,29.2671354 31.3671354,29.568 30.996,29.568 L26.292,29.568 C25.9208646,29.568 25.62,29.2671354 25.62,28.896 L25.62,24.192 C25.62,23.8208646 25.9208646,23.52 26.292,23.52 L30.996,23.52 C31.3671354,23.52 31.668,23.8208646 31.668,24.192 L31.668,28.896 Z M33.012,28.896 L33.012,24.192 C33.012,23.8208646 33.3128646,23.52 33.684,23.52 L38.388,23.52 C38.7591354,23.52 39.06,23.8208646 39.06,24.192 L39.06,28.896 C39.06,29.2671354 38.7591354,29.568 38.388,29.568 L33.684,29.568 C33.3128646,29.568 33.012,29.2671354 33.012,28.896 Z" id="Shape" fill="#FF7CB9"></path>
                <polygon id="Path" fill="#FF7CB9" points="34.356 24.864 37.716 24.864 37.716 28.224 34.356 28.224"></polygon>
                <polygon id="Path" fill="#FF7CB9" points="26.964 24.864 30.324 24.864 30.324 28.224 26.964 28.224"></polygon>
                <polygon id="Path" fill="#FF7CB9" points="26.964 32.256 30.324 32.256 30.324 35.616 26.964 35.616"></polygon>
                <g id="Group" fill="#151A6A">
                    <path d="M26.461344,4.521216 C22.170503,0.243858087 15.7799999,-1.13973139 10.104192,0.979776 C9.87426558,1.06008368 9.70578633,1.25850981 9.66382645,1.49841573 C9.62186657,1.73832165 9.71299429,1.9821534 9.90201312,2.13573519 C10.0910319,2.28931699 10.3483536,2.32860771 10.574592,2.238432 C17.3279399,-0.294060497 24.9040817,2.67344715 28.1408211,9.11896839 C31.3775605,15.5644896 29.2330808,23.4133897 23.1685775,27.3176216 C17.1040743,31.2218535 9.0715432,29.9247531 4.54415286,24.3101327 C0.0167625194,18.6955122 0.451754506,10.5705625 5.552736,5.471424 L6.307392,4.71744 L6.307392,6.896736 C6.307392,7.26787135 6.60825665,7.568736 6.979392,7.568736 C7.35052735,7.568736 7.651392,7.26787135 7.651392,6.896736 L7.651392,3.0912 C7.651392,2.72006465 7.35052735,2.4192 6.979392,2.4192 L3.1752,2.4192 C2.80406465,2.4192 2.5032,2.72006465 2.5032,3.0912 C2.5032,3.46233535 2.80406465,3.7632 3.1752,3.7632 L5.357184,3.7632 L4.6032,4.521216 C-1.43271941,10.5571681 -1.43270174,20.3433508 4.60323945,26.3792811 C10.6391807,32.4152114 20.4253633,32.4152114 26.4613045,26.3792811 C32.4972457,20.3433508 32.4972634,10.5571681 26.461344,4.521216 L26.461344,4.521216 Z" id="Path"></path>
                    <path d="M15.532608,5.369952 C15.9037434,5.369952 16.204608,5.06908735 16.204608,4.697952 L16.204608,3.353952 C16.204608,2.98281665 15.9037434,2.681952 15.532608,2.681952 C15.1614726,2.681952 14.860608,2.98281665 14.860608,3.353952 L14.860608,4.697952 C14.860608,5.06908735 15.1614726,5.369952 15.532608,5.369952 Z" id="Path"></path>
                    <path d="M9.574656,6.474048 C9.69384298,6.68367893 9.9162156,6.81337656 10.1573595,6.81390833 C10.3985034,6.81443682 10.6214441,6.68571817 10.7415516,6.4766133 C10.8616592,6.26750844 10.8605175,6.01007932 10.73856,5.802048 L10.06656,4.638144 C9.94737302,4.42851307 9.7250004,4.29881544 9.4838565,4.29828367 C9.2427126,4.29775518 9.01977188,4.42647383 8.89966435,4.6355787 C8.77955682,4.84468356 8.7806985,5.10211268 8.902656,5.310144 L9.574656,6.474048 Z" id="Path"></path>
                    <path d="M6.556704,9.492 L5.3928,8.82 C5.0716781,8.63742412 4.66339745,8.74826967 4.47869551,9.06817343 C4.29399357,9.38807719 4.40212845,9.79708412 4.7208,9.983904 L5.884704,10.655904 C6.09273532,10.7778615 6.35016444,10.7790032 6.5592693,10.6588956 C6.76837417,10.5387881 6.89709282,10.3158474 6.89656433,10.0747035 C6.89603256,9.8335596 6.76633493,9.61118698 6.556704,9.492 Z" id="Path"></path>
                    <path d="M5.452608,15.449952 C5.452608,15.0788166 5.15174335,14.777952 4.780608,14.777952 L3.436608,14.777952 C3.06547265,14.777952 2.764608,15.0788166 2.764608,15.449952 C2.764608,15.8210874 3.06547265,16.121952 3.436608,16.121952 L4.780608,16.121952 C5.15174335,16.121952 5.452608,15.8210874 5.452608,15.449952 Z" id="Path"></path>
                    <path d="M5.3928,22.079904 L6.556704,21.407904 C6.76633493,21.288717 6.89603256,21.0663444 6.89656433,20.8252005 C6.89709282,20.5840566 6.76837417,20.3611159 6.5592693,20.2410084 C6.35016444,20.1209008 6.09273532,20.1220425 5.884704,20.244 L4.7208,20.916 C4.51116907,21.035187 4.38147144,21.2575596 4.38093967,21.4987035 C4.38041118,21.7398474 4.50912983,21.9627881 4.7182347,22.0828956 C4.92733956,22.2030032 5.18476868,22.2018615 5.3928,22.079904 L5.3928,22.079904 Z" id="Path"></path>
                    <path d="M9.148608,26.50704 C9.47001237,26.6925989 9.88098694,26.5824842 10.06656,26.261088 L10.73856,25.097184 C10.9211359,24.7760621 10.8102903,24.3677815 10.4903866,24.1830795 C10.1704828,23.9983776 9.76147588,24.1065125 9.574656,24.425184 L8.902656,25.589088 C8.71709709,25.9104924 8.8272118,26.3214669 9.148608,26.50704 L9.148608,26.50704 Z" id="Path"></path>
                    <path d="M14.860608,27.545952 C14.860608,27.9170874 15.1614726,28.217952 15.532608,28.217952 C15.9037434,28.217952 16.204608,27.9170874 16.204608,27.545952 L16.204608,26.201952 C16.204608,25.8308166 15.9037434,25.529952 15.532608,25.529952 C15.1614726,25.529952 14.860608,25.8308166 14.860608,26.201952 L14.860608,27.545952 Z" id="Path"></path>
                    <path d="M21.49056,24.425184 C21.3037401,24.1065125 20.8947332,23.9983776 20.5748294,24.1830795 C20.2549257,24.3677815 20.1440801,24.7760621 20.326656,25.097184 L20.998656,26.261088 C21.1854759,26.5797595 21.5944828,26.6878944 21.9143866,26.5031925 C22.2342903,26.3184905 22.3451359,25.9102099 22.16256,25.589088 L21.49056,24.425184 Z" id="Path"></path>
                    <path d="M24.50784,21.407904 L25.672416,22.079904 C25.8804473,22.2018615 26.1378764,22.2030032 26.3469813,22.0828956 C26.5560862,21.9627881 26.6848048,21.7398474 26.6842763,21.4987035 C26.6837446,21.2575596 26.5540469,21.035187 26.344416,20.916 L25.17984,20.244 C24.8587181,20.0614241 24.4504375,20.1722697 24.2657355,20.4921734 C24.0810336,20.8120772 24.1891685,21.2210841 24.50784,21.407904 Z" id="Path"></path>
                    <path d="M25.612608,15.449952 C25.612608,15.8210874 25.9134726,16.121952 26.284608,16.121952 L27.628608,16.121952 C27.9997434,16.121952 28.300608,15.8210874 28.300608,15.449952 C28.300608,15.0788166 27.9997434,14.777952 27.628608,14.777952 L26.284608,14.777952 C25.9134726,14.777952 25.612608,15.0788166 25.612608,15.449952 Z" id="Path"></path>
                    <path d="M25.672416,8.82 L24.50784,9.492 C24.2982091,9.61118698 24.1685114,9.8335596 24.1679797,10.0747035 C24.1674512,10.3158474 24.2961698,10.5387881 24.5052747,10.6588956 C24.7143796,10.7790032 24.9718087,10.7778615 25.17984,10.655904 L26.344416,9.983904 C26.6630875,9.79708412 26.7712224,9.38807719 26.5865205,9.06817343 C26.4018185,8.74826967 25.9935379,8.63742412 25.672416,8.82 L25.672416,8.82 Z" id="Path"></path>
                    <path d="M21.916608,4.392192 C21.5952036,4.20663309 21.1842291,4.3167478 20.998656,4.638144 L20.326656,5.80205201 C20.2046985,6.01007932 20.2035568,6.26750844 20.3236644,6.4766133 C20.4437719,6.68571817 20.6667126,6.81443682 20.9078565,6.81390833 C21.1490004,6.81337656 21.371373,6.68367893 21.49056,6.474048 L22.16256,5.310144 C22.3481189,4.98873963 22.2380042,4.57776506 21.916608,4.392192 Z" id="Path"></path>
                    <path d="M14.860608,15.449952 C14.860608,15.6900314 14.988699,15.9118712 15.1966154,16.0319083 C15.4045318,16.1519453 15.6606931,16.1519437 15.868608,16.031904 L21.688128,12.671904 C22.0067995,12.4850841 22.1149344,12.0760772 21.9302325,11.7561734 C21.7455305,11.4362697 21.3372499,11.3254241 21.016128,11.508 L16.204608,14.286048 L16.204608,8.057952 C16.204608,7.68681665 15.9037434,7.385952 15.532608,7.385952 C15.1614726,7.385952 14.860608,7.68681665 14.860608,8.057952 L14.860608,15.449952 Z" id="Path"></path>
                </g>
            </g>
        </g>
    </g>
</svg>