<?xml version="1.0" encoding="UTF-8"?>
<svg width="27px" height="27px" viewBox="0 0 27 27" version="1.1" xmlns="http://www.w3.org/2000/svg" xmlns:xlink="http://www.w3.org/1999/xlink">
    <title>work-space</title>
    <g id="Final-UI" stroke="none" stroke-width="1" fill="none" fill-rule="evenodd">
        <g id="website-home-copy-2" transform="translate(-325.000000, -158.000000)" fill-rule="nonzero">
            <g id="Group-28" transform="translate(315.000000, 76.000000)">
                <g id="work-space" transform="translate(10.000000, 82.000000)">
                    <path d="M14.5518835,16.0930002 L21.8691165,16.0930002 C22.2427004,16.0932223 22.5974483,15.9290123 22.8390179,15.6440401 C23.0805874,15.359068 23.1844924,14.9822195 23.1231,14.6137145 L21.7115745,6.1437145 C21.6109309,5.52993969 21.0795595,5.08004166 20.457591,5.08199363 L15.963409,5.08199363 C15.3417607,5.08045816 14.8108653,5.53025701 14.7102725,6.1437145 L13.298747,14.6137145 C13.237379,14.9820734 13.3411766,15.3587773 13.5825554,15.6437169 C13.8239343,15.9286565 14.1784476,16.0930002 14.5518835,16.0930002 L14.5518835,16.0930002 Z" id="Path" fill="#FF7CB9"></path>
                    <path d="M25.8335,15.246 C24.6646175,15.2474001 23.7174001,16.1946175 23.716,17.3635 L23.716,17.8340085 C23.159863,17.262273 22.3961026,16.9398134 21.5985,16.94 L14.8225,16.94 C14.0248974,16.9398134 13.261137,17.262273 12.705,17.8340085 L12.705,17.3635 C12.7035999,16.1946175 11.7563825,15.2474001 10.5875,15.246 C10.3536074,15.246 10.164,15.4356074 10.164,15.6695 C10.164,15.9033926 10.3536074,16.093 10.5875,16.093 C11.2891778,16.093 11.858,16.6618222 11.858,17.3635 L11.858,19.9045 C11.858,20.6061778 12.4268222,21.175 13.1285,21.175 L17.787,21.175 L17.787,23.716 L16.5165,23.716 C15.3476175,23.7174001 14.4004001,24.6646175 14.399,25.8335 C14.399,26.0673926 14.5886074,26.257 14.8225,26.257 C15.0563926,26.257 15.246,26.0673926 15.246,25.8335 C15.246,25.1318222 15.8148222,24.563 16.5165,24.563 L19.9045,24.563 C20.6061778,24.563 21.175,25.1318222 21.175,25.8335 C21.175,26.0673926 21.3646074,26.257 21.5985,26.257 C21.8323926,26.257 22.022,26.0673926 22.022,25.8335 C22.0205999,24.6646175 21.0733825,23.7174001 19.9045,23.716 L18.634,23.716 L18.634,21.175 L23.2925,21.175 C23.9941778,21.175 24.563,20.6061778 24.563,19.9045 L24.563,17.3635 C24.563,16.6618222 25.1318222,16.093 25.8335,16.093 C26.0673926,16.093 26.257,15.9033926 26.257,15.6695 C26.257,15.4356074 26.0673926,15.246 25.8335,15.246 L25.8335,15.246 Z" id="Path" fill="#FF7CB9"></path>
                    <g id="Group" fill="#151A6A">
                        <path d="M16.5165,6.776 L10.5875,6.776 L10.5875,5.929 L11.858,5.929 C12.5596778,5.929 13.1285,5.36017777 13.1285,4.6585 L13.1285,1.2705 C13.1285,0.568822225 12.5596778,-9.40358902e-17 11.858,-9.40358902e-17 L5.929,-9.40358902e-17 C5.22732223,-9.40358902e-17 4.6585,0.568822225 4.6585,1.2705 L4.6585,4.6585 C4.6585,5.36017777 5.22732223,5.929 5.929,5.929 L7.1995,5.929 L7.1995,6.776 L1.2705,6.776 C0.568822225,6.776 -9.40358902e-17,7.34482223 -9.40358902e-17,8.0465 L-9.40358902e-17,17.3635 C-9.40358902e-17,17.5973926 0.189607408,17.787 0.4235,17.787 C0.657392592,17.787 0.847,17.5973926 0.847,17.3635 L0.847,16.093 L6.776,16.093 L6.776,17.3635 C6.776,17.5973926 6.96560741,17.787 7.1995,17.787 C7.43339259,17.787 7.623,17.5973926 7.623,17.3635 L7.623,9.317 L16.94,9.317 L16.94,17.3635 C16.94,17.5973926 17.1296074,17.787 17.3635,17.787 C17.5973926,17.787 17.787,17.5973926 17.787,17.3635 L17.787,8.0465 C17.787,7.34482223 17.2181778,6.776 16.5165,6.776 Z M5.5055,4.6585 L5.5055,1.2705 C5.5055,1.03660741 5.69510741,0.847 5.929,0.847 L11.858,0.847 C12.0918926,0.847 12.2815,1.03660741 12.2815,1.2705 L12.2815,4.6585 C12.2815,4.89239259 12.0918926,5.082 11.858,5.082 L5.929,5.082 C5.69510741,5.082 5.5055,4.89239259 5.5055,4.6585 Z M8.0465,5.929 L9.7405,5.929 L9.7405,6.776 L8.0465,6.776 L8.0465,5.929 Z M0.847,15.246 L0.847,12.705 L6.776,12.705 L6.776,15.246 L0.847,15.246 Z M6.776,11.858 L0.847,11.858 L0.847,9.317 L6.776,9.317 L6.776,11.858 Z M0.847,8.47 L0.847,8.0465 C0.847,7.81260741 1.03660741,7.623 1.2705,7.623 L16.5165,7.623 C16.7503926,7.623 16.94,7.81260741 16.94,8.0465 L16.94,8.47 L0.847,8.47 Z" id="Shape"></path>
                        <path d="M3.388,11.011 L4.235,11.011 C4.46889259,11.011 4.6585,10.8213926 4.6585,10.5875 C4.6585,10.3536074 4.46889259,10.164 4.235,10.164 L3.388,10.164 C3.15410741,10.164 2.9645,10.3536074 2.9645,10.5875 C2.9645,10.8213926 3.15410741,11.011 3.388,11.011 Z" id="Path"></path>
                        <path d="M4.235,13.552 L3.388,13.552 C3.15410741,13.552 2.9645,13.7416074 2.9645,13.9755 C2.9645,14.2093926 3.15410741,14.399 3.388,14.399 L4.235,14.399 C4.46889259,14.399 4.6585,14.2093926 4.6585,13.9755 C4.6585,13.7416074 4.46889259,13.552 4.235,13.552 Z" id="Path"></path>
                    </g>
                </g>
            </g>
        </g>
    </g>
</svg>