<?xml version="1.0" encoding="UTF-8"?>
<svg width="66px" height="65px" viewBox="0 0 66 65" version="1.1" xmlns="http://www.w3.org/2000/svg" xmlns:xlink="http://www.w3.org/1999/xlink">
    <title>reading-book</title>
    <g id="Desktop-Course-page" stroke="none" stroke-width="1" fill="none" fill-rule="evenodd">
        <g id="course--modules-copy-4" transform="translate(-835.000000, -5339.000000)" fill-rule="nonzero">
            <g id="reading-book" transform="translate(835.000000, 5339.000000)">
                <g id="Group" opacity="0.600000024" transform="translate(16.374960, 12.606120)" fill="#FF008E">
                    <path d="M48.0852,20.7936 L48.0852,15.5952 C48.0852,13.8726018 46.6887582,12.47616 44.96616,12.47616 L36.64872,12.47616 C34.9261218,12.47616 33.52968,13.8726018 33.52968,15.5952 L33.52968,10.3968 L18.97416,10.3968 L18.97416,14.2935206 C18.600625,13.1768333 17.6289506,12.366501 16.4633328,12.1996051 L8.22490848,11.0559571 C6.51900797,10.8184153 4.94346767,12.0085649 4.70559168,13.7144189 L3.9871728,18.8629142 L18.4033757,20.8726157 L18.97416,16.7793955 L18.97416,48.86496 C18.97416,50.5875582 20.3706018,51.984 22.0932,51.984 L30.41064,51.984 C32.1332382,51.984 33.52968,50.5875582 33.52968,48.86496 C33.52968,50.5875582 34.9261218,51.984 36.64872,51.984 L44.96616,51.984 C46.6887582,51.984 48.0852,50.5875582 48.0852,48.86496 L48.0852,43.66656 L33.52968,43.66656 L33.52968,41.5872 L48.0852,41.5872 L48.0852,22.87296 L33.52968,22.87296 L33.52968,20.7936 L48.0852,20.7936 Z M29.37096,27.03168 C29.37096,27.6058794 28.9054794,28.07136 28.33128,28.07136 L24.17256,28.07136 C23.5983606,28.07136 23.13288,27.6058794 23.13288,27.03168 L23.13288,13.51584 C23.13288,12.9416406 23.5983606,12.47616 24.17256,12.47616 L28.33128,12.47616 C28.9054794,12.47616 29.37096,12.9416406 29.37096,13.51584 L29.37096,27.03168 Z M39.76776,25.992 C39.76776,25.4178006 40.2332406,24.95232 40.80744,24.95232 C41.3816394,24.95232 41.84712,25.4178006 41.84712,25.992 L41.84712,38.46816 C41.84712,39.0423594 41.3816394,39.50784 40.80744,39.50784 C40.2332406,39.50784 39.76776,39.0423594 39.76776,38.46816 L39.76776,25.992 Z" id="Shape"></path>
                    <polygon id="Path" points="3.70022112 20.9183616 1.11661632 39.452737 15.5338589 41.4624384 18.1174637 22.928063"></polygon>
                    <path d="M0.82966464,41.512343 L0.11228544,46.6618781 C-0.12525639,48.3677786 1.06489325,49.9433189 2.7707472,50.1811949 L11.0081318,51.3300413 C12.713449,51.5639563 14.2868845,50.3749318 14.5274486,48.6705398 L15.2448278,43.5220445 L0.82966464,41.512343 Z" id="Path"></path>
                    <polygon id="Path" points="25.21224 14.55552 27.2916 14.55552 27.2916 25.992 25.21224 25.992"></polygon>
                    <path d="M33.52968,3.11904 C33.52968,1.39644177 32.1332382,0 30.41064,0 L22.0932,0 C20.3706018,0 18.97416,1.39644177 18.97416,3.11904 L18.97416,8.31744 L33.52968,8.31744 L33.52968,3.11904 Z" id="Path"></path>
                </g>
                <path d="M48.86496,29.241 L48.86496,21.079512 C48.8657556,20.6819435 48.639756,20.3187297 48.2827392,20.1438 C45.3589124,18.8431733 42.1097194,18.4585912 38.9630477,19.0406995 C36.9842391,16.060054 33.9397804,13.9496906 30.4543066,13.1425949 C32.9114686,11.2354497 33.8849957,7.97754021 32.8770303,5.03494719 C31.8690649,2.09235417 29.1024418,0.115607907 25.992,0.115607907 C22.8815582,0.115607907 20.1149351,2.09235417 19.1069697,5.03494719 C18.0990043,7.97754021 19.0725314,11.2354497 21.5296934,13.1425949 C18.0435188,13.9505693 14.9976201,16.0596404 13.0147142,19.0386202 C9.86962405,18.4594346 6.62288507,18.8454333 3.7012608,20.1458794 C3.34424403,20.3208091 3.11824437,20.6840228 3.11904,21.0815914 L3.11904,29.241 C1.39644177,29.241 0,30.6374418 0,32.36004 L0,36.51876 C0,38.2413582 1.39644177,39.6378 3.11904,39.6378 L3.11904,46.7907984 C3.11884331,47.1240956 3.2784509,47.4372821 3.54824049,47.6329876 C3.81803008,47.8286931 4.16529148,47.8831896 4.48206048,47.7795341 C11.6307165,45.2785349 19.5722891,46.821637 25.264224,51.8176512 C25.6684968,52.2139178 26.3155032,52.2139178 26.719776,51.8176512 C32.4384293,46.8763018 40.349215,45.3395775 47.5019395,47.7805738 C47.8188829,47.8842867 48.1663407,47.8296706 48.436181,47.6337225 C48.7060213,47.4377744 48.8654904,47.1242788 48.86496,46.7907984 L48.86496,39.6378 C50.5875582,39.6378 51.984,38.2413582 51.984,36.51876 L51.984,32.36004 C51.984,30.6374418 50.5875582,29.241 48.86496,29.241 L48.86496,29.241 Z M20.7936,7.40772 C20.7936,4.53672296 23.121003,2.20932 25.992,2.20932 C28.862997,2.20932 31.1904,4.53672296 31.1904,7.40772 C31.1904,10.278717 28.862997,12.60612 25.992,12.60612 C23.1224279,12.6026827 20.7970373,10.2772921 20.7936,7.40772 L20.7936,7.40772 Z M4.15872,37.55844 L3.11904,37.55844 C2.54484059,37.55844 2.07936,37.0929594 2.07936,36.51876 L2.07936,32.36004 C2.07936,31.7858406 2.54484059,31.32036 3.11904,31.32036 L4.15872,31.32036 C4.73291941,31.32036 5.1984,31.7858406 5.1984,32.36004 L5.1984,36.51876 C5.1984,37.0929594 4.73291941,37.55844 4.15872,37.55844 Z M24.95232,48.890952 C19.243818,44.7777727 11.9717239,43.4909948 5.1984,45.3955478 L5.1984,39.4464989 C6.44014271,39.0074893 7.27230023,37.8358115 7.27776,36.51876 L7.27776,32.36004 C7.27230023,31.0429885 6.44014271,29.8713107 5.1984,29.4323011 L5.1984,21.755304 C11.0746714,19.3318099 19.5345475,22.5246672 24.95232,25.676977 L24.95232,48.890952 Z M25.992,23.8658544 C22.6418945,21.9005199 19.0301816,20.4198506 15.2645818,19.468008 C16.6255229,17.7119885 19.857888,14.68548 25.992,14.68548 C32.178096,14.68548 35.3803104,17.7078298 36.7256563,19.468008 C32.9579602,20.4199669 29.3441562,21.9009825 25.992,23.8668941 L25.992,23.8658544 Z M46.7856,45.3955478 C40.0122142,43.4922458 32.7406694,44.7789265 27.03168,48.890952 L27.03168,25.6717786 C32.4463334,22.5184291 40.9322016,19.3297306 46.7856,21.7501056 L46.7856,29.4323011 C45.5438573,29.8713107 44.7116998,31.0429885 44.70624,32.36004 L44.70624,36.51876 C44.7116998,37.8358115 45.5438573,39.0074893 46.7856,39.4464989 L46.7856,45.3955478 Z M49.90464,36.51876 C49.90464,37.0929594 49.4391594,37.55844 48.86496,37.55844 L47.82528,37.55844 C47.2510806,37.55844 46.7856,37.0929594 46.7856,36.51876 L46.7856,32.36004 C46.7856,31.7858406 47.2510806,31.32036 47.82528,31.32036 L48.86496,31.32036 C49.4391594,31.32036 49.90464,31.7858406 49.90464,32.36004 L49.90464,36.51876 Z" id="Shape" fill="#151A6A"></path>
            </g>
        </g>
    </g>
</svg>