<?xml version="1.0" encoding="UTF-8"?>
<svg width="66px" height="66px" viewBox="0 0 66 66" version="1.1" xmlns="http://www.w3.org/2000/svg" xmlns:xlink="http://www.w3.org/1999/xlink">
    <title>books</title>
    <g id="Desktop-Course-page" stroke="none" stroke-width="1" fill="none" fill-rule="evenodd">
        <g id="course--modules-copy-4" transform="translate(-536.000000, -5340.000000)" fill-rule="nonzero">
            <g id="books" transform="translate(536.000000, 5340.000000)">
                <path d="M62.304,31.68 L53.856,31.68 C52.1063619,31.68 50.688,33.0983619 50.688,34.848 L50.688,62.304 C50.688,64.0536381 52.1063619,65.472 53.856,65.472 L62.304,65.472 C64.0536381,65.472 65.472,64.0536381 65.472,62.304 L65.472,34.848 C65.472,33.0983619 64.0536381,31.68 62.304,31.68 Z M60.192,60.192 L55.968,60.192 C55.3847873,60.192 54.912,59.7192127 54.912,59.136 C54.912,58.5527873 55.3847873,58.08 55.968,58.08 L60.192,58.08 C60.7752127,58.08 61.248,58.5527873 61.248,59.136 C61.248,59.7192127 60.7752127,60.192 60.192,60.192 Z M57.024,54.912 L57.024,42.24 C57.024,41.6567873 57.4967873,41.184 58.08,41.184 C58.6632127,41.184 59.136,41.6567873 59.136,42.24 L59.136,54.912 C59.136,55.4952127 58.6632127,55.968 58.08,55.968 C57.4967873,55.968 57.024,55.4952127 57.024,54.912 Z M60.192,39.072 L55.968,39.072 C55.3847873,39.072 54.912,38.5992127 54.912,38.016 C54.912,37.4327873 55.3847873,36.96 55.968,36.96 L60.192,36.96 C60.7752127,36.96 61.248,37.4327873 61.248,38.016 C61.248,38.5992127 60.7752127,39.072 60.192,39.072 Z" id="Shape" fill="#FF008E" opacity="0.600000024"></path>
                <path d="M45.408,19.008 L36.96,19.008 C35.2103619,19.008 33.792,20.4263619 33.792,22.176 L33.792,62.304 C33.792,64.0536381 35.2103619,65.472 36.96,65.472 L45.408,65.472 C47.1576381,65.472 48.576,64.0536381 48.576,62.304 L48.576,22.176 C48.576,20.4263619 47.1576381,19.008 45.408,19.008 Z M43.296,61.248 L39.072,61.248 C38.4887873,61.248 38.016,60.7752127 38.016,60.192 C38.016,59.6087873 38.4887873,59.136 39.072,59.136 L43.296,59.136 C43.8792127,59.136 44.352,59.6087873 44.352,60.192 C44.352,60.7752127 43.8792127,61.248 43.296,61.248 Z M43.296,57.024 L39.072,57.024 C38.4887873,57.024 38.016,56.5512127 38.016,55.968 C38.016,55.3847873 38.4887873,54.912 39.072,54.912 L43.296,54.912 C43.8792127,54.912 44.352,55.3847873 44.352,55.968 C44.352,56.5512127 43.8792127,57.024 43.296,57.024 Z M40.128,51.744 L40.128,32.736 C40.128,32.1527873 40.6007873,31.68 41.184,31.68 C41.7672127,31.68 42.24,32.1527873 42.24,32.736 L42.24,51.744 C42.24,52.3272127 41.7672127,52.8 41.184,52.8 C40.6007873,52.8 40.128,52.3272127 40.128,51.744 Z M43.296,29.568 L39.072,29.568 C38.4887873,29.568 38.016,29.0952127 38.016,28.512 C38.016,27.9287873 38.4887873,27.456 39.072,27.456 L43.296,27.456 C43.8792127,27.456 44.352,27.9287873 44.352,28.512 C44.352,29.0952127 43.8792127,29.568 43.296,29.568 Z M43.296,24.288 L39.072,24.288 C38.4887873,24.288 38.016,23.8152127 38.016,23.232 C38.016,22.6487873 38.4887873,22.176 39.072,22.176 L43.296,22.176 C43.8792127,22.176 44.352,22.6487873 44.352,23.232 C44.352,23.8152127 43.8792127,24.288 43.296,24.288 Z" id="Shape" fill="#FF008E" opacity="0.600000024"></path>
                <path d="M28.512,25.344 L20.064,25.344 C18.3143619,25.344 16.896,26.7623619 16.896,28.512 L16.896,62.304 C16.896,64.0536381 18.3143619,65.472 20.064,65.472 L28.512,65.472 C30.2616381,65.472 31.68,64.0536381 31.68,62.304 L31.68,28.512 C31.68,26.7623619 30.2616381,25.344 28.512,25.344 L28.512,25.344 Z M21.12,34.848 C21.12,34.2647873 21.5927873,33.792 22.176,33.792 C22.7592127,33.792 23.232,34.2647873 23.232,34.848 L23.232,41.184 C23.232,41.7672127 22.7592127,42.24 22.176,42.24 C21.5927873,42.24 21.12,41.7672127 21.12,41.184 L21.12,34.848 Z M21.12,49.632 C21.12,49.0487873 21.5927873,48.576 22.176,48.576 C22.7592127,48.576 23.232,49.0487873 23.232,49.632 L23.232,55.968 C23.232,56.5512127 22.7592127,57.024 22.176,57.024 C21.5927873,57.024 21.12,56.5512127 21.12,55.968 L21.12,49.632 Z M26.4,61.248 L22.176,61.248 C21.5927873,61.248 21.12,60.7752127 21.12,60.192 C21.12,59.6087873 21.5927873,59.136 22.176,59.136 L26.4,59.136 C26.9832127,59.136 27.456,59.6087873 27.456,60.192 C27.456,60.7752127 26.9832127,61.248 26.4,61.248 Z M27.456,55.968 C27.456,56.5512127 26.9832127,57.024 26.4,57.024 C25.8167873,57.024 25.344,56.5512127 25.344,55.968 L25.344,49.632 C25.344,49.0487873 25.8167873,48.576 26.4,48.576 C26.9832127,48.576 27.456,49.0487873 27.456,49.632 L27.456,55.968 Z M26.4,46.464 L22.176,46.464 C21.5927873,46.464 21.12,45.9912127 21.12,45.408 C21.12,44.8247873 21.5927873,44.352 22.176,44.352 L26.4,44.352 C26.9832127,44.352 27.456,44.8247873 27.456,45.408 C27.456,45.9912127 26.9832127,46.464 26.4,46.464 Z M27.456,41.184 C27.456,41.7672127 26.9832127,42.24 26.4,42.24 C25.8167873,42.24 25.344,41.7672127 25.344,41.184 L25.344,34.848 C25.344,34.2647873 25.8167873,33.792 26.4,33.792 C26.9832127,33.792 27.456,34.2647873 27.456,34.848 L27.456,41.184 Z M26.4,31.68 L22.176,31.68 C21.5927873,31.68 21.12,31.2072127 21.12,30.624 C21.12,30.0407873 21.5927873,29.568 22.176,29.568 L26.4,29.568 C26.9832127,29.568 27.456,30.0407873 27.456,30.624 C27.456,31.2072127 26.9832127,31.68 26.4,31.68 Z" id="Shape" fill="#FF008E" opacity="0.600000024"></path>
                <g id="Group">
                    <path d="M7.392,10.56 L20.064,10.56 C20.6472127,10.56 21.12,10.0872127 21.12,9.504 C21.12,8.9207873 20.6472127,8.448 20.064,8.448 L7.392,8.448 C6.8087873,8.448 6.336,8.9207873 6.336,9.504 C6.336,10.0872127 6.8087873,10.56 7.392,10.56 Z" id="Path" fill="#151A6A"></path>
                    <path d="M7.392,15.84 L20.064,15.84 C20.6472127,15.84 21.12,15.3672127 21.12,14.784 C21.12,14.2007873 20.6472127,13.728 20.064,13.728 L7.392,13.728 C6.8087873,13.728 6.336,14.2007873 6.336,14.784 C6.336,15.3672127 6.8087873,15.84 7.392,15.84 Z" id="Path" fill="#151A6A"></path>
                    <path d="M7.392,21.12 L20.064,21.12 C20.6472127,21.12 21.12,20.6472127 21.12,20.064 C21.12,19.4807873 20.6472127,19.008 20.064,19.008 L7.392,19.008 C6.8087873,19.008 6.336,19.4807873 6.336,20.064 C6.336,20.6472127 6.8087873,21.12 7.392,21.12 Z" id="Path" fill="#151A6A"></path>
                    <path d="M7.392,26.4 L20.064,26.4 C20.6472127,26.4 21.12,25.9272127 21.12,25.344 C21.12,24.7607873 20.6472127,24.288 20.064,24.288 L7.392,24.288 C6.8087873,24.288 6.336,24.7607873 6.336,25.344 C6.336,25.9272127 6.8087873,26.4 7.392,26.4 Z" id="Path" fill="#151A6A"></path>
                    <path d="M21.12,30.624 C21.12,30.0407873 20.6472127,29.568 20.064,29.568 L7.392,29.568 C6.8087873,29.568 6.336,30.0407873 6.336,30.624 C6.336,31.2072127 6.8087873,31.68 7.392,31.68 L20.064,31.68 C20.6472127,31.68 21.12,31.2072127 21.12,30.624 Z" id="Path" fill="#151A6A"></path>
                    <path d="M0.11088,39.544032 L3.27888,45.880032 C3.45779236,46.2380705 3.82374859,46.4640158 4.224,46.4640158 L48.576,46.4640158 C48.9781519,46.4661952 49.3466414,46.2397788 49.5264,45.880032 L52.6944,39.544032 C52.7419395,39.3897048 52.7772487,39.2318727 52.8,39.072 L52.8,1.056 C52.8,0.472787304 52.3272127,0 51.744,0 L32.736,0 C30.1400741,0.00123598857 27.7350474,1.36408445 26.4,3.5904 C25.0649526,1.36408445 22.6599259,0.00123598857 20.064,0 L1.056,0 C0.472787304,0 7.50333129e-15,0.472787304 7.50333129e-15,1.056 L7.50333129e-15,39.072 C0.0244779818,39.2320172 0.0615532084,39.3898518 0.11088,39.544032 Z M2.764608,40.128 L20.064,40.128 C22.5721065,40.1311662 24.7331751,41.8953039 25.2384,44.352 L4.876608,44.352 L2.764608,40.128 Z M47.923392,44.352 L27.5616,44.352 C28.0668249,41.8953039 30.2278935,40.1311662 32.736,40.128 L50.035392,40.128 L47.923392,44.352 Z M32.736,2.112 L50.688,2.112 L50.688,38.016 L32.736,38.016 C30.7462436,38.0171981 28.841667,38.8235959 27.456,40.251552 L27.456,7.392 C27.4594913,4.47738387 29.8213839,2.11549126 32.736,2.112 Z M2.112,2.112 L20.064,2.112 C22.9786161,2.11549126 25.3405087,4.47738387 25.344,7.392 L25.344,40.251552 C23.958333,38.8235959 22.0537564,38.0171981 20.064,38.016 L2.112,38.016 L2.112,2.112 Z" id="Shape" fill="#333333"></path>
                    <path d="M32.736,10.56 L45.408,10.56 C45.9912127,10.56 46.464,10.0872127 46.464,9.504 C46.464,8.9207873 45.9912127,8.448 45.408,8.448 L32.736,8.448 C32.1527873,8.448 31.68,8.9207873 31.68,9.504 C31.68,10.0872127 32.1527873,10.56 32.736,10.56 Z" id="Path" fill="#151A6A"></path>
                    <path d="M32.736,15.84 L45.408,15.84 C45.9912127,15.84 46.464,15.3672127 46.464,14.784 C46.464,14.2007873 45.9912127,13.728 45.408,13.728 L32.736,13.728 C32.1527873,13.728 31.68,14.2007873 31.68,14.784 C31.68,15.3672127 32.1527873,15.84 32.736,15.84 Z" id="Path" fill="#151A6A"></path>
                    <path d="M32.736,21.12 L45.408,21.12 C45.9912127,21.12 46.464,20.6472127 46.464,20.064 C46.464,19.4807873 45.9912127,19.008 45.408,19.008 L32.736,19.008 C32.1527873,19.008 31.68,19.4807873 31.68,20.064 C31.68,20.6472127 32.1527873,21.12 32.736,21.12 Z" id="Path" fill="#151A6A"></path>
                    <path d="M32.736,26.4 L45.408,26.4 C45.9912127,26.4 46.464,25.9272127 46.464,25.344 C46.464,24.7607873 45.9912127,24.288 45.408,24.288 L32.736,24.288 C32.1527873,24.288 31.68,24.7607873 31.68,25.344 C31.68,25.9272127 32.1527873,26.4 32.736,26.4 Z" id="Path" fill="#151A6A"></path>
                    <path d="M32.736,31.68 L45.408,31.68 C45.9912127,31.68 46.464,31.2072127 46.464,30.624 C46.464,30.0407873 45.9912127,29.568 45.408,29.568 L32.736,29.568 C32.1527873,29.568 31.68,30.0407873 31.68,30.624 C31.68,31.2072127 32.1527873,31.68 32.736,31.68 Z" id="Path" fill="#151A6A"></path>
                </g>
            </g>
        </g>
    </g>
</svg>