<?xml version="1.0" encoding="UTF-8"?>
<svg width="79px" height="79px" viewBox="0 0 79 79" version="1.1" xmlns="http://www.w3.org/2000/svg" xmlns:xlink="http://www.w3.org/1999/xlink">
    <title>woman</title>
    <g id="SMO" stroke="none" stroke-width="1" fill="none" fill-rule="evenodd">
        <g id="Shortcourse-SMO-v2" transform="translate(-1150.000000, -2557.000000)" fill-rule="nonzero">
            <g id="woman" transform="translate(1150.000000, 2557.000000)">
                <path d="M45.4786392,18 C45.4699769,18 45.4613144,18 45.4520745,18 C44.6354981,17.9853516 43.9852401,17.3015625 44.0002549,16.4736329 C44.0464544,13.8263671 45.1800749,11.2482421 47.1932186,9.21445305 C49.2063621,7.17949215 51.7542651,6.0380859 54.3668473,6.00117195 C54.4170893,6 54.4696413,6 54.5216157,6 C55.3381921,6 56,6.67148445 56,7.5 C56,8.32851555 55.3381921,9 54.5216157,9 C54.4840786,9 54.445964,9 54.4090044,9.0005859 C52.5673764,9.02695305 50.7459609,9.8578125 49.2797039,11.3396484 C47.8140244,12.8208984 46.9887857,14.6625 46.956446,16.5263671 C46.9420087,17.3460938 46.2830882,18 45.4786392,18 L45.4786392,18 Z" id="Path" fill="#FF2584"></path>
                <path d="M54.0002076,29 C53.4800797,29 52.9930451,28.7483504 52.6939559,28.3247817 L49.2922068,23.514163 C48.7833183,22.7947191 48.9562779,21.7993328 49.6774638,21.2916733 C50.3986494,20.7840138 51.396446,20.9559328 51.9047102,21.6759995 L54.0002076,24.6391114 L56.0950806,21.6759995 C56.6039694,20.9565557 57.6011414,20.7846368 58.3229516,21.2916733 C59.0441374,21.7993328 59.2164727,22.7947191 58.707584,23.514163 L55.3064593,28.3247817 C55.0067457,28.7483504 54.5197111,29 54.0002076,29 L54.0002076,29 Z" id="Path" fill="#FF2584"></path>
                <path d="M54.0001658,0 C53.9177062,0 53.8340515,0.000607859768 53.7527869,0.00182358709 C49.4547268,0.0632174159 45.318001,1.89044396 42.1044646,5.1467487 C38.8909284,8.40244561 37.0792062,12.6021487 37.0027218,16.9720525 C36.899946,22.8676845 39.7131348,28.353011 44.528659,31.6457874 C46.5668464,33.0396098 47.6555529,34.8838564 48.9563837,37.2010178 L48.9563837,41.443879 C48.9563837,42.3033926 49.6411573,43 50.48607,43 L57.513664,43 C58.3585768,43 59.0433503,42.3033926 59.0433503,41.443879 L59.0433503,37.2095279 C60.3513517,34.8862878 61.4442409,33.0371785 63.4949766,31.6299831 C68.1945792,28.4046791 71,23.0433559 71,17.2881396 C71,7.75568282 63.3736772,0 54.0001658,0 L54.0001658,0 Z M55.9839777,39.887758 L52.0163538,39.887758 L52.0163538,38.3176562 L55.9839777,38.3176562 L55.9839777,39.887758 Z M61.78364,29.0502262 C59.3265814,30.7364291 57.9642045,32.8900763 56.6472402,35.2054142 L51.3578718,35.2054142 C50.0492729,32.8967628 48.6892861,30.741292 46.2352153,29.0629912 C42.2855174,26.3616624 39.9772446,21.8622845 40.0614968,17.0273678 C40.1236403,13.4701725 41.6156821,10.0339412 44.2633539,7.35206393 C46.9110258,4.66897084 50.2966519,3.16391005 53.797602,3.11406563 C53.8651232,3.11284983 53.9326445,3.11224201 54.0001658,3.11224201 C61.6868395,3.11224201 67.9406274,9.47167099 67.9406274,17.2887474 C67.9406274,22.0075629 65.6389275,26.4042127 61.78364,29.0502262 L61.78364,29.0502262 Z" id="Shape" fill="#FF2584"></path>
                <path d="M77.500293,79 C77.4024223,79 77.3033796,78.9912083 77.2060949,78.9712807 C77.1111545,78.9519391 77.0168002,78.9220475 76.9253761,78.8845365 C76.835124,78.8470255 76.7483883,78.8007229 76.6675132,78.7462148 C76.5848799,78.6922927 76.5081071,78.629579 76.439539,78.560418 C76.3686266,78.4912572 76.3070912,78.4150629 76.2520024,78.3324216 C76.1974995,78.2515386 76.1512013,78.1642083 76.113694,78.0727752 C76.0761867,77.9825144 76.0474702,77.8881509 76.0281305,77.792029 C76.0087908,77.695907 76,77.5968546 76,77.4995604 C76,77.4022662 76.0087908,77.3032138 76.0281305,77.2070919 C76.0474702,77.11097 76.0761867,77.0166064 76.113694,76.9251734 C76.1512013,76.8349125 76.1974995,76.7475823 76.2520024,76.6666993 C76.3070912,76.5840579 76.3686266,76.5078636 76.439539,76.4387028 C76.5081071,76.3695419 76.5848799,76.3068282 76.6675132,76.2529061 C76.7483883,76.198398 76.835124,76.1520953 76.9253761,76.1145843 C77.0168002,76.0770733 77.1111545,76.0471817 77.2060949,76.0290125 C77.3994921,75.9903292 77.5987497,75.9903292 77.792733,76.0290125 C77.8888455,76.0471817 77.9831998,76.0770733 78.0728657,76.1145843 C78.1631178,76.1520953 78.2516115,76.198398 78.3324868,76.2529061 C78.4151201,76.3068282 78.4918929,76.3695419 78.560461,76.4387028 C78.6296152,76.5078636 78.6929088,76.5840579 78.7468256,76.6666993 C78.8007423,76.7475823 78.8470403,76.8349125 78.8845477,76.9251734 C78.922055,77.0166064 78.9507716,77.11097 78.9701113,77.2070919 C78.9900372,77.3032138 79,77.4022662 79,77.4995604 C79,77.5968546 78.9900372,77.695907 78.9701113,77.792029 C78.9507716,77.8881509 78.922055,77.9825144 78.8845477,78.0727752 C78.8470403,78.1642083 78.8007423,78.2515386 78.7468256,78.3324216 C78.6929088,78.4150629 78.6296152,78.4912572 78.560461,78.560418 C78.4918929,78.629579 78.4151201,78.6922927 78.3324868,78.7462148 C78.2516115,78.8007229 78.1631178,78.8470255 78.0728657,78.8845365 C77.9831998,78.9220475 77.8888455,78.9519391 77.792733,78.9712807 C77.6966204,78.9912083 77.5975777,79 77.500293,79 Z" id="Path" fill="#FFFFFF"></path>
                <path d="M70.4643439,75.9048794 L60.0016023,75.9048794 L60.0016023,63.5020302 L61.7802985,63.5020302 C62.3377913,63.5020302 62.8508767,63.1985632 63.1221217,62.7083009 C63.393367,62.2180388 63.3801647,61.6183592 63.087316,61.1413961 L55.6472774,49.0057429 C55.367631,48.548729 54.8725486,48.2712563 54.3402599,48.2712563 C53.8073712,48.2712563 53.3128889,48.548729 53.0332424,49.0057429 L45.5932039,61.1413961 C45.3003551,61.6183592 45.2871529,62.2180388 45.5583982,62.7083009 C45.8296432,63.1985632 46.3427286,63.5020302 46.9002214,63.5020302 L48.6789176,63.5020302 L48.6789176,75.9048794 L41.2640832,75.9048794 L41.2640832,65.0501949 C41.2640832,64.5587237 41.1872704,64.0853878 41.045647,63.6404643 C44.4704169,59.2734426 44.2537809,53.0028009 44.1085568,48.7790495 C44.0839526,48.0663254 44.0605488,47.3934994 44.0605488,46.8355314 C44.0605488,38.9405559 42.0448133,32.104692 38.2305783,27.0678669 C34.233913,21.78984 28.6517838,19 22.0872911,19 C15.5233984,19 9.94126928,21.78984 5.94460384,27.0678669 C2.13096913,32.104692 0.114633485,38.9405559 0.114633485,46.8355314 C0.114633485,47.3934994 0.0912295508,48.0663254 0.0666254936,48.7790495 C-0.0785987575,53.0028009 -0.294634719,59.2734426 3.12953535,63.6404643 C2.98791178,64.0853878 2.91109899,64.5587237 2.91109899,65.0501949 L2.91109899,77.4524397 C2.91109899,78.307225 3.59881339,79 4.44735472,79 L70.4637439,79 C71.3122851,79 72,78.307225 72,77.4524397 C72,76.5976544 71.3122851,75.9048794 70.4643439,75.9048794 Z M3.13733661,48.8860487 C3.16314094,48.1461215 3.18714494,47.4473013 3.18714494,46.8355314 C3.18714494,32.0375907 10.7826093,22.0951206 22.0878912,22.0951206 C33.3931731,22.0951206 40.9886374,32.0375907 40.9886374,46.8355314 C40.9886374,47.4473013 41.0126414,48.1461215 41.0384456,48.8860487 C41.1602659,52.430929 41.3390958,57.6031656 39.0695179,61.1093568 C38.372802,60.6789416 37.5536657,60.4304856 36.6781199,60.4304856 L30.3848722,60.4304856 C30.3350641,60.4304856 30.2858558,60.4329039 30.2366475,60.43774 C29.9167943,60.289029 29.1384648,59.2613523 29.0220453,56.2387736 C31.6258788,54.2614026 33.1633348,51.7327134 33.7310293,50.6772289 C34.7872051,48.7119482 35.3284952,41.9020785 35.4479152,39.4441176 C35.4755197,38.8710365 35.1868717,38.3299951 34.6971902,38.0374095 C34.2075086,37.7448238 33.5978072,37.7490553 33.1123262,38.0482907 C31.5040585,39.037883 29.6527504,39.5613936 27.7570349,39.5613936 C22.1917084,39.5613936 18.8491519,37.6082032 17.8223811,33.7568336 C17.6501524,33.1106062 17.0848584,32.6487561 16.4211479,32.6130897 C15.7580375,32.5756098 15.1465357,32.9745902 14.9064957,33.5984504 C13.9499366,36.081801 12.0224156,38.1468268 9.61841546,39.2645763 C9.05552169,39.5269362 8.70386322,40.1036442 8.72726716,40.7281089 C8.85148788,44.054759 9.38197603,48.6563327 10.468757,50.6772289 C11.0358515,51.7327134 12.5733073,54.2614026 15.1777409,56.2387736 C15.0607214,59.2613523 14.2829919,60.289029 13.9625386,60.43774 C13.9139304,60.4329039 13.8647223,60.4304856 13.814914,60.4304856 L7.49766252,60.4304856 C6.62211673,60.4304856 5.80298042,60.6789416 5.10626432,61.1093568 C2.83728666,57.6031656 3.01551629,52.430929 3.13733661,48.8860487 L3.13733661,48.8860487 Z M28.0792885,62.6575218 C27.4947912,63.9548124 26.6180453,65.9370196 26.0371486,67.4084108 L18.1626377,67.4084108 C17.581741,65.9370196 16.7049951,63.9548124 16.1210979,62.6575218 C17.1838749,61.6981552 18.2652548,59.6820952 18.2652548,55.4498806 C18.2652548,54.9318105 18.0072119,54.4475935 17.5787405,54.1610531 C15.1219316,52.5173748 13.6774911,50.1458595 13.1704068,49.202815 C12.6657226,48.2640021 12.0596218,45.3411685 11.8441859,41.5913575 C13.5676728,40.613251 15.063722,39.2482544 16.2087124,37.6293613 C18.3528695,40.8955598 22.3369327,42.6559097 27.7570349,42.6559097 C29.2818887,42.6559097 30.7851389,42.3953633 32.2055754,41.8905927 C31.9031251,45.4644897 31.3864391,48.5378477 31.0293796,49.202815 C30.5222952,50.1458595 29.0772547,52.5167703 26.6210457,54.1604486 C26.1925745,54.4475935 25.9351315,54.9312061 25.9351315,55.4498806 C25.9351315,59.6820952 27.0165116,61.6981552 28.0792885,62.6575218 Z M5.98361045,75.9048794 L5.98361045,65.0501949 C5.98361045,64.2093135 6.66292352,63.5256062 7.49766252,63.5256062 L13.1374012,63.5256062 C13.820315,65.0344775 15.166939,68.0552427 15.6476191,69.4601373 C15.8612547,70.084602 16.4445518,70.5035313 17.0998609,70.5035313 L27.0999255,70.5035313 C27.7558346,70.5035313 28.3391317,70.084602 28.5527673,69.4601373 C29.0334473,68.0558472 30.3800714,65.0344775 31.0629852,63.5256062 L36.6787199,63.5256062 C37.5134589,63.5256062 38.1921719,64.2093135 38.1921719,65.0501949 L38.1921719,75.9048794 L5.98361045,75.9048794 Z M51.7520291,75.9048794 L51.7520291,63.5020302 L53.0554461,63.5020302 C53.9039873,63.5020302 54.5917018,62.8092551 54.5917018,61.9544699 C54.5917018,61.0996846 53.9039873,60.4069096 53.0554461,60.4069096 L49.65468,60.4069096 L54.3402599,52.7640172 L59.0258399,60.4069096 L58.4653465,60.4069096 C57.6168054,60.4069096 56.9290908,61.0996846 56.9290908,61.9544699 L56.9290908,75.9048794 L51.7520291,75.9048794 Z" id="Shape" fill="#477CA8"></path>
            </g>
        </g>
    </g>
</svg>