<?xml version="1.0" encoding="UTF-8"?>
<svg width="64px" height="35px" viewBox="0 0 64 35" version="1.1" xmlns="http://www.w3.org/2000/svg" xmlns:xlink="http://www.w3.org/1999/xlink">
    <title>GMU Logo Reverse in Pin</title>
    <g id="SMO" stroke="none" stroke-width="1" fill="none" fill-rule="evenodd">
        <g id="smo-Mobile" transform="translate(-10.000000, -84.000000)" fill="#FFFFFF">
            <g id="Group-3" transform="translate(10.000000, 80.000000)">
                <g id="GMU-Logo-Reverse-in-Pin" transform="translate(0.000000, 4.200000)">
                    <g id="Group-31">
                        <path d="M53.764032,0.012068 C58.884602,0.012068 63.086142,4.213538 63.086142,9.334178 C63.086142,14.454748 58.884602,18.590628 53.764032,18.590628 C50.809892,18.590628 48.183912,17.211978 46.477032,15.045618 C47.724362,13.469988 48.512212,11.500608 48.512212,9.334178 C48.512212,7.167748 47.724362,5.132638 46.477032,3.557078 C48.183912,1.390718 50.809892,0.012068 53.764032,0.012068 Z M51.728978,4.607456 L50.350328,4.607456 L50.350328,10.581466 C50.350328,12.485326 51.794568,14.060886 53.764018,14.060886 C55.667878,14.060886 57.243438,12.550986 57.243438,10.712786 L57.243438,10.712786 L57.243438,4.607456 L55.864788,4.607456 L55.864788,10.647126 C55.864788,11.828796 55.011418,12.747896 53.764018,12.747896 C52.516758,12.747896 51.728978,11.828796 51.728978,10.581466 L51.728978,10.581466 L51.728978,4.607456 Z" id="Combined-Shape"></path>
                        <path d="M38.993143,0.012068 C44.113643,0.012068 48.249523,4.213538 48.249523,9.334178 C48.249523,14.454748 44.113643,18.590628 38.993143,18.590628 C36.038933,18.590628 33.412953,17.211978 31.706073,15.045618 C32.953473,13.469988 33.675593,11.500608 33.675593,9.334178 C33.675593,7.167748 32.953473,5.132638 31.706073,3.557078 C33.412953,1.390718 36.038933,0.012068 38.993143,0.012068 Z M35.84196,4.607456 L34.72595,4.607456 L34.72595,14.060886 L36.10453,14.060886 L36.10453,7.233436 L39.05874,11.172336 L41.8817,7.364756 L41.8817,14.060886 L43.19462,14.060886 L43.19462,4.607456 L42.20993,4.607456 L38.99315,8.940246 L35.84196,4.607456 Z" id="Combined-Shape"></path>
                        <path d="M24.156531,0.012068 C29.277101,0.012068 33.478641,4.213538 33.478641,9.334178 C33.478641,14.454748 29.277101,18.590628 24.156531,18.590628 C21.202321,18.590628 18.576411,17.211978 16.869531,15.045618 C18.116861,13.469988 18.838981,11.500608 18.838981,9.334178 C18.838981,7.167748 18.116861,5.132638 16.869531,3.557078 C18.576411,1.390718 21.202321,0.012068 24.156531,0.012068 Z M24.156531,4.607456 C21.530621,4.607456 19.429851,6.708226 19.429851,9.334136 C19.429851,11.894456 21.530621,14.060886 24.156531,14.060886 C26.716851,14.060886 28.817551,12.025776 28.883211,9.465456 L28.883211,9.465456 L23.500071,9.465456 L23.500071,10.844106 L27.110741,10.844106 C26.585531,11.894456 25.469521,12.616646 24.156531,12.616646 C22.318401,12.616646 20.874091,11.172336 20.874091,9.334136 C20.874091,7.496006 22.318401,5.986106 24.156531,5.986106 C25.535181,5.986106 26.716851,6.839546 27.176401,7.955556 L27.176401,7.955556 L28.686301,7.955556 C28.095501,6.051696 26.322961,4.607456 24.156531,4.607456 Z" id="Combined-Shape"></path>
                        <path d="M9.385607,0.012047 C14.440517,0.012047 18.642057,4.213587 18.642057,9.334157 C18.642057,14.454797 14.440517,18.590607 9.385607,18.590607 C4.265037,18.590607 0.063497,14.454797 0.063497,9.334157 C0.063497,4.213587 4.265037,0.012047 9.385607,0.012047 Z M12.01158,2.769305 C11.88026,2.834965 11.94592,2.900625 11.8146,2.900625 C11.68328,2.966285 11.61762,2.900625 11.48637,2.966285 C11.35505,3.163195 11.48637,3.228855 11.48637,3.360105 C11.55203,3.491425 11.55203,3.622745 11.61762,3.753995 C11.74894,3.819655 11.8146,3.819655 11.94592,3.950975 C12.01158,4.016635 12.07717,4.147955 12.14283,4.213545 C12.47106,4.476185 12.66804,4.147955 12.93061,5.001325 C12.93061,5.198305 13.06193,5.198305 13.12759,5.329625 C13.06193,5.460875 12.99627,5.526535 12.93061,5.657855 C13.12759,5.854835 13.39016,5.920425 13.58714,6.051745 C13.58714,6.248655 13.58714,6.379975 13.3245,6.379975 C13.45582,6.970845 13.12759,6.839525 13.58714,7.495985 C13.91537,7.889875 14.11235,7.889875 14.17794,8.349425 C14.30926,9.005885 15.03138,9.399845 14.37485,9.793735 C14.2436,9.859395 14.17794,9.924985 14.11235,10.056305 C14.04669,10.187625 14.11235,10.121965 13.98103,10.187625 C14.04669,9.924985 13.98103,9.990645 13.98103,9.728075 C13.98103,9.399845 14.04669,9.465435 13.91537,9.268525 C13.71846,9.268525 13.58714,9.268525 13.45582,9.399845 C13.19325,9.662415 13.3245,9.465435 13.12759,9.596755 C12.99627,9.728075 13.06193,9.859395 12.99627,10.056305 C12.93061,10.187625 12.79936,10.187625 12.7337,10.318875 C12.79936,10.581515 12.86502,10.647175 12.93061,10.844085 L12.93061,10.844085 L13.19325,11.303635 C13.19325,11.434885 12.99627,11.697525 12.93061,11.763115 C12.47106,12.025755 12.86502,11.369295 12.14283,12.485305 C12.07717,12.616625 12.07717,12.682215 12.01158,12.747875 C11.68328,13.076105 11.55203,12.682215 11.42071,12.616625 C11.09248,12.616625 10.50161,13.010445 10.23904,13.141765 C10.04213,13.273085 9.97647,13.469995 9.71383,13.207425 C9.45126,13.010445 9.51692,13.076105 9.12303,13.207425 C8.92605,13.338745 8.72914,13.404405 8.53216,13.207425 C8.20393,12.813535 8.07261,12.747875 7.48181,12.550965 C7.35049,12.550965 7.28483,12.485305 7.15351,12.550965 C7.08792,12.616625 7.02226,12.682215 7.02226,12.747875 L7.02226,12.747875 L7.02226,12.813535 C6.36573,12.747875 6.03757,11.566205 5.24972,11.303635 C5.51236,10.844085 5.51236,10.318875 5.4467,9.793735 C5.38104,9.596755 5.31538,9.465435 5.31538,9.268525 C5.11847,9.268525 5.24972,9.268525 5.11847,9.334185 C5.11847,9.071545 4.92149,8.808975 4.79024,8.677655 C4.65892,8.743315 4.59326,8.874635 4.5276,9.071545 C4.46194,9.334185 4.46194,9.399845 4.39628,9.662415 C4.33069,10.318875 4.59326,10.450195 4.65892,10.844085 L4.65892,10.844085 L4.59326,10.844085 L4.5276,10.647175 C4.46194,10.581515 4.46194,10.515855 4.39628,10.384535 C4.26503,10.121965 3.9368,9.334185 4.06805,9.005885 L4.06805,9.005885 L4.13371,8.743315 C4.33069,8.283765 4.5276,7.758555 4.79024,7.299075 C4.92149,6.905185 5.11847,6.576955 5.05281,6.117405 C4.98715,5.986085 5.11847,5.789175 5.18413,5.592195 C5.4467,4.673095 4.85583,5.395285 6.10316,4.410525 C6.30007,4.279205 6.36573,4.213545 6.49705,4.082295 C6.62837,3.885315 7.15351,3.294445 6.62837,3.228855 L6.62837,3.228855 L6.62837,2.900625 C5.4467,2.900625 4.92149,4.213545 4.72458,4.344865 C4.72458,4.147955 4.79024,3.622745 4.46194,3.819655 C4.33069,3.950975 4.19937,4.147955 4.13371,4.344865 C3.9368,4.541775 3.73982,5.263965 3.73982,5.657855 L3.73982,5.657855 L3.67416,5.657855 C3.6085,5.263965 3.34593,5.198305 3.08336,5.723515 C2.62381,6.773865 2.62381,8.349425 3.34593,9.202865 C3.6085,9.465435 3.80548,9.596755 3.80548,10.056305 C3.67416,9.924985 3.54291,9.793735 3.41159,9.662415 C3.28027,9.531095 3.14895,9.399845 2.95204,9.399845 C2.68947,9.924985 3.21461,10.844085 3.54291,11.237975 C3.67416,11.369295 3.80548,11.566205 4.00239,11.763115 C4.13371,11.828775 4.19937,11.894435 4.26503,11.960095 C5.05281,12.682215 5.24972,12.550965 5.84059,13.010445 C5.92813667,13.0542183 5.95731889,13.0688094 6.02539,13.093128 L6.16882,13.141765 C6.36573,13.207425 6.56271,13.207425 6.75962,13.338745 C6.89094,13.338745 6.89094,13.338745 6.89094,13.469995 C6.62837,13.535655 6.30007,13.535655 5.97191,13.535655 C5.77493,13.535655 5.38104,13.469995 5.18413,13.404405 C4.98715,13.207425 4.46194,12.616625 4.26503,12.353985 C4.19937,12.157075 4.13371,11.960095 3.9368,11.763115 C3.80548,11.631865 3.6085,11.500545 3.34593,11.434885 C2.62381,11.369295 2.88638,11.697525 2.62381,12.157075 C2.36117,12.616625 2.22992,12.419645 3.34593,13.404405 L3.34593,13.404405 L4.39628,14.257845 C4.92149,14.651735 4.98715,14.717325 5.70927,14.782985 L5.70927,14.782985 L6.62837,14.848645 C6.9566,14.782985 7.15351,14.717325 7.54747,14.717325 C7.48181,14.848645 7.28483,14.914305 7.15351,14.979965 C7.02226,15.111285 6.9566,15.111285 6.82528,15.308195 C6.89094,15.505105 7.08792,15.636425 7.28483,15.767745 C7.67872,16.030315 8.13827,15.242535 8.53216,14.914305 C9.18869,14.389095 8.86039,14.782985 9.45126,14.717325 C9.77949,14.717325 9.84515,14.651735 10.17338,14.914305 C10.50161,15.242535 10.76418,15.898995 11.28939,15.767745 C11.42071,15.702085 11.55203,15.636425 11.61762,15.570765 C11.61762,15.373855 11.55203,15.308195 11.42071,15.176875 C11.35505,15.111285 11.15814,14.979965 11.09248,14.914305 L11.09248,14.914305 L13.13244,14.9140485 C13.4250408,14.9122531 13.5543013,14.89789 13.78405,14.782985 L13.78405,14.782985 L14.30926,14.323505 C14.44051,14.257845 14.44051,14.257845 14.57183,14.126525 C14.96572,13.798295 15.35961,13.338745 15.7535,13.010445 C15.95048,12.879195 16.21305,12.616625 16.27871,12.419645 L16.27871,12.419645 L16.27871,12.353985 C16.27871,12.288325 16.21305,12.222665 16.21305,12.157075 C16.08173,11.894435 16.14739,11.237975 15.68784,11.303635 C15.22829,11.369295 15.22829,11.763115 14.70315,12.222665 C14.44051,12.550965 14.11235,12.879195 13.78405,13.141765 C13.58714,13.338745 13.52148,13.469995 13.19325,13.469995 C12.99627,13.535655 12.60238,13.601315 12.33981,13.601315 L12.33981,13.601315 L12.33981,13.535655 C12.79936,13.535655 13.45582,13.141765 13.84971,12.944855 C14.11235,12.813535 14.04669,12.879195 14.11235,12.616625 C14.17794,12.419645 14.30926,12.353985 14.44051,12.157075 C14.50617,12.091415 14.44051,12.091415 14.57183,12.025755 C14.70315,11.960095 14.76881,11.960095 14.90006,11.763115 C14.96572,11.631865 14.90006,11.566205 15.03138,11.434885 C15.1627,11.237975 15.35961,10.975405 15.42527,10.712765 C15.49093,10.515855 15.62225,10.450195 15.68784,10.187625 C15.7535,10.056305 15.7535,10.121965 15.7535,9.990645 C15.81916,9.924985 15.88482,9.268525 15.81916,9.137205 C15.7535,9.005885 15.62225,9.071545 15.42527,9.071545 C15.29395,8.874635 15.42527,8.677655 15.55659,8.480745 C15.62225,8.349425 15.95048,7.955535 15.68784,7.889875 C15.81916,7.758555 15.88482,7.758555 15.88482,7.495985 C15.81916,7.299075 15.7535,7.233415 15.7535,7.036505 C15.68784,6.314315 15.68784,6.576955 15.49093,6.051745 C15.42527,5.789175 15.55659,5.789175 15.29395,5.657855 C14.70315,5.263965 14.76881,4.804415 14.57183,4.476185 C14.50617,4.607435 14.57183,4.541775 14.44051,4.607435 C14.37485,4.476185 14.2436,4.016635 14.04669,4.082295 C13.78405,4.147955 13.58714,3.885315 13.3245,3.688405 C13.19325,3.622745 13.19325,3.688405 13.06193,3.491425 C12.93061,3.360105 12.86502,3.163195 12.66804,3.097605 C12.53672,3.031945 12.40547,3.031945 12.33981,2.966285 C12.20849,2.900625 12.20849,2.834965 12.01158,2.769305 Z M7.41615,15.373855 C7.67872,15.373855 7.61306,15.702085 7.35049,15.636425 C7.28483,15.636425 6.89094,15.373855 7.15351,15.373855 L7.41615,15.373855 Z M11.42071,15.505105 C11.35505,15.570765 11.28939,15.636425 11.15814,15.636425 L10.96116,15.570765 C10.96116,15.176875 11.35505,15.308195 11.42071,15.505105 Z M10.17338,14.717325 C10.37029,14.717325 10.8955,14.979965 10.96116,15.176875 C10.69859,15.176875 10.82984,15.242535 10.63293,15.308195 C10.63293,15.111285 10.3047,14.914305 10.17338,14.717325 Z M8.53216,14.651735 C8.4665,14.717325 7.8757,15.308195 7.74438,15.308195 C7.61306,15.308195 7.67872,15.242535 7.54747,15.242535 C7.48181,15.176875 7.35049,15.176875 7.28483,15.176875 C7.35049,15.111285 7.67872,14.914305 7.81004,14.848645 C8.07261,14.717325 8.13827,14.651735 8.53216,14.651735 Z M15.81916,11.566205 C15.95048,11.566205 15.95048,11.828775 15.95048,11.960095 C16.14739,12.419645 16.41003,12.353985 15.35961,13.207425 L13.71846,14.586075 C13.58714,14.717325 13.45582,14.717325 13.19325,14.717325 C12.60238,14.717325 11.8146,14.782985 11.22373,14.717325 C10.96116,14.717325 10.56727,14.651735 10.3047,14.520415 C10.04213,14.389095 10.50161,14.257845 9.97647,13.535655 L10.50161,13.535655 C11.28939,13.666975 12.86502,13.929545 13.58714,13.535655 C13.6528,13.469995 13.84971,13.338745 13.91537,13.273085 L14.30926,12.879195 C14.63749,12.616625 15.03138,12.222665 15.35961,11.828775 C15.49093,11.631865 15.49093,11.566205 15.81916,11.566205 Z M3.0177,11.697525 C3.28027,11.763115 4.00239,12.288325 4.19937,12.550965 C4.39628,12.747875 4.98715,13.404405 5.24972,13.535655 C5.4467,13.601315 5.77493,13.666975 6.10316,13.666975 C6.30007,13.666975 6.30007,13.601315 6.56271,13.601315 L7.08792,13.601315 C7.28483,13.601315 7.74438,13.535655 8.00695,13.535655 L8.92605,13.535655 C8.99171,13.798295 9.18869,13.929545 9.12303,14.323505 C8.7948,14.454755 6.75962,14.717325 6.16882,14.651735 C5.84059,14.651735 5.31538,14.651735 5.11847,14.520415 C4.92149,14.454755 2.62381,12.550965 2.62381,12.485305 C2.62381,12.288325 2.75506,12.288325 2.88638,12.157075 C2.95204,12.025755 2.95204,11.828775 3.0177,11.697525 Z M9.25435,13.404405 C9.45126,13.404405 9.64824,13.601315 9.71383,13.666975 C9.77949,13.732635 9.84515,13.798295 9.91081,13.863955 C10.23904,14.323505 9.84515,14.323505 9.71383,14.323505 C9.58258,14.389095 9.64824,14.520415 9.3856,14.520415 C9.3856,14.323505 9.51692,14.323505 9.51692,14.060865 C9.51692,13.863955 8.99171,13.404405 9.25435,13.404405 Z M6.9566,13.076105 C7.08792,13.141765 7.15351,13.207425 7.28483,13.273085 C7.54747,13.338745 7.48181,13.207425 7.61306,13.207425 C7.74438,13.207425 7.8757,13.338745 7.8757,13.469995 C7.61306,13.469995 7.08792,13.273085 6.89094,13.141765 C6.62837,12.944855 6.49705,12.944855 6.16882,12.879195 C6.16882,12.879195 6.10316,12.879195 6.03757,12.813535 C5.97191,12.813535 5.97191,12.813535 5.90625,12.747875 C6.89094,12.747875 6.10316,12.550965 6.9566,13.076105 Z M13.12759,12.419645 C13.25891,12.616625 13.3245,12.879195 13.19325,13.076105 C13.12759,13.141765 12.99627,13.141765 12.93061,13.207425 C12.7337,13.338745 12.7337,13.469995 12.33981,13.469995 L11.88026,13.469995 C11.74894,13.469995 11.88026,13.469995 11.8146,13.404405 C11.8146,13.338745 11.74894,13.404405 11.8146,13.338745 C11.88026,13.338745 11.88026,13.273085 11.94592,13.273085 C12.86502,12.944855 12.40547,13.273085 12.93061,12.550965 C13.06193,12.419645 12.99627,12.419645 13.12759,12.419645 Z M7.94136,12.944855 C8.13827,13.010445 8.33525,13.141765 8.33525,13.273085 C8.07261,13.273085 7.81004,13.076105 7.61306,12.944855 C7.35049,13.076105 7.35049,13.338745 7.15351,12.879195 C7.54747,12.616625 7.35049,12.747875 7.94136,12.944855 Z M13.78405,11.172315 C13.71846,11.237975 13.12759,11.894435 13.06193,12.025755 C12.79936,12.419645 12.40547,12.419645 12.40547,13.076105 C12.20849,13.010445 12.20849,13.010445 12.01158,13.141765 C11.88026,13.207425 11.74894,13.273085 11.61762,13.273085 C11.74894,13.076105 12.01158,12.944855 12.20849,12.813535 C12.47106,12.682215 12.53672,12.485305 12.66804,12.157075 C12.7337,11.960095 12.7337,12.025755 12.93061,11.960095 C12.99627,11.894435 13.39016,11.369295 13.78405,11.172315 Z M13.71846,12.550965 C13.78405,12.550965 13.84971,12.616625 13.91537,12.616625 C13.84971,12.813535 13.52148,12.879195 13.39016,13.010445 C13.39016,12.879195 13.39016,12.813535 13.45582,12.747875 C13.45582,12.550965 13.52148,12.550965 13.71846,12.550965 Z M9.188697,4.476178 C8.466507,4.476178 7.613067,4.738748 7.087927,5.132638 C6.497057,5.526528 6.037507,5.986078 5.709277,6.642608 C5.577957,6.970838 5.315387,7.627298 5.315387,8.152508 C5.315387,8.940288 5.381047,9.334178 5.709277,10.121958 C6.300077,11.303628 7.613067,12.288318 9.057377,12.288318 C10.370297,12.288318 11.158147,11.960088 12.011587,11.106718 C14.440517,8.677648 12.733707,4.476178 9.188697,4.476178 Z M15.09704,10.056305 C15.1627,10.253215 15.1627,10.187625 15.1627,10.384535 C15.1627,10.712765 15.49093,10.712765 15.03138,11.172315 C14.70315,11.434885 14.8344,11.303635 14.76881,11.631865 C14.70315,11.828775 14.70315,11.828775 14.63749,11.894435 C14.50617,11.894435 14.44051,11.960095 14.30926,11.960095 C14.04669,12.157075 14.30926,12.222665 13.91537,12.288325 C13.98103,12.025755 14.37485,11.828775 14.57183,11.697525 C14.57183,11.566205 14.57183,11.631865 14.44051,11.566205 C14.57183,11.500545 14.57183,11.434885 14.63749,11.369295 C14.8344,11.172315 14.70315,11.237975 14.70315,11.041065 C14.70315,10.909745 14.96572,10.909745 15.03138,10.844085 C14.96572,10.778425 15.03138,10.778425 14.8344,10.778425 C14.90006,10.581515 14.96572,10.581515 14.96572,10.318875 C14.90006,10.318875 14.8344,10.318875 14.76881,10.384535 C14.76881,10.712765 14.70315,10.778425 14.63749,11.041065 L14.57183,11.041065 C14.57183,10.909745 14.57183,10.909745 14.50617,10.844085 C14.50617,11.041065 14.63749,11.369295 14.30926,11.631865 C14.2217367,11.6099783 14.1852667,11.5880917 14.1731074,11.5710687 L14.171497,11.568047 L14.1459321,11.5740836 C14.11235,11.5950926 14.11235,11.658115 14.11235,11.763115 C14.11235,11.894435 14.11235,11.894435 14.04669,11.960095 C13.98103,12.025755 13.91537,12.091415 13.84971,12.091415 C13.91537,11.500545 14.04669,11.894435 14.04669,11.369295 C14.17794,11.434885 14.11235,11.434885 14.2436,11.434885 C14.2436,11.172315 14.11235,11.041065 14.11235,10.844085 C14.2436,10.778425 14.30926,10.712765 14.37485,10.647175 C14.37485,10.515855 14.30926,10.515855 14.2436,10.318875 C14.76881,10.318875 14.37485,10.318875 14.63749,10.384535 C14.70315,10.384535 14.90006,10.121965 15.09704,10.056305 Z M5.18413,11.500545 C5.31538,11.500545 5.51236,11.697525 5.64368,11.828775 C5.77493,11.960095 5.90625,12.091415 5.97191,12.288325 L5.77493,12.091415 C5.64368,12.025755 5.64368,12.025755 5.51236,11.894435 C5.4467,11.763115 5.24972,11.631865 5.18413,11.500545 Z M12.011587,10.647168 C11.880267,11.369288 10.435957,12.025748 9.910747,12.025748 L9.254357,12.025748 C8.991717,12.025748 8.860397,11.960088 8.663487,11.960088 C9.385607,11.960088 10.042067,11.763178 10.567277,11.566268 C10.829847,11.434948 11.158147,11.303628 11.355057,11.172308 C11.486377,11.106718 11.617627,11.041058 11.683287,10.909738 C11.814607,10.844078 11.945927,10.712758 12.011587,10.647168 Z M3.08336,9.662415 C3.54291,9.924985 4.65892,11.631865 4.72458,12.025755 C4.46194,11.894435 3.80548,10.975405 3.6085,10.712765 C3.54291,10.581515 3.54291,10.515855 3.47725,10.450195 L3.34593,10.253215 C3.28027,10.187625 3.34593,10.187625 3.28027,10.187625 C3.28027,10.515855 3.47725,10.778425 3.67416,10.975405 C3.73982,11.041065 3.80548,11.172315 3.87114,11.237975 C3.9368,11.369295 4.06805,11.500545 4.06805,11.631865 C3.41159,11.172315 3.08336,10.515855 3.08336,9.662415 Z M9.713837,10.450188 C9.582517,10.647168 9.385607,10.844078 9.385607,11.172308 C9.385607,11.369288 9.516857,11.500608 9.582517,11.631858 C9.319947,11.697518 8.203937,11.894498 7.941367,11.566268 C7.744387,11.172308 7.810047,10.909738 7.810047,10.647168 C8.269597,10.844078 9.516857,10.450188 9.713837,10.450188 Z M6.365737,10.187618 L6.890947,10.450188 C7.087927,10.515848 7.350497,10.581508 7.547477,10.581508 C7.350497,10.975398 7.678727,11.434948 7.678727,11.566268 C7.416157,11.566268 6.956607,11.303628 6.759627,11.172308 C6.497057,10.975398 6.365737,10.647168 6.365737,10.187618 Z M12.011587,10.450188 C11.748947,10.844078 10.304707,11.500608 9.976407,11.500608 C9.976407,11.500608 9.845157,11.369288 9.779497,11.369288 C9.123037,10.581508 11.748947,9.465428 12.011587,10.450188 Z M4.79024,8.874635 C4.92149,9.334185 5.18413,9.859395 5.18413,10.581515 L5.18413,10.909745 L5.117497,11.171047 L4.79024,9.334185 C4.72458,9.268525 4.79024,9.268525 4.72458,9.268525 L4.72458,9.399845 C4.72458,9.859395 4.92149,10.778425 4.92149,11.237975 L4.5276,10.121965 C4.5276,9.859395 4.5276,9.728075 4.59326,9.465435 C4.65892,9.334185 4.72458,9.005885 4.79024,8.874635 Z M12.93061,10.318875 C13.25891,10.318875 12.99627,10.450195 13.12759,10.647175 C13.19325,10.844085 13.39016,10.909745 13.39016,11.106725 L13.39016,11.172315 C12.99627,10.909745 12.99627,10.515855 12.93061,10.318875 Z M13.3245,9.793735 C13.3245,10.187625 13.6528,10.515855 13.45582,10.909745 C13.39016,10.844085 13.3245,10.712765 13.25891,10.647175 C13.12759,10.450195 13.25891,10.450195 13.25891,10.253215 C13.25891,9.990645 13.12759,9.924985 13.3245,9.793735 Z M15.68784,9.334185 C15.62225,9.465435 15.62225,9.596755 15.62225,9.728075 C15.62225,9.924985 15.68784,9.793735 15.55659,10.056305 C15.42527,10.187625 15.49093,10.187625 15.55659,10.318875 C15.49093,10.384535 15.49093,10.384535 15.35961,10.384535 C15.35961,9.990645 15.29395,10.187625 15.42527,9.924985 C15.03138,9.924985 15.42527,9.596755 15.42527,9.399845 C15.35961,9.465435 15.35961,9.465435 15.22829,9.531095 C15.1627,9.596755 15.09704,9.728075 15.09704,9.662415 C15.03138,9.531095 15.22829,9.268525 15.35961,9.268525 C15.55659,9.268525 15.49093,9.268525 15.68784,9.334185 Z M8.991717,8.677648 C8.926057,8.743308 8.663487,8.940288 8.597827,9.005878 C8.138277,9.399838 7.875707,9.793728 7.613067,10.318868 C7.416157,10.253208 7.153517,10.253208 6.956607,10.187618 L6.365737,9.924978 C6.497057,9.399838 6.562717,9.137198 6.825287,8.677648 C7.022267,8.677648 7.153517,8.743308 7.350497,8.808968 C7.941367,8.874628 8.466507,8.808968 8.991717,8.677648 Z M12.077177,8.218098 C12.208497,8.283758 12.274157,8.349418 12.405477,8.349418 C11.880267,9.334178 10.567277,9.924978 9.451267,10.187618 C8.991717,10.318868 8.597827,10.318868 8.006957,10.318868 C8.269597,9.728068 8.794807,9.202858 9.385607,8.874628 C10.042067,8.480738 11.158147,8.021188 12.077177,8.218098 Z M12.536727,8.415078 C12.733707,8.546398 12.930617,8.808968 12.930617,9.005878 C12.930617,9.399838 12.668047,9.793728 12.471067,10.056298 C12.405477,10.187618 12.274157,10.253208 12.142837,10.318868 C12.142837,9.859388 11.748947,9.728068 11.355057,9.728068 C11.355057,9.662408 11.355057,9.662408 11.420717,9.662408 C11.420717,9.596748 11.420717,9.596748 11.486377,9.596748 C11.880267,9.268518 12.339817,8.874628 12.536727,8.415078 Z M13.78405,9.399845 C13.84971,9.728075 13.98103,10.121965 13.71846,10.187625 L13.71846,9.793735 L13.6528,9.793735 C13.6528,9.924985 13.58714,10.056305 13.58714,10.187625 L13.52148,10.187625 C13.52148,10.056305 13.45582,10.056305 13.45582,9.990645 C13.52148,9.924985 13.52148,9.924985 13.52148,9.859395 C13.58714,9.662415 13.52148,9.793735 13.52148,9.662415 C13.52148,9.465435 13.6528,9.399845 13.78405,9.399845 Z M5.774937,7.889938 C5.840597,7.955528 6.168827,8.415078 6.562717,8.546398 C6.497057,8.743308 6.168827,9.268518 6.168827,9.728068 C6.037507,9.662408 5.971847,9.662408 5.906187,9.531088 C5.840597,9.465428 5.774937,9.399838 5.709277,9.334178 C5.315387,8.743308 5.709277,8.152508 5.774937,7.889938 Z M4.19937,6.051745 C4.19937,6.379975 4.06805,6.642615 3.9368,6.905185 C3.73982,7.299075 3.67416,8.349425 3.73982,8.808975 L3.935497,9.724047 L3.67416,8.874635 C3.54291,8.349425 3.67416,7.364735 3.87114,6.839525 C3.9368,6.708205 4.00239,6.642615 4.00239,6.445635 L4.13371,6.183065 C4.19937,6.051745 4.13371,6.117405 4.19937,6.051745 Z M4.85583,6.051745 C4.85583,6.576955 4.85583,6.773865 4.65892,7.233415 L4.5276,7.430325 C4.59326,7.102165 4.72458,6.839525 4.72458,6.511295 L4.13371,8.218105 C4.13371,8.283765 4.06805,8.349425 4.06805,8.480745 L3.9368,8.743315 C3.9368,8.349425 4.00239,8.283765 4.00239,7.955535 C4.06805,7.692965 4.13371,7.430325 4.19937,7.167755 C4.33069,6.839525 4.5276,6.248655 4.85583,6.051745 Z M3.41159,5.592195 C3.47725,5.854835 3.54291,6.051745 3.54291,6.314315 L3.41159,7.430325 L3.41159,8.677655 C3.34593,8.546405 3.28027,8.283765 3.28027,8.152515 C3.21461,7.955535 3.21461,7.758555 3.21461,7.495985 C3.21461,7.299075 3.28027,6.445635 3.34593,6.314315 C3.0177,6.379975 3.08336,7.824215 3.08336,8.021195 C3.14895,8.283765 3.21461,8.480745 3.21461,8.677655 L3.08336,8.349425 C2.88638,7.889875 2.88638,7.102165 2.95204,6.642615 C2.95204,6.511295 3.0177,6.379975 3.08336,6.248655 C3.21461,5.854835 3.34593,5.723515 3.34593,5.592195 L3.41159,5.592195 Z M11.552037,6.445628 C11.289397,7.692958 9.254357,8.480738 7.941367,8.480738 C7.547477,8.480738 7.284837,8.415078 7.087927,8.415078 C7.087927,8.283758 7.481817,7.955528 7.613067,7.824278 C8.335257,7.233408 9.123037,6.839518 10.042067,6.576948 C10.829847,6.379968 10.829847,6.445628 11.552037,6.445628 Z M12.865027,7.561638 C12.996277,7.758618 12.930617,8.283758 12.930617,8.480738 C12.865027,8.415078 12.865027,8.349418 12.668047,8.218098 C12.733707,7.955528 12.865027,7.889938 12.865027,7.561638 Z M14.96572,5.526535 C15.09704,5.789175 14.96572,5.789175 15.1627,5.854835 C15.29395,5.854835 15.1627,5.789175 15.29395,5.854835 L15.55659,6.576955 L15.55659,7.102165 C15.49093,7.364735 15.42527,7.102165 15.42527,7.495985 C15.49093,7.495985 15.7535,7.299075 15.68784,7.561645 C15.68784,7.692965 15.49093,7.824215 15.42527,7.955535 C15.49093,8.021195 15.49093,8.021195 15.62225,8.021195 L15.35961,8.415085 C15.35961,8.021195 15.42527,8.480745 15.35961,8.021195 C15.29395,7.889875 15.42527,7.758555 15.42527,7.692965 C15.35961,7.627305 15.29395,7.627305 15.29395,7.495985 C15.22829,7.430325 15.29395,7.299075 15.29395,7.233415 C15.42527,6.970845 15.55659,6.839525 15.42527,6.773865 C15.35961,6.905185 15.35961,6.905185 15.29395,6.970845 C15.03138,6.642615 15.22829,6.248655 15.22829,6.051745 C15.09704,6.117405 15.22829,6.117405 15.03138,6.183065 C15.03138,6.117405 15.03138,5.723515 14.96572,5.723515 C14.70315,5.920425 14.96572,5.920425 14.96572,6.511295 C14.8344,6.576955 14.90006,6.511295 14.90006,6.576955 C14.96572,6.708205 15.03138,6.773865 15.09704,6.905185 C15.1627,7.167755 15.03138,7.102165 14.96572,7.299075 C15.09704,7.430325 15.22829,7.430325 15.22829,7.692965 C15.1627,7.824215 15.1627,7.758555 15.09704,7.692965 L14.96572,7.561645 C14.8344,7.430325 14.96572,7.364735 14.8344,7.102165 C14.76881,6.970845 14.8344,6.905185 14.90006,6.708205 C14.70315,6.642615 14.70315,6.642615 14.63749,6.379975 C14.63749,6.248655 14.50617,6.248655 14.50617,5.986085 C14.57183,5.920425 14.63749,5.920425 14.63749,5.854835 C14.70315,5.723515 14.70315,5.657855 14.76881,5.526535 L14.96572,5.526535 Z M6.890947,6.379968 C6.956607,6.642608 7.153517,6.708198 7.284837,6.839518 C7.678727,6.970838 7.875707,6.970838 8.269597,6.905178 L7.810047,7.233408 C7.678727,7.299068 7.547477,7.430388 7.416157,7.495978 C7.284837,7.627298 6.825287,8.152508 6.759627,8.283758 C6.562717,8.283758 5.774937,7.824278 6.037507,7.364728 C6.234487,7.102158 6.628377,6.576948 6.890947,6.379968 Z M11.748947,6.445628 C12.077177,6.445628 12.536727,6.708198 12.668047,6.905178 C12.865027,7.233408 12.668047,7.824278 12.536727,8.086848 C12.339817,7.955528 12.077177,7.889938 11.748947,7.824278 C11.092487,7.824278 11.026827,7.889938 10.764187,7.889938 L11.092487,7.627298 C11.355057,7.364728 11.748947,6.839518 11.748947,6.445628 Z M14.70315,6.839525 C14.70315,6.970845 14.63749,6.839525 14.63749,6.970845 C14.57183,7.495985 14.70315,7.036505 14.37485,7.561645 L14.50617,7.692965 C14.37485,7.889875 14.04669,7.955535 14.44051,7.233415 C14.57183,6.970845 14.50617,7.102165 14.44051,6.839525 L14.70315,6.839525 Z M13.58714,6.708205 C13.78405,6.773865 13.84971,6.905185 13.91537,7.167755 C13.78405,7.102165 13.78405,7.102165 13.6528,7.036505 C13.70908,7.205285 13.8135486,7.18115643 13.8835967,7.33616827 L13.900497,7.389047 L13.88254,7.37293375 C13.866125,7.364735 13.84971,7.364735 13.84971,7.364735 C13.3245,7.036505 13.58714,7.102165 13.58714,6.708205 Z M14.37485,6.314315 C14.37485,6.511295 14.37485,6.773865 14.2436,6.839525 L14.2436,6.970845 C14.30926,7.036505 14.30926,7.036505 14.37485,7.036505 C14.30926,7.167755 14.2436,7.299075 14.11235,7.299075 C13.98103,6.839525 13.98103,6.970845 14.17794,6.642615 C14.30926,6.445635 14.2436,6.379975 14.37485,6.314315 Z M9.516857,4.935728 C6.694037,5.592188 6.300077,6.839518 5.906187,7.167748 C6.037507,6.248648 7.219177,5.001318 8.138277,4.804408 C8.400917,4.804408 9.254357,4.738748 9.516857,4.935728 Z M14.11235,6.445635 C14.11235,6.576955 14.11235,6.576955 14.04669,6.708205 L13.98103,6.708205 C13.98103,6.576955 13.98103,6.248655 13.84971,6.248655 C13.78405,6.314315 13.84971,6.511295 13.84971,6.708205 C13.58714,6.576955 13.6528,6.379975 13.71846,6.117405 C13.78405,5.854835 14.11235,5.986085 14.11235,6.445635 Z M9.779497,5.066978 C9.845157,5.198298 9.976407,5.263958 9.976407,5.395278 C9.976407,6.051738 8.860397,6.576948 8.138277,6.576948 C7.810047,6.576948 7.284837,6.642608 7.153517,6.248648 C7.481817,5.789168 9.123037,5.132638 9.779497,5.066978 Z M4.5276,3.950975 C4.5276,4.804415 4.19937,5.723515 3.80548,6.445635 C3.80548,6.445635 3.80548,6.48256875 3.77777969,6.50103563 L3.756497,6.506047 L4.00239,5.526535 C4.19937,4.870075 4.33069,4.935735 4.33069,4.476185 C4.26503,4.476185 4.26503,4.476185 4.26503,4.541775 L4.00239,5.132645 C3.976154,5.158909 3.9604124,5.1641618 3.95096744,5.16521236 L3.940497,5.165047 L3.94789898,5.10680602 C3.99038143,4.91156357 4.14309,4.654335 4.19937,4.541775 C4.33069,4.279205 4.39628,4.147955 4.5276,3.950975 Z M10.042067,5.066978 C10.567277,5.066978 11.289397,5.132638 11.552037,5.592188 C11.617627,5.723508 11.617627,5.854828 11.617627,6.183058 C11.355057,5.986078 10.304707,6.183058 9.976407,6.248648 C9.779497,6.314308 9.648177,6.379968 9.451267,6.379968 C9.516857,6.314308 9.713837,6.183058 9.910747,5.854828 C10.042067,5.723508 10.173387,5.329618 10.042067,5.066978 Z M11.748947,5.657848 C11.945927,5.723508 11.945927,5.854828 12.077177,5.986078 C12.208497,6.117398 12.339817,6.248648 12.405477,6.379968 C12.274157,6.379968 12.208497,6.314308 12.142837,6.248648 C12.011587,6.248648 11.945927,6.183058 11.814607,6.183058 C11.814607,5.854828 11.814607,5.920418 11.748947,5.657848 Z M13.45582,5.329625 C13.71846,5.395285 13.52148,5.460875 13.91537,5.592195 C14.11235,5.657855 14.50617,5.789175 14.37485,5.920425 C14.2436,6.051745 14.11235,5.789175 13.91537,5.723515 C13.52148,5.592195 13.58714,5.592195 13.45582,5.329625 Z M5.18413,4.738755 C5.18413,4.935735 5.11847,5.789175 4.79024,5.789175 L4.65892,5.789175 C4.65892,5.395285 5.05281,5.132645 5.05281,4.738755 C4.85583,4.870075 4.79024,5.132645 4.72458,5.329625 C4.65892,5.460875 4.59326,5.526535 4.59326,5.657855 L4.39628,5.920425 C4.39628,5.723515 4.5276,5.460875 4.65892,5.263965 L4.98715,4.673095 C5.11847,4.607435 5.18413,4.541775 5.18413,4.738755 Z M13.71846,4.147955 L13.84971,4.213545 C14.04669,4.344865 14.11235,4.279205 14.2436,4.410525 C14.30926,4.607435 14.2436,4.607435 14.30926,4.738755 C14.37485,4.935735 14.37485,4.804415 14.57183,4.870075 C14.57183,4.935735 14.57183,4.935735 14.50617,4.935735 L14.44051,5.066985 C14.37485,5.132645 14.37485,5.198305 14.37485,5.329625 C14.30926,5.263965 14.11235,4.935735 14.11235,4.935735 L14.17794,4.476185 C14.04669,4.541775 14.11235,4.541775 14.04669,4.607435 C14.04669,4.738755 13.98103,4.804415 13.98103,4.935735 L13.98103,5.001325 L13.71846,5.001325 C13.78405,5.263965 14.30926,5.066985 14.30926,5.657855 C14.17794,5.592195 14.17794,5.592195 14.04669,5.526535 C13.91537,5.460875 13.71846,5.395285 13.71846,5.395285 C13.58714,5.263965 13.6528,5.132645 13.58714,5.001325 C13.52148,4.870075 13.39016,4.870075 13.39016,4.738755 C13.52148,4.673095 13.52148,4.607435 13.58714,4.476185 C13.6528,4.213545 13.58714,4.344865 13.71846,4.147955 Z M13.12759,4.016635 C13.25891,4.147955 13.25891,4.213545 13.45582,4.279205 L13.25891,4.279205 C13.25891,4.410525 13.25891,4.476185 13.3245,4.541775 L13.12759,4.541775 C13.19325,4.673095 13.19325,4.673095 13.19325,4.804415 C12.79936,4.607435 13.06193,4.410525 13.12759,4.344865 L13.12759,4.016635 Z M6.56271,3.360105 L6.69403,3.491425 C6.62837,3.688405 6.49705,3.819655 6.30007,3.950975 C6.16882,4.082295 5.84059,4.410525 5.4467,4.541775 C5.64368,4.279205 6.23448,3.885315 6.43139,3.557085 C6.10316,3.557085 5.84059,4.082295 5.57802,4.279205 C5.64368,3.950975 6.30007,3.360105 6.56271,3.360105 Z M6.43139,3.031945 C6.36573,3.294445 6.36573,3.294445 6.16882,3.425765 C5.77493,3.622745 5.64368,3.885315 5.4467,4.082295 C5.31538,4.213545 5.18413,4.410525 4.98715,4.410525 C5.24972,4.016635 5.84059,3.622745 6.10316,3.228855 C5.77493,3.360105 5.51236,3.688405 5.31538,3.819655 C5.38104,3.557085 6.03757,3.031945 6.43139,3.031945 Z M12.40547,3.688405 C12.53672,3.688405 12.60238,3.819655 12.60238,3.950975 L12.20849,3.950975 C12.14283,3.885315 11.94592,3.688405 12.20849,3.688405 L12.40547,3.688405 Z M12.07717,3.031945 C12.27415,3.097605 12.33981,3.163195 12.47106,3.228855 C12.79936,3.294445 12.66804,3.228855 12.60238,3.425765 C12.7337,3.557085 12.7337,3.557085 12.79936,3.753995 C12.66804,3.622745 12.7337,3.753995 12.60238,3.688405 C12.53672,3.622745 12.60238,3.753995 12.53672,3.622745 L12.33981,3.294445 C12.20849,3.360105 12.27415,3.360105 12.14283,3.294445 C12.01158,3.294445 12.07717,3.228855 11.94592,3.360105 C12.01158,3.491425 12.07717,3.425765 12.14283,3.557085 C12.07717,3.622745 11.94592,3.557085 11.74894,3.557085 C11.74894,3.360105 11.8146,3.491425 11.74894,3.294445 C11.68328,3.228855 11.55203,3.097605 11.74894,3.097605 C12.07717,3.097605 11.8146,3.228855 12.07717,3.031945 Z" id="Combined-Shape"></path>
                        <path d="M13.718425,4.344886 C13.718425,4.476136 13.849675,4.804366 13.915335,4.738776 C13.980995,4.673116 13.915335,4.541796 13.915335,4.476136 C13.849675,4.344886 13.849675,4.344886 13.718425,4.344886" id="Fill-14"></path>
                        <path d="M6.10409,3.243855 L6.19789,3.243855 L6.10409,3.243855 Z" id="Fill-16"></path>
                        <path d="M7.547456,13.929559 C7.481796,13.863969 7.481796,13.863969 7.416136,13.863969 C7.284886,13.929559 7.219226,13.995219 7.284886,14.060879 C7.284886,14.126539 7.350546,14.126539 7.416136,14.192129 C7.481796,14.192129 7.481796,14.192129 7.481796,14.257789 C7.481796,14.323449 7.481796,14.323449 7.416136,14.323449 L7.284886,14.323449 L7.284886,14.389109 L7.416136,14.389109 C7.547456,14.389109 7.547456,14.323449 7.547456,14.257789 C7.547456,14.192129 7.547456,14.126539 7.416136,14.126539 L7.350546,14.060879 C7.350546,13.995219 7.350546,13.929559 7.416136,13.929559 C7.481796,13.929559 7.481796,13.929559 7.481796,13.995219 L7.547456,13.929559 Z M8.729126,14.257789 L8.794786,14.257789 L8.729126,13.863969 L8.663466,13.863969 L8.729126,14.257789 Z M8.335236,13.995219 L8.400896,13.995219 C8.466486,13.929559 8.532146,13.995219 8.532146,14.126539 C8.532146,14.192129 8.532146,14.257789 8.400896,14.257789 L8.335236,13.995219 Z M8.335236,14.323449 L8.400896,14.323449 C8.466486,14.323449 8.532146,14.257789 8.597806,14.257789 L8.597806,14.060879 C8.597806,13.995219 8.532146,13.929559 8.400896,13.929559 L8.269576,13.929559 L8.335236,14.323449 Z M8.203916,13.929559 L8.138256,13.929559 L8.138256,14.192129 C8.138256,14.257789 8.138256,14.323449 8.072596,14.323449 C8.072596,14.323449 8.006936,14.257789 8.006936,14.192129 L8.006936,13.929559 L7.941346,13.995219 L7.941346,14.192129 C7.941346,14.323449 8.006936,14.323449 8.072596,14.323449 C8.203916,14.323449 8.203916,14.257789 8.203916,14.192129 L8.203916,13.929559 Z M7.875686,13.995219 L7.613046,13.995219 L7.613046,14.060879 L7.678706,14.060879 L7.744366,14.389109 L7.810026,14.389109 L7.744366,14.060879 L7.875686,13.995219 Z M6.891941,14.454769 L6.985641,14.454769 L6.985641,14.060879 L6.891941,14.060879 L6.891941,14.454769 Z M6.825336,14.389109 L6.694016,14.454769 L6.628356,14.060879 L6.562696,14.060879 L6.628356,14.454769 L6.825336,14.454769 L6.825336,14.389109 Z M6.497106,14.257789 L6.431446,14.257789 L6.431446,14.323449 L6.497106,14.323449 L6.497106,14.454769 L6.431446,14.454769 C6.365786,14.454769 6.300126,14.389109 6.300126,14.323449 C6.300126,14.192129 6.300126,14.126539 6.431446,14.126539 L6.497106,14.126539 L6.431446,14.126539 C6.300126,14.126539 6.234466,14.192129 6.234466,14.323449 C6.234466,14.389109 6.234466,14.520359 6.431446,14.520359 C6.497106,14.520359 6.497106,14.454769 6.562696,14.454769 L6.497106,14.257789 Z M6.168806,14.454769 L6.037556,14.454769 L6.037556,14.323449 L6.168806,14.323449 L6.168806,14.257789 L6.037556,14.257789 L6.037556,14.192129 L6.168806,14.192129 L6.168806,14.126539 L5.971896,14.126539 L5.971896,14.520359 L6.168806,14.520359 L6.168806,14.454769 Z M5.643666,13.995219 L5.709256,14.060879 C5.840576,14.060879 5.906236,14.126539 5.840576,14.257789 C5.840576,14.389109 5.774916,14.454769 5.643666,14.389109 L5.578006,14.389109 L5.643666,13.995219 Z M5.512346,14.454769 L5.578006,14.454769 C5.709256,14.520359 5.774916,14.454769 5.840576,14.454769 C5.906236,14.389109 5.906236,14.323449 5.906236,14.257789 C5.971896,14.126539 5.906236,13.995219 5.709256,13.995219 C5.709256,13.995219 5.643666,13.929559 5.578006,13.929559 L5.512346,14.454769 Z M5.118456,14.126539 L5.184116,13.995219 C5.184116,13.995219 5.249706,13.995219 5.249706,13.929559 L5.249706,13.995219 L5.184116,14.060879 L5.184116,14.126539 L5.118456,14.126539 Z M5.315366,13.929559 L5.249706,13.929559 L4.921476,14.192129 L4.987136,14.192129 L5.052796,14.126539 L5.184116,14.192129 L5.184116,14.323449 L5.315366,13.929559 Z M5.118456,13.863969 L4.921476,13.666989 L4.855816,13.732649 L4.987136,13.798309 L4.790226,14.060879 L4.790226,14.126539 L4.987136,13.798309 L5.118456,13.863969 Z M4.593246,13.929559 L4.658906,13.995219 L4.855816,13.666989 L4.855816,13.601329 L4.593246,13.929559 Z M4.790226,13.601329 C4.724566,13.601329 4.724566,13.535669 4.724566,13.535669 C4.658906,13.470009 4.593246,13.470009 4.527586,13.535669 L4.527586,13.666989 C4.593246,13.732649 4.593246,13.732649 4.527586,13.798309 L4.461926,13.798309 C4.461926,13.732649 4.396266,13.732649 4.396266,13.732649 L4.330676,13.732649 C4.396266,13.732649 4.396266,13.798309 4.396266,13.798309 C4.461926,13.863969 4.527586,13.863969 4.593246,13.798309 C4.658906,13.798309 4.658906,13.732649 4.593246,13.666989 L4.593246,13.535669 L4.658906,13.535669 L4.724566,13.601329 L4.790226,13.601329 Z M4.330676,13.404419 L4.396266,13.338759 C4.461926,13.404419 4.461926,13.404419 4.461926,13.470009 L4.330676,13.470009 L4.330676,13.404419 Z M4.396266,13.535669 C4.396266,13.535669 4.461926,13.535669 4.461926,13.470009 C4.527586,13.470009 4.527586,13.404419 4.527586,13.404419 C4.527586,13.338759 4.461926,13.338759 4.461926,13.338759 L4.396266,13.273099 L4.133696,13.535669 L4.133696,13.601329 L4.265016,13.470009 L4.330676,13.470009 L4.330676,13.601329 C4.265016,13.601329 4.265016,13.666989 4.265016,13.666989 L4.330676,13.732649 L4.330676,13.601329 C4.396266,13.601329 4.396266,13.535669 4.396266,13.535669 L4.396266,13.535669 Z M4.068036,13.470009 L4.002376,13.338759 L4.068036,13.273099 L4.133696,13.338759 L4.199356,13.338759 L4.068036,13.207439 L4.133696,13.141779 L4.265016,13.207439 L4.330676,13.207439 L4.133696,13.076119 L3.871126,13.338759 L4.068036,13.470009 Z M4.068036,13.010459 L3.871126,13.076119 C3.871126,13.141779 3.805466,13.141779 3.739806,13.207439 C3.805466,13.141779 3.805466,13.076119 3.805466,13.010459 L3.936786,12.879209 L3.871126,12.813549 L3.674146,13.207439 L3.739806,13.273099 L4.133696,13.010459 L4.068036,13.010459 Z M3.542896,13.076119 L3.542896,13.076119 L3.805466,12.813549 L3.739806,12.747889 L3.542896,13.076119 Z M3.674146,12.682229 L3.674146,12.682229 L3.542896,12.747889 C3.542896,12.813549 3.477236,12.879209 3.477236,12.879209 L3.477236,12.747889 L3.542896,12.550979 L3.477236,12.485319 L3.214666,12.813549 L3.280326,12.813549 L3.345916,12.747889 C3.411576,12.682229 3.411576,12.616639 3.477236,12.616639 C3.477236,12.616639 3.477236,12.682229 3.411576,12.747889 L3.411576,12.944869 L3.411576,13.010459 L3.674146,12.682229 Z M3.477236,12.353999 L3.411576,12.288339 L3.214666,12.550979 C3.149006,12.616639 3.083346,12.616639 3.017686,12.550979 C3.017686,12.550979 3.017686,12.485319 3.083346,12.419659 L3.280326,12.157089 L3.214666,12.091429 L3.017686,12.353999 C2.886436,12.485319 2.886436,12.550979 3.017686,12.616639 C3.083346,12.682229 3.149006,12.682229 3.280326,12.550979 L3.477236,12.353999 Z" id="Fill-18"></path>
                        <path d="M15.819181,12.550951 L15.884771,12.485291 L15.556611,12.222721 L15.819181,12.550951 Z M15.490951,12.288381 L15.425291,12.354041 L15.556611,12.485291 L15.622271,12.550951 L15.490951,12.550951 L15.293971,12.485291 L15.556611,12.813521 L15.556611,12.747861 L15.490951,12.616611 C15.425291,12.616611 15.359631,12.550951 15.359631,12.550951 L15.490951,12.550951 L15.687861,12.616611 L15.753521,12.616611 L15.490951,12.288381 Z M15.097061,12.682201 C15.162721,12.682201 15.228311,12.682201 15.293971,12.747861 C15.359631,12.813521 15.359631,12.879181 15.293971,12.944841 C15.293971,13.010431 15.162721,12.944841 15.162721,12.879181 C15.097061,12.813521 15.031401,12.747861 15.097061,12.682201 L15.097061,12.682201 Z M15.097061,12.682201 C15.031401,12.747861 15.031401,12.879181 15.097061,12.944841 C15.162721,13.010431 15.293971,13.010431 15.359631,12.944841 C15.425291,12.879181 15.425291,12.813521 15.359631,12.682201 C15.228311,12.616611 15.162721,12.616611 15.097061,12.682201 L15.097061,12.682201 Z M15.162721,13.076091 L15.097061,13.141751 C15.031401,13.207411 14.965741,13.207411 14.900081,13.141751 C14.834421,13.076091 14.834421,13.010431 14.900081,12.944841 C14.900081,12.879181 14.900081,12.879181 14.965741,12.879181 L14.900081,12.879181 L14.834421,12.879181 C14.768831,12.944841 14.768831,13.076091 14.834421,13.207411 C14.965741,13.273071 15.031401,13.273071 15.097061,13.207411 L15.162721,13.141751 L15.162721,13.076091 Z M14.637511,13.338731 L14.571851,13.273071 L14.571851,13.207411 C14.637511,13.207411 14.637511,13.141751 14.703171,13.207411 L14.703171,13.338731 L14.637511,13.338731 Z M14.768831,13.273071 C14.768831,13.273071 14.768831,13.207411 14.703171,13.141751 L14.637511,13.141751 C14.637511,13.141751 14.571851,13.141751 14.571851,13.207411 C14.506191,13.207411 14.506191,13.207411 14.506191,13.273071 L14.768831,13.535641 L14.768831,13.469981 L14.703171,13.338731 L14.834421,13.338731 C14.834421,13.404391 14.900081,13.404391 14.900081,13.404391 L14.965741,13.338731 C14.900081,13.338731 14.900081,13.338731 14.834421,13.273071 L14.768831,13.273071 Z M14.440531,13.601301 L14.374871,13.535641 L14.374871,13.469981 L14.440531,13.469981 L14.506191,13.535641 L14.440531,13.601301 Z M14.309281,13.404391 L14.309281,13.404391 L14.440531,13.798281 L14.506191,13.732621 L14.440531,13.666961 L14.571851,13.601301 L14.637511,13.601301 L14.703171,13.601301 L14.309281,13.404391 Z M14.112301,13.469981 L13.980981,13.535641 L14.112301,13.798281 C14.112301,13.798281 14.112301,13.863941 14.177961,13.929531 C14.112301,13.929531 14.046641,13.863941 13.980981,13.798281 L13.784071,13.666961 L13.718411,13.732621 L14.046641,14.192171 L14.046641,14.126511 L13.980981,13.929531 C13.915391,13.929531 13.849731,13.863941 13.849731,13.798281 C13.915391,13.798281 13.915391,13.863941 13.980981,13.929531 L14.177961,14.060851 L14.243621,13.995191 L14.177961,13.798281 C14.112301,13.732621 14.112301,13.666961 14.112301,13.601301 C14.112301,13.666961 14.177961,13.732621 14.243621,13.732621 L14.374871,13.929531 L14.440531,13.863941 L14.112301,13.469981 Z M13.455841,14.126511 C13.521431,14.060851 13.521431,14.126511 13.587091,14.192171 C13.587091,14.257831 13.587091,14.389081 13.521431,14.389081 C13.455841,14.389081 13.390181,14.389081 13.390181,14.257831 C13.390181,14.192171 13.324521,14.126511 13.455841,14.126511 L13.455841,14.126511 Z M13.390181,14.060851 C13.324521,14.126511 13.258861,14.192171 13.324521,14.323491 C13.390181,14.389081 13.455841,14.454741 13.587091,14.454741 C13.652751,14.389081 13.718411,14.323491 13.652751,14.192171 C13.587091,14.060851 13.521431,13.995191 13.390181,14.060851 L13.390181,14.060851 Z M13.258861,14.126511 L13.193201,14.126511 L13.127541,14.323491 L13.127541,14.454741 C13.127541,14.454741 13.061951,14.389081 13.061951,14.323491 L12.996291,14.192171 L12.930631,14.192171 L12.930631,14.586061 L12.996291,14.586061 L12.996291,14.389081 C12.996291,14.389081 12.996291,14.323491 12.930631,14.257831 L12.996291,14.257831 C12.996291,14.323491 12.996291,14.323491 13.061951,14.389081 L13.127541,14.586061 L13.193201,14.520401 L13.193201,14.389081 L13.193201,14.192171 C13.193201,14.257831 13.193201,14.323491 13.258861,14.389081 L13.258861,14.520401 L13.324521,14.520401 L13.258861,14.126511 Z M12.864971,14.520401 L12.733651,14.520401 L12.733651,14.192171 L12.667991,14.192171 L12.667991,14.586061 L12.864971,14.586061 L12.864971,14.520401 Z M12.602401,14.520401 L12.405421,14.520401 L12.471081,14.389081 L12.602401,14.389081 L12.471081,14.323491 L12.471081,14.257831 L12.602401,14.257831 L12.602401,14.192171 L12.405421,14.192171 L12.339761,14.586061 L12.602401,14.586061 L12.602401,14.520401 Z M12.209456,14.586061 L12.303156,14.586061 L12.303156,14.192171 L12.209456,14.192171 L12.209456,14.586061 Z M12.142851,14.520401 L12.011531,14.454741 L12.011531,14.126511 L11.945871,14.126511 L11.945871,14.520401 L12.142851,14.520401 Z M11.814621,14.323491 L11.683301,14.323491 L11.748961,14.323491 L11.748961,14.454741 L11.683301,14.454741 C11.617641,14.454741 11.617641,14.389081 11.617641,14.323491 C11.617641,14.192171 11.683301,14.126511 11.748961,14.192171 L11.814621,14.192171 L11.814621,14.126511 L11.748961,14.126511 C11.617641,14.126511 11.552051,14.192171 11.552051,14.323491 C11.552051,14.389081 11.552051,14.520401 11.683301,14.520401 L11.814621,14.520401 L11.814621,14.323491 Z M11.486391,14.060851 L11.420731,14.060851 L11.355071,14.323491 C11.355071,14.389081 11.355071,14.454741 11.289411,14.454741 C11.223751,14.454741 11.223751,14.389081 11.223751,14.323491 L11.223751,14.060851 L11.158161,14.060851 L11.158161,14.323491 C11.158161,14.389081 11.223751,14.454741 11.289411,14.454741 C11.355071,14.454741 11.420731,14.454741 11.420731,14.323491 L11.486391,14.060851 Z M11.092501,14.192171 L10.895521,14.192171 L10.961181,14.257831 L10.961181,14.389081 L10.895521,14.389081 C10.829861,14.389081 10.764201,14.323491 10.764201,14.192171 C10.764201,14.060851 10.829861,13.995191 10.961181,13.995191 L11.026841,13.995191 L11.092501,13.929531 L10.961181,13.929531 C10.829861,13.929531 10.698611,13.995191 10.698611,14.192171 C10.632951,14.257831 10.698611,14.389081 10.895521,14.454741 L11.026841,14.454741 L11.092501,14.192171 Z" id="Fill-20"></path>
                        <path d="M62.23273,26.20583 L63.0861,26.20583 L63.0861,21.87304 L62.23273,21.87304 L62.23273,26.20583 Z M57.89994,26.20583 L58.68772,26.20583 L58.68772,23.4486 L60.52585,26.20583 L61.24804,26.20583 L61.24804,21.87304 L60.46019,21.87304 L60.46019,24.56461 L58.62206,21.87304 L57.89994,21.87304 L57.89994,26.20583 Z M55.07698,25.41805 C54.42059,25.41805 53.96097,24.76159 53.96097,24.03947 C53.96097,23.31728 54.42059,22.66089 55.07698,22.66089 C55.73351,22.66089 56.25865,23.31728 56.25865,24.03947 C56.25865,24.76159 55.79917,25.41805 55.07698,25.41805 L55.07698,25.41805 Z M55.07698,26.27149 C56.25865,26.27149 57.11216,25.28673 57.11216,24.03947 C57.11216,22.79214 56.25865,21.80738 55.07698,21.80738 C53.89538,21.80738 53.04187,22.79214 53.04187,24.03947 C53.04187,25.28673 53.89538,26.27149 55.07698,26.27149 L55.07698,26.27149 Z M51.07242,26.27149 C51.79461,26.27149 52.25409,25.94326 52.64798,25.48371 L52.12284,24.89284 C51.79461,25.22114 51.53204,25.41805 51.13808,25.41805 C50.48162,25.41805 50.02214,24.76159 50.02214,24.03947 C50.02214,23.31728 50.48162,22.66089 51.13808,22.66089 C51.46631,22.66089 51.79461,22.8578 52.12284,23.18603 L52.64798,22.46391 C52.25409,22.06995 51.8602,21.80738 51.13808,21.80738 C49.95641,21.80738 49.10304,22.79214 49.10304,24.03947 C49.10304,25.28673 49.95641,26.27149 51.07242,26.27149 L51.07242,26.27149 Z M46.14883,23.97374 L46.14883,22.72648 L47.00227,22.72648 C47.39616,22.72648 47.65873,22.92346 47.65873,23.38294 C47.65873,23.71117 47.46175,23.97374 47.00227,23.97374 L46.14883,23.97374 Z M45.36105,26.20583 L46.14883,26.20583 L46.14883,24.82725 L46.87095,24.82725 L47.65873,26.20583 L48.64342,26.20583 L47.72432,24.63027 C48.18394,24.43336 48.51217,24.03947 48.51217,23.31728 C48.51217,22.92346 48.44651,22.52957 48.18394,22.33259 C47.92137,22.00436 47.59307,21.87304 47.06786,21.87304 L45.36105,21.87304 L45.36105,26.20583 Z M42.20993,24.36763 L42.73507,22.98905 L43.19462,24.36763 L42.20993,24.36763 Z M40.70003,26.20583 L41.5534,26.20583 L41.8817,25.22114 L43.52285,25.22114 L43.85108,26.20583 L44.77018,26.20583 L43.12896,21.87304 L42.34118,21.87304 L40.70003,26.20583 Z M36.30151,26.20583 L37.08936,26.20583 L37.08936,23.38294 L38.13971,25.22114 L38.2053,25.22114 L39.25572,23.38294 L39.25572,26.20583 L40.10909,26.20583 L40.10909,21.87304 L39.19006,21.87304 L38.2053,23.71117 L37.15495,21.87304 L36.30151,21.87304 L36.30151,26.20583 Z M31.8374,25.41805 C31.18094,25.41805 30.72139,24.76159 30.72139,24.03947 C30.72139,23.31728 31.18094,22.66089 31.8374,22.66089 C32.49386,22.66089 33.01907,23.31728 33.01907,24.03947 C33.01907,24.76159 32.55959,25.41805 31.8374,25.41805 L31.8374,25.41805 Z M31.8374,26.27149 C33.01907,26.27149 33.87258,25.28673 33.87258,24.03947 C33.87258,22.79214 33.01907,21.80738 31.8374,21.80738 C30.65573,21.80738 29.80236,22.79214 29.80236,24.03947 C29.80236,25.28673 30.65573,26.27149 31.8374,26.27149 L31.8374,26.27149 Z M25.20693,26.20583 L26.06037,26.20583 L26.06037,23.38294 L27.11072,25.22114 L27.17638,25.22114 L28.22673,23.38294 L28.22673,26.20583 L29.08017,26.20583 L29.08017,21.87304 L28.16107,21.87304 L27.17638,23.71117 L26.12603,21.87304 L25.20693,21.87304 L25.20693,26.20583 Z M21.85883,26.20583 L24.61606,26.20583 L24.61606,25.35246 L22.71227,25.35246 L22.71227,21.87304 L21.85883,21.87304 L21.85883,26.20583 Z M18.1825,26.20583 L21.07105,26.20583 L21.07105,25.35246 L19.03594,25.35246 L19.03594,24.43336 L20.80848,24.43336 L20.80848,23.57985 L19.03594,23.57985 L19.03594,22.72648 L21.07105,22.72648 L21.07105,21.87304 L18.1825,21.87304 L18.1825,26.20583 Z M16.41003,26.20583 L17.19781,26.20583 L17.19781,21.87304 L16.41003,21.87304 L16.41003,26.20583 Z M12.93061,26.20583 L15.68784,26.20583 L15.68784,25.35246 L13.78405,25.35246 L13.78405,21.87304 L12.93061,21.87304 L12.93061,26.20583 Z M10.50161,26.27149 C11.22373,26.27149 11.74894,25.94326 12.14283,25.61503 L12.14283,23.71117 L10.50161,23.71117 L10.50161,24.49895 L11.35505,24.49895 L11.35505,25.15548 C11.09248,25.28673 10.82984,25.41805 10.56727,25.41805 C9.84515,25.41805 9.3856,24.82725 9.3856,24.03947 C9.3856,23.31728 9.84515,22.66089 10.50161,22.66089 C10.8955,22.66089 11.15814,22.8578 11.48637,23.12037 L12.01158,22.39825 C11.61762,22.00436 11.22373,21.80738 10.50161,21.80738 C9.31994,21.80738 8.4665,22.79214 8.4665,24.03947 C8.4665,25.35246 9.31994,26.27149 10.50161,26.27149 L10.50161,26.27149 Z M6.10316,26.27149 C7.15351,26.27149 7.81004,25.61503 7.81004,24.30204 L7.81004,21.87304 L6.9566,21.87304 L6.9566,24.36763 C6.9566,25.02416 6.62837,25.41805 6.16882,25.41805 C5.64368,25.41805 5.31538,25.02416 5.31538,24.30204 L5.31538,21.87304 L4.46194,21.87304 L4.46194,24.36763 C4.46194,25.61503 5.11847,26.27149 6.10316,26.27149 L6.10316,26.27149 Z M2.0986,26.27149 C2.75506,26.27149 3.34593,25.94326 3.73982,25.61503 L3.73982,23.71117 L2.03294,23.71117 L2.03294,24.49895 L2.88638,24.49895 L2.88638,25.15548 C2.68947,25.28673 2.42683,25.41805 2.0986,25.41805 C1.44214,25.41805 0.98259,24.82725 0.98259,24.03947 C0.98259,23.31728 1.44214,22.66089 2.03294,22.66089 C2.49249,22.66089 2.75506,22.8578 3.08336,23.12037 L3.6085,22.39825 C3.21461,22.00436 2.75506,21.80738 2.0986,21.80738 C0.91693,21.80738 0.06349,22.79214 0.06349,24.03947 C0.06349,25.35246 0.91693,26.27149 2.0986,26.27149 L2.0986,26.27149 Z" id="Fill-28"></path>
                        <path d="M46.674005,33.558504 L47.527375,33.558504 L47.527375,31.851624 L49.037345,29.291304 L48.052585,29.291304 L47.133485,30.998184 L46.214525,29.291304 L45.229695,29.291304 L46.674005,31.917284 L46.674005,33.558504 Z M42.997675,33.558504 L43.785455,33.558504 L43.785455,30.144744 L44.967125,30.144744 L44.967125,29.291304 L41.816005,29.291304 L41.816005,30.144744 L42.997675,30.144744 L42.997675,33.558504 Z M40.306035,33.558504 L41.093885,33.558504 L41.093885,29.291304 L40.306035,29.291304 L40.306035,33.558504 Z M38.139675,33.624094 C38.927455,33.624094 39.518255,33.164614 39.518255,32.311174 C39.518255,31.523394 39.058775,31.260824 38.270995,30.998184 C37.614465,30.801204 37.483215,30.735614 37.483215,30.407314 C37.483215,30.210404 37.614465,30.079084 37.942765,30.079084 C38.270995,30.079084 38.599225,30.210404 38.993115,30.473044 L39.387005,29.750854 C38.993115,29.422624 38.533565,29.225714 38.008355,29.225714 C37.220575,29.225714 36.629775,29.750854 36.629775,30.538634 C36.629775,31.392144 37.154985,31.588984 37.877105,31.851624 C38.533565,32.048604 38.664885,32.179924 38.664885,32.376834 C38.664885,32.639404 38.467975,32.836384 38.139675,32.836384 C37.680195,32.836384 37.351895,32.573814 36.958005,32.311174 L36.498455,32.967704 C36.958005,33.427184 37.548875,33.624094 38.139675,33.624094 L38.139675,33.624094 Z M33.609905,31.392144 L33.609905,30.144744 L34.463415,30.144744 C34.857235,30.144744 35.119805,30.341724 35.119805,30.735614 C35.119805,31.129504 34.922895,31.392144 34.463415,31.392144 L33.609905,31.392144 Z M32.822125,33.558504 L33.609905,33.558504 L33.609905,32.179924 L34.266435,32.179924 L35.119805,33.558504 L36.104565,33.558504 L35.185535,32.048604 C35.645015,31.851624 35.973315,31.392144 35.973315,30.735614 L35.973315,30.669954 C35.973315,30.275994 35.841995,29.947834 35.645015,29.685264 C35.382445,29.422624 35.054215,29.291304 34.529005,29.291304 L32.822125,29.291304 L32.822125,33.558504 Z M29.145865,33.558504 L32.034345,33.558504 L32.034345,32.770724 L29.933645,32.770724 L29.933645,31.851624 L31.771775,31.851624 L31.771775,30.998184 L29.933645,30.998184 L29.933645,30.144744 L32.034345,30.144744 L32.034345,29.291304 L29.145865,29.291304 L29.145865,33.558504 Z M26.257315,33.624094 L26.979435,33.624094 L28.554995,29.291304 L27.635895,29.291304 L26.651135,32.311174 L25.600785,29.291304 L24.681755,29.291304 L26.257315,33.624094 Z M23.237445,33.558504 L24.090885,33.558504 L24.090885,29.291304 L23.237445,29.291304 L23.237445,33.558504 Z M18.838995,33.558504 L19.692435,33.558504 L19.692435,30.866934 L21.530635,33.558504 L22.252755,33.558504 L22.252755,29.291304 L21.464975,29.291304 L21.464975,31.917284 L19.626775,29.291304 L18.838995,29.291304 L18.838995,33.558504 Z M16.344335,33.624094 C17.329095,33.624094 17.985555,33.033294 17.985555,31.720304 L17.985555,29.291304 L17.132115,29.291304 L17.132115,31.720304 C17.132115,32.442494 16.869545,32.770724 16.344335,32.770724 C15.819195,32.770724 15.490895,32.442494 15.490895,31.720304 L15.490895,29.291304 L14.637455,29.291304 L14.637455,31.720304 C14.637455,33.033294 15.293985,33.624094 16.344335,33.624094 L16.344335,33.624094 Z" id="Fill-30"></path>
                    </g>
                </g>
            </g>
        </g>
    </g>
</svg>