<?xml version="1.0" encoding="UTF-8"?>
<svg width="68px" height="68px" viewBox="0 0 68 68" version="1.1" xmlns="http://www.w3.org/2000/svg" xmlns:xlink="http://www.w3.org/1999/xlink">
    <title>analytics</title>
    <g id="SMO" stroke="none" stroke-width="1" fill="none" fill-rule="evenodd">
        <g id="Shortcourse-SMO-v2" transform="translate(-531.000000, -2555.000000)" fill-rule="nonzero">
            <g id="analytics" transform="translate(531.000000, 2555.000000)">
                <path d="M62.6171438,57.8158875 C65.1441,57.8158875 67.2,55.7599875 67.2,53.2329 L67.2,6.5625 C67.2,2.9439375 64.2560625,0 60.6375,0 L6.5625,0 C2.9439375,0 0,2.9439375 0,6.5625 L0,53.2329 C0,55.7599875 2.0559,57.8158875 4.58285625,57.8158875 L6.0375,57.8158875 L6.0375,64.575 L1.3125,64.575 C0.58760625,64.575 0,65.1627375 0,65.8875 C0,66.6122625 0.58760625,67.2 1.3125,67.2 L65.8875,67.2 C66.6123938,67.2 67.2,66.6122625 67.2,65.8875 C67.2,65.1627375 66.6123938,64.575 65.8875,64.575 L61.1625,64.575 L61.1625,57.8158875 L62.6171438,57.8158875 Z M2.625,6.5625 C2.625,4.3913625 4.3913625,2.625 6.5625,2.625 L60.6375,2.625 C62.8086375,2.625 64.575,4.3913625 64.575,6.5625 L64.575,9.45 L2.756775,9.45 C2.71228125,9.45 2.6683125,9.4523625 2.625,9.45669375 L2.625,6.5625 Z M14.4375,64.575 L8.6625,64.575 L8.6625,52.7625 L14.4375,52.7625 L14.4375,64.575 Z M29.1375,64.575 L23.3625,64.575 L23.3625,38.25045 L29.1375,38.25045 L29.1375,64.575 Z M43.8375,64.575 L38.0625,64.575 L38.0625,49.35 L43.8375,49.35 L43.8375,64.575 Z M59.85,33.665625 L51.45,33.665625 C50.7251063,33.665625 50.1375,34.2533625 50.1375,34.978125 L50.1375,41.6061187 C50.1375,42.3308812 50.7251063,42.9186188 51.45,42.9186188 C52.1748938,42.9186188 52.7625,42.3308812 52.7625,41.6061187 L52.7625,36.290625 L58.5375,36.290625 L58.5375,64.575 L52.7625,64.575 L52.7625,50.4328125 C52.7625,49.70805 52.1748938,49.1203125 51.45,49.1203125 C50.7251063,49.1203125 50.1375,49.70805 50.1375,50.4328125 L50.1375,64.575 L46.4625,64.575 L46.4625,48.0375 C46.4625,47.3127375 45.8748938,46.725 45.15,46.725 L36.75,46.725 C36.0251063,46.725 35.4375,47.3127375 35.4375,48.0375 L35.4375,64.575 L31.7625,64.575 L31.7625,36.93795 C31.7625,36.2131875 31.1748938,35.62545 30.45,35.62545 L22.05,35.62545 C21.3251063,35.62545 20.7375,36.2131875 20.7375,36.93795 L20.7375,64.575 L17.0625,64.575 L17.0625,51.45 C17.0625,50.7252375 16.4748937,50.1375 15.75,50.1375 L7.35,50.1375 C6.62510625,50.1375 6.0375,50.7252375 6.0375,51.45 L6.0375,55.1908875 L4.58285625,55.1908875 C3.50319375,55.1908875 2.625,54.3125625 2.625,53.2329 L2.625,12.0683062 C2.6683125,12.0726375 2.71228125,12.075 2.756775,12.075 L64.575,12.075 L64.575,53.2329 C64.575,54.3125625 63.696675,55.1908875 62.6171438,55.1908875 L61.1625,55.1908875 L61.1625,34.978125 C61.1625,34.2533625 60.5748938,33.665625 59.85,33.665625 Z" id="Shape" fill="#477CA8"></path>
                <path d="M58.6988432,4.8 L29.3011568,4.8 C28.5825279,4.8 28,5.33736 28,6 C28,6.66264 28.5825279,7.2 29.3011568,7.2 L58.6988432,7.2 C59.4174721,7.2 60,6.66264 60,6 C60,5.33736 59.4174721,4.8 58.6988432,4.8 Z" id="Path" fill="#FF2584"></path>
                <path d="M14.8484,5.1516 C14.6252,4.9284 14.3156,4.8 14,4.8 C13.6844,4.8 13.3748,4.92828 13.1516,5.1516 C12.9284,5.3748 12.8,5.6844 12.8,6 C12.8,6.3156 12.9284,6.6252 13.1516,6.84828 C13.3748,7.0716 13.6844,7.2 14,7.2 C14.3156,7.2 14.6252,7.0716 14.8484,6.84828 C15.0716,6.6252 15.2,6.3156 15.2,6 C15.2,5.6844 15.0716,5.3748 14.8484,5.1516 Z" id="Path" fill="#FF2584"></path>
                <path d="M9.2484,5.1516 C9.0252,4.9284 8.7156,4.8 8.4,4.8 C8.0844,4.8 7.7748,4.92828 7.5516,5.1516 C7.3284,5.3748 7.2,5.6844 7.2,6 C7.2,6.3156 7.3284,6.6252 7.5516,6.84828 C7.7748,7.0716 8.0844,7.2 8.4,7.2 C8.7156,7.2 9.0252,7.0716 9.2484,6.84828 C9.4716,6.6252 9.6,6.3156 9.6,6 C9.6,5.6844 9.4716,5.3748 9.2484,5.1516 Z" id="Path" fill="#FF2584"></path>
                <path d="M19.6484,5.1516 C19.4252,4.9284 19.1168,4.8 18.8,4.8 C18.4844,4.8 18.1748,4.92828 17.9516,5.1516 C17.7284,5.3748 17.6,5.6844 17.6,6 C17.6,6.3156 17.7284,6.6252 17.9516,6.84828 C18.1748,7.0716 18.4844,7.2 18.8,7.2 C19.1156,7.2 19.4252,7.0716 19.6484,6.84828 C19.8716,6.6252 20,6.3156 20,6 C20,5.6844 19.8716,5.3748 19.6484,5.1516 Z" id="Path" fill="#FF2584"></path>
                <path d="M52.4484,45.1516 C52.2252,44.9272 51.9156,44.8 51.6,44.8 C51.2844,44.8 50.9748,44.92732 50.7516,45.1516 C50.5284,45.3748 50.4,45.6844 50.4,46 C50.4,46.3156 50.5284,46.6252 50.7516,46.8484 C50.9748,47.07148 51.2844,47.2 51.6,47.2 C51.9156,47.2 52.2252,47.0716 52.4484,46.8484 C52.6716,46.6252 52.8,46.3156 52.8,46 C52.8,45.6832 52.6716,45.3748 52.4484,45.1516 Z" id="Path" fill="#FFFFFF"></path>
                <path d="M55.2782726,17.6 C52.6746334,17.6 50.5565452,19.696197 50.5565452,22.2729265 C50.5565452,23.2964273 50.8916567,24.2434737 51.4577394,25.0141172 L42.7454965,33.6363157 C42.0693714,33.2659862 41.2926473,33.0544065 40.4666073,33.0544065 C39.7222794,33.0544065 39.0179551,33.2263962 38.3911458,33.5313046 L29.2940822,24.5282626 C29.6682791,23.8591255 29.8820684,23.0904291 29.8820684,22.2729265 C29.8820684,19.696197 27.7639802,17.6 25.160341,17.6 C22.5567018,17.6 20.4386136,19.696197 20.4386136,22.2729265 C20.4386136,23.1735033 20.6980463,24.0148897 21.1458235,24.7290687 L13.4004855,32.3942258 C12.7243604,32.0238964 11.9476362,31.8123167 11.1217274,31.8123167 C8.51808821,31.8123167 6.4,33.9085136 6.4,36.4852432 C6.4,39.0619728 8.51808821,41.1581698 11.1217274,41.1581698 C13.7253666,41.1581698 15.8434548,39.0619728 15.8434548,36.4852432 C15.8434548,35.6677407 15.6296654,34.8990443 15.2554686,34.2299071 L23.0932737,26.4731087 C23.7179845,26.7754211 24.4194233,26.9457233 25.160341,26.9457233 C25.9862498,26.9457233 26.762974,26.7341436 27.4390991,26.3638141 L36.4471057,35.2785897 C36.0023452,35.991211 35.7448799,36.8297418 35.7448799,37.7270735 C35.7448799,40.303803 37.8629681,42.4 40.4666073,42.4 C43.0702465,42.4 45.1883347,40.303803 45.1883347,37.7270735 C45.1883347,36.9095709 44.9745453,36.1408745 44.6003485,35.4717374 L53.5460545,26.6184886 C54.0828886,26.8290299 54.6669401,26.9458531 55.2782726,26.9458531 C57.8819118,26.9458531 60,24.8496561 60,22.2729265 C60,19.696197 57.8819118,17.6 55.2782726,17.6 Z M11.1218585,38.5623591 C9.96477302,38.5623591 9.02331304,37.6306294 9.02331304,36.4855028 C9.02331304,35.3403762 9.96477302,34.4086466 11.1218585,34.4086466 C12.2789441,34.4086466 13.220404,35.3403762 13.220404,36.4855028 C13.220404,37.6306294 12.2789441,38.5623591 11.1218585,38.5623591 Z M25.1604722,24.3497828 C24.0033866,24.3497828 23.0619267,23.4180532 23.0619267,22.2729265 C23.0619267,21.1277999 24.0033866,20.1960703 25.1604722,20.1960703 C26.3175577,20.1960703 27.2590177,21.1277999 27.2590177,22.2729265 C27.2590177,23.4180532 26.3175577,24.3497828 25.1604722,24.3497828 Z M40.4667384,39.8041893 C39.3096529,39.8041893 38.3681929,38.8724597 38.3681929,37.7273331 C38.3681929,36.5822065 39.3096529,35.6504768 40.4667384,35.6504768 C41.623824,35.6504768 42.5652839,36.5822065 42.5652839,37.7273331 C42.5652839,38.8724597 41.623824,39.8041893 40.4667384,39.8041893 Z M55.2782726,24.3497828 C54.1211871,24.3497828 53.1797271,23.4180532 53.1797271,22.2729265 C53.1797271,21.1277999 54.1211871,20.1960703 55.2782726,20.1960703 C56.4353581,20.1960703 57.3768181,21.1277999 57.3768181,22.2729265 C57.3768181,23.4180532 56.4353581,24.3497828 55.2782726,24.3497828 Z" id="Shape" fill="#FF2584"></path>
                <path d="M19.6484,17.15172 C19.424,16.92852 19.1156,16.8 18.8,16.8 C18.4832,16.8 18.1736,16.9284 17.9504,17.15172 C17.7272,17.3748 17.6,17.6844 17.6,18 C17.6,18.3156 17.7272,18.6252 17.9504,18.8484 C18.1748,19.0716 18.4832,19.2 18.8,19.2 C19.1156,19.2 19.424,19.07172 19.6484,18.8484 C19.8716,18.6252 20,18.3156 20,18 C20,17.6844 19.8716,17.3748 19.6484,17.15172 Z" id="Path" fill="#FF2584"></path>
                <path d="M13.9058824,16.8 L7.69411765,16.8 C6.97937647,16.8 6.4,17.33736 6.4,18 C6.4,18.66264 6.97937647,19.2 7.69411765,19.2 L13.9058824,19.2 C14.6206235,19.2 15.2,18.66264 15.2,18 C15.2,17.33736 14.6206235,16.8 13.9058824,16.8 Z" id="Path" fill="#FF2584"></path>
                <path d="M13.9058824,23.2 L7.69411765,23.2 C6.97937647,23.2 6.4,23.73736 6.4,24.4 C6.4,25.06264 6.97937647,25.6 7.69411765,25.6 L13.9058824,25.6 C14.6206235,25.6 15.2,25.06264 15.2,24.4 C15.2,23.73736 14.6206235,23.2 13.9058824,23.2 Z" id="Path" fill="#FF2584"></path>
            </g>
        </g>
    </g>
</svg>