<?xml version="1.0" encoding="UTF-8"?>
<svg width="12px" height="7px" viewBox="0 0 12 7" version="1.1" xmlns="http://www.w3.org/2000/svg" xmlns:xlink="http://www.w3.org/1999/xlink">
    <title>Path</title>
    <g id="Final-UI" stroke="none" stroke-width="1" fill="none" fill-rule="evenodd">
        <g id="website-home-copy" transform="translate(-452.000000, -47.000000)" fill="#303030" fill-rule="nonzero">
            <g id="Group-24" transform="translate(314.000000, 28.000000)">
                <path d="M149.808194,19.5850516 L149.415117,19.19415 C149.291409,19.0720716 149.126822,19.0048176 148.950918,19.0048176 C148.775112,19.0048176 148.61033,19.0720716 148.486622,19.19415 L144.002683,23.6226979 L139.513573,19.1892361 C139.39006,19.0671576 139.225278,19 139.049472,19 C138.873666,19 138.708786,19.0671576 138.585175,19.1892361 L138.192002,19.5777288 C137.935999,19.8303648 137.935999,20.2418858 138.192002,20.4945217 L143.536826,25.7920716 C143.660339,25.9140537 143.824925,26 144.002293,26 L144.004341,26 C144.180245,26 144.344832,25.9139573 144.468345,25.7920716 L149.808194,20.5088782 C149.931902,20.3868961 149.999805,20.2194357 150,20.0458087 C150,19.8720853 149.931902,19.7069374 149.808194,19.5850516 Z" id="Path"></path>
            </g>
        </g>
    </g>
</svg>