<?xml version="1.0" encoding="UTF-8"?>
<svg width="53px" height="56px" viewBox="0 0 53 56" version="1.1" xmlns="http://www.w3.org/2000/svg" xmlns:xlink="http://www.w3.org/1999/xlink">
    <title>Group 4</title>
    <g id="Final-UI" stroke="none" stroke-width="1" fill="none" fill-rule="evenodd">
        <g id="course-page" transform="translate(-157.000000, -3109.000000)" fill-rule="nonzero">
            <g id="Group-4" transform="translate(157.000000, 3109.000000)">
                <path d="M43.8822111,16.227 C42.0453111,16.686 41.1579111,16.0731 39.5415111,14.967 C37.0476111,13.257 33.5493111,11.1735 30.8763111,12.5424 C30.0918506,12.9567558 29.4628201,13.6142064 29.0835111,14.4162 C26.7039111,14.517 25.1973111,15.2262 24.6024111,16.5159 C23.6745111,18.5337 25.4322111,21.069 26.1000111,21.9222 L26.1000111,26.1 C26.1000111,30.5735065 29.7265047,34.2 34.2000111,34.2 C38.6735176,34.2 42.3000111,30.5735065 42.3000111,26.1 L42.3000111,20.7 L42.3000111,20.691 C43.4650845,19.8622219 44.3800801,18.729296 44.9451111,17.4159 C45.0627975,17.1023739 44.9966728,16.7494319 44.773472,16.499772 C44.5502711,16.2501122 44.2069093,16.1450256 43.8822111,16.227 L43.8822111,16.227 Z M34.2000111,32.4 C30.722262,32.3960322 27.9039789,29.5777491 27.9000111,26.1 L27.9000111,21.8313 C28.2814063,21.1135577 28.9010505,20.5511995 29.6523111,20.241 C30.7251111,19.9584 35.4600111,23.5224 40.5000111,21.6324 L40.5000111,26.1 C40.4960434,29.5777491 37.6777602,32.3960322 34.2000111,32.4 L34.2000111,32.4 Z" id="Shape" fill="#FF72BB"></path>
                <path d="M50.2740111,41.049 L42.7770111,38.799 L40.2390111,36.261 C39.934782,35.9599288 39.4606024,35.9147688 39.1050111,36.153 L34.2000111,39.42 L29.2950111,36.153 C28.9394199,35.9147688 28.4652403,35.9599288 28.1610111,36.261 L25.6230111,38.799 L18.1260111,41.049 C16.9795202,41.3892514 16.1949692,42.4450957 16.199987,43.641 L16.199987,53.1 C16.2044591,54.5893225 17.4106886,55.795552 18.9000111,55.8 L49.5000111,55.8 C50.9893337,55.795552 52.1955632,54.5893225 52.2000353,53.1 L52.2000353,43.641 C52.2050531,42.4450957 51.4205021,41.3892514 50.2740111,41.049 L50.2740111,41.049 Z M31.3200111,43.551 L27.3690111,39.6 L28.9170111,38.061 L32.9850111,40.77 L31.3200111,43.551 Z M35.4150111,40.77 L39.4830111,38.061 L41.0310111,39.6 L37.0800111,43.551 L35.4150111,40.77 Z M45.9000111,49.5 L41.4000111,49.5 C40.9029549,49.5 40.5000111,49.0970563 40.5000111,48.6 C40.5000111,48.1029437 40.9029549,47.7 41.4000111,47.7 L45.9000111,47.7 C46.3970674,47.7 46.8000111,48.1029437 46.8000111,48.6 C46.8000111,49.0970563 46.3970674,49.5 45.9000111,49.5 Z" id="Shape" fill="#FF72BB"></path>
                <path d="M42.7923111,12.7359 C41.9557973,11.8935666 40.8177425,11.4198564 39.6306111,11.4198564 C38.4434797,11.4198564 37.305425,11.8935666 36.4689111,12.7359 L30.4065111,18.8361 L30.4065111,2.7 C30.4094981,1.21286395 29.2071435,0.00446735818 27.7200111,0 L2.68291114,0 C1.19718633,0.00644809218 -0.0029802857,1.21426421 5.55919826e-06,2.7 L5.55919826e-06,42.3 C-0.0029802857,43.7857358 1.19718633,44.9935519 2.68291114,45 L27.7200111,45 C29.205736,44.9935519 30.4059026,43.7857358 30.4029111,42.3 L30.4029111,31.5639 L42.7923111,19.0998 C44.5358442,17.33676 44.5358442,14.49894 42.7923111,12.7359 Z M24.4539111,35.01 L20.6595111,31.1922 L35.8362111,15.9174 L39.6306111,19.7361 L24.4539111,35.01 Z M19.7856111,32.8581 L22.7979111,35.8893 L18.2790111,37.4049 L19.7856111,32.8581 Z M28.6200111,42.3 C28.6200111,42.7949551 28.2203573,43.1970303 27.7254111,43.2 L2.68291114,43.2 C2.18796499,43.1970303 1.78831114,42.7949551 1.78831114,42.3 L1.78831114,2.7 C1.78831114,2.20504494 2.18796499,1.80296973 2.68291114,1.8 L27.7200111,1.8 C28.2170674,1.8 28.6200111,2.20294373 28.6200111,2.7 L28.6200111,20.6361 L18.7623111,30.555 C18.6810611,30.6660493 18.6088304,30.7834241 18.5463111,30.906 L16.2630111,37.8 L8.04871114,37.8 C7.55165486,37.8 7.14871114,38.2029437 7.14871114,38.7 C7.14871114,39.1970563 7.55165486,39.6 8.04871114,39.6 L16.4349111,39.6 C16.6476401,39.7344274 16.9100371,39.7645766 17.1477111,39.6819 L24.7365111,37.1358 C24.8583905,37.0727191 24.9751469,37.0001977 25.0857111,36.9189 L28.6182111,33.3639 L28.6200111,42.3 Z M41.5278111,17.8272 L40.8978111,18.4635 L37.1034111,14.6448 L37.7334111,14.0085 C38.2356185,13.5035236 38.918422,13.2195969 39.6306111,13.2195969 C40.3428003,13.2195969 41.0256037,13.5035236 41.5278111,14.0085 C42.5735833,15.0666071 42.5735833,16.7690929 41.5278111,17.8272 Z" id="Shape" fill="#151A6A"></path>
                <path d="M15.2037111,13.5000871 C17.0262876,13.5113002 18.6756943,12.422104 19.381008,10.7414955 C20.0863218,9.06088694 19.7082381,7.12079846 18.423471,5.82801613 C17.1387039,4.53523379 15.2010044,4.14509155 13.5160418,4.83993963 C11.8310793,5.5347877 10.7316018,7.17738851 10.7316018,9 C10.7266264,11.4764595 12.7272685,13.489583 15.2037111,13.5000871 L15.2037111,13.5000871 Z M15.2037111,6.3 C16.2972887,6.29307387 17.2870426,6.94649822 17.7103446,7.95485097 C18.1336465,8.96320371 17.9068859,10.1273154 17.1360548,10.9030596 C16.3652236,11.6788038 15.2025761,11.9129558 14.1915543,11.4960689 C13.1805325,11.079182 12.5208073,10.0935995 12.5208073,9 C12.5183149,7.51446786 13.7181931,6.30694197 15.2037111,6.3 L15.2037111,6.3 Z" id="Shape" fill="#151A6A"></path>
                <path d="M10.7316111,22.5 L19.6749111,22.5 C21.6631362,22.5 23.2749111,20.8882251 23.2749111,18.9 C23.2749111,16.9117749 21.6631362,15.3 19.6749111,15.3 L10.7316111,15.3 C8.74338604,15.3 7.13161114,16.9117749 7.13161114,18.9 C7.13161114,20.8882251 8.74338604,22.5 10.7316111,22.5 Z M10.7316111,17.1 L19.6749111,17.1 C20.6690237,17.1 21.4749111,17.9058875 21.4749111,18.9 C21.4749111,19.8941125 20.6690237,20.7 19.6749111,20.7 L10.7316111,20.7 C9.73749859,20.7 8.93161114,19.8941125 8.93161114,18.9 C8.93161114,17.9058875 9.73749859,17.1 10.7316111,17.1 Z" id="Shape" fill="#151A6A"></path>
            </g>
        </g>
    </g>
</svg>