<?xml version="1.0" encoding="UTF-8"?>
<svg width="77px" height="78px" viewBox="0 0 77 78" version="1.1" xmlns="http://www.w3.org/2000/svg" xmlns:xlink="http://www.w3.org/1999/xlink">
    <title>Icon</title>
    <defs>
        <path d="M60.6521586,10.2317905 C42.6521586,-7.54863177 27.3200407,0.537677283 24.6521586,14.0838212 C21.9842765,27.6299652 -2.79876327,30.3346666 0.261187502,46.3346666 C3.32113827,62.3346666 36.6521586,52.8346666 36.6521586,67.3346666 C36.6521586,81.8346666 75.1895892,81.3346666 75.1895892,62.3346666 C75.1895892,43.3346666 78.6521586,28.0122127 60.6521586,10.2317905 Z" id="path-1"></path>
    </defs>
    <g id="Final-UI" stroke="none" stroke-width="1" fill="none" fill-rule="evenodd">
        <g id="acadamic" transform="translate(-820.000000, -856.000000)">
            <g id="Group-41" transform="translate(192.000000, 856.000000)">
                <g id="step-2" transform="translate(565.000000, 0.000000)">
                    <g id="Icon" transform="translate(63.500000, 0.000000)">
                        <g id="bgicon">
                            <mask id="mask-2" fill="white">
                                <use xlink:href="#path-1"></use>
                            </mask>
                            <use fill-opacity="0.2" fill="#FFFFFF" xlink:href="#path-1"></use>
                            <g id="Color/Blue" opacity="0.2" mask="url(#mask-2)" fill="#FF008E">
                                <rect id="Rectangle" x="0" y="0" width="76" height="78"></rect>
                            </g>
                        </g>
                        <g id="icon/home/desktop" transform="translate(10.000000, 11.000000)" stroke-linecap="round" stroke-linejoin="round" stroke-width="3">
                            <g id="Group-15">
                                <path d="M17.8074207,23.2123862 L18.2901793,25.1434207 C19.674731,30.6796966 23.9963862,34.9994207 29.530731,36.3839724 L31.4617655,36.866731 L43.4225931,24.9059034 C49.8104552,18.5180414 53.7574897,10.0929379 54.5743172,1.09431724 L54.674731,-0.000579310345 L53.5798345,0.0998344828 C44.5812138,0.918593103 36.1561103,4.86369655 29.7663172,11.2534897 L17.8074207,23.2123862 Z" id="Stroke-1" stroke="#333333"></path>
                                <path d="M39.4937103,4.17644138 C40.032469,6.10747586 41.2509517,8.42471724 43.7516414,10.9234759 C46.1692966,13.3430621 48.4170207,14.5615448 50.3132966,15.1273379" id="Stroke-3" stroke="#333333"></path>
                                <line x1="26.8006345" y1="27.8740966" x2="12.9126345" y2="41.7620966" id="Stroke-5" stroke="#333333"></line>
                                <path d="M25.8982621,15.1215448 L20.236469,14.4398897 C16.1175724,13.9436138 11.9986759,15.3667862 9.06350345,18.3019586 L0.0571586207,27.3102345 C0.0571586207,27.3102345 10.9810207,24.5778207 17.8072276,23.2125793 L25.8982621,15.1215448 Z" id="Stroke-7" stroke="#333333"></path>
                                <path d="M39.5522207,28.776469 L40.2358069,34.4382621 C40.7301517,38.5571586 39.3069793,42.6760552 36.3737379,45.6112276 L27.3654621,54.6175724 C27.3654621,54.6175724 30.0978759,43.6937103 31.4631172,36.8675034 L39.5522207,28.776469 Z" id="Stroke-9" stroke="#333333"></path>
                                <path d="M38.2887448,21.8471448 C36.7825379,23.3552828 34.3359172,23.3552828 32.8277793,21.8471448 C31.3196414,20.3390069 31.3196414,17.8943172 32.8277793,16.3842483 C34.3359172,14.8780414 36.7825379,14.8780414 38.2887448,16.3842483 C39.7968828,17.8943172 39.7968828,20.3390069 38.2887448,21.8471448 Z" id="Stroke-11" stroke="#333333"></path>
                                <path d="M25.1034483,41.1574897 C25.1034483,41.1574897 19.3103448,54.674731 0,54.674731 C0,35.3643862 13.5172414,29.5712828 13.5172414,29.5712828" id="Stroke-13" stroke="#FF016F"></path>
                            </g>
                        </g>
                    </g>
                </g>
            </g>
        </g>
    </g>
</svg>