<?xml version="1.0" encoding="UTF-8"?>
<svg width="25px" height="25px" viewBox="0 0 25 25" version="1.1" xmlns="http://www.w3.org/2000/svg" xmlns:xlink="http://www.w3.org/1999/xlink">
    <title>noun_calender_2500129 (1) copy</title>
    <g id="Final-UI" stroke="none" stroke-width="1" fill="none" fill-rule="evenodd">
        <g id="website-home" transform="translate(-924.000000, -5707.000000)" fill="#FF008E" fill-rule="nonzero">
            <g id="Group-25" transform="translate(714.000000, 5632.000000)">
                <g id="Group-2" transform="translate(210.000000, 75.000000)">
                    <g id="noun_calender_2500129-(1)-copy">
                        <path d="M0.99,21.48 C0.99,22.76 2.1,24.07 3.38,24.07 L21.89,24.07 C23.17,24.07 24.09,22.89 24.09,21.48 C24.09,21.03 24.05,7.13 24.05,6.38 C24.05,3.97 23.72,3.25 19.42,3.25 L19.42,0.93 L17.11,0.93 L17.11,3.24 L7.85,3.24 L7.85,0.93 L5.54,0.93 L5.54,3.24 L3.23,3.24 C1.96,3.24 0.92,4.28 0.92,5.55 L0.99,21.48 Z M21.74,20.6 C21.74,21.24 21.22,21.76 20.58,21.76 L4.38,21.76 C3.74,21.76 3.22,21.24 3.22,20.6 L3.22,12.5 L21.73,12.5 L21.73,20.6 L21.74,20.6 Z M21.74,10.19 L3.23,10.19 L3.23,6.69 C3.23,6.07 3.73,5.57 4.35,5.57 L5.54,5.57 L5.54,7.88 L7.85,7.88 L7.85,5.56 L17.11,5.56 L17.11,7.87 L19.42,7.87 L19.42,5.56 L20.58,5.56 C21.22,5.56 21.74,6.08 21.74,6.72 L21.74,10.19 Z" id="Shape"></path>
                    </g>
                </g>
            </g>
        </g>
    </g>
</svg>