<?xml version="1.0" encoding="UTF-8"?>
<svg width="468px" height="474px" viewBox="0 0 468 474" version="1.1" xmlns="http://www.w3.org/2000/svg" xmlns:xlink="http://www.w3.org/1999/xlink">
    <title>Group 8</title>
    <defs>
        <linearGradient x1="-5.94886211%" y1="50%" x2="97.2668601%" y2="89.2532195%" id="linearGradient-1">
            <stop stop-color="#FFBF00" offset="0%"></stop>
            <stop stop-color="#FF4C95" offset="100%"></stop>
            <stop stop-color="#FF4A98" offset="100%"></stop>
        </linearGradient>
        <linearGradient x1="-5.94886211%" y1="50%" x2="97.2668601%" y2="89.1601619%" id="linearGradient-2">
            <stop stop-color="#FFBF00" offset="0%"></stop>
            <stop stop-color="#FF4C95" offset="100%"></stop>
            <stop stop-color="#FF4A98" offset="100%"></stop>
        </linearGradient>
    </defs>
    <g id="Final-UI" stroke="none" stroke-width="1" fill="none" fill-rule="evenodd">
        <g id="about-founder-" transform="translate(-18.000000, -582.000000)">
            <g id="Group-7" transform="translate(18.000000, 582.000000)">
                <g id="Group-8" transform="translate(0.937393, 0.953124)">
                    <path d="M155.60207,386.691863 C244.102029,386.728267 408.744871,292.500239 408.707983,202.789646 C408.671083,113.079054 287.759205,85.4283887 198.162463,85.3915089 C108.565722,85.3546571 35.9631204,158.049576 36,247.760168 C36.0369077,337.470761 67.1021111,386.655438 155.60207,386.691863 Z" id="Oval-Copy-12" fill="url(#linearGradient-1)" opacity="0.200000003" transform="translate(222.353992, 236.041686) rotate(-61.000000) translate(-222.353992, -236.041686) "></path>
                    <path d="M168.989259,382.124077 C257.5418,382.154957 422.288373,287.972642 422.257079,198.315324 C422.225784,108.658005 301.243795,81.0312808 211.59382,81 C121.943845,80.9687394 49.2935491,153.625007 49.3248333,243.282325 C49.3561377,332.939643 80.4367174,382.093181 168.989259,382.124077 Z" id="Oval-Copy-10" fill="url(#linearGradient-2)" opacity="0.400000006" transform="translate(235.790956, 231.562038) rotate(-23.000000) translate(-235.790956, -231.562038) "></path>
                </g>
            </g>
        </g>
    </g>
</svg>