<?xml version="1.0" encoding="UTF-8"?>
<svg width="18px" height="18px" viewBox="0 0 18 18" version="1.1" xmlns="http://www.w3.org/2000/svg" xmlns:xlink="http://www.w3.org/1999/xlink">
    <title>close (1)</title>
    <g id="Page-1" stroke="none" stroke-width="1" fill="none" fill-rule="evenodd" opacity="0.5">
        <g id="mobile-home-header-search" transform="translate(-323.000000, -16.000000)" fill="#000000" fill-rule="nonzero">
            <g id="close-(1)" transform="translate(323.000000, 16.000000)">
                <path d="M9.88338047,8.90006953 L17.5963777,1.1870375 C17.867932,0.915483203 17.867932,0.475211328 17.5963777,0.203691797 C17.3248234,-0.0678277344 16.8845516,-0.0678625 16.613032,0.203691797 L8.9,7.91672383 L1.18700273,0.203691797 C0.915448438,-0.0678625 0.475176563,-0.0678625 0.203657031,0.203691797 C-0.0678625,0.475246094 -0.0678972656,0.915517969 0.203657031,1.1870375 L7.9166543,8.90003477 L0.203657031,16.6130668 C-0.0678972656,16.8846211 -0.0678972656,17.324893 0.203657031,17.5964125 C0.339416797,17.7321723 0.517382031,17.8000348 0.695347266,17.8000348 C0.8733125,17.8000348 1.05124297,17.7321723 1.1870375,17.5964125 L8.9,9.88341523 L16.6129973,17.5964125 C16.748757,17.7321723 16.9267223,17.8000348 17.1046875,17.8000348 C17.2826527,17.8000348 17.4605832,17.7321723 17.5963777,17.5964125 C17.867932,17.3248582 17.867932,16.8845863 17.5963777,16.6130668 L9.88338047,8.90006953 Z" id="Path"></path>
            </g>
        </g>
    </g>
</svg>