<?xml version="1.0" encoding="UTF-8"?>
<svg width="17px" height="13px" viewBox="0 0 17 13" version="1.1" xmlns="http://www.w3.org/2000/svg" xmlns:xlink="http://www.w3.org/1999/xlink">
    <title>chat</title>
    <g id="Registration/login" stroke="none" stroke-width="1" fill="none" fill-rule="evenodd" opacity="0.5">
        <g id="discussion1" transform="translate(-492.000000, -705.000000)" fill="#000000" fill-rule="nonzero">
            <g id="chat" transform="translate(492.000000, 705.000000)">
                <path d="M9.5105745,8.618463 C10.4848695,8.207766 11.2537845,7.6487355 11.8172565,6.941151 C12.380823,6.233724 12.662622,5.4633285 12.662622,4.629933 C12.662622,3.796506 12.380823,3.026142 11.8172565,2.318589 C11.2537845,1.6111305 10.4848695,1.052037 9.5105745,0.6412455 C8.5362795,0.230517 7.476588,0.0252315 6.3313425,0.0252315 C5.1861915,0.0252315 4.1265,0.230643 3.152142,0.6413715 C2.17791,1.0521 1.4089635,1.6111935 0.84546,2.3186835 C0.2818305,3.026142 0,3.7964745 0,4.629933 C0,5.343345 0.213066,6.0151455 0.638694,6.6445785 C1.064322,7.274106 1.6489305,7.804818 2.3923305,8.236431 C2.3324175,8.380449 2.270961,8.512182 2.2079925,8.63226 C2.1449925,8.752149 2.070117,8.8674705 1.983114,8.9784765 C1.896174,9.089514 1.8287955,9.176391 1.7807895,9.239139 C1.732815,9.302076 1.654884,9.3906225 1.5469335,9.504432 C1.4389515,9.6183675 1.3699665,9.693306 1.340073,9.7291845 C1.340073,9.723168 1.3280085,9.7367445 1.3040685,9.769725 C1.280034,9.8027055 1.266552,9.817605 1.263528,9.8148015 C1.260567,9.811557 1.248534,9.826551 1.2275865,9.8595315 C1.2066075,9.8925435 1.1960865,9.909018 1.1960865,9.909018 L1.173564,9.9538425 C1.164618,9.9717345 1.15857,9.989658 1.155609,10.0077705 C1.152585,10.025631 1.151073,10.0452555 1.151073,10.0661715 C1.151073,10.0870875 1.154034,10.1064915 1.160082,10.1245725 C1.1721465,10.202409 1.2066075,10.2652515 1.263528,10.3134465 C1.3205115,10.3613265 1.3818735,10.385235 1.447929,10.385235 L1.4749245,10.385235 C1.774647,10.343277 2.032506,10.295334 2.2483125,10.2413115 C3.1716405,10.0014705 4.005099,9.617706 4.7485305,9.090144 C5.2880625,9.186093 5.8157505,9.234036 6.3313425,9.234036 C7.4764935,9.234414 8.536311,9.0291915 9.5105745,8.618463 Z M4.478796,7.8676605 L4.08303,8.1463095 C3.915135,8.2601505 3.7293795,8.377236 3.52548,8.4972195 L3.8403225,7.7416605 L2.9679615,7.2380385 C2.3922675,6.9023745 1.9456605,6.50664 1.6278885,6.050961 C1.310085,5.5953135 1.151262,5.121648 1.151262,4.6299645 C1.151262,4.018329 1.386693,3.4457535 1.857303,2.9121435 C2.32785,2.3785335 2.9619135,1.9558665 3.759336,1.643985 C4.5566955,1.3322925 5.414094,1.1763045 6.3314055,1.1763045 C7.248717,1.1763045 8.1061785,1.3322925 8.9035065,1.643985 C9.700866,1.955835 10.3349295,2.3785335 10.8057285,2.9121435 C11.2763385,3.445722 11.5115805,4.0182975 11.5115805,4.6299645 C11.5115805,5.2415055 11.2763385,5.8140495 10.8057285,6.3476595 C10.334961,6.881427 9.7008975,7.3039995 8.9035065,7.6157235 C8.1061785,7.927479 7.2488115,8.0833725 6.3314055,8.0833725 C5.8818375,8.0833725 5.423166,8.04132 4.955454,7.957467 L4.478796,7.8676605 Z" id="Shape"></path>
                <path d="M15.4774305,8.950914 C15.9032475,8.32419 16.1159985,7.6513815 16.1159985,6.931827 C16.1159985,6.1943805 15.89112,5.5047825 15.441615,4.863348 C14.9918895,4.221945 14.380254,3.6882405 13.6068975,3.2625495 C13.7446785,3.7121805 13.813632,4.167828 13.813632,4.6295865 C13.813632,5.432931 13.61304,6.1943805 13.2110685,6.913935 C12.8093805,7.633269 12.233781,8.26875 11.4843645,8.820441 C10.7888445,9.324063 9.997407,9.7106625 9.109989,9.9805545 C8.222823,10.2502575 7.2964395,10.3852665 6.331122,10.3852665 C6.15132,10.3852665 5.887476,10.373391 5.539779,10.349451 C6.744843,11.1406995 8.1598545,11.5365285 9.784593,11.5365285 C10.3002795,11.5365285 10.8278415,11.4884595 11.3674995,11.392542 C12.1108995,11.9203245 12.9443895,12.3038685 13.8676545,12.5438355 C14.0834925,12.5979525 14.34132,12.645801 14.6411055,12.6877275 C14.71302,12.69387 14.779107,12.6727335 14.83902,12.624885 C14.8989645,12.576816 14.937993,12.511044 14.955885,12.427191 C14.9530815,12.3911865 14.955885,12.371436 14.9649255,12.3685695 C14.973777,12.3657345 14.972265,12.3461415 14.9603895,12.3102315 C14.9485455,12.2741955 14.9424975,12.256209 14.9424975,12.256209 L14.9200695,12.211353 C14.9138325,12.199509 14.9036895,12.1829085 14.888601,12.1619925 C14.873607,12.1412025 14.8616685,12.1260825 14.8525965,12.117042 C14.8437765,12.108096 14.830389,12.0930075 14.8122765,12.072186 C14.7943845,12.051396 14.78232,12.037788 14.776272,12.0317715 C14.7463155,11.995767 14.6773935,11.92086 14.569506,11.806893 C14.4614925,11.6930835 14.3836875,11.604663 14.335713,11.541726 C14.2877385,11.4787575 14.2202655,11.3918805 14.133357,11.280843 C14.04648,11.170026 13.971447,11.0545785 13.9084785,10.9346265 C13.8455415,10.8147375 13.784085,10.682784 13.7241405,10.5389865 C14.4673515,10.1069325 15.0520545,9.5778585 15.4774305,8.950914 Z" id="Path"></path>
            </g>
        </g>
    </g>
</svg>