<svg xmlns="http://www.w3.org/2000/svg" width="36" height="36" viewBox="0 0 36 36">
    <g fill="none" fill-rule="evenodd">
        <g fill-rule="nonzero">
            <g>
                <g>
                    <g transform="translate(-601 -1734) translate(129 1700) translate(373 33) translate(99.49 1.327)">
                        <circle cx="17.466" cy="17.465" r="17.466" fill="#007AB9"/>
                        <path fill="#F1F2F2" d="M27.901 18.87v7.202h-4.174v-6.719c0-1.686-.603-2.838-2.115-2.838-1.153 0-1.839.775-2.141 1.526-.11.269-.138.641-.138 1.018v7.012h-4.176s.057-11.378 0-12.556h4.176v1.78l-.028.04h.028v-.04c.555-.854 1.544-2.075 3.762-2.075 2.747 0 4.806 1.795 4.806 5.65zM10.79 7.464c-1.428 0-2.363.937-2.363 2.169 0 1.205.908 2.17 2.308 2.17h.027c1.456 0 2.362-.965 2.362-2.17-.028-1.232-.906-2.17-2.334-2.17zM8.676 26.072h4.173V13.515H8.676v12.557z"/>
                    </g>
                </g>
            </g>
        </g>
    </g>
</svg>
