<svg xmlns="http://www.w3.org/2000/svg" width="37" height="36" viewBox="0 0 37 36">
    <g fill="none" fill-rule="evenodd">
        <g fill-rule="nonzero">
            <g>
                <g>
                    <g transform="translate(-552 -1733) translate(129 1700) translate(373 33) translate(50.408)">
                        <circle cx="17.518" cy="17.517" r="17.517" fill="#55ACEE"/>
                        <path fill="#F1F2F2" d="M28.248 12.59c-.751.332-1.559.557-2.405.658.864-.518 1.528-1.338 1.84-2.316-.808.48-1.705.828-2.658 1.015-.764-.813-1.852-1.321-3.057-1.321-2.312 0-4.187 1.875-4.187 4.187 0 .328.037.647.109.954-3.48-.174-6.565-1.841-8.63-4.375-.361.618-.568 1.338-.568 2.105 0 1.452.74 2.734 1.863 3.485-.686-.021-1.332-.21-1.897-.524v.053c0 2.029 1.444 3.72 3.36 4.105-.352.096-.723.147-1.104.147-.27 0-.532-.026-.788-.074.533 1.663 2.08 2.873 3.912 2.907-1.434 1.124-3.239 1.793-5.201 1.793-.337 0-.671-.02-.998-.059 1.852 1.189 4.053 1.881 6.418 1.881 7.701 0 11.913-6.38 11.913-11.913 0-.182-.004-.362-.012-.542.819-.59 1.528-1.327 2.09-2.167z"/>
                    </g>
                </g>
            </g>
        </g>
    </g>
</svg>
