<?xml version="1.0" encoding="UTF-8"?>
<svg width="40px" height="39px" viewBox="0 0 40 39" version="1.1" xmlns="http://www.w3.org/2000/svg" xmlns:xlink="http://www.w3.org/1999/xlink">
    <title>graph (1)</title>
    <g id="Final-UI" stroke="none" stroke-width="1" fill="none" fill-rule="evenodd">
        <g id="course-page" transform="translate(-965.000000, -922.000000)" fill-rule="nonzero">
            <g id="graph-(1)" transform="translate(965.000000, 922.000000)">
                <path d="M37.6656,17.8752 L22.344,17.8752 C21.2862642,17.8752 20.4288,18.7326642 20.4288,19.7904 L20.4288,36.3888 C20.4288,37.4465358 21.2862642,38.304 22.344,38.304 L37.6656,38.304 C38.7233358,38.304 39.5808,37.4465358 39.5808,36.3888 L39.5808,19.7904 C39.5808,18.7326642 38.7233358,17.8752 37.6656,17.8752 L37.6656,17.8752 Z M34.2865488,27.9025488 C34.0372537,28.1517686 33.6331463,28.1517686 33.3838512,27.9025488 L30.6432,25.1618976 L30.6432,32.5584 C30.6432,32.9109786 30.3573786,33.1968 30.0048,33.1968 C29.6522214,33.1968 29.3664,32.9109786 29.3664,32.5584 L29.3664,25.1618976 L26.6257488,27.9025488 C26.3752541,28.1444847 25.9770803,28.1410246 25.7308278,27.8947722 C25.4845754,27.6485197 25.4811153,27.2503459 25.7230512,26.9998512 L29.5534512,23.1694512 C29.6732205,23.0493788 29.8358446,22.9818972 30.0054384,22.9818972 C30.1750322,22.9818972 30.3376563,23.0493788 30.4574256,23.1694512 L34.2878256,26.9998512 C34.5366932,27.2494987 34.5361216,27.6536063 34.2865488,27.9025488 L34.2865488,27.9025488 Z" id="Shape" fill="#FF7CB9"></path>
                <path d="M33.8352,30.6432 L31.92,30.6432 L31.92,1.9152 C31.92,0.857464247 31.0625358,0 30.0048,0 L24.8976,0 C23.8398642,0 22.9824,0.857464247 22.9824,1.9152 L22.9824,30.6432 L21.7056,30.6432 L21.7056,11.4912 C21.7056,10.4334642 20.8481358,9.576 19.7904,9.576 L14.6832,9.576 C13.6254642,9.576 12.768,10.4334642 12.768,11.4912 L12.768,30.6432 L11.4912,30.6432 L11.4912,17.2368 C11.4912,16.1790642 10.6337358,15.3216 9.576,15.3216 L4.4688,15.3216 C3.41106425,15.3216 2.5536,16.1790642 2.5536,17.2368 L2.5536,30.6432 L0.6384,30.6432 C0.285821416,30.6432 0,30.9290214 0,31.2816 C0,31.6341786 0.285821416,31.92 0.6384,31.92 L33.8352,31.92 C34.1877786,31.92 34.4736,31.6341786 34.4736,31.2816 C34.4736,30.9290214 34.1877786,30.6432 33.8352,30.6432 Z M24.2592,1.9152 C24.2592,1.56262142 24.5450214,1.2768 24.8976,1.2768 L30.0048,1.2768 C30.3573786,1.2768 30.6432,1.56262142 30.6432,1.9152 L30.6432,30.6432 L24.2592,30.6432 L24.2592,1.9152 Z M14.0448,11.4912 C14.0448,11.1386214 14.3306214,10.8528 14.6832,10.8528 L19.7904,10.8528 C20.1429786,10.8528 20.4288,11.1386214 20.4288,11.4912 L20.4288,30.6432 L14.0448,30.6432 L14.0448,11.4912 Z M3.8304,17.2368 C3.8304,16.8842214 4.11622142,16.5984 4.4688,16.5984 L9.576,16.5984 C9.92857858,16.5984 10.2144,16.8842214 10.2144,17.2368 L10.2144,30.6432 L3.8304,30.6432 L3.8304,17.2368 Z" id="Shape" fill="#151A6A"></path>
            </g>
        </g>
    </g>
</svg>