<?xml version="1.0" encoding="UTF-8"?>
<svg width="178px" height="190px" viewBox="0 0 178 190" version="1.1" xmlns="http://www.w3.org/2000/svg" xmlns:xlink="http://www.w3.org/1999/xlink">
    <title>Group Copy 4</title>
    <g id="Final-UI" stroke="none" stroke-width="1" fill="none" fill-rule="evenodd" opacity="0.300000012">
        <g id="website-home" transform="translate(-486.000000, -1391.000000)" fill="#D8D8D8">
            <g id="Group-Copy-4" transform="translate(486.000000, 1391.000000)">
                <circle id="Oval" cx="3.5" cy="3.5" r="3.5"></circle>
                <circle id="Oval-Copy-4" cx="39.5" cy="3.5" r="3.5"></circle>
                <circle id="Oval-Copy" cx="3.5" cy="22.5" r="3.5"></circle>
                <circle id="Oval-Copy-5" cx="39.5" cy="22.5" r="3.5"></circle>
                <circle id="Oval-Copy-2" cx="22.5" cy="22.5" r="3.5"></circle>
                <circle id="Oval-Copy-6" cx="60.5" cy="22.5" r="3.5"></circle>
                <circle id="Oval-Copy-3" cx="22.5" cy="3.5" r="3.5"></circle>
                <circle id="Oval-Copy-7" cx="60.5" cy="3.5" r="3.5"></circle>
                <circle id="Oval" cx="78.5" cy="3.5" r="3.5"></circle>
                <circle id="Oval-Copy-4" cx="114.5" cy="3.5" r="3.5"></circle>
                <circle id="Oval-Copy" cx="78.5" cy="22.5" r="3.5"></circle>
                <circle id="Oval-Copy-5" cx="114.5" cy="22.5" r="3.5"></circle>
                <circle id="Oval-Copy-2" cx="97.5" cy="22.5" r="3.5"></circle>
                <circle id="Oval-Copy-6" cx="134.5" cy="22.5" r="3.5"></circle>
                <circle id="Oval-Copy-3" cx="97.5" cy="3.5" r="3.5"></circle>
                <circle id="Oval-Copy-7" cx="134.5" cy="3.5" r="3.5"></circle>
                <circle id="Oval-Copy-4" cx="155.5" cy="3.5" r="3.5"></circle>
                <circle id="Oval-Copy-5" cx="155.5" cy="22.5" r="3.5"></circle>
                <circle id="Oval-Copy-6" cx="174.5" cy="22.5" r="3.5"></circle>
                <circle id="Oval-Copy-7" cx="174.5" cy="3.5" r="3.5"></circle>
                <circle id="Oval" cx="3.5" cy="39.5" r="3.5"></circle>
                <circle id="Oval-Copy-4" cx="39.5" cy="39.5" r="3.5"></circle>
                <circle id="Oval-Copy" cx="3.5" cy="60.5" r="3.5"></circle>
                <circle id="Oval-Copy-5" cx="39.5" cy="60.5" r="3.5"></circle>
                <circle id="Oval-Copy-2" cx="22.5" cy="60.5" r="3.5"></circle>
                <circle id="Oval-Copy-6" cx="60.5" cy="60.5" r="3.5"></circle>
                <circle id="Oval-Copy-3" cx="22.5" cy="39.5" r="3.5"></circle>
                <circle id="Oval-Copy-7" cx="60.5" cy="39.5" r="3.5"></circle>
                <circle id="Oval" cx="78.5" cy="39.5" r="3.5"></circle>
                <circle id="Oval-Copy-4" cx="114.5" cy="39.5" r="3.5"></circle>
                <circle id="Oval-Copy" cx="78.5" cy="60.5" r="3.5"></circle>
                <circle id="Oval-Copy-5" cx="114.5" cy="60.5" r="3.5"></circle>
                <circle id="Oval-Copy-2" cx="97.5" cy="60.5" r="3.5"></circle>
                <circle id="Oval-Copy-6" cx="134.5" cy="60.5" r="3.5"></circle>
                <circle id="Oval-Copy-3" cx="97.5" cy="39.5" r="3.5"></circle>
                <circle id="Oval-Copy-7" cx="134.5" cy="39.5" r="3.5"></circle>
                <circle id="Oval-Copy-4" cx="155.5" cy="39.5" r="3.5"></circle>
                <circle id="Oval-Copy-5" cx="155.5" cy="60.5" r="3.5"></circle>
                <circle id="Oval-Copy-6" cx="174.5" cy="60.5" r="3.5"></circle>
                <circle id="Oval-Copy-7" cx="174.5" cy="39.5" r="3.5"></circle>
                <circle id="Oval" cx="3.5" cy="76.5" r="3.5"></circle>
                <circle id="Oval-Copy-4" cx="39.5" cy="76.5" r="3.5"></circle>
                <circle id="Oval-Copy" cx="3.5" cy="96.5" r="3.5"></circle>
                <circle id="Oval-Copy-5" cx="39.5" cy="96.5" r="3.5"></circle>
                <circle id="Oval-Copy-2" cx="22.5" cy="96.5" r="3.5"></circle>
                <circle id="Oval-Copy-6" cx="60.5" cy="96.5" r="3.5"></circle>
                <circle id="Oval-Copy-3" cx="22.5" cy="76.5" r="3.5"></circle>
                <circle id="Oval-Copy-7" cx="60.5" cy="76.5" r="3.5"></circle>
                <circle id="Oval" cx="78.5" cy="76.5" r="3.5"></circle>
                <circle id="Oval-Copy-4" cx="114.5" cy="76.5" r="3.5"></circle>
                <circle id="Oval-Copy" cx="78.5" cy="96.5" r="3.5"></circle>
                <circle id="Oval-Copy-5" cx="114.5" cy="96.5" r="3.5"></circle>
                <circle id="Oval-Copy-2" cx="97.5" cy="96.5" r="3.5"></circle>
                <circle id="Oval-Copy-6" cx="134.5" cy="96.5" r="3.5"></circle>
                <circle id="Oval-Copy-3" cx="97.5" cy="76.5" r="3.5"></circle>
                <circle id="Oval-Copy-7" cx="134.5" cy="76.5" r="3.5"></circle>
                <circle id="Oval-Copy-4" cx="155.5" cy="76.5" r="3.5"></circle>
                <circle id="Oval-Copy-5" cx="155.5" cy="96.5" r="3.5"></circle>
                <circle id="Oval-Copy-6" cx="174.5" cy="96.5" r="3.5"></circle>
                <circle id="Oval-Copy-7" cx="174.5" cy="76.5" r="3.5"></circle>
                <circle id="Oval" cx="3.5" cy="114.5" r="3.5"></circle>
                <circle id="Oval-Copy-4" cx="39.5" cy="114.5" r="3.5"></circle>
                <circle id="Oval-Copy" cx="3.5" cy="134.5" r="3.5"></circle>
                <circle id="Oval-Copy-5" cx="39.5" cy="134.5" r="3.5"></circle>
                <circle id="Oval-Copy-2" cx="22.5" cy="134.5" r="3.5"></circle>
                <circle id="Oval-Copy-6" cx="60.5" cy="134.5" r="3.5"></circle>
                <circle id="Oval-Copy-3" cx="22.5" cy="114.5" r="3.5"></circle>
                <circle id="Oval-Copy-7" cx="60.5" cy="114.5" r="3.5"></circle>
                <circle id="Oval" cx="78.5" cy="114.5" r="3.5"></circle>
                <circle id="Oval-Copy-4" cx="114.5" cy="114.5" r="3.5"></circle>
                <circle id="Oval-Copy" cx="78.5" cy="134.5" r="3.5"></circle>
                <circle id="Oval-Copy-5" cx="114.5" cy="134.5" r="3.5"></circle>
                <circle id="Oval-Copy-2" cx="97.5" cy="134.5" r="3.5"></circle>
                <circle id="Oval-Copy-6" cx="134.5" cy="134.5" r="3.5"></circle>
                <circle id="Oval-Copy-3" cx="97.5" cy="114.5" r="3.5"></circle>
                <circle id="Oval-Copy-7" cx="134.5" cy="114.5" r="3.5"></circle>
                <circle id="Oval-Copy-4" cx="155.5" cy="114.5" r="3.5"></circle>
                <circle id="Oval-Copy-5" cx="155.5" cy="134.5" r="3.5"></circle>
                <circle id="Oval-Copy-6" cx="174.5" cy="134.5" r="3.5"></circle>
                <circle id="Oval-Copy-7" cx="174.5" cy="114.5" r="3.5"></circle>
                <circle id="Oval" cx="3.5" cy="150.5" r="3.5"></circle>
                <circle id="Oval-Copy-4" cx="39.5" cy="150.5" r="3.5"></circle>
                <circle id="Oval-Copy" cx="3.5" cy="169.5" r="3.5"></circle>
                <circle id="Oval-Copy-5" cx="39.5" cy="169.5" r="3.5"></circle>
                <circle id="Oval-Copy-2" cx="22.5" cy="169.5" r="3.5"></circle>
                <circle id="Oval-Copy-6" cx="60.5" cy="169.5" r="3.5"></circle>
                <circle id="Oval-Copy-3" cx="22.5" cy="150.5" r="3.5"></circle>
                <circle id="Oval-Copy-7" cx="60.5" cy="150.5" r="3.5"></circle>
                <circle id="Oval" cx="78.5" cy="150.5" r="3.5"></circle>
                <circle id="Oval-Copy-4" cx="114.5" cy="150.5" r="3.5"></circle>
                <circle id="Oval-Copy" cx="78.5" cy="169.5" r="3.5"></circle>
                <circle id="Oval-Copy-5" cx="114.5" cy="169.5" r="3.5"></circle>
                <circle id="Oval-Copy-2" cx="97.5" cy="169.5" r="3.5"></circle>
                <circle id="Oval-Copy-6" cx="134.5" cy="169.5" r="3.5"></circle>
                <circle id="Oval-Copy-3" cx="97.5" cy="150.5" r="3.5"></circle>
                <circle id="Oval-Copy-7" cx="134.5" cy="150.5" r="3.5"></circle>
                <circle id="Oval-Copy-4" cx="155.5" cy="150.5" r="3.5"></circle>
                <circle id="Oval-Copy-5" cx="155.5" cy="169.5" r="3.5"></circle>
                <circle id="Oval-Copy-6" cx="174.5" cy="169.5" r="3.5"></circle>
                <circle id="Oval-Copy-7" cx="174.5" cy="150.5" r="3.5"></circle>
                <circle id="Oval" cx="3.5" cy="186.5" r="3.5"></circle>
                <circle id="Oval-Copy-4" cx="39.5" cy="186.5" r="3.5"></circle>
                <circle id="Oval-Copy-3" cx="22.5" cy="186.5" r="3.5"></circle>
                <circle id="Oval-Copy-7" cx="60.5" cy="186.5" r="3.5"></circle>
                <circle id="Oval" cx="78.5" cy="186.5" r="3.5"></circle>
                <circle id="Oval-Copy-4" cx="114.5" cy="186.5" r="3.5"></circle>
                <circle id="Oval-Copy-3" cx="97.5" cy="186.5" r="3.5"></circle>
                <circle id="Oval-Copy-7" cx="134.5" cy="186.5" r="3.5"></circle>
                <circle id="Oval-Copy-4" cx="155.5" cy="186.5" r="3.5"></circle>
                <circle id="Oval-Copy-7" cx="174.5" cy="186.5" r="3.5"></circle>
            </g>
        </g>
    </g>
</svg>