<?xml version="1.0" encoding="UTF-8"?>
<svg width="77px" height="78px" viewBox="0 0 77 78" version="1.1" xmlns="http://www.w3.org/2000/svg" xmlns:xlink="http://www.w3.org/1999/xlink">
    <title>Icon</title>
    <defs>
        <path d="M60.6521586,10.2317905 C42.6521586,-7.54863177 27.3200407,0.537677283 24.6521586,14.0838212 C21.9842765,27.6299652 -2.79876327,30.3346666 0.261187502,46.3346666 C3.32113827,62.3346666 36.6521586,52.8346666 36.6521586,67.3346666 C36.6521586,81.8346666 75.1895892,81.3346666 75.1895892,62.3346666 C75.1895892,43.3346666 78.6521586,28.0122127 60.6521586,10.2317905 Z" id="path-1"></path>
    </defs>
    <g id="Final-UI" stroke="none" stroke-width="1" fill="none" fill-rule="evenodd">
        <g id="acadamic" transform="translate(-536.000000, -856.000000)">
            <g id="Group-41" transform="translate(192.000000, 856.000000)">
                <g id="step-3" transform="translate(278.000000, 0.000000)">
                    <g id="Icon" transform="translate(66.500000, 0.000000)">
                        <g id="bgicon">
                            <mask id="mask-2" fill="white">
                                <use xlink:href="#path-1"></use>
                            </mask>
                            <use fill-opacity="0.2" fill="#FFFFFF" xlink:href="#path-1"></use>
                            <g id="Color/Blue" opacity="0.2" mask="url(#mask-2)" fill="#FF026F">
                                <rect id="Rectangle" x="0" y="0" width="76" height="78"></rect>
                            </g>
                        </g>
                        <g id="icon/home/desktop" transform="translate(15.000000, 11.000000)" stroke-linecap="round" stroke-linejoin="round" stroke-width="3">
                            <g id="Group-9">
                                <path d="M36,34 L36,52 C36,54.208 34.208,56 32,56 L4,56 C1.792,56 0,54.208 0,52 L0,4 C0,1.792 1.792,0 4,0 L32,0 C34.208,0 36,1.792 36,4 L36,15.314" id="Stroke-1" stroke="#333333"></path>
                                <line x1="0" y1="50" x2="36" y2="50" id="Stroke-3" stroke="#333333"></line>
                                <line x1="14" y1="6" x2="22" y2="6" id="Stroke-5" stroke="#333333"></line>
                                <path d="M42,16 L22,16 C19.792,16 18,17.792 18,20 L18,30 C18,32.208 19.792,34 22,34 L24,34 L24,42 L32,34 L42,34 C44.208,34 46,32.208 46,30 L46,20 C46,17.792 44.208,16 42,16 Z" id="Stroke-7" stroke="#FF016F"></path>
                            </g>
                        </g>
                    </g>
                </g>
            </g>
        </g>
    </g>
</svg>