<svg xmlns="http://www.w3.org/2000/svg" width="25" height="14" viewBox="0 0 25 14">
    <defs>
        <style>
            .prefix__cls-1{fill:#dcdeed}
        </style>
    </defs>
    <g id="prefix__Eye" transform="translate(-2.592 -16)">
        <path id="prefix__Path_205" d="M27.37 22.343S22.171 16 15.092 16 2.814 22.343 2.814 22.343a1.083 1.083 0 0 0 0 1.315S8.014 30 15.092 30s12.278-6.343 12.278-6.343a1.082 1.082 0 0 0 0-1.314zm-12.278 6.046a5.391 5.391 0 0 1 0-10.777 5.391 5.391 0 0 1 0 10.777z" class="prefix__cls-1" data-name="Path 205"/>
        <path id="prefix__Path_206" d="M30.37 26.863a1.131 1.131 0 0 1-1.114-1.147 1.171 1.171 0 0 1 .1-.465 2.949 2.949 0 0 0-1.451-.38 3.12 3.12 0 1 0 3.03 3.119 3.189 3.189 0 0 0-.225-1.181 1.094 1.094 0 0 1-.34.054z" class="prefix__cls-1" data-name="Path 206" transform="translate(-12.809 -4.99)"/>
    </g>
</svg>
