<?xml version="1.0" encoding="UTF-8"?>
<svg width="38px" height="38px" viewBox="0 0 38 38" version="1.1" xmlns="http://www.w3.org/2000/svg" xmlns:xlink="http://www.w3.org/1999/xlink">
    <title>facebook</title>
    <defs>
        <filter x="-60.0%" y="-60.0%" width="220.0%" height="220.0%" filterUnits="objectBoundingBox" id="filter-1">
            <feOffset dx="0" dy="2" in="SourceAlpha" result="shadowOffsetOuter1"></feOffset>
            <feGaussianBlur stdDeviation="2" in="shadowOffsetOuter1" result="shadowBlurOuter1"></feGaussianBlur>
            <feColorMatrix values="0 0 0 0 0   0 0 0 0 0   0 0 0 0 0  0 0 0 0.25 0" type="matrix" in="shadowBlurOuter1" result="shadowMatrixOuter1"></feColorMatrix>
            <feMerge>
                <feMergeNode in="shadowMatrixOuter1"></feMergeNode>
                <feMergeNode in="SourceGraphic"></feMergeNode>
            </feMerge>
        </filter>
    </defs>
    <g id="Registration/login" stroke="none" stroke-width="1" fill="none" fill-rule="evenodd">
        <g id="discussion1" transform="translate(-1177.000000, -1726.000000)">
            <g id="Group-5" transform="translate(0.000000, 1712.000000)">
                <g id="facebook" filter="url(#filter-1)" transform="translate(1186.000000, 23.000000)">
                    <path d="M11.0122626,19.8571598 C10.9310517,19.8956043 10.8495433,19.9310252 10.7677374,19.9634222 C10.8495433,19.9310252 10.9310517,19.8956043 11.0122626,19.8571598 Z" id="Path" fill="#000000" fill-rule="nonzero"></path>
                    <path d="M4.4,3.3 L16.5,3.3 L15.4324662,18.2554716 C13.736061,19.2851572 12.2696753,19.8 11.033309,19.8 C9.79694275,19.8 8.03961471,19.2851572 5.76132491,18.2554716 L4.4,3.3 Z" id="Rectangle" fill="#FD59C0"></path>
                    <path d="M11.9382309,19.8807017 C11.8994103,19.9014358 11.8605897,19.9204421 11.8217691,19.9398803 C11.8605897,19.9204421 11.8994103,19.9014358 11.9382309,19.8807017 Z" id="Path" fill="#000000" fill-rule="nonzero"></path>
                    <path d="M11.033309,19.8692547 C10.9382655,19.9003559 10.8426269,19.9280014 10.746691,19.9513273 C10.8426269,19.9280014 10.9382655,19.9003559 11.033309,19.8692547 Z" id="Path" fill="#000000" fill-rule="nonzero"></path>
                    <path d="M10.958717,19.8854532 C10.9130544,19.9031637 10.8670944,19.9195782 10.821283,19.9351288 C10.8670944,19.9195782 10.9130544,19.9031637 10.958717,19.8854532 Z" id="Path" fill="#000000" fill-rule="nonzero"></path>
                    <path d="M11.9385366,19.8789738 C11.9019759,19.9001399 11.8652563,19.9213061 11.8285366,19.9416082 C11.8652563,19.9213061 11.9019759,19.9001399 11.9385366,19.8789738 Z" id="Path" fill="#000000" fill-rule="nonzero"></path>
                    <path d="M12.9305,18.8815759 C12.8938334,18.9044698 12.8571667,18.9260679 12.8205,18.9485299 C12.8571667,18.9260679 12.8938334,18.9044698 12.9305,18.8815759 Z" id="Path" fill="#000000" fill-rule="nonzero"></path>
                    <path d="M11.9405,18.880928 C11.9039539,18.9038219 11.8672269,18.9271479 11.8305,18.9491778 C11.8672269,18.9271479 11.9039539,18.9042539 11.9405,18.880928 Z" id="Path" fill="#000000" fill-rule="nonzero"></path>
                    <path d="M11.9405,18.8837358 C11.9040604,18.9053339 11.8672802,18.9256359 11.8305,18.9463701 C11.8672802,18.9256359 11.9040604,18.9053339 11.9405,18.8837358 Z" id="Path" fill="#000000" fill-rule="nonzero"></path>
                    <path d="M10.9670463,19.8934446 C10.9157317,19.9059714 10.864417,19.9172024 10.8129537,19.9271375 C10.864417,19.9172024 10.9157317,19.9059714 10.9670463,19.8934446 Z" id="Path" fill="#000000" fill-rule="nonzero"></path>
                    <path d="M19.8,9.95238095 C19.8,4.45667304 15.3667831,0 9.9,0 C4.43321687,0 0,4.45667304 0,9.95238095 C0,15.4480889 4.43321687,19.9047619 9.9,19.9047619 C9.95815886,19.9047619 10.0160156,19.903547 10.0740234,19.902484 L10.0740234,12.154977 L7.94707031,12.154977 L7.94707031,9.66308522 L10.0740234,9.66308522 L10.0740234,7.82936024 C10.0740234,5.70269485 11.3654526,4.54520814 13.2525192,4.54520814 C14.1561722,4.54520814 14.932933,4.61293829 15.159375,4.6431587 L15.159375,6.86580041 L13.8581268,6.86580041 C12.8315094,6.86580041 12.6327118,7.35631233 12.6327118,8.07598296 L12.6327118,9.66308522 L15.0874695,9.66308522 L14.7675202,12.154977 L12.6327118,12.154977 L12.6327118,19.5202491 C16.7707535,18.3276825 19.8,14.4951593 19.8,9.95238095 Z" id="Path" fill="#FFFFFF" fill-rule="nonzero"></path>
                    <path d="M10.0527539,19.888261 C9.95131461,19.9072672 9.84942911,19.9223859 9.7472461,19.932321 C9.84942911,19.9223859 9.95131461,19.9072672 10.0527539,19.888261 Z" id="Path" fill="#000000" fill-rule="nonzero"></path>
                    <path d="M9.98091346,19.9044596 C9.92707033,19.909643 9.87307844,19.9135307 9.81908654,19.9161224 C9.87307844,19.9135307 9.92707033,19.909643 9.98091346,19.9044596 Z" id="Path" fill="#000000" fill-rule="nonzero"></path>
                </g>
            </g>
        </g>
    </g>
</svg>