<?xml version="1.0" encoding="UTF-8"?>
<svg width="42px" height="42px" viewBox="0 0 42 42" version="1.1" xmlns="http://www.w3.org/2000/svg" xmlns:xlink="http://www.w3.org/1999/xlink">
    <title>facebook</title>
    <defs>
        <path d="M37.26,18.7285714 C37.26,8.38664836 28.9174919,0 18.63,0 C8.34250811,0 0,8.38664836 0,18.7285714 C0,29.0704945 8.34250811,37.4571429 18.63,37.4571429 C18.7394444,37.4571429 18.8483203,37.4548567 18.9574805,37.4528562 L18.9574805,22.8734567 L14.9549414,22.8734567 L14.9549414,18.1841695 L18.9574805,18.1841695 L18.9574805,14.7334324 C18.9574805,10.7314348 21.3877153,8.55325532 24.9388316,8.55325532 C26.6393422,8.55325532 28.1010649,8.68071115 28.5271875,8.73758045 L28.5271875,12.9201881 L26.078475,12.9201881 C24.1465677,12.9201881 23.7724667,13.8432423 23.7724667,15.1975316 L23.7724667,18.1841695 L28.3918744,18.1841695 L27.7897879,22.8734567 L23.7724667,22.8734567 L23.7724667,36.7335597 C31.5595088,34.4893662 37.26,27.2772543 37.26,18.7285714 Z" id="path-1"></path>
        <filter x="-8.1%" y="-8.0%" width="116.1%" height="115.7%" filterUnits="objectBoundingBox" id="filter-2">
            <feMorphology radius="1" operator="erode" in="SourceAlpha" result="shadowSpreadOuter1"></feMorphology>
            <feOffset dx="0" dy="0" in="shadowSpreadOuter1" result="shadowOffsetOuter1"></feOffset>
            <feGaussianBlur stdDeviation="2" in="shadowOffsetOuter1" result="shadowBlurOuter1"></feGaussianBlur>
            <feColorMatrix values="0 0 0 0 0.105882353   0 0 0 0 0.180392157   0 0 0 0 0.317647059  0 0 0 1 0" type="matrix" in="shadowBlurOuter1"></feColorMatrix>
        </filter>
    </defs>
    <g id="Final-UI" stroke="none" stroke-width="1" fill="none" fill-rule="evenodd">
        <g id="login-" transform="translate(-132.000000, -1888.000000)">
            <g id="Group-17" transform="translate(134.000000, 1889.000000)">
                <g id="facebook" transform="translate(0.000000, 1.000000)">
                    <path d="M20.723076,37.3675644 C20.5702518,37.43991 20.4168678,37.5065656 20.262924,37.5675308 C20.4168678,37.5065656 20.5702518,37.43991 20.723076,37.3675644 Z" id="Path" fill="#000000" fill-rule="nonzero"></path>
                    <path d="M8.28,6.21 L31.05,6.21 L29.0410954,34.3534783 C25.8487694,36.2911594 23.0892981,37.26 20.7626816,37.26 C18.436065,37.26 15.1290931,36.2911594 10.841766,34.3534783 L8.28,6.21 Z" id="Rectangle" fill="#1B2E51"></path>
                    <path d="M22.46558,37.4118659 C22.3925266,37.4508838 22.3194733,37.4866501 22.24642,37.5232293 C22.3194733,37.4866501 22.3925266,37.4508838 22.46558,37.4118659 Z" id="Path" fill="#000000" fill-rule="nonzero"></path>
                    <path d="M20.7626816,37.3903248 C20.5838268,37.4488516 20.4038525,37.5008754 20.2233184,37.5447704 C20.4038525,37.5008754 20.5838268,37.4488516 20.7626816,37.3903248 Z" id="Path" fill="#000000" fill-rule="nonzero"></path>
                    <path d="M20.6223128,37.4208075 C20.5363842,37.4541354 20.4498958,37.4850244 20.3636872,37.5142878 C20.4498958,37.4850244 20.5363842,37.4541354 20.6223128,37.4208075 Z" id="Path" fill="#000000" fill-rule="nonzero"></path>
                    <path d="M22.4661553,37.4086144 C22.3973547,37.4484451 22.328255,37.488276 22.2591553,37.5264808 C22.328255,37.488276 22.3973547,37.4484451 22.4661553,37.4086144 Z" id="Path" fill="#000000" fill-rule="nonzero"></path>
                    <path d="M24.33285,35.5316929 C24.26385,35.574775 24.1948501,35.6154187 24.12585,35.6576881 C24.1948501,35.6154187 24.26385,35.574775 24.33285,35.5316929 Z" id="Path" fill="#000000" fill-rule="nonzero"></path>
                    <path d="M22.46985,35.5304736 C22.4010769,35.5735558 22.3319634,35.617451 22.26285,35.6589073 C22.3319634,35.617451 22.4010769,35.5743686 22.46985,35.5304736 Z" id="Path" fill="#000000" fill-rule="nonzero"></path>
                    <path d="M22.46985,35.5357573 C22.4012772,35.576401 22.3320636,35.6146058 22.26285,35.6536237 C22.3320636,35.6146058 22.4012772,35.576401 22.46985,35.5357573 Z" id="Path" fill="#000000" fill-rule="nonzero"></path>
                    <path d="M20.6379871,37.4358457 C20.5414223,37.4594189 20.4448575,37.4805537 20.3480129,37.4992496 C20.4448575,37.4805537 20.5414223,37.4594189 20.6379871,37.4358457 Z" id="Path" fill="#000000" fill-rule="nonzero"></path>
                    <g id="Path" fill-rule="nonzero">
                        <use fill="black" fill-opacity="1" filter="url(#filter-2)" xlink:href="#path-1"></use>
                        <use fill="#FFFFFF" xlink:href="#path-1"></use>
                    </g>
                    <path d="M18.9174551,37.4260912 C18.7265648,37.4618574 18.5348348,37.4903079 18.3425449,37.509004 C18.5348348,37.4903079 18.7265648,37.4618574 18.9174551,37.4260912 Z" id="Path" fill="#000000" fill-rule="nonzero"></path>
                    <path d="M18.7822644,37.4565739 C18.6809414,37.4663282 18.5793385,37.4736442 18.4777356,37.4785213 C18.5793385,37.4736442 18.6809414,37.4663282 18.7822644,37.4565739 Z" id="Path" fill="#000000" fill-rule="nonzero"></path>
                </g>
            </g>
        </g>
    </g>
</svg>