<?xml version="1.0" encoding="UTF-8"?>
<svg width="18px" height="11px" viewBox="0 0 18 11" version="1.1" xmlns="http://www.w3.org/2000/svg" xmlns:xlink="http://www.w3.org/1999/xlink">
    <title>down-arrow (1)</title>
    <g id="Final-UI" stroke="none" stroke-width="1" fill="none" fill-rule="evenodd" opacity="0.5">
        <g id="course-page" transform="translate(-1288.000000, -5824.000000)" fill="#000000" fill-rule="nonzero">
            <g id="down-arrow-(1)" transform="translate(1297.000000, 5829.500000) scale(1, -1) translate(-1297.000000, -5829.500000) translate(1288.000000, 5824.000000)">
                <path d="M16.94462,0.87451 L16.38056,0.30653 C16.20304,0.12915 15.96686,0.03143 15.71444,0.03143 C15.46216,0.03143 15.2257,0.12915 15.04818,0.30653 L8.61378,6.74121 L2.17196,0.29939 C1.99472,0.12201 1.75826,0.02443 1.50598,0.02443 C1.2537,0.02443 1.0171,0.12201 0.83972,0.29939 L0.27552,0.86387 C-0.09184,1.23095 -0.09184,1.82889 0.27552,2.19597 L7.94528,9.89331 C8.12252,10.07055 8.3587,10.19543 8.61322,10.19543 L8.61616,10.19543 C8.86858,10.19543 9.10476,10.07041 9.282,9.89331 L16.94462,2.21683 C17.12214,2.03959 17.21958,1.79627 17.21986,1.54399 C17.21986,1.29157 17.12214,1.05161 16.94462,0.87451 Z" id="Path"></path>
            </g>
        </g>
    </g>
</svg>