<?xml version="1.0" encoding="UTF-8"?>
<svg width="77px" height="78px" viewBox="0 0 77 78" version="1.1" xmlns="http://www.w3.org/2000/svg" xmlns:xlink="http://www.w3.org/1999/xlink">
    <title>Group 16</title>
    <defs>
        <path d="M60.6521586,10.2317905 C42.6521586,-7.54863177 27.3200407,0.537677283 24.6521586,14.0838212 C21.9842765,27.6299652 -2.79876327,30.3346666 0.261187502,46.3346666 C3.32113827,62.3346666 36.6521586,52.8346666 36.6521586,67.3346666 C36.6521586,81.8346666 75.1895892,81.3346666 75.1895892,62.3346666 C75.1895892,43.3346666 78.6521586,28.0122127 60.6521586,10.2317905 Z" id="path-1"></path>
    </defs>
    <g id="Final-UI" stroke="none" stroke-width="1" fill="none" fill-rule="evenodd">
        <g id="acadamic" transform="translate(-1110.000000, -856.000000)">
            <g id="Group-41" transform="translate(192.000000, 856.000000)">
                <g id="step-2" transform="translate(857.000000, 0.000000)">
                    <g id="Group-16" transform="translate(61.500000, 0.000000)">
                        <g id="Icon">
                            <g id="bgicon">
                                <mask id="mask-2" fill="white">
                                    <use xlink:href="#path-1"></use>
                                </mask>
                                <use fill-opacity="0.2" fill="#FFFFFF" xlink:href="#path-1"></use>
                                <g id="Color/Blue" opacity="0.2" mask="url(#mask-2)" fill="#FF016F">
                                    <rect id="Rectangle" x="0" y="0" width="76" height="78"></rect>
                                </g>
                            </g>
                        </g>
                        <g id="patent" transform="translate(13.500000, 13.000000)" fill-rule="nonzero">
                            <path d="M52.0395,0 L4.0395,0 C1.830375,0 0.0395,1.790875 0.0395,4 L0.0395,41.333375 C0.0395,43.5425 1.830375,45.333375 4.0395,45.333375 L32.0395,45.333375 L32.0395,42.66675 L4.0395,42.66675 C3.303125,42.66675 2.706125,42.06975 2.706125,41.333375 L2.706125,4 C2.706125,3.263625 3.303125,2.666625 4.0395,2.666625 L52.0395,2.666625 C52.775875,2.666625 53.372875,3.263625 53.372875,4 L53.372875,25.333375 L56.0395,25.333375 L56.0395,4 C56.0395,1.790875 54.248625,0 52.0395,0 Z" id="Path" fill="#333333"></path>
                            <path d="M48.0395,5.333375 L8.0395,5.333375 C6.56675,5.333375 5.372875,6.52725 5.372875,8 L5.372875,37.333375 C5.372875,38.806125 6.56675,40 8.0395,40 L29.372875,40 L29.372875,37.333375 L8.0395,37.333375 L8.0395,8 L48.0395,8 L48.0395,21.333375 L50.706125,21.333375 L50.706125,8 C50.706125,6.52725 49.51225,5.333375 48.0395,5.333375 Z" id="Path" fill="#333333"></path>
                            <path d="M54.796125,30.668625 C52.771375,26.58025 48.60175,23.99525 44.0395,23.9999932 C37.418,23.993 32.0445,29.35525 32.0376185,35.97675 C32.032875,40.539 34.61775,44.708625 38.70625,46.733375 L38.70625,55.9999932 C38.706125,56.736375 39.303,57.3335 40.039375,57.3335 C40.302875,57.3335 40.560375,57.2555 40.779625,57.10925 L44.039625,54.93325 L47.299625,57.106625 C47.912125,57.515375 48.740125,57.35 49.14875,56.7375 C49.2945,56.519125 49.3725,56.2625 49.373,55.9999932 L49.373,46.733375 C55.306625,43.79475 57.734625,36.602375 54.796125,30.668625 Z M46.706125,53.509375 L44.7795,52.224 C44.3315,51.925125 43.7475,51.925125 43.2995,52.224 L41.372875,53.509375 L41.372875,48 L46.70625,48 L46.70625,53.509375 L46.706125,53.509375 Z M44.0395,45.333375 C38.884875,45.333375 34.706125,41.15475 34.706125,36 C34.706125,30.845375 38.88475,26.666625 44.0395,26.666625 C49.194125,26.666625 53.372875,30.84525 53.372875,36 C53.366875,41.15225 49.19175,45.3275 44.0395,45.333375 Z" id="Shape" fill="#FF016F"></path>
                            <path d="M44.0395,29.333375 C40.357625,29.333375 37.372875,32.318125 37.372875,36 C37.372875,39.681875 40.357625,42.666625 44.0395,42.666625 C47.721375,42.666625 50.706125,39.681875 50.706125,36 C50.70175,32.319875 47.7195,29.33775 44.0395,29.333375 Z M44.0395,40 C41.830375,40 40.0395,38.209125 40.0395,36 C40.0395,33.790875 41.830375,32 44.0395,32 C46.248625,32 48.0395,33.790875 48.0395,36 C48.0395,38.209125 46.248625,40 44.0395,40 Z" id="Shape" fill="#333333"></path>
                            <rect id="Rectangle" fill="#333333" x="21.372875" y="13.333375" width="10.666625" height="2.666625"></rect>
                            <rect id="Rectangle" fill="#333333" x="14.706125" y="20" width="24" height="2.666625"></rect>
                        </g>
                    </g>
                </g>
            </g>
        </g>
    </g>
</svg>