<?xml version="1.0" encoding="UTF-8"?>
<svg width="77px" height="77px" viewBox="0 0 77 77" version="1.1" xmlns="http://www.w3.org/2000/svg" xmlns:xlink="http://www.w3.org/1999/xlink">
    <title>instagram (1)</title>
    <defs>
        <filter x="-65.4%" y="-65.4%" width="230.8%" height="230.8%" filterUnits="objectBoundingBox" id="filter-1">
            <feOffset dx="0" dy="5" in="SourceAlpha" result="shadowOffsetOuter1"></feOffset>
            <feGaussianBlur stdDeviation="4" in="shadowOffsetOuter1" result="shadowBlurOuter1"></feGaussianBlur>
            <feColorMatrix values="0 0 0 0 0   0 0 0 0 0   0 0 0 0 0  0 0 0 0.127431163 0" type="matrix" in="shadowBlurOuter1" result="shadowMatrixOuter1"></feColorMatrix>
            <feMerge>
                <feMergeNode in="shadowMatrixOuter1"></feMergeNode>
                <feMergeNode in="SourceGraphic"></feMergeNode>
            </feMerge>
        </filter>
    </defs>
    <g id="about-us" stroke="none" stroke-width="1" fill="none" fill-rule="evenodd">
        <g id="about-Awards" transform="translate(-165.000000, -3112.000000)">
            <g id="Group-17" transform="translate(134.000000, 3131.000000)">
                <g id="instagram-(1)" filter="url(#filter-1)" transform="translate(50.000000, 0.000000)">
                    <rect id="Rectangle" fill="#1B2E51" x="4.14" y="8.28" width="26.91" height="22.77"></rect>
                    <path d="M22.7286,19.07712 C22.7286,21.0938175 21.0938175,22.7286 19.07712,22.7286 C17.0604225,22.7286 15.42564,21.0938175 15.42564,19.07712 C15.42564,17.0604225 17.0604225,15.42564 19.07712,15.42564 C21.0938175,15.42564 22.7286,17.0604225 22.7286,19.07712 Z" id="Path" fill="#FFFFFF" fill-rule="nonzero"></path>
                    <path d="M27.6166463,12.6165853 C27.4411167,12.1409381 27.1610845,11.7104105 26.7972173,11.3570227 C26.4438295,10.9931555 26.013593,10.7131233 25.5376547,10.5375937 C25.1516644,10.3876805 24.5718056,10.20924 23.5037827,10.1606273 C22.3484316,10.1079394 22.00203,10.0965867 19.07712,10.0965867 C16.1519189,10.0965867 15.8055173,10.1076483 14.6504573,10.1603362 C13.5824344,10.20924 13.0022845,10.3876805 12.6165853,10.5375937 C12.140647,10.7131233 11.7101194,10.9931555 11.3570227,11.3570227 C10.9931555,11.7104105 10.7131233,12.140647 10.5373027,12.6165853 C10.3873894,13.0025756 10.2089489,13.5827255 10.1603363,14.6507484 C10.1076483,15.8058084 10.0962956,16.15221 10.0962956,19.0774111 C10.0962956,22.0023211 10.1076483,22.3487227 10.1603363,23.5040737 C10.2089489,24.5720967 10.3873894,25.1519555 10.5373027,25.5379458 C10.7131233,26.0138841 10.9928644,26.4441206 11.3567316,26.7975084 C11.7101194,27.1613756 12.1403559,27.4414078 12.6162942,27.6169373 C13.0022845,27.7671417 13.5824344,27.9455822 14.6504573,27.9941948 C15.8055173,28.0468828 16.1516278,28.0579444 19.0768289,28.0579444 C22.0023211,28.0579444 22.3487227,28.0468828 23.5034916,27.9941948 C24.5715145,27.9455822 25.1516644,27.7671417 25.5376547,27.6169373 C26.4930244,27.2484127 27.2481216,26.4933155 27.6166463,25.5379458 C27.7665595,25.1519555 27.945,24.5720967 27.9939038,23.5040737 C28.0465917,22.3487227 28.0576533,22.0023211 28.0576533,19.0774111 C28.0576533,16.15221 28.0465917,15.8058084 27.9939038,14.6507484 C27.9452911,13.5827255 27.7668506,13.0025756 27.6166463,12.6165853 L27.6166463,12.6165853 Z M19.07712,24.7022156 C15.9702764,24.7022156 13.4517333,22.1839636 13.4517333,19.07712 C13.4517333,15.9702764 15.9702764,13.4520244 19.07712,13.4520244 C22.1836725,13.4520244 24.7022156,15.9702764 24.7022156,19.07712 C24.7022156,22.1839636 22.1836725,24.7022156 19.07712,24.7022156 Z M24.9246113,14.5442081 C24.1986234,14.5442081 23.6100319,13.9556166 23.6100319,13.2296287 C23.6100319,12.5036409 24.1986234,11.9150494 24.9246113,11.9150494 C25.6505991,11.9150494 26.2391906,12.5036409 26.2391906,13.2296287 C26.2388995,13.9556166 25.6505991,14.5442081 24.9246113,14.5442081 Z" id="Shape" fill="#FFFFFF" fill-rule="nonzero"></path>
                    <path d="M19.07712,0 C8.5427283,0 0,8.5427283 0,19.07712 C0,29.6115117 8.5427283,38.15424 19.07712,38.15424 C29.6115117,38.15424 38.15424,29.6115117 38.15424,19.07712 C38.15424,8.5427283 29.6115117,0 19.07712,0 Z M29.9654817,23.5934395 C29.9125027,24.7595611 29.7270759,25.5557025 29.4563588,26.2525809 C28.8872705,27.7240598 27.7240598,28.8872705 26.2525809,29.4563588 C25.5559936,29.7270759 24.7595611,29.9122116 23.5937306,29.9654817 C22.4255714,30.0187519 22.0523892,30.03156 19.0774111,30.03156 C16.1021419,30.03156 15.7292508,30.0187519 14.5608005,29.9654817 C13.39497,29.9122116 12.5985375,29.7270759 11.9019502,29.4563588 C11.1707227,29.1812752 10.5087755,28.7501653 9.9615192,28.1927208 C9.4043658,27.6457556 8.9732559,26.9835173 8.69817233,26.2525809 C8.42745517,25.5559936 8.2420284,24.7595611 8.18904938,23.5937306 C8.13519705,22.4252803 8.12268,22.0520981 8.12268,19.07712 C8.12268,16.1021419 8.13519705,15.7289597 8.1887583,14.5608005 C8.24173733,13.3946789 8.42687295,12.5985375 8.69759017,11.9016591 C8.97267375,11.1707227 9.40407465,10.5084844 9.9615192,9.9615192 C10.5084844,9.40407465 11.1707227,8.97296483 11.9016591,8.69788125 C12.5985375,8.4271641 13.3946789,8.2420284 14.5608005,8.1887583 C15.7289597,8.13548813 16.1021419,8.12268 19.07712,8.12268 C22.0520981,8.12268 22.4252803,8.13548813 23.5934395,8.18904938 C24.7595611,8.2420284 25.5557025,8.4271641 26.2525809,8.69759017 C26.9835173,8.97267375 27.6457556,9.40407465 28.1930119,9.9615192 C28.7501653,10.5087755 29.1815662,11.1707227 29.4563587,11.9016591 C29.727367,12.5985375 29.9125027,13.3946789 29.9657728,14.5608005 C30.019043,15.7289597 30.03156,16.1021419 30.03156,19.07712 C30.03156,22.0520981 30.019043,22.4252803 29.9654817,23.5934395 L29.9654817,23.5934395 Z" id="Shape" fill="#FFFFFF" fill-rule="nonzero"></path>
                </g>
            </g>
        </g>
    </g>
</svg>