<?xml version="1.0" encoding="UTF-8"?>
<svg width="14px" height="13px" viewBox="0 0 14 13" version="1.1" xmlns="http://www.w3.org/2000/svg" xmlns:xlink="http://www.w3.org/1999/xlink">
    <title>love-and-romance</title>
    <g id="Registration/login" stroke="none" stroke-width="1" fill="none" fill-rule="evenodd">
        <g id="discussion1-copy" transform="translate(-235.000000, -980.000000)" fill="#F00297" fill-rule="nonzero">
            <g id="Group-5" transform="translate(217.000000, 976.000000)">
                <g id="love-and-romance" transform="translate(18.000000, 4.000000)">
                    <path d="M6.561,12.393 C6.37418931,12.393 6.19408617,12.3211578 6.05372785,12.1906514 C5.52362999,11.6985958 5.01255354,11.2361911 4.56164497,10.8283056 L4.55934239,10.8261801 C3.23735133,9.63026179 2.09576378,8.59747635 1.3014679,7.58010088 C0.413566458,6.44274037 0,5.36436274 0,4.1862987 C0,3.04171142 0.369716989,1.98575793 1.0409741,1.21281614 C1.72024023,0.430734643 2.65229145,0 3.6657345,0 C4.42318883,0 5.11687121,0.254211025 5.72745986,0.755512608 C6.03560742,1.00855459 6.31492247,1.31824145 6.561,1.67947192 C6.80717766,1.31824145 7.08639258,1.00855459 7.39464025,0.755512608 C8.0052289,0.254211025 8.69891131,0 9.45636561,0 C10.4697085,0 11.4018599,0.430734643 12.081126,1.21281614 C12.7523831,1.98575793 13.122,3.04171142 13.122,4.1862987 C13.122,5.36436274 12.7085337,6.44274037 11.8206322,7.57999461 C11.0263364,8.59747635 9.88484889,9.63015552 8.56305809,10.8259676 C8.11134862,11.2344907 7.59947126,11.6976393 7.06817201,12.190864 C6.92791383,12.3211578 6.74771058,12.393 6.561,12.393 L6.561,12.393 Z M3.6657345,0.815983394 C2.86953649,0.815983394 2.13811152,1.15330186 1.60601137,1.76587391 C1.06600232,2.38769193 0.768566842,3.24724827 0.768566842,4.1862987 C0.768566842,5.17710528 1.11545811,6.06323051 1.89323534,7.05945714 C2.64498322,8.02241958 3.76314436,9.03394989 5.05780457,10.2052123 L5.06020728,10.2073378 C5.51281777,10.6168174 6.02589648,11.0810288 6.55989875,11.5766978 C7.09710467,11.0800723 7.61098425,10.615117 8.06449575,10.2049998 C9.35905586,9.03373735 10.4771169,8.02241958 11.2288648,7.05945714 C12.0065419,6.06323051 12.3534332,5.17710528 12.3534332,4.1862987 C12.3534332,3.24724827 12.0559977,2.38769193 11.5159886,1.76587391 C10.9839886,1.15330186 10.2524635,0.815983394 9.45636561,0.815983394 C8.87310778,0.815983394 8.33760378,1.01280562 7.8647705,1.40092381 C7.44339525,1.74695688 7.14986415,2.18438686 6.97777007,2.49046033 C6.88927025,2.64785439 6.73349456,2.74180194 6.561,2.74180194 C6.38850544,2.74180194 6.23272975,2.64785439 6.14422993,2.49046033 C5.97223595,2.18438686 5.67870489,1.74695688 5.2572295,1.40092381 C4.78439622,1.01280562 4.24889222,0.815983394 3.6657345,0.815983394 Z" id="Shape"></path>
                </g>
            </g>
        </g>
    </g>
</svg>