<?xml version="1.0" encoding="UTF-8"?>
<svg width="606px" height="495px" viewBox="0 0 606 495" version="1.1" xmlns="http://www.w3.org/2000/svg" xmlns:xlink="http://www.w3.org/1999/xlink">
    <title>Group 41</title>
    <defs>
        <linearGradient x1="-5.94886211%" y1="50%" x2="97.2668601%" y2="102.835747%" id="linearGradient-1">
            <stop stop-color="#FFBF00" offset="0%"></stop>
            <stop stop-color="#FF4C95" offset="100%"></stop>
            <stop stop-color="#FF4A98" offset="100%"></stop>
        </linearGradient>
        <polygon id="path-2" points="1.15717597 0.94660121 171.043311 0.94660121 171.043311 84.1817699 1.15717597 84.1817699"></polygon>
    </defs>
    <g id="Final-UI" stroke="none" stroke-width="1" fill="none" fill-rule="evenodd">
        <g id="website-home" transform="translate(-128.000000, -4035.000000)">
            <g id="Group-41" transform="translate(128.000081, 4035.000637)">
                <path d="M242.647739,465.953421 C365.906399,453.420698 467.927348,363.112058 512.630095,247.999363 C557.332842,132.886668 389.026254,34.8277634 267.802345,29.2097713 C146.578437,23.5917791 52.9999185,131.296103 52.9999185,253.973077 C52.9999185,376.650051 119.38908,478.486143 242.647739,465.953421 Z" id="Oval" fill="url(#linearGradient-1)" opacity="0.339867001" transform="translate(286.499919, 247.999363) scale(-1, 1) translate(-286.499919, -247.999363) "></path>
                <path d="M482.001238,343.693025 C482.102072,343.634431 482.730236,344.464278 483.659538,346.09808 C484.592928,347.726431 485.753873,350.199618 486.833063,353.390915 C489.044583,359.751706 490.433085,369.14164 489.610067,379.38186 C488.793862,389.620717 486.427004,398.608673 484.601103,405.006256 C482.732961,411.406563 481.358085,415.291442 481.120991,415.226036 C480.859369,415.153816 481.787308,411.134036 483.320247,404.671047 C484.813671,398.20942 486.944797,389.269157 487.743288,379.240146 C488.545867,369.21386 487.403997,360.088278 485.568558,353.779267 C483.786261,347.438915 481.706914,343.84564 482.001238,343.693025" id="Fill-1" fill="#FFFFFF"></path>
                <path d="M488.309998,292.449139 C488.427183,292.397359 489.187521,293.788612 490.456113,296.354458 C491.723343,298.920304 493.504278,302.659381 495.610877,307.325051 C499.79001,316.656392 505.414875,329.718634 509.494537,344.883425 C511.500303,352.469227 512.867003,359.84382 513.55921,366.616128 C514.256868,373.387073 514.327724,379.539381 513.978895,384.673798 C513.640967,389.810941 512.992363,393.932919 512.368287,396.735864 C511.751023,399.54426 511.261845,401.056787 511.151474,401.032554 C510.80537,400.965491 512.332859,394.783205 512.657161,384.61248 C513.060494,374.462194 511.727859,360.36026 507.684987,345.365798 C503.651654,330.365886 498.257071,317.296831 494.395426,307.849667 C492.450978,303.122678 490.878523,299.296392 489.789796,296.651513 C488.726958,293.995733 488.191451,292.502282 488.309998,292.449139" id="Fill-3" fill="#FFFFFF"></path>
                <path d="M254.833413,352.594181 C255.050068,352.827192 252.927118,354.852071 250.171915,358.611587 C249.487884,359.555895 248.74526,360.588774 248.050327,361.768818 C247.289989,362.905258 246.629122,364.209302 245.893312,365.555587 C244.525248,368.299939 243.226679,371.419016 242.225158,374.814708 C241.267242,378.222664 240.708571,381.554313 240.407433,384.60662 C240.316138,386.136862 240.182602,387.593522 240.220755,388.958884 C240.182602,390.328335 240.261634,391.599675 240.33794,392.763368 C240.67178,397.411324 241.393965,400.255148 241.086014,400.338269 C240.899336,400.402313 239.711138,397.655236 239.021656,392.898269 C238.85678,391.710049 238.698717,390.404642 238.668739,388.991587 C238.562456,387.579895 238.638762,386.070093 238.686453,384.479895 C238.901746,381.310401 239.43044,377.834313 240.42651,374.296906 C241.464821,370.770401 242.864224,367.546401 244.369911,364.747543 C245.173852,363.374005 245.911026,362.054972 246.75312,360.91717 C247.528447,359.735763 248.358278,358.713785 249.129517,357.795368 C252.243086,354.133961 254.710778,352.441565 254.833413,352.594181" id="Fill-5" fill="#FFFFFF"></path>
                <path d="M259.816215,369.000335 C259.972915,369.25106 258.790167,370.155851 257.244965,371.886401 C256.462825,372.740774 255.638444,373.848598 254.82769,375.132203 C254.051001,376.437609 253.307014,377.935148 252.722453,379.586664 C252.163782,381.246357 251.827217,382.884247 251.635089,384.392686 C251.481113,385.902489 251.447048,387.281478 251.53698,388.438357 C251.686868,390.752115 252.061586,392.195148 251.782251,392.295983 C251.581947,392.380467 250.739852,391.060071 250.224785,388.614137 C249.95635,387.394576 249.845978,385.901126 249.915471,384.246884 C250.02448,382.598093 250.340607,380.789873 250.95242,378.976203 C251.58876,377.170708 252.455381,375.553258 253.386046,374.186533 C254.349413,372.840247 255.357746,371.733785 256.319751,370.939368 C258.232859,369.32873 259.709931,368.808203 259.816215,369.000335" id="Fill-7" fill="#FFFFFF"></path>
                <path d="M190.644957,216.106836 C190.741702,216.022352 191.579709,216.846748 193.017265,218.419231 C193.747626,219.197297 194.61016,220.177034 195.52311,221.385693 C196.445599,222.583451 197.554765,223.913385 198.595801,225.511759 C199.132671,226.300726 199.696792,227.126484 200.282716,227.987671 C200.863189,228.854308 201.389157,229.802704 201.975081,230.760638 C203.17418,232.66288 204.249281,234.810396 205.418403,237.050572 C207.625835,241.594968 209.736522,246.75255 211.417986,252.343451 C213.044946,257.950704 214.077806,263.428506 214.695069,268.441649 C214.930801,270.95844 215.195148,273.345781 215.222401,275.59277 C215.251015,276.715583 215.324596,277.797517 215.308245,278.841297 C215.285081,279.882352 215.260554,280.881165 215.238752,281.835012 C215.233301,283.745429 215.024822,285.462352 214.902187,286.970792 C214.791815,288.480594 214.601049,289.771012 214.410283,290.820242 C214.058729,292.922792 213.803921,294.070133 213.675835,294.05262 C213.346083,294.008814 213.967434,289.349957 213.915655,281.821385 C213.897941,280.879803 213.88159,279.895979 213.863876,278.86855 C213.842074,277.842484 213.733065,276.776902 213.671747,275.674528 C213.57909,273.465693 213.260238,271.123319 212.983628,268.655583 C212.281882,263.74055 211.219045,258.378572 209.622063,252.87488 C207.970576,247.387539 205.949822,242.307627 203.866387,237.800023 C202.758583,235.578924 201.751612,233.439583 200.630182,231.534616 C200.081049,230.575319 199.593234,229.622836 199.055002,228.749385 C198.511319,227.87866 197.990801,227.042001 197.493448,226.243495 C193.445126,219.894968 190.390148,216.323495 190.644957,216.106836" id="Fill-9" fill="#FFFFFF"></path>
                <path d="M211.84462,224.878133 C212.004046,224.736418 214.154248,226.747671 216.889012,230.624374 C218.265251,232.553869 219.715071,234.986176 221.126737,237.790484 C222.497526,240.613869 223.805634,243.820154 224.849395,247.29488 C225.861816,250.779143 226.504969,254.183012 226.889226,257.298001 C227.227154,260.419803 227.332075,263.248638 227.224429,265.616902 C227.035026,270.356154 226.322379,273.213605 226.112537,273.181179 C225.811399,273.144111 226.052582,270.251231 225.899969,265.615539 C225.838652,263.299056 225.600194,260.547891 225.179147,257.522836 C224.711771,254.503231 224.035915,251.2111 223.054834,247.826308 C222.039688,244.451056 220.817424,241.319715 219.569271,238.531759 C218.278877,235.761517 216.984395,233.323759 215.77712,231.343847 C213.385735,227.370396 211.612976,225.07299 211.84462,224.878133" id="Fill-11" fill="#FFFFFF"></path>
                <polygon id="Fill-13" fill="#FF7B5B" points="137.610848 378.075636 135.981163 374.748075 90.6116134 409.41357 110.404924 441.479152 155.567357 403.400251"></polygon>
                <polygon id="Fill-15" fill="#D7D4D4" points="92.5128667 410.154845 109.901166 440.225526 111.013058 439.729526 95.5283284 411.612867"></polygon>
                <path d="M136.714657,377.416937 L92.5128667,410.1543 C92.5128667,410.1543 92.698182,410.85742 93.7950852,411.290739 C94.893351,411.724058 95.5283284,411.613684 95.5283284,411.613684 L141.998869,379.808365 C141.998869,379.808365 139.319973,379.18564 138.34843,378.460717 C137.375524,377.733069 136.714657,377.416937 136.714657,377.416937" id="Fill-17" fill="#F5F3F3"></path>
                <path d="M143.135152,378.525442 L94.6983611,410.878541 L110.429724,440.693047 L112.964183,444.821838 L161.402336,408.972212 C161.402336,408.972212 156.300715,401.357794 153.237562,396.760256 C150.174408,392.162717 144.161199,381.320212 143.834172,380.625267 C143.505782,379.930322 143.135152,378.525442 143.135152,378.525442" id="Fill-19" fill="#FF7B5B"></path>
                <polygon id="Fill-21" fill="#775298" points="542.579589 155.165333 543.947652 152.370563 582.0463 181.480585 565.425152 208.407662 527.500917 176.430651"></polygon>
                <polygon id="Fill-23" fill="#D7D4D4" points="580.45 182.102765 565.849605 207.353798 564.914853 206.938194 577.918265 183.327776"></polygon>
                <path d="M543.332705,154.611148 L580.450272,182.102357 C580.450272,182.102357 580.293572,182.692379 579.373808,183.056203 C578.451319,183.420027 577.917175,183.327368 577.917175,183.327368 L538.894675,156.619675 C538.894675,156.619675 541.144349,156.097785 541.960554,155.487324 C542.776759,154.876862 543.332705,154.611148 543.332705,154.611148" id="Fill-25" fill="#F5F3F3"></path>
                <path d="M537.940846,155.543328 L578.614833,182.710229 L565.405666,207.747328 L563.277265,211.213878 L522.600554,181.10913 C522.600554,181.10913 526.88597,174.714273 529.45722,170.853922 C532.031196,166.99357 537.079675,157.888427 537.35356,157.305218 C537.628808,156.723372 537.940846,155.543328 537.940846,155.543328" id="Fill-27" fill="#775298"></path>
                <path d="M83.4450886,102.771653 C83.4450886,102.771653 80.5686134,104.762467 82.0061697,108.081851 C83.4450886,111.401236 89.7512598,121.247653 98.2703138,120.91517 C98.6191426,120.902906 87.5383769,102.771653 87.5383769,102.771653 L83.4450886,102.771653 Z" id="Fill-29" fill="#FF7B5B"></path>
                <path d="M70.4130616,284.293209 C70.4130616,284.293209 59.7601561,274.77655 56.3495368,276.481209 C52.1826674,278.564682 28.3328589,301.93255 29.2648859,312.941297 C29.64778,317.450264 34.8965638,313.587187 44.2495368,303.885209 C53.605235,294.184594 65.385021,298.342001 65.385021,298.342001 L70.4130616,284.293209 Z" id="Fill-31" fill="#775298"></path>
                <path d="M96.2953431,300.342761 L83.4350052,292.627508 C83.4350052,292.627508 50.1000503,323.879596 55.3079557,328.046541 C59.2581697,331.206497 61.5800616,328.372212 70.9343971,318.670234 C80.2873701,308.970981 92.138012,314.548256 92.138012,314.548256 L96.2953431,300.342761 Z" id="Fill-33" fill="#775298"></path>
                <polygon id="Fill-35" fill="#F3A683" points="174.853776 197.524959 177.2656 231.770761 123.731276 217.824168"></polygon>
                <path d="M123.731276,219.00244 C123.731276,219.00244 170.558821,221.953913 176.794136,219.873165 C176.794136,219.873165 185.945442,309.775891 169.662221,319.475143 C153.377638,329.177122 116.835093,314.971627 116.835093,314.971627 L126.701771,295.570396 L147.974879,294.184594 L147.974879,259.539539 L146.448753,259.885649 L123.731276,219.00244 Z" id="Fill-37" fill="#112129"></path>
                <path d="M65.0318318,280.326436 C65.0318318,280.326436 53.2534084,285.177425 57.0646359,296.957425 C57.0646359,296.957425 97.2712462,328.484765 116.835638,321.208282 C127.796494,317.132634 139.57083,286.034524 147.807823,259.46582 L176.794681,219.873029 C176.794681,219.873029 163.123589,220.557073 158.562924,220.539359 C149.846291,220.506656 123.731821,219.002304 123.731821,219.002304 C123.731821,219.002304 110.090706,290.374524 105.230267,292.106436 C100.369827,293.836985 65.0318318,280.326436 65.0318318,280.326436" id="Fill-39" fill="#22343D"></path>
                <path d="M134.643486,129.486159 C134.643486,129.486159 162.707855,103.154554 167.557394,96.2241809 C172.406932,89.2951699 182.803666,66.0826424 195.619038,56.382027 L189.383723,43.2162248 C189.383723,43.2162248 193.196313,41.1382028 195.619038,46.680049 C195.619038,46.680049 204.625907,28.6659831 206.705254,29.0107303 C208.785964,29.3568402 202.549286,42.8701149 202.549286,42.8701149 C202.549286,42.8701149 211.212777,30.3965325 213.636864,30.744005 C216.05959,31.0901149 207.400187,44.7655435 207.400187,44.7655435 C207.400187,44.7655435 217.099263,33.5156094 218.486403,34.9014116 C219.87218,36.2872138 210.863948,44.7655435 210.863948,44.7655435 C210.863948,44.7655435 220.564387,39.1964446 221.60406,41.0319171 C222.643734,42.8701149 211.903621,47.7197413 211.903621,47.7197413 C211.903621,47.7197413 210.863948,55.6884446 204.282529,59.1522688 C204.282529,59.1522688 191.249139,94.3655435 179.469353,105.798071 L141.628238,145.126511 L134.643486,129.486159 Z" id="Fill-41" fill="#FFC6B2"></path>
                <path d="M101.142974,143.133108 C101.142974,143.133108 74.5515886,170.949987 67.5777372,175.734207 C60.6025233,180.517064 37.2950345,190.697328 27.476048,203.424361 L14.3690773,197.064933 C14.3690773,197.064933 12.2556652,200.85579 17.7756089,203.331702 C17.7756089,203.331702 -0.323974483,212.17113 0.00441515665,214.254603 C0.330079571,216.336713 13.9003386,210.226647 13.9003386,210.226647 C13.9003386,210.226647 1.34658858,218.773108 1.67089038,221.199965 C1.99519218,223.626823 15.7494039,215.093987 15.7494039,215.093987 C15.7494039,215.093987 4.40974173,224.688317 5.78325525,226.086383 C7.15404354,227.485812 15.7180638,218.559174 15.7180638,218.559174 C15.7180638,218.559174 10.057771,228.206647 11.8863971,229.262691 C13.712298,230.318735 18.6626697,219.624757 18.6626697,219.624757 C18.6626697,219.624757 26.6394039,218.662735 30.1672079,212.111174 C30.1672079,212.111174 63.5198769,198.840449 75.0639309,187.168097 L116.569111,157.758295 L101.142974,143.133108 Z" id="Fill-43" fill="#FFC6B2"></path>
                <path d="M111.111848,132.046418 L97.6628611,145.21222 L101.07348,160.054067 C101.07348,160.054067 114.323526,191.864836 116.326566,199.625056 C119.440136,211.692572 114.40392,230.092264 114.40392,230.092264 C114.40392,230.092264 136.866589,228.226814 157.305778,227.534594 C177.743604,226.841012 184.429944,220.256748 184.429944,220.256748 C184.429944,220.256748 166.709167,161.235473 154.474269,144.73666 C142.238007,128.240572 137.787715,123.076176 137.787715,123.076176 L119.772613,127.014198 L111.111848,132.046418 Z" id="Fill-45" fill="#FFFFFF"></path>
                <path d="M150.582375,142.791223 L164.595483,133.837333 C164.595483,133.837333 166.736147,124.244365 149.837026,112.929025 L130.02055,125.346739 L150.582375,142.791223 Z" id="Fill-47" fill="#FFFFFF"></path>
                <path d="M100.496959,144.171165 C92.8145492,145.249012 78.7755514,164.719737 77.2099095,164.682946 C77.2099095,164.682946 87.0902136,180.807034 94.9170604,181.330286 C94.9170604,181.330286 129.359819,140.12277 100.496959,144.171165" id="Fill-49" fill="#FFFFFF"></path>
                <path d="M127.615539,131.502181 C127.615539,131.502181 116.448929,123.158752 116.835911,119.832554 C116.934019,118.994533 118.481947,117.63462 118.883917,116.427324 C121.049109,109.931631 110.610134,93.1943567 104.196316,89.6664885 C99.1505616,86.8921589 101.362082,86.6468842 90.7432417,92.9572578 C80.1244016,99.2676314 86.1744016,110.179631 90.9162935,115.823675 C95.399289,121.158401 100.533613,123.443543 105.15287,123.82917 L111.720663,138.417565 L127.615539,131.502181 Z" id="Fill-51" fill="#FFC6B2"></path>
                <path d="M107.46645,143.083917 C105.354401,137.90317 109.353669,131.3775 116.399738,128.503697 C123.448533,125.628533 130.870684,127.498071 132.986822,132.676093 C135.097509,137.855478 128.006473,145.641587 124.048083,147.256313 C120.089693,148.871038 109.577137,148.261939 107.46645,143.083917" id="Fill-53" fill="#FFC6B2"></path>
                <path d="M90.9168386,115.823812 C90.9168386,115.823812 87.2950143,115.623504 86.8930435,118.036735 C86.4897102,120.451328 93.5316922,120.451328 96.1479084,118.640383 L90.9168386,115.823812 Z" id="Fill-55" fill="#FFC6B2"></path>
                <path d="M92.727887,118.036871 C92.0397676,113.675069 87.391896,110.431992 87.6235402,106.181926 C89.8514118,106.19964 91.282155,103.4403 90.2683712,101.081574 C89.8691257,100.154981 89.1932699,99.3619259 88.7613217,98.4475962 C88.3307361,97.5346292 88.2162766,96.3382336 88.8771438,95.821794 C89.1905447,95.577882 89.6143172,95.5356402 90.0203757,95.4947611 C93.3233487,95.1554644 98.9822789,96.1461017 102.022268,95.0192006 C104.916457,93.946805 108.017763,91.8606072 107.716626,88.3150248 C107.453642,85.2272885 104.727054,82.7241237 102.222572,80.8327831 C100.787741,79.7481237 96.6876393,76.9124754 95.1410739,77.1700138 C92.7796663,77.5624534 92.207369,80.712871 92.0370424,83.3495743 C90.3855559,81.7770907 87.9492046,82.0291787 86.5130109,83.3086951 C85.0768172,84.5882116 84.3968735,86.6212666 83.7714343,88.5834644 C83.1446325,90.5470248 82.4810402,92.5855303 81.063923,93.8895743 C79.7435514,95.1050468 77.6546663,96.024827 77.9285514,98.0919479 C78.2542158,100.555596 81.4727068,101.431772 82.9606798,103.532959 C82.594137,103.017882 82.2834613,106.307289 82.4946663,106.864607 C83.1296438,108.544739 84.7143622,109.656651 85.8603194,110.941618 C88.3007586,113.680519 89.4944073,116.438497 92.727887,118.036871" id="Fill-57" fill="#FF7B5B"></path>
                <path d="M112.960777,108.063183 L104.708795,112.330963 C104.708795,112.330963 114.620439,119.525689 112.960777,108.063183" id="Fill-59" fill="#FFFFFF"></path>
                <path d="M101.608033,109.75517 C102.059058,110.610906 101.391378,111.848181 100.117335,112.518598 C98.8432924,113.189016 97.4452519,113.039126 96.9942271,112.18339 C96.5445649,111.327653 97.2108825,110.091741 98.4849253,109.419961 C99.7603307,108.749543 101.157009,108.899434 101.608033,109.75517" id="Fill-61" fill="#FFB2A0"></path>
                <path d="M113.657344,101.524159 C114.108369,102.379895 113.440689,103.61717 112.166646,104.287587 C110.892603,104.958005 109.494563,104.808115 109.043538,103.952379 C108.593876,103.096642 109.260193,101.859368 110.534236,101.18895 C111.809642,100.518533 113.206319,100.668423 113.657344,101.524159" id="Fill-63" fill="#FFB2A0"></path>
                <path d="M107.200332,107.760541 C107.162179,107.712849 107.316154,107.509816 107.673158,107.252278 C108.013812,106.989289 108.606548,106.70586 109.046672,106.231662 C109.482708,105.772453 109.639408,104.814519 108.971728,104.679618 C108.278158,104.443882 107.490568,105.239662 106.587156,105.995926 C106.363688,106.181245 106.142944,106.365201 105.923564,106.546431 C105.719172,106.734475 105.288586,107.009728 104.841649,106.95386 C103.990017,106.816234 103.627562,106.248014 103.300535,105.867838 C102.64648,105.028453 102.243147,104.149552 102.019679,103.389201 C101.57683,101.852146 101.775771,100.860146 101.882055,100.868271 C102.03058,100.861508 102.079634,101.815354 102.642393,103.167091 C102.925816,103.838871 103.349589,104.601948 103.966852,105.322783 C104.267989,105.68797 104.646796,106.028629 104.916593,106.03953 C105.02969,106.044981 105.11826,106.006827 105.330827,105.828322 C105.547483,105.647091 105.765501,105.463135 105.986244,105.277816 C106.441357,104.909904 106.835152,104.537904 107.35567,104.191794 C107.861199,103.851135 108.582021,103.635838 109.227899,103.855223 C109.917381,104.036453 110.322077,104.840409 110.202167,105.399091 C110.124498,105.968673 109.841075,106.388365 109.519498,106.694959 C108.839555,107.263179 108.23183,107.400805 107.848935,107.572497 C107.456503,107.721025 107.24121,107.813684 107.200332,107.760541" id="Fill-65" fill="#FF7B5B"></path>
                <path d="M105.153006,123.829306 C105.153006,123.829306 110.416779,123.859284 113.272815,122.100119 C113.272815,122.100119 110.856903,125.067943 106.022353,125.836471 L105.153006,123.829306 Z" id="Fill-67" fill="#FFA192"></path>
                <path d="M107.435791,100.223385 C107.3881,100.483649 106.652289,100.564045 105.874237,100.907429 C105.085285,101.226286 104.515712,101.699122 104.296332,101.551957 C104.071501,101.433407 104.443494,100.493187 105.509057,100.04488 C106.573257,99.5938468 107.505285,99.9781105 107.435791,100.223385" id="Fill-69" fill="#22343D"></path>
                <path d="M97.120405,106.98997 C96.9214636,106.842805 97.2335019,105.995245 97.9911145,105.146322 C98.7582654,104.279684 99.7379839,103.990805 99.8415424,104.233354 C99.9505514,104.469091 99.3537271,105.018234 98.6819591,105.779948 C97.9992902,106.538937 97.3356978,107.150761 97.120405,106.98997" id="Fill-71" fill="#22343D"></path>
                <path d="M93.121682,105.681974 C92.6951843,105.365842 92.3627068,104.012743 93.9951167,102.189535 C95.6425154,100.325447 97.483405,100.653842 97.7041483,101.171645 C97.9412429,101.679908 97.3280672,102.403469 95.8823352,104.042722 C94.4148014,105.676524 93.5836077,106.028084 93.121682,105.681974" id="Fill-73" fill="#FF7B5B"></path>
                <path d="M101.787081,98.500194 C101.551349,98.0586995 101.811608,96.7737325 103.934558,95.8784798 C106.087486,94.953249 107.522317,95.9738644 107.501878,96.5039303 C107.49779,97.031271 106.687036,97.4005457 104.795729,98.2154028 C102.890797,99.015271 102.041889,98.981205 101.787081,98.500194" id="Fill-75" fill="#FF7B5B"></path>
                <path d="M554.599603,111.282141 C554.73859,111.419768 552.452126,113.992427 547.707509,116.794009 C543.021484,119.592867 535.648387,122.367196 527.167486,122.429878 C518.686585,122.492559 511.27261,119.82724 506.545707,117.097878 C501.761574,114.367152 499.436957,111.827196 499.573218,111.686845 C499.770797,111.437482 502.370662,113.579548 507.161608,115.924647 C511.906225,118.279284 519.057216,120.616207 527.152497,120.557614 C535.250504,120.496295 542.364705,118.054449 547.075256,115.630317 C551.829412,113.214361 554.399299,111.034141 554.599603,111.282141" id="Fill-77" fill="#775298"></path>
                <path d="M502.860248,107.3959 C502.7308,107.680691 500.199066,106.630097 495.934089,105.678976 C493.808413,105.177526 491.228987,104.790537 488.3566,104.433526 C485.473312,104.114669 482.286161,103.861218 478.920507,103.621394 C475.553492,103.385658 472.330913,103.114493 469.404021,102.752031 C466.477129,102.36368 463.847287,101.901746 461.680733,101.315812 C457.331273,100.180735 454.86767,98.8371743 454.953514,98.6477677 C455.066611,98.3616138 457.656938,99.2459655 461.964156,100.021306 C464.112996,100.43146 466.706048,100.748954 469.593424,101.036471 C472.487613,101.300823 475.684303,101.517482 479.055406,101.754581 C482.429235,101.994405 485.657264,102.303724 488.581431,102.723416 C491.504235,103.182625 494.125902,103.716779 496.270654,104.398097 C500.577872,105.713042 502.956994,107.217394 502.860248,107.3959" id="Fill-79" fill="#775298"></path>
                <g id="Group-83" transform="translate(433.310729, 34.258792)">
                    <mask id="mask-3" fill="white">
                        <use xlink:href="#path-2"></use>
                    </mask>
                    <g id="Clip-82"></g>
                    <path d="M18.2452466,17.8058549 C26.3309899,16.0902945 34.7083322,17.5673934 42.8608435,18.9259429 C51.0147173,20.2844923 59.4792669,21.5095033 67.4505507,19.3211077 C81.8424651,15.370822 92.767893,0.830118681 107.692589,0.94660121 C113.837972,0.994997802 119.630438,3.61943736 125.617758,5.00796484 C133.052172,6.73306374 140.797262,6.54774505 148.328422,7.77820659 C155.860945,9.00866813 163.641463,12.037811 167.898265,18.3727121 C172.948107,25.8903824 171.563693,36.4944264 166.264492,43.8390418 C160.965292,51.1850198 152.47894,55.6571956 143.784109,58.1917011 C137.71912,59.9590418 131.257611,60.9810198 126.008828,64.4979868 C120.700089,68.055833 117.233602,73.7816352 112.287319,77.8273055 C99.8752804,87.9775912 80.558884,85.0683604 67.7380619,75.4399648 C64.5168457,73.0212835 61.5313615,70.2142505 57.9122624,68.4441846 C43.1919583,61.2385582 22.0210462,70.7770198 9.34329842,57.6670857 C-3.53066554,44.352756 -1.69658896,22.0354813 18.2452466,17.8058549" id="Fill-81" fill="#775298" mask="url(#mask-3)"></path>
                </g>
                <path d="M447.516102,309.915834 C447.516102,309.915834 461.003242,338.824185 462.581147,333.471746 C464.154965,328.116581 463.634447,315.260097 462.789627,313.424625 C461.940719,311.589152 456.427589,303.480097 456.427589,303.480097 L447.516102,309.915834 Z" id="Fill-84" fill="#FFB2A0"></path>
                <path d="M545.040058,76.1510336 C546.288211,77.7494072 545.454292,76.0324842 546.867322,78.3380666 C552.740182,78.133671 556.68222,73.1641325 556.68222,73.1641325 C556.68222,73.1641325 566.003853,73.4107699 565.896207,71.745627 C565.789923,70.0777589 556.960193,70.7004842 556.960193,70.7004842 C556.960193,70.7004842 566.300903,67.7667259 565.78856,66.3018907 C565.278943,64.8384182 554.495227,69.5068138 554.495227,69.5068138 C554.495227,69.5068138 565.377051,62.7522204 563.769169,61.6689237 C562.162648,60.5883523 551.692333,66.4844842 551.692333,66.4844842 C551.692333,66.4844842 560.79186,59.0104182 559.427885,58.0470336 C558.066635,57.083649 545.444754,66.8115171 545.444754,66.8115171 C545.628707,62.0259347 542.196286,62.1935391 542.196286,62.1935391 L542.337997,73.8781545 C542.337997,73.8781545 544.465036,75.4152094 545.040058,76.1510336" id="Fill-86" fill="#FFC6B2"></path>
                <path d="M406.866506,23.2669413 C404.871642,23.6348534 406.418207,22.941271 403.829243,23.7316006 C399.576529,19.6763918 400.140651,13.3033369 400.140651,13.3033369 C400.140651,13.3033369 393.008736,7.29955668 394.191484,6.12632591 C395.381045,4.95036986 401.568669,11.2784578 401.568669,11.2784578 C401.568669,11.2784578 396.533815,2.88188635 397.888252,2.12698525 C399.241326,1.37208415 404.208049,12.0224578 404.208049,12.0224578 C404.208049,12.0224578 400.553522,-0.253542223 402.474806,0.00399623862 C404.393364,0.2615347 408.309513,11.6204798 408.309513,11.6204798 C408.309513,11.6204798 406.467261,-0.00826749764 408.122835,0.175688546 C409.781135,0.358281953 412.763894,16.0136226 412.763894,16.0136226 C415.80252,12.3126995 418.256585,14.7177545 418.256585,14.7177545 L410.553736,23.189271 C410.553736,23.189271 407.783545,23.0993369 406.866506,23.2669413" id="Fill-88" fill="#FFC6B2"></path>
                <path d="M455.249337,72.0751127 C452.669912,71.6513325 446.433234,75.7964754 443.312851,82.5524314 C441.565982,86.3337501 440.364157,90.1750248 442.36856,96.3246072 C443.312851,99.2174863 445.288639,99.5799479 445.730126,100.875816 C446.287434,102.516431 444.441094,107.68764 444.441094,107.68764 L451.80329,110.660915 C452.281567,107.108519 452.823887,103.534322 456.444349,101.991816 C457.798786,101.414058 459.248605,101.048871 460.526736,100.315772 C463.975509,98.3385852 465.817761,94.0135743 467.234878,90.4720798 C468.292265,87.8272006 461.716297,73.1352446 455.249337,72.0751127" id="Fill-90" fill="#FFC6B2"></path>
                <path d="M446.485422,172.478458 L434.151053,167.529359 C434.151053,167.529359 397.545827,235.411864 397.697964,254.246238 C397.84969,273.079249 447.973395,310.787513 447.973395,310.787513 L456.427044,303.481051 C456.427044,303.481051 440.951852,276.496743 432.679431,266.982809 C424.405647,257.46615 446.485422,172.478458 446.485422,172.478458" id="Fill-92" fill="#FFB2A0"></path>
                <path d="M507.727228,249.806765 C507.727228,249.806765 534.912712,236.90804 529.449998,235.768875 C523.987285,234.635161 511.211429,236.198106 509.452296,237.190106 C507.690438,238.183469 500.057082,244.335776 500.057082,244.335776 L507.727228,249.806765 Z" id="Fill-94" fill="#FFC6B2"></path>
                <path d="M458.601228,171.889662 L439.889832,178.697398 C439.889832,178.697398 421.172985,261.022497 428.318526,273.947113 C435.461341,286.877179 455.528537,278.321179 484.107974,262.723069 L508.046352,249.655376 L500.055992,244.337003 C500.055992,244.337003 472.200102,249.795728 464.377343,255.238102 C464.377343,255.238102 468.45973,243.670673 473.903368,227.34219 C479.345643,211.012343 483.09964,194.343201 458.601228,171.889662" id="Fill-96" fill="#FFC6B2"></path>
                <path d="M435.569941,115.803917 C435.569941,110.334291 437.330437,106.378554 442.799964,106.378554 C448.269491,106.378554 455.830628,108.295785 455.830628,113.766774 C455.830628,119.239126 451.520684,128.122159 446.048432,128.122159 C440.578905,128.122159 435.569941,121.276269 435.569941,115.803917" id="Fill-98" fill="#FFC6B2"></path>
                <path d="M439.889287,105.594765 C439.889287,105.594765 422.881156,87.18826 419.478712,69.1564798 C416.074906,51.1274248 410.294703,21.870238 410.294703,21.870238 L403.830469,23.7316006 C403.830469,23.7316006 400.767316,63.7154688 403.830469,69.8377984 C406.890897,75.9614907 421.851021,116.728875 426.406235,127.435117 L439.889287,105.594765 Z" id="Fill-100" fill="#FFC6B2"></path>
                <path d="M458.162194,119.940339 C458.162194,119.940339 459.470303,114.214537 480.97778,106.432515 C502.485257,98.6518556 543.061136,73.4308006 543.061136,73.4308006 L547.109458,78.062405 C547.109458,78.062405 525.062386,103.528735 512.236113,107.99546 C499.409841,112.463548 472.167127,130.075636 469.364233,131.484603 C465.125145,133.61713 465.176924,136.300163 458.162194,119.940339" id="Fill-102" fill="#FFC6B2"></path>
                <path d="M439.889287,105.594765 C439.889287,105.594765 422.608634,111.195205 422.608634,137.490018 C422.608634,137.490018 422.619535,173.503161 426.692384,180.054722 C426.692384,180.054722 433.313318,181.751205 441.568026,180.054722 C450.223341,178.275117 458.600683,171.889798 458.600683,171.889798 L472.194107,131.080172 L470.56851,111.959645 L452.086032,108.390897 C452.086032,108.390897 457.387958,133.167733 438.205098,122.515996 C434.476989,120.44615 443.689613,106.389183 443.689613,106.389183 L439.889287,105.594765 Z" id="Fill-104" fill="#22343D"></path>
                <path d="M425.267772,126.980405 L416.752806,109.240229 C416.752806,109.240229 417.973707,98.4781193 433.605599,94.6218556 C433.605599,94.6218556 435.186229,100.046515 436.919473,102.119086 C438.651353,104.190295 443.695745,106.395042 443.695745,106.395042 L425.267772,126.980405 Z" id="Fill-106" fill="#22343D"></path>
                <path d="M457.459495,134.111086 L484.53597,128.561064 C484.53597,128.561064 489.243797,118.807306 478.081274,107.204449 C478.081274,107.204449 456.960779,108.479878 454.227378,108.707438 C451.536218,108.930911 453.383921,111.003482 453.383921,111.003482 L457.459495,134.111086 Z" id="Fill-108" fill="#22343D"></path>
                <path d="M426.649053,171.28288 C426.649053,171.28288 401.038748,218.633165 396.807836,227.093781 C396.807836,227.093781 472.363343,261.801517 503.03439,220.024418 C503.03439,220.024418 485.587498,183.096946 458.615944,169.038616 L446.980595,165.554352 L427.104165,171.055319" id="Fill-110" fill="#22343D"></path>
                <path d="M466.243305,90.0243171 C466.243305,90.0243171 469.160658,87.1069105 470.955219,89.1263391 C472.74978,91.1457677 464.448744,94.0631743 464.448744,94.0631743 L466.243305,90.0243171 Z" id="Fill-112" fill="#FFC6B2"></path>
                <path d="M519.606063,50.2355787 C519.634146,50.3364138 518.507265,50.824238 516.3557,51.335227 C514.209585,51.8516666 511.02516,52.3204138 507.069495,52.4008094 C503.116556,52.4798424 498.415542,52.128282 493.270317,51.4306116 C488.121004,50.7479303 482.527479,49.7450292 476.642355,49.103227 C470.76677,48.4750512 465.117378,48.3605896 460.113864,49.1686336 C455.108988,49.9630512 450.777243,51.6023039 447.466094,53.5168094 C444.154946,55.4463039 441.850768,57.5870072 440.436376,59.2071831 C439.013808,60.8287215 438.37338,61.8643259 438.228943,61.7771171 C438.149912,61.736238 438.577772,60.5698204 439.866804,58.7520622 C441.14766,56.9397545 443.408234,54.5483259 446.779337,52.3858204 C450.147716,50.2369413 454.625261,48.3905677 459.827716,47.4666995 C465.036984,46.529205 470.863515,46.6014248 476.841297,47.2418644 C482.824529,47.8945677 488.424867,48.9546995 493.514225,49.723227 C498.60222,50.5067435 503.201038,50.9863918 507.073583,51.0763259 C514.836387,51.2929852 519.534675,49.9153589 519.606063,50.2355787" id="Fill-114" fill="#775298"></path>
                <path d="M451.387012,88.3681677 C451.378836,88.4826292 450.547643,88.5630248 449.27905,88.1419699 C448.965649,88.0315962 448.595019,87.8871567 448.250278,87.5710248 C448.079951,87.4129589 447.921888,87.2031127 447.825143,86.9510248 C447.686156,86.5981017 447.697057,86.1974863 447.834681,85.8922556 C447.875559,85.8309369 447.872834,85.6851347 447.953228,85.6824094 L448.199861,85.6742336 C448.357924,85.6524314 448.544602,85.7042116 448.727192,85.7382776 C449.062395,85.8023215 449.170041,85.7927831 449.408498,85.8091347 C449.826821,85.8186732 450.260131,85.7750688 450.693442,85.6796842 C452.464839,85.3063215 453.650312,84.0172666 454.18173,82.9571347 C454.739039,81.8901896 454.788093,81.0875962 454.936618,81.0971347 C455.041539,81.0835083 455.248656,81.9365193 454.788093,83.2242116 C454.553724,83.8551127 454.146303,84.5786732 453.488161,85.2136622 C452.834107,85.8472885 451.927969,86.367816 450.899197,86.5926512 C450.385492,86.7071127 449.869062,86.7507171 449.371708,86.724827 C449.155053,86.7139259 448.814399,86.6703215 448.714929,86.6485193 C448.623634,86.6335303 448.634535,86.6130907 448.616821,86.6239918 C448.60592,86.6348929 448.600469,86.6526072 448.601832,86.6784973 C448.638622,86.8011347 448.70539,86.9183215 448.799411,87.0232446 C448.988814,87.2371787 449.264062,87.3966072 449.532496,87.5301457 C450.629399,88.0683874 451.407451,88.227816 451.387012,88.3681677" id="Fill-116" fill="#FF7B5B"></path>
                <path d="M445.313166,88.6836182 L455.287491,92.6134644 C455.287491,92.6134644 446.521804,98.6581237 445.313166,88.6836182" id="Fill-118" fill="#FFFFFF"></path>
                <path d="M459.546745,90.5745501 C459.192466,91.2476929 458.0942,91.3648798 457.09268,90.8375391 C456.09116,90.3115611 455.566554,89.338638 455.91947,88.6668578 C456.27375,87.9937149 457.373378,87.8751655 458.374898,88.4025061 C459.376419,88.9298468 459.901024,89.9014072 459.546745,90.5745501" id="Fill-120" fill="#FFB2A0"></path>
                <path d="M448.414881,84.6721501 C448.112381,85.3698204 447.026379,85.5714907 445.988068,85.1218204 C444.949757,84.6721501 444.351571,83.7428314 444.654071,83.0451611 C444.955208,82.3474907 446.042573,82.1458204 447.080884,82.5954907 C448.119194,83.0451611 448.717381,83.9744798 448.414881,84.6721501" id="Fill-122" fill="#FFB2A0"></path>
                <path d="M444.720294,99.6225984 C444.720294,99.6225984 448.216757,102.550906 451.864471,101.607961 C451.864471,101.607961 450.60678,103.493851 445.765417,102.801631 C445.765417,102.801631 446.167388,100.723609 444.720294,99.6225984" id="Fill-124" fill="#FFA192"></path>
                <path d="M458.589919,84.3102336 C458.589919,84.7462776 458.235639,85.1005633 457.799603,85.1005633 C457.363567,85.1005633 457.009288,84.7462776 457.009288,84.3102336 C457.009288,83.8741896 457.363567,83.5199039 457.799603,83.5199039 C458.235639,83.5199039 458.589919,83.8741896 458.589919,84.3102336" id="Fill-126" fill="#22343D"></path>
                <path d="M452.122823,81.980805 C452.122823,82.416849 451.768544,82.7711347 451.332507,82.7711347 C450.896471,82.7711347 450.543555,82.416849 450.543555,81.980805 C450.543555,81.5447611 450.896471,81.1904754 451.332507,81.1904754 C451.768544,81.1904754 452.122823,81.5447611 452.122823,81.980805" id="Fill-128" fill="#22343D"></path>
                <path d="M461.128875,82.2050951 C460.884967,82.3086556 460.413503,81.7377105 459.699494,81.2757765 C459.000474,80.7934028 458.291915,80.5767435 458.293278,80.3123918 C458.270113,80.0589413 459.25937,79.8531831 460.220012,80.4977105 C461.182017,81.1381501 461.372782,82.1287874 461.128875,82.2050951" id="Fill-130" fill="#775298"></path>
                <path d="M449.73171,78.3706336 C449.715359,78.1239962 450.564267,77.8133149 451.700685,77.8432929 C452.857544,77.8678204 453.711902,78.429227 453.593354,78.6636006 C453.484345,78.9006995 452.679041,78.7985017 451.663895,78.7794248 C450.643298,78.7494468 449.748062,78.6390732 449.73171,78.3706336" id="Fill-132" fill="#775298"></path>
                <path d="M453.293171,321.66204 C453.293171,321.66204 457.442326,336.389425 461.72638,335.183491 C466.010434,333.978919 462.789218,313.424897 462.789218,313.424897 L458.514702,306.668941 C458.514702,306.668941 462.530322,341.074172 453.293171,321.66204" id="Fill-134" fill="#22343D"></path>
                <path d="M505.612726,240.014172 C505.612726,240.014172 508.62955,236.72204 512.286803,236.17426 C515.945417,235.625117 529.019685,234.070348 530.939607,235.807711 C532.86089,237.545073 520.342568,243.370348 520.342568,243.370348 C520.342568,243.370348 524.704291,240.590568 522.893379,239.557689 C519.692602,237.727667 505.612726,240.014172 505.612726,240.014172" id="Fill-136" fill="#22343D"></path>
                <polygon id="Fill-138" fill="#22343D" points="500.425123 243.9571 504.518412 252.267825 506.751734 251.027825 501.293108 242.8411"></polygon>
                <polygon id="Fill-140" fill="#22343D" points="454.653194 300.148585 444.605289 309.204673 447.582598 311.686036 456.01717 302.505948"></polygon>
                <path d="M244.586566,209.992954 C241.729167,202.90179 240.630902,195.006669 236.367287,188.660867 C230.231442,179.529834 218.446206,174.999064 213.467219,165.188075 C211.352444,161.02113 210.688852,156.254625 210.666605,151.582141 C210.626172,142.338009 213.393638,132.510669 220.533728,126.636339 C228.738019,119.885834 241.047861,119.979856 250.657005,124.514713 C260.263424,129.04957 267.603818,137.281262 273.844584,145.879504 C280.086712,154.476383 285.550789,163.702801 292.818965,171.450757 C298.208098,177.195636 304.600113,182.150185 308.659336,188.899328 C319.787794,207.402581 308.33776,230.814053 288.691611,237.492339 C271.428672,243.358493 250.558897,224.818449 244.586566,209.992954" id="Fill-142" fill="#22343D"></path>
                <path d="M219.993725,340.492735 C221.702441,341.897614 219.838387,340.924691 222.323792,342.543504 C221.769209,348.753042 216.025797,352.665174 216.025797,352.665174 C216.025797,352.665174 215.783252,362.551108 213.938274,362.348075 C212.089209,362.147768 213.273319,352.828691 213.273319,352.828691 C213.273319,352.828691 209.492069,362.566097 207.892362,361.946097 C206.294018,361.328823 212.082396,350.155196 212.082396,350.155196 C212.082396,350.155196 203.969401,361.322009 202.854783,359.561482 C201.741529,357.802317 208.880256,347.026581 208.880256,347.026581 C208.880256,347.026581 200.065515,356.267987 199.069446,354.771812 C198.074738,353.279724 209.588815,340.427328 209.588815,340.427328 C204.259637,340.368735 204.637081,336.741394 204.637081,336.741394 L217.617328,337.511284 C217.617328,337.511284 219.207497,339.844119 219.993725,340.492735" id="Fill-144" fill="#FFC6B2"></path>
                <path d="M343.997468,154.044972 C346.218527,154.434686 344.494822,153.698862 347.376747,154.536884 C352.110464,150.236401 351.482299,143.479082 351.482299,143.479082 C351.482299,143.479082 359.42088,137.11284 358.104596,135.868752 C356.780137,134.621939 349.893493,141.330203 349.893493,141.330203 C349.893493,141.330203 355.496556,132.428093 353.989506,131.626862 C352.485182,130.826994 346.957063,142.120533 346.957063,142.120533 C346.957063,142.120533 351.024461,129.103258 348.88516,129.375785 C346.751308,129.649675 342.39231,141.694027 342.39231,141.694027 C342.39231,141.694027 344.44168,129.363522 342.598065,129.558379 C340.753087,129.751873 337.768966,145.905939 337.768966,145.905939 C333.422232,142.368533 330.379518,144.633236 330.379518,144.633236 L339.893279,153.961851 C339.893279,153.961851 342.976871,153.867829 343.997468,154.044972" id="Fill-146" fill="#FFC6B2"></path>
                <path d="M289.656613,208.03539 C293.672233,207.408576 305.918032,215.344576 302.801737,231.460489 C302.541478,232.813587 300.77417,235.792313 300.334046,237.024137 C299.7781,238.584357 304.109845,244.29517 304.109845,244.29517 L292.926884,247.868005 C292.449969,244.490027 293.252548,239.553192 289.638899,238.085631 C288.287188,237.536489 286.840093,237.189016 285.564688,236.492708 C282.121366,234.612269 280.283201,230.498467 278.868809,227.13139 C277.812785,224.614598 277.008843,221.908401 277.038821,219.177675 C277.112402,212.301807 283.201917,209.043741 289.656613,208.03539" id="Fill-148" fill="#FFC6B2"></path>
                <path d="M312.050607,252.172849 C312.050607,246.372102 310.21108,244.157816 304.122926,244.157816 C298.034773,244.157816 289.998084,246.372102 289.998084,252.172849 C289.998084,257.974959 294.297127,265.235091 300.388005,265.235091 C306.474796,265.235091 312.050607,257.974959 312.050607,252.172849" id="Fill-150" fill="#FFC6B2"></path>
                <path d="M307.242764,241.34615 C307.242764,241.34615 326.173541,221.827733 329.960242,202.707205 C333.748305,183.58804 340.182562,152.563513 340.182562,152.563513 L347.377156,154.536612 C347.377156,154.536612 350.786413,196.936436 347.377156,203.429403 C343.970625,209.923733 324.658316,255.017491 325.037122,266.560392 L307.242764,241.34615 Z" id="Fill-152" fill="#FFC6B2"></path>
                <path d="M273.497527,250.796858 C273.497527,250.796858 267.060545,251.878792 257.215669,274.246484 C247.370792,296.612814 217.079914,338.252286 217.079914,338.252286 L222.003033,342.785781 C222.003033,342.785781 251.536299,320.781913 257.215669,307.43488 C262.893675,294.087847 270.08827,277.493649 273.497527,278.213122 C276.904058,278.936682 291.293247,259.092594 273.497527,250.796858" id="Fill-154" fill="#FFC6B2"></path>
                <path d="M324.17963,269.542387 L332.994371,245.212497 C332.994371,245.212497 331.634484,233.801772 314.236646,229.711135 L304.380869,243.911179 L324.17963,269.542387 Z" id="Fill-156" fill="#FF7B5B"></path>
                <path d="M276.436273,248.929908 C276.436273,248.929908 266.036814,249.806084 257.607692,268.320238 C257.607692,268.320238 266.877546,281.118128 273.659269,281.550084 C273.659269,281.550084 298.847163,260.020414 276.436273,248.929908" id="Fill-158" fill="#FF7B5B"></path>
                <path d="M305.009987,468.487442 C305.009987,468.487442 289.998084,499.142695 288.243039,493.467311 C286.490719,487.789201 287.06983,474.154651 288.010032,472.208805 C288.954323,470.261596 295.09153,461.663354 295.09153,461.663354 L305.009987,468.487442 Z" id="Fill-160" fill="#FFC6B2"></path>
                <path d="M306.157035,322.746563 L319.885357,317.497684 C319.885357,317.497684 360.627474,389.483091 360.459034,409.455267 C360.289546,429.424717 304.50146,469.412673 304.50146,469.412673 L295.091257,461.663354 C295.091257,461.663354 321.534118,422.784585 330.741291,412.695618 C335.345559,407.649772 302.38396,382.923354 297.391348,359.131706 C292.398735,335.340058 306.157035,322.746563 306.157035,322.746563" id="Fill-162" fill="#654287"></path>
                <path d="M223.61514,452.428625 C223.61514,452.428625 195.53442,473.127086 196.702179,467.318163 C197.874026,461.50379 204.94326,449.637943 206.716019,448.317548 C208.491503,446.999878 218.078845,442.034427 218.078845,442.034427 L223.61514,452.428625 Z" id="Fill-164" fill="#FFC6B2"></path>
                <path d="M268.806188,348.23742 L309.422944,324.69786 C309.422944,324.69786 311.034915,406.467003 301.284059,424.147223 C291.534566,441.827442 222.718541,453.028322 222.718541,453.028322 L218.078845,442.034563 C218.078845,442.034563 260.535129,416.738563 273.569881,411.788102 C286.605996,406.834915 268.806188,348.23742 268.806188,348.23742" id="Fill-166" fill="#775298"></path>
                <path d="M292.995968,308.595847 C292.995968,308.595847 263.089346,319.184902 268.806869,348.237693 C274.523029,377.289122 284.051779,382.735583 284.051779,382.735583 L301.202984,354.593034 L318.422319,317.737781 L301.202984,315.553473 L292.995968,308.595847 Z" id="Fill-168" fill="#775298"></path>
                <path d="M307.242764,241.34615 C307.242764,241.34615 329.261221,253.686194 329.261221,281.569842 C329.261221,281.569842 326.463778,313.358809 321.930366,320.304172 C321.930366,320.304172 314.561357,322.104216 305.37326,320.304172 C295.739589,318.418282 286.416593,311.647337 286.416593,311.647337 L278.892246,272.727689 L273.038462,250.002985 L276.211987,248.95648 L292.771818,247.137359 C292.771818,247.137359 290.392697,271.874678 308.88335,259.590502 C312.777697,257.002853 304.035174,244.104128 304.035174,244.104128 L307.242764,241.34615 Z" id="Fill-170" fill="#FF7B5B"></path>
                <polygon id="Fill-172" fill="#FFFFFF" points="320.719957 135.978036 366.885272 162.909201 392.853943 113.856981 349.573279 89.811882"></polygon>
                <polygon id="Fill-174" fill="#FFFFFF" points="384.943705 370.786071 417.961171 350.346511 390.683029 302.731873 360.50116 322.303434"></polygon>
                <path d="M222.375572,167.890185 C222.462779,167.812515 223.482013,168.737746 225.093984,170.624998 C226.699142,172.514976 228.88886,175.388779 231.086754,179.266845 C233.292824,183.128559 235.475729,188.028603 237.034558,193.716251 C238.647892,199.361658 239.729806,205.70746 242.209761,211.820251 C243.49743,214.839856 245.057621,217.650976 246.914862,220.136427 C248.788455,222.605526 250.866439,224.772119 253.005741,226.662097 C257.377002,230.341218 261.956743,232.871636 266.037768,234.333746 C270.114705,235.816295 273.607081,236.481262 276.035256,236.719724 C278.460707,236.988163 279.831495,237.02768 279.832883,237.187108 C279.839671,237.286581 278.47297,237.495064 275.982114,237.447372 C273.492621,237.428295 269.869434,236.952735 265.601732,235.584647 C261.331304,234.235636 256.506292,231.739284 251.892486,227.979768 C249.629187,226.047548 247.42993,223.810097 245.448691,221.238801 C243.483804,218.652515 241.824142,215.695592 240.476518,212.530185 C237.893004,206.140779 236.872407,199.739108 235.369446,194.168647 C233.934614,188.579108 231.93975,183.768998 229.923083,179.899108 C227.91868,176.018317 225.929265,173.076383 224.518961,171.070581 C223.100482,169.068867 222.269288,167.984207 222.375572,167.890185" id="Fill-176" fill="#22343D"></path>
                <path d="M279.094322,136.382029 C279.433612,136.330686 279.763364,140.875082 282.306,147.596972 C283.575955,150.944972 285.464536,154.797148 288.177497,158.658862 C289.533297,160.592445 291.093488,162.497412 292.859434,164.395565 C294.613117,166.301895 296.5235,168.238203 298.328961,170.410247 C301.949423,174.793851 304.440279,179.531741 306.785335,183.713675 C309.11404,187.936489 310.968556,191.953543 311.911484,195.546818 C312.89529,199.129192 312.95252,202.21284 312.640482,204.258159 C312.314817,206.313016 311.803837,207.354071 311.719355,207.32603 C311.557205,207.283214 311.821551,206.183565 311.914209,204.192752 C311.994603,202.204664 311.741157,199.307697 310.641529,195.921543 C309.578691,192.521763 307.666946,188.690027 305.281011,184.557148 C302.858286,180.425631 300.345628,175.783126 296.887317,171.60528 C295.151349,169.514994 293.268218,167.5855 291.503635,165.631478 C289.729513,163.686994 288.11618,161.662115 286.75493,159.635873 C284.024254,155.579302 282.201078,151.536357 281.059209,148.041192 C279.89145,144.54739 279.394096,141.598642 279.158364,139.56695 C278.925358,137.53117 278.988038,136.392005 279.094322,136.382029" id="Fill-178" fill="#22343D"></path>
                <path d="M293.24737,225.552774 C293.229656,225.421961 293.981818,225.302049 294.691739,224.468115 C294.855253,224.275983 295.020129,223.99528 295.017404,223.831763 C295.013316,223.655983 294.890681,223.350752 294.679476,223.174972 C294.460095,222.978752 294.216188,222.883368 293.894611,222.916071 C293.562134,222.940598 293.157438,223.105478 292.628744,223.184511 C291.470523,223.338489 290.567111,222.684423 289.973012,222.154357 C289.362562,221.597038 288.896548,221.031543 288.549082,220.524642 C287.856875,219.504027 287.641582,218.76684 287.747866,218.712335 C287.870501,218.646928 288.28746,219.25739 289.068237,220.113126 C289.457944,220.538269 289.949848,221.026093 290.530321,221.496203 C291.102618,221.952686 291.803001,222.368291 292.502021,222.257917 C292.872652,222.210225 293.3046,222.03717 293.830568,222.001741 C294.366075,221.948598 294.961537,222.195236 295.288564,222.563148 C295.63603,222.939236 295.830884,223.382093 295.790005,223.906708 C295.686447,224.443587 295.401661,224.694313 295.165929,224.928686 C294.148057,225.819851 293.214667,225.674049 293.24737,225.552774" id="Fill-180" fill="#FF7B5B"></path>
                <path d="M298.703271,226.32062 L289.836751,229.54462 C289.836751,229.54462 297.359735,236.126159 298.703271,226.32062" id="Fill-182" fill="#FFFFFF"></path>
                <path d="M288.952006,225.77175 C289.306286,226.444893 288.78168,227.417816 287.78016,227.943794 C286.778639,228.471135 285.680373,228.353948 285.326094,227.680805 C284.971815,227.009025 285.496421,226.036102 286.497941,225.508761 C287.499461,224.98142 288.597727,225.098607 288.952006,225.77175" id="Fill-184" fill="#FFB2A0"></path>
                <path d="M299.463064,220.381702 C299.7533,221.084823 299.140125,222.00324 298.095001,222.435196 C297.048514,222.868515 295.965237,222.64913 295.675001,221.946009 C295.384764,221.242889 295.99794,220.324471 297.044426,219.892515 C298.08955,219.460559 299.172827,219.678581 299.463064,220.381702" id="Fill-186" fill="#FFB2A0"></path>
                <path d="M290.099054,238.321504 C290.099054,238.321504 293.065461,238.925152 296.846711,237.980845 C296.846711,237.980845 294.982657,239.79179 291.937218,240.212845 C291.937218,240.212845 291.254549,238.951042 290.099054,238.321504" id="Fill-188" fill="#FFA192"></path>
                <path d="M293.12964,218.391025 C293.462118,218.673091 293.502996,219.171816 293.220935,219.5043 C292.938875,219.836783 292.441521,219.877662 292.107681,219.595596 C291.775203,219.314893 291.734325,218.816168 292.016386,218.482322 C292.298447,218.149838 292.797163,218.108959 293.12964,218.391025" id="Fill-190" fill="#22343D"></path>
                <path d="M287.171617,221.818875 C287.504094,222.100941 287.544973,222.599667 287.262912,222.93215 C286.982214,223.264634 286.483497,223.305513 286.149657,223.023447 C285.81718,222.741381 285.776301,222.244018 286.058362,221.910172 C286.340423,221.577689 286.839139,221.536809 287.171617,221.818875" id="Fill-192" fill="#22343D"></path>
                <path d="M293.164932,215.092761 C293.085901,215.346212 292.346002,215.336673 291.532522,215.583311 C290.712229,215.804058 290.089515,216.204673 289.887849,216.031618 C289.679369,215.887179 290.161734,214.998739 291.274988,214.682607 C292.385518,214.362387 293.264403,214.858387 293.164932,215.092761" id="Fill-194" fill="#22343D"></path>
                <path d="M282.872165,221.309249 C282.673224,221.162084 282.985262,220.314524 283.742875,219.466963 C284.508663,218.600326 285.489744,218.311447 285.59194,218.552634 C285.702312,218.78837 285.104125,219.337513 284.432357,220.099227 C283.75105,220.858216 283.087458,221.471403 282.872165,221.309249" id="Fill-196" fill="#22343D"></path>
                <path d="M279.528178,227.892831 C279.528178,227.892831 276.684405,225.504128 275.319067,227.665271 C273.955092,229.826414 281.461725,230.964216 281.461725,230.964216 L279.528178,227.892831 Z" id="Fill-198" fill="#FFC6B2"></path>
                <path d="M211.14996,445.701965 C211.14996,445.701965 207.073023,447.474757 206.010185,448.538976 C204.945985,449.601834 195.196492,466.441306 196.437832,468.568383 C197.679172,470.69546 207.455917,463.474845 207.455917,463.474845 C207.455917,463.474845 199.274791,465.024163 211.14996,445.701965" id="Fill-200" fill="#775298"></path>
                <path d="M290.705825,467.969776 C290.705825,467.969776 287.810273,471.099754 287.363336,472.537337 C286.916399,473.972194 286.116546,493.414304 288.205431,494.719711 C290.292953,496.02648 295.999575,485.298436 295.999575,485.298436 C295.999575,485.298436 289.176974,490.6427 290.705825,468.014743" id="Fill-202" fill="#775298"></path>
            </g>
        </g>
    </g>
</svg>