<?xml version="1.0" encoding="UTF-8"?>
<svg width="604px" height="109px" viewBox="0 0 604 109" version="1.1" xmlns="http://www.w3.org/2000/svg" xmlns:xlink="http://www.w3.org/1999/xlink">
    <title>Group 19</title>
    <defs>
        <linearGradient x1="50%" y1="0%" x2="50%" y2="29.001139%" id="linearGradient-1">
            <stop stop-color="#FFFFFF" stop-opacity="0" offset="0%"></stop>
            <stop stop-color="#FFFFFF" offset="100%"></stop>
        </linearGradient>
    </defs>
    <g id="Final-UI" stroke="none" stroke-width="1" fill="none" fill-rule="evenodd">
        <g id="website-home" transform="translate(-424.000000, -5355.000000)">
            <g id="Group-19" transform="translate(424.000000, 5355.000000)">
                <path d="M31.098,52 L31.098,22.664 L52.53,52 L65.146,52 L65.146,1.308 L51.998,1.308 L51.998,29.2 L31.478,1.308 L18.026,1.308 L18.026,52 L31.098,52 Z M91.594,52.912 C97.218,52.912 103.298,51.316 106.946,48.048 L102.006,40.752 C99.954,42.728 95.47,43.868 92.886,43.868 C87.566,43.868 84.374,40.752 83.69,37.332 L109.834,37.332 L109.834,34.824 C109.834,22.36 101.93,14.38 91.062,14.38 C79.586,14.38 71.53,22.968 71.53,33.608 C71.53,45.54 80.27,52.912 91.594,52.912 Z M98.662,29.732 L83.538,29.732 C83.994,27.072 85.97,23.424 91.062,23.424 C96.458,23.424 98.358,27.148 98.662,29.732 Z M134.382,52 L141.222,29.276 L148.138,52 L160.754,52 L171.622,15.292 L159.538,15.292 L153.686,37.788 L146.466,15.292 L136.054,15.292 L128.834,37.788 L122.906,15.292 L110.898,15.292 L121.766,52 L134.382,52 Z M189.482,52.912 C200.046,52.912 206.202,47.744 206.202,40.752 C206.202,25.704 184.846,29.884 184.846,25.628 C184.846,24.108 186.746,22.968 189.482,22.968 C193.89,22.968 198.07,24.868 200.274,26.996 L204.758,19.244 C200.806,16.356 195.562,14.38 189.406,14.38 C179.222,14.38 173.674,20.004 173.674,26.464 C173.674,41.208 195.03,36.496 195.03,41.284 C195.03,42.956 193.586,44.096 190.09,44.096 C185.758,44.096 179.906,41.664 177.17,39.232 L172.306,47.288 C176.182,50.708 182.946,52.912 189.482,52.912 Z M246.026,52.912 C251.118,52.912 255.45,51.392 259.25,48.884 L262.29,52 L276.882,52 C273.386,48.352 270.194,44.932 267.154,41.512 C270.042,37.864 272.398,33.76 274.298,29.732 L265.102,25.4 C264.19,28.288 262.746,31.48 260.922,34.368 C259.706,32.924 258.566,31.556 257.426,30.036 C256.362,28.744 255.07,27.148 253.778,25.4 C259.934,22.664 266.014,19.472 266.014,11.644 C266.014,4.652 259.25,0.548 251.802,0.548 C242.758,0.548 236.45,6.02 236.45,12.936 C236.45,16.28 237.666,19.928 239.49,23.576 C233.79,26.388 228.774,30.34 228.774,37.94 C228.774,47.972 236.45,52.912 246.026,52.912 Z M249.75,19.092 C248.686,16.964 248.002,14.912 248.002,13.164 C248.002,10.656 249.826,8.832 252.41,8.832 C254.462,8.832 256.058,10.2 256.058,12.328 C256.058,15.444 253.398,17.344 249.75,19.092 Z M247.698,43.868 C244.126,43.868 241.01,41.056 241.01,36.8 C241.01,34.216 242.15,32.24 243.898,30.72 C245.342,32.772 246.938,34.824 248.382,36.648 C249.446,38.092 251.194,40.068 253.17,42.272 C251.422,43.26 249.598,43.868 247.698,43.868 Z M324.762,52.912 C340.95,52.912 348.626,44.02 348.626,31.404 L348.626,1.308 L335.402,1.308 L335.402,31.024 C335.402,37.028 331.754,41.36 324.762,41.36 C317.618,41.36 314.046,37.028 314.046,31.024 L314.046,1.308 L300.746,1.308 L300.746,31.48 C300.746,43.944 308.422,52.912 324.762,52.912 Z M369.146,65.984 L369.146,47.668 C372.186,51.316 375.91,52.912 380.014,52.912 C389.21,52.912 396.126,46.072 396.126,33.608 C396.126,21.22 389.21,14.38 380.014,14.38 C375.834,14.38 372.034,16.052 369.146,19.548 L369.146,15.292 L357.442,15.292 L357.442,65.984 L369.146,65.984 Z M376.138,42.576 C373.63,42.576 370.59,41.132 369.146,39.232 L369.146,28.06 C370.59,26.084 373.63,24.716 376.138,24.716 C380.698,24.716 384.194,28.136 384.194,33.608 C384.194,39.156 380.698,42.576 376.138,42.576 Z M416.038,52.912 C420.142,52.912 423.866,51.24 426.906,47.744 L426.906,52 L438.534,52 L438.534,1.308 L426.906,1.308 L426.906,19.624 C423.942,15.976 420.066,14.38 416.038,14.38 C406.842,14.38 399.774,21.6 399.774,33.608 C399.774,46.072 406.994,52.912 416.038,52.912 Z M419.838,42.576 C415.202,42.576 411.782,39.08 411.782,33.608 C411.782,28.136 415.202,24.716 419.838,24.716 C422.346,24.716 425.386,26.008 426.906,27.984 L426.906,39.232 C425.386,41.208 422.346,42.576 419.838,42.576 Z M457.382,52.912 C462.094,52.912 466.502,51.088 468.782,48.352 L468.782,52 L480.486,52 L480.486,29.048 C480.486,17.648 472.202,14.38 463.386,14.38 C457.762,14.38 451.454,16.052 446.742,20.08 L450.922,27.452 C453.886,24.944 457.686,23.576 461.334,23.576 C466.046,23.576 468.782,25.704 468.782,28.896 L468.782,33.304 C466.578,30.568 462.246,29.048 457.382,29.048 C451.758,29.048 444.766,31.936 444.766,40.828 C444.766,49.112 451.758,52.912 457.382,52.912 Z M462.246,45.236 C459.13,45.236 456.394,43.868 456.394,40.98 C456.394,38.092 459.13,36.724 462.246,36.724 C464.83,36.724 467.566,37.636 468.782,39.308 L468.782,42.576 C467.566,44.324 464.83,45.236 462.246,45.236 Z M502.906,52.912 C507.238,52.912 510.126,51.848 511.57,50.48 L509.29,41.664 C508.91,42.12 507.618,42.576 506.326,42.576 C504.274,42.576 503.058,40.98 503.058,38.852 L503.058,25.476 L510.506,25.476 L510.506,15.292 L503.058,15.292 L503.058,5.26 L491.43,5.26 L491.43,15.292 L485.35,15.292 L485.35,25.476 L491.43,25.476 L491.43,42.12 C491.43,49.188 495.458,52.912 502.906,52.912 Z M533.99,52.912 C539.614,52.912 545.694,51.316 549.342,48.048 L544.402,40.752 C542.35,42.728 537.866,43.868 535.282,43.868 C529.962,43.868 526.77,40.752 526.086,37.332 L552.23,37.332 L552.23,34.824 C552.23,22.36 544.326,14.38 533.458,14.38 C521.982,14.38 513.926,22.968 513.926,33.608 C513.926,45.54 522.666,52.912 533.99,52.912 Z M541.058,29.732 L525.934,29.732 C526.39,27.072 528.366,23.424 533.458,23.424 C538.854,23.424 540.754,27.148 541.058,29.732 Z M572.066,52.912 C582.63,52.912 588.786,47.744 588.786,40.752 C588.786,25.704 567.43,29.884 567.43,25.628 C567.43,24.108 569.33,22.968 572.066,22.968 C576.474,22.968 580.654,24.868 582.858,26.996 L587.342,19.244 C583.39,16.356 578.146,14.38 571.99,14.38 C561.806,14.38 556.258,20.004 556.258,26.464 C556.258,41.208 577.614,36.496 577.614,41.284 C577.614,42.956 576.17,44.096 572.674,44.096 C568.342,44.096 562.49,41.664 559.754,39.232 L554.89,47.288 C558.766,50.708 565.53,52.912 572.066,52.912 Z" id="News&amp;Updates" fill="#303030" fill-rule="nonzero" opacity="0.100000001"></path>
                <rect id="Rectangle" fill="url(#linearGradient-1)" x="0" y="30" width="604" height="79"></rect>
            </g>
        </g>
    </g>
</svg>