<?xml version="1.0" encoding="UTF-8"?>
<svg width="604px" height="108px" viewBox="0 0 604 108" version="1.1" xmlns="http://www.w3.org/2000/svg" xmlns:xlink="http://www.w3.org/1999/xlink">
    <title>Group 44</title>
    <defs>
        <linearGradient x1="50%" y1="0%" x2="50%" y2="29.001139%" id="linearGradient-1">
            <stop stop-color="#FFFFFF" stop-opacity="0" offset="0%"></stop>
            <stop stop-color="#FFFFFF" offset="100%"></stop>
        </linearGradient>
    </defs>
    <g id="Final-UI" stroke="none" stroke-width="1" fill="none" fill-rule="evenodd">
        <g id="website-home" transform="translate(-428.000000, -6991.000000)">
            <g id="Group-10" transform="translate(428.000000, 6991.000000)">
                <g id="Group-9">
                    <g id="Group-44" transform="translate(0.000000, 0.472000)">
                        <path d="M37.37,51.528 L37.37,34.504 L49.682,34.504 C61.082,34.504 67.314,26.828 67.314,17.708 C67.314,8.512 61.082,0.836 49.682,0.836 L24.298,0.836 L24.298,51.528 L37.37,51.528 Z M47.934,23.104 L37.37,23.104 L37.37,12.236 L47.934,12.236 C51.43,12.236 54.014,14.212 54.014,17.708 C54.014,21.128 51.43,23.104 47.934,23.104 Z M90.418,52.44 C103.034,52.44 110.482,43.472 110.482,33.136 C110.482,22.8 103.034,13.908 90.418,13.908 C77.954,13.908 70.43,22.8 70.43,33.136 C70.43,43.472 77.954,52.44 90.418,52.44 Z M90.418,42.104 C85.326,42.104 82.514,38.076 82.514,33.136 C82.514,28.272 85.326,24.244 90.418,24.244 C95.586,24.244 98.474,28.272 98.474,33.136 C98.474,38.076 95.586,42.104 90.418,42.104 Z M128.342,65.512 L128.342,47.196 C131.382,50.844 135.106,52.44 139.21,52.44 C148.406,52.44 155.322,45.6 155.322,33.136 C155.322,20.748 148.406,13.908 139.21,13.908 C135.03,13.908 131.23,15.58 128.342,19.076 L128.342,14.82 L116.638,14.82 L116.638,65.512 L128.342,65.512 Z M135.334,42.104 C132.826,42.104 129.786,40.66 128.342,38.76 L128.342,27.588 C129.786,25.612 132.826,24.244 135.334,24.244 C139.894,24.244 143.39,27.664 143.39,33.136 C143.39,38.684 139.894,42.104 135.334,42.104 Z M173.486,52.44 C179.642,52.44 183.898,49.704 186.178,47.12 L186.178,51.528 L197.882,51.528 L197.882,14.82 L186.178,14.82 L186.178,38.532 C184.81,40.28 182.53,42.104 179.186,42.104 C175.386,42.104 173.106,40.584 173.106,36.176 L173.106,14.82 L161.402,14.82 L161.402,40.964 C161.402,47.728 165.126,52.44 173.486,52.44 Z M218.098,51.528 L218.098,0.836 L206.394,0.836 L206.394,51.528 L218.098,51.528 Z M236.87,52.44 C241.582,52.44 245.99,50.616 248.27,47.88 L248.27,51.528 L259.974,51.528 L259.974,28.576 C259.974,17.176 251.69,13.908 242.874,13.908 C237.25,13.908 230.942,15.58 226.23,19.608 L230.41,26.98 C233.374,24.472 237.174,23.104 240.822,23.104 C245.534,23.104 248.27,25.232 248.27,28.424 L248.27,32.832 C246.066,30.096 241.734,28.576 236.87,28.576 C231.246,28.576 224.254,31.464 224.254,40.356 C224.254,48.64 231.246,52.44 236.87,52.44 Z M241.734,44.764 C238.618,44.764 235.882,43.396 235.882,40.508 C235.882,37.62 238.618,36.252 241.734,36.252 C244.318,36.252 247.054,37.164 248.27,38.836 L248.27,42.104 C247.054,43.852 244.318,44.764 241.734,44.764 Z M280.19,51.528 L280.19,28.12 C281.71,26.068 285.738,24.776 288.778,24.776 C289.994,24.776 290.982,24.928 291.666,25.08 L291.666,13.832 C287.258,13.832 282.622,16.34 280.19,19.304 L280.19,14.82 L268.486,14.82 L268.486,51.528 L280.19,51.528 Z M341.598,52.44 C353.834,52.44 360.446,45.372 363.714,38.836 L352.466,33.516 C350.794,37.544 346.462,40.888 341.598,40.888 C333.314,40.888 327.462,34.504 327.462,26.22 C327.462,17.936 333.314,11.552 341.598,11.552 C346.462,11.552 350.794,14.896 352.466,18.924 L363.714,13.604 C360.37,6.916 353.834,3.19744231e-13 341.598,3.19744231e-13 C326.018,3.19744231e-13 314.162,10.564 314.162,26.22 C314.162,41.8 326.018,52.44 341.598,52.44 Z M386.59,52.44 C399.206,52.44 406.654,43.472 406.654,33.136 C406.654,22.8 399.206,13.908 386.59,13.908 C374.126,13.908 366.602,22.8 366.602,33.136 C366.602,43.472 374.126,52.44 386.59,52.44 Z M386.59,42.104 C381.498,42.104 378.686,38.076 378.686,33.136 C378.686,28.272 381.498,24.244 386.59,24.244 C391.758,24.244 394.646,28.272 394.646,33.136 C394.646,38.076 391.758,42.104 386.59,42.104 Z M424.894,52.44 C431.05,52.44 435.306,49.704 437.586,47.12 L437.586,51.528 L449.29,51.528 L449.29,14.82 L437.586,14.82 L437.586,38.532 C436.218,40.28 433.938,42.104 430.594,42.104 C426.794,42.104 424.514,40.584 424.514,36.176 L424.514,14.82 L412.81,14.82 L412.81,40.964 C412.81,47.728 416.534,52.44 424.894,52.44 Z M469.506,51.528 L469.506,28.12 C471.026,26.068 475.054,24.776 478.094,24.776 C479.31,24.776 480.298,24.928 480.982,25.08 L480.982,13.832 C476.574,13.832 471.938,16.34 469.506,19.304 L469.506,14.82 L457.802,14.82 L457.802,51.528 L469.506,51.528 Z M500.362,52.44 C510.926,52.44 517.082,47.272 517.082,40.28 C517.082,25.232 495.726,29.412 495.726,25.156 C495.726,23.636 497.626,22.496 500.362,22.496 C504.77,22.496 508.95,24.396 511.154,26.524 L515.638,18.772 C511.686,15.884 506.442,13.908 500.286,13.908 C490.102,13.908 484.554,19.532 484.554,25.992 C484.554,40.736 505.91,36.024 505.91,40.812 C505.91,42.484 504.466,43.624 500.97,43.624 C496.638,43.624 490.786,41.192 488.05,38.76 L483.186,46.816 C487.062,50.236 493.826,52.44 500.362,52.44 Z M540.718,52.44 C546.342,52.44 552.422,50.844 556.07,47.576 L551.13,40.28 C549.078,42.256 544.594,43.396 542.01,43.396 C536.69,43.396 533.498,40.28 532.814,36.86 L558.958,36.86 L558.958,34.352 C558.958,21.888 551.054,13.908 540.186,13.908 C528.71,13.908 520.654,22.496 520.654,33.136 C520.654,45.068 529.394,52.44 540.718,52.44 Z M547.786,29.26 L532.662,29.26 C533.118,26.6 535.094,22.952 540.186,22.952 C545.582,22.952 547.482,26.676 547.786,29.26 Z M578.794,52.44 C589.358,52.44 595.514,47.272 595.514,40.28 C595.514,25.232 574.158,29.412 574.158,25.156 C574.158,23.636 576.058,22.496 578.794,22.496 C583.202,22.496 587.382,24.396 589.586,26.524 L594.07,18.772 C590.118,15.884 584.874,13.908 578.718,13.908 C568.534,13.908 562.986,19.532 562.986,25.992 C562.986,40.736 584.342,36.024 584.342,40.812 C584.342,42.484 582.898,43.624 579.402,43.624 C575.07,43.624 569.218,41.192 566.482,38.76 L561.618,46.816 C565.494,50.236 572.258,52.44 578.794,52.44 Z" id="PopularCourses" fill="#303030" fill-rule="nonzero" opacity="0.100000001"></path>
                        <rect id="Rectangle" fill="url(#linearGradient-1)" x="0" y="27.528" width="604" height="79"></rect>
                    </g>
                </g>
            </g>
        </g>
    </g>
</svg>