<?xml version="1.0" encoding="UTF-8"?>
<svg width="51px" height="25px" viewBox="0 0 51 25" version="1.1" xmlns="http://www.w3.org/2000/svg" xmlns:xlink="http://www.w3.org/1999/xlink">
    <title>Path</title>
    <g id="Final-UI" stroke="none" stroke-width="1" fill="none" fill-rule="evenodd">
        <g id="website-home" transform="translate(-1184.000000, -1562.000000)" fill="#000000" fill-rule="nonzero">
            <g id="Group-12" transform="translate(1184.000000, 1561.000000)">
                <path d="M49.007814,11.48387 L6.81749758,11.48387 L13.8064846,4.44515632 C14.5863258,3.65967201 14.5893141,2.38315919 13.8131584,1.59394504 C13.0370027,0.804630079 11.7755505,0.80170669 10.9957093,1.5870902 L0.586138917,12.0709671 C0.585441652,12.0715719 0.584943605,12.0722775 0.58434595,12.0728824 C-0.193503083,12.8583667 -0.195993316,14.1390126 0.584146731,14.9271179 C0.584843996,14.9277227 0.585342043,14.9284283 0.585939698,14.9290332 L10.9955101,25.41291 C11.7752517,26.1981927 13.0367039,26.195471 13.8129592,25.4060552 C14.5891149,24.616841 14.5861266,23.3403282 13.8062854,22.5548439 L6.81749758,15.5161303 L49.007814,15.5161303 C50.1080983,15.5161303 51,14.6135088 51,13.5 C51,12.3864914 50.1080983,11.48387 49.007814,11.48387 Z" id="Path"></path>
            </g>
        </g>
    </g>
</svg>