<?xml version="1.0" encoding="UTF-8"?>
<svg width="21px" height="14px" viewBox="0 0 21 14" version="1.1" xmlns="http://www.w3.org/2000/svg" xmlns:xlink="http://www.w3.org/1999/xlink">
    <title>arrows copy</title>
    <g id="Final-UI" stroke="none" stroke-width="1" fill="none" fill-rule="evenodd">
        <g id="website-home" transform="translate(-1285.000000, -5791.000000)" fill="#FE0490" fill-rule="nonzero">
            <g id="Group-25" transform="translate(714.000000, 5632.000000)">
                <g id="Group-28" transform="translate(211.000000, 152.000000)">
                    <g id="arrows-copy" transform="translate(370.500000, 14.000000) scale(1, -1) rotate(180.000000) translate(-370.500000, -14.000000) translate(360.000000, 7.000000)">
                        <path d="M19.0582801,5.55156929 L3.66458197,5.55156929 L7.31899243,1.8914382 C7.7267568,1.48298636 7.72831932,0.819199692 7.32248205,0.408808332 C6.91664478,-0.00163544687 6.25705504,-0.00315560901 5.84929067,0.405243814 L0.406321193,5.85685978 C-0.00133901202,6.26630759 -0.00264110798,6.93224345 0.405279517,7.3420582 L5.8491865,12.7946701 C6.25689879,13.2030171 6.91648852,13.2016018 7.32237788,12.7911056 C7.72821515,12.3807143 7.72665264,11.7169276 7.31888826,11.3084757 L3.66458197,7.64834466 L19.0582801,7.64834466 C19.6335982,7.64834466 20.0999569,7.17898149 20.0999569,6.59995691 C20.0999569,6.02093245 19.6335982,5.55156929 19.0582801,5.55156929 Z" id="Path"></path>
                    </g>
                </g>
            </g>
        </g>
    </g>
</svg>