<?xml version="1.0" encoding="UTF-8"?>
<svg width="95px" height="83px" viewBox="0 0 95 83" version="1.1" xmlns="http://www.w3.org/2000/svg" xmlns:xlink="http://www.w3.org/1999/xlink">
    <title>Group 31</title>
    <defs>
        <filter x="-3.4%" y="-25.0%" width="106.7%" height="150.0%" filterUnits="objectBoundingBox" id="filter-1">
            <feGaussianBlur stdDeviation="1" in="SourceGraphic"></feGaussianBlur>
        </filter>
    </defs>
    <g id="SMO" stroke="none" stroke-width="1" fill="none" fill-rule="evenodd">
        <g id="SMO-successmsg" transform="translate(-672.000000, -317.000000)">
            <g id="Group-31" transform="translate(675.000000, 317.000000)">
                <ellipse id="Oval" fill="#F1F2FB" filter="url(#filter-1)" cx="44.5" cy="74" rx="44.5" ry="6"></ellipse>
                <g id="customer-support-(1)" transform="translate(10.000000, 0.000000)" fill-rule="nonzero">
                    <path d="M48.09616,47.50032 L51.68016,47.50032 C51.69472,44.96464 51.70368,42.51296 51.69584,41.22832 C50.93872,42.4536 49.51408,44.9568 48.09616,47.50032 Z" id="Path" fill="#C4A2FC"></path>
                    <path d="M44.8,22.3999993 C40.9280332,22.4028406 37.1166533,23.3615525 33.70416,25.19104 L22.67104,22.4336 C22.289644,22.3386283 21.8863756,22.4505294 21.6084525,22.7284525 C21.3305294,23.0063756 21.2186283,23.409644 21.3136,23.79104 L24.07104,34.82416 C19.0847036,44.1468524 20.9333276,55.6511533 28.5893464,62.942348 C36.2453653,70.2335427 47.8261544,71.5187172 56.8944827,66.0835018 C65.9628111,60.6482864 70.2887653,49.8292075 67.4677453,39.6400961 C64.6467253,29.4509847 55.3724235,22.3973561 44.8,22.3999993 Z M42.38304,53.72976 C40.53056,53.75216 39.17648,53.76224 38.18192,53.76224 C37.2192184,53.8415158 36.2504587,53.8039087 35.2968,53.65024 C34.9355802,53.5210672 34.6522714,53.2352878 34.52624,52.87296 C34.32688,52.22896 34.60128,51.87056 35.41328,50.80656 C36.08528,49.92848 37.33296,48.29328 39.42624,45.30288 C39.9868258,44.562165 40.4046105,43.7235571 40.65824,42.82992 L40.69408,42.51632 C40.6630024,41.3700803 39.776126,40.4299515 38.6336424,40.3321636 C37.4911588,40.2343757 36.4574172,41.0101143 36.232,42.1344 C36.1549736,42.5271349 35.8742766,42.8489439 35.4956449,42.9786045 C35.1170133,43.1082651 34.6979701,43.0260788 34.3963649,42.7630044 C34.0947597,42.4999301 33.9564135,42.0959349 34.03344,41.7032 C34.4813673,39.4347619 36.5776878,37.8765762 38.8789565,38.1015493 C41.1802252,38.3265223 42.9350817,40.2612008 42.9352,42.57344 C42.935004,42.6213603 42.9320122,42.6692283 42.92624,42.7168 L42.86128,43.2264 C42.5535643,44.439585 42.0117896,45.5809643 41.2664,46.5864 C39.57968,48.99664 38.4328,50.53888 37.69024,51.5144 C38.97488,51.52448 40.72096,51.50432 42.3584,51.48528 L42.37296,51.48528 C42.9915189,51.4812594 43.4962193,51.9794411 43.5002641,52.598 C43.5042606,53.2165589 43.0060789,53.7212593 42.38752,53.72528 L42.38304,53.72976 Z M54.47232,49.74032 L53.89888,49.74032 C53.88992,50.99584 53.88096,52.01952 53.87648,52.52128 C53.8709482,53.1358988 53.3711237,53.6312 52.75648,53.6312 L52.752,53.6312 C52.4547588,53.6288341 52.1706499,53.5084044 51.9622553,53.2964384 C51.7538606,53.0844725 51.6382753,52.7983585 51.64096,52.50112 C51.6488,51.66112 51.65664,50.7192 51.66336,49.74032 L46.1944,49.74032 C45.7980897,49.7404705 45.4312068,49.5311697 45.2296464,49.1899436 C45.028086,48.8487174 45.0218621,48.4263774 45.21328,48.07936 C45.9536,46.73536 49.68208,40.0008 50.43136,39.0824 C50.890322,38.384219 51.7474067,38.0620204 52.55264,38.28496 C53.3416886,38.5721019 53.8774394,39.3094792 53.90672,40.14864 C53.94704,40.62688 53.9336,44.24672 53.91456,47.50032 L54.47456,47.50032 C55.0931189,47.50032 55.59456,48.0017611 55.59456,48.62032 C55.59456,49.2388789 55.0931189,49.74032 54.47456,49.74032 L54.47232,49.74032 Z" id="Shape" fill="#FF7CB9"></path>
                    <path d="M44.96352,49.3024 L42.99568,39.46208 C42.0430129,34.7569238 37.9122998,31.3709092 33.11168,31.36 L27.888,31.36 L27.34144,29.17488 C29.9784754,27.2912034 31.7880029,24.463591 32.39376,21.28 L35.97776,21.28 C37.2148778,21.28 38.21776,20.2771178 38.21776,19.04 L38.21776,14.56 C38.21776,13.3228822 37.2148778,12.32 35.97776,12.32 L35.92624,12.32 C35.392,5.432 30.05968,0 23.56368,0 L21.5096,0 C15.0136,0 9.67792,5.432 9.14928,12.32 L9.09664,12.32 C7.85952216,12.32 6.85664,13.3228822 6.85664,14.56 L6.85664,19.04 C6.8590424,19.836686 7.28587858,20.5716979 7.97664,20.96864 L7.97664,22.4 C7.97664,24.2556768 9.48096324,25.76 11.33664,25.76 L14.47264,25.76 C15.3330844,27.093251 16.4377491,28.251876 17.72848,29.17488 L17.18304,31.36 L11.96272,31.36 C7.1619446,31.3704755 3.03099231,34.7566861 2.07872,39.46208 L0.112,49.3024 C-0.216694978,50.946886 0.208910593,52.6521238 1.2718037,53.9492873 C2.33469682,55.2464507 3.92298667,55.9989873 5.6,56 L39.47216,56 C41.1497617,56 42.7389957,55.247885 43.8026508,53.9505859 C44.866306,52.6532867 45.2923299,50.9474627 44.96352,49.3024 Z M14.69664,14.56 C14.69664,10.2300876 18.2067276,6.72 22.53664,6.72 C26.8665524,6.72 30.37664,10.2300876 30.37664,14.56 L30.37664,15.31488 L27.37056,14.45584 C25.594694,13.9489371 24.1835119,12.5981085 23.59952,10.84608 C23.4484504,10.3864605 23.01933,10.0757999 22.53552,10.0757999 C22.05171,10.0757999 21.6225896,10.3864605 21.47152,10.84608 C20.8875281,12.5981085 19.476346,13.9489371 17.70048,14.45584 L14.69328,15.31488 L14.69664,14.56 Z M35.97664,19.04 L32.61664,19.04 L32.61664,14.56 L35.97664,14.56 L35.97664,19.04 Z M21.5096,2.24 L23.56368,2.24 C28.82768,2.24 33.17328,6.66848 33.68512,12.32 L32.35792,12.32 C31.3160211,7.734523 27.2395561,4.48039572 22.5372,4.48039572 C17.8348439,4.48039572 13.7583789,7.734523 12.71648,12.32 L11.38816,12.32 C11.90112,6.66848 16.24,2.24 21.5096,2.24 Z M9.09664,14.56 L12.45664,14.56 L12.45664,19.04 L9.09664,19.04 L9.09664,14.56 Z M11.33664,23.52 C10.7180811,23.52 10.21664,23.0185589 10.21664,22.4 L10.21664,21.28 L12.68064,21.28 C12.8236751,22.0449333 13.0377765,22.7948507 13.32016,23.52 L11.33664,23.52 Z M17.28384,25.76 L22.53664,25.76 C23.1551989,25.76 23.65664,25.2585589 23.65664,24.64 C23.65664,24.0214411 23.1551989,23.52 22.53664,23.52 L15.76176,23.52 C15.0625877,22.1124359 14.6980687,20.5623677 14.69664,18.99072 L14.69664,17.64672 L18.31872,16.61184 C20.0201332,16.125987 21.5068587,15.0782521 22.53664,13.63936 C23.5672099,15.0779494 25.0541651,16.1255679 26.75568,16.61184 L30.37664,17.64672 L30.37664,18.99072 C30.3632408,23.2652404 27.7137399,27.0882381 23.716,28.60144 C22.9557825,28.8853896 22.1186175,28.8853896 21.3584,28.60144 C19.7868273,28.0045073 18.3871425,27.0284215 17.28384,25.76 L17.28384,25.76 Z M20.57104,30.6992 C21.8383835,31.1742632 23.2348965,31.1742632 24.50224,30.6992 L24.50224,30.6992 C24.78448,30.59392 25.06224,30.4752 25.32992,30.35088 L25.77792,32.13616 L22.53776,35.37632 L19.2976,32.13616 L19.7456,30.35088 C20.0144,30.47632 20.28992,30.59392 20.57104,30.6992 L20.57104,30.6992 Z M2.3072,49.7392 L4.27504,39.9 C5.01611252,36.240688 8.22912994,33.6076426 11.96272,33.6 L17.59296,33.6 L21.41664,37.42368 L21.41664,53.76 L5.6,53.76 C4.593792,53.7593924 3.64081809,53.3078704 3.00308222,52.5295724 C2.36534636,51.7512743 2.10998301,50.7281316 2.3072,49.74144 L2.3072,49.7392 Z M39.47216,53.76 L23.65664,53.76 L23.65664,37.42368 L27.48032,33.6 L33.11168,33.6 C36.8459581,33.6078595 40.0592155,36.2420377 40.79936,39.90224 L42.7672,49.74144 C42.9644936,50.7285161 42.7088514,51.7520496 42.0706075,52.5304381 C41.4323636,53.3088267 40.4787602,53.76 39.47216,53.76 Z" id="Shape" fill="#151A6A"></path>
                </g>
            </g>
        </g>
    </g>
</svg>