<?xml version="1.0" encoding="UTF-8"?>
<svg width="29px" height="29px" viewBox="0 0 29 29" version="1.1" xmlns="http://www.w3.org/2000/svg" xmlns:xlink="http://www.w3.org/1999/xlink">
    <title>search (1)</title>
    <defs>
        <filter x="-2.1%" y="-17.9%" width="104.2%" height="142.9%" filterUnits="objectBoundingBox" id="filter-1">
            <feOffset dx="0" dy="0" in="SourceAlpha" result="shadowOffsetOuter1"></feOffset>
            <feGaussianBlur stdDeviation="2" in="shadowOffsetOuter1" result="shadowBlurOuter1"></feGaussianBlur>
            <feColorMatrix values="0 0 0 0 0   0 0 0 0 0   0 0 0 0 0  0 0 0 0.142182037 0" type="matrix" in="shadowBlurOuter1" result="shadowMatrixOuter1"></feColorMatrix>
            <feMerge>
                <feMergeNode in="shadowMatrixOuter1"></feMergeNode>
                <feMergeNode in="SourceGraphic"></feMergeNode>
            </feMerge>
        </filter>
    </defs>
    <g id="Final-UI" stroke="none" stroke-width="1" fill="none" fill-rule="evenodd" opacity="0.839913504">
        <g id="website-home-copy" transform="translate(-663.000000, -442.000000)" fill="#000000" fill-rule="nonzero">
            <g id="Group-20" transform="translate(134.000000, 163.000000)">
                <g id="Group-2" filter="url(#filter-1)" transform="translate(2.000000, 265.000000)">
                    <g id="search-(1)" transform="translate(533.000000, 20.000000)">
                        <path d="M16.689717,15.694371 L11.884917,10.889571 C12.815616,9.73995 13.375989,8.279139 13.375989,6.68811 C13.375989,3.000558 10.37553,9.9e-05 6.687978,9.9e-05 C3.000426,9.9e-05 0,3.000525 0,6.688077 C0,10.375629 3.000459,13.376088 6.688011,13.376088 C8.27904,13.376088 9.739851,12.815715 10.889472,11.885016 L15.694272,16.689816 C15.831552,16.827096 16.011765,16.896099 16.192011,16.896099 C16.372257,16.896099 16.55247,16.827096 16.68975,16.689816 C16.965003,16.414563 16.965003,15.969624 16.689717,15.694371 Z M6.688011,11.968077 C3.776256,11.968077 1.408011,9.599832 1.408011,6.688077 C1.408011,3.776322 3.776256,1.408077 6.688011,1.408077 C9.599766,1.408077 11.968011,3.776322 11.968011,6.688077 C11.968011,9.599832 9.599733,11.968077 6.688011,11.968077 Z" id="Shape"></path>
                    </g>
                </g>
            </g>
        </g>
    </g>
</svg>