<?xml version="1.0" encoding="UTF-8"?>
<svg width="25px" height="21px" viewBox="0 0 25 21" version="1.1" xmlns="http://www.w3.org/2000/svg" xmlns:xlink="http://www.w3.org/1999/xlink">
    <title>Group 44</title>
    <g id="Insights" stroke="none" stroke-width="1" fill="none" fill-rule="evenodd">
        <g id="insights-home" transform="translate(-546.000000, -1853.000000)" fill="#FF008E" fill-rule="nonzero">
            <g id="Group-44" transform="translate(546.000000, 1853.000000)">
                <g id="noun_Share_1227066-Copy-11">
                    <path d="M19.852407,18.7163997 L19.852407,20.0762965 C19.852407,20.6664404 19.3347432,21 18.7394298,21 L0.983561232,21 C0.388247855,21 0,20.6664404 0,20.0762965 L0,6.759571 C0,6.1694271 0.388247855,5.63060005 0.983561232,5.63060005 L4.16719364,5.63060005 C4.76250702,5.63060005 5.25428764,6.11811024 5.25428764,6.70825414 C5.25428764,7.29839805 4.76250702,7.78590823 4.16719364,7.78590823 L2.17418799,7.78590823 L2.17418799,18.8446918 L17.678219,18.8446918 L17.678219,18.7163997 C17.678219,18.1262558 18.1699996,17.6387456 18.765313,17.6387456 C19.3606264,17.6387456 19.852407,18.1262558 19.852407,18.7163997 Z M24.6925636,8.65829487 L17.9370509,15.4834374 C17.6264526,15.7913386 17.134672,15.8939723 16.720541,15.7143633 C16.3064099,15.5347543 16.0216948,15.1498778 16.0216948,14.7136845 L16.0216948,11.762965 C13.8475068,11.7116481 8.61910238,11.9169156 6.72962948,15.2525115 C6.52256396,15.6117296 6.1601993,15.816997 5.77195144,15.816997 C5.66841868,15.816997 5.59076911,15.816997 5.48723635,15.7913386 C4.99545573,15.6630464 4.65897426,15.2268531 4.65897426,14.7393429 C4.65897426,14.5597339 4.68485745,10.4030682 7.79084029,7.29839805 C9.78384594,5.32269889 12.4498145,4.21938637 15.9699284,4.03977736 L15.9699284,1.08905783 C15.9699284,0.652864513 16.2546435,0.242329623 16.6687746,0.0883790388 C17.0829056,-0.0912299756 17.548803,0.0114037469 17.8594013,0.319304914 L24.6666804,7.14444746 C25.1066946,7.55498235 25.1066946,8.24775998 24.6925636,8.65829487 Z" id="Shape"></path>
                </g>
            </g>
        </g>
    </g>
</svg>