<?xml version="1.0" encoding="UTF-8"?>
<svg width="464px" height="110px" viewBox="0 0 464 110" version="1.1" xmlns="http://www.w3.org/2000/svg" xmlns:xlink="http://www.w3.org/1999/xlink">
    <title>Group 29</title>
    <defs>
        <linearGradient x1="50%" y1="0%" x2="50%" y2="29.001139%" id="linearGradient-1">
            <stop stop-color="#F7F8FF" stop-opacity="0" offset="0%"></stop>
            <stop stop-color="#F1F3FE" offset="100%"></stop>
        </linearGradient>
    </defs>
    <g id="Final-UI" stroke="none" stroke-width="1" fill="none" fill-rule="evenodd">
        <g id="website-home" transform="translate(-129.000000, -3270.000000)">
            <g id="Group-3" transform="translate(129.000000, 3112.000000)">
                <g id="Group-29" transform="translate(0.000000, 158.572000)">
                    <path d="M38.352,53.428 L38.352,14.136 L52.488,14.136 L52.488,2.736 L11.068,2.736 L11.068,14.136 L25.28,14.136 L25.28,53.428 L38.352,53.428 Z M76.048,54.34 C81.672,54.34 87.752,52.744 91.4,49.476 L86.46,42.18 C84.408,44.156 79.924,45.296 77.34,45.296 C72.02,45.296 68.828,42.18 68.144,38.76 L94.288,38.76 L94.288,36.252 C94.288,23.788 86.384,15.808 75.516,15.808 C64.04,15.808 55.984,24.396 55.984,35.036 C55.984,46.968 64.724,54.34 76.048,54.34 Z M83.116,31.16 L67.992,31.16 C68.448,28.5 70.424,24.852 75.516,24.852 C80.912,24.852 82.812,28.576 83.116,31.16 Z M114.124,54.34 C124.688,54.34 130.844,49.172 130.844,42.18 C130.844,27.132 109.488,31.312 109.488,27.056 C109.488,25.536 111.388,24.396 114.124,24.396 C118.532,24.396 122.712,26.296 124.916,28.424 L129.4,20.672 C125.448,17.784 120.204,15.808 114.048,15.808 C103.864,15.808 98.316,21.432 98.316,27.892 C98.316,42.636 119.672,37.924 119.672,42.712 C119.672,44.384 118.228,45.524 114.732,45.524 C110.4,45.524 104.548,43.092 101.812,40.66 L96.948,48.716 C100.824,52.136 107.588,54.34 114.124,54.34 Z M150.756,54.34 C155.088,54.34 157.976,53.276 159.42,51.908 L157.14,43.092 C156.76,43.548 155.468,44.004 154.176,44.004 C152.124,44.004 150.908,42.408 150.908,40.28 L150.908,26.904 L158.356,26.904 L158.356,16.72 L150.908,16.72 L150.908,6.688 L139.28,6.688 L139.28,16.72 L133.2,16.72 L133.2,26.904 L139.28,26.904 L139.28,43.548 C139.28,50.616 143.308,54.34 150.756,54.34 Z M170.06,13.452 C173.784,13.452 176.748,10.412 176.748,6.688 C176.748,2.964 173.784,6.75015599e-14 170.06,6.75015599e-14 C166.336,6.75015599e-14 163.372,2.964 163.372,6.688 C163.372,10.412 166.336,13.452 170.06,13.452 Z M175.912,53.428 L175.912,16.72 L164.208,16.72 L164.208,53.428 L175.912,53.428 Z M196.128,53.428 L196.128,29.716 C197.344,28.196 199.548,26.144 202.664,26.144 C206.236,26.144 207.528,28.272 207.528,31.084 L207.528,53.428 L219.232,53.428 L219.232,29.716 C220.372,28.196 222.652,26.144 225.844,26.144 C229.34,26.144 230.708,28.272 230.708,31.084 L230.708,53.428 L242.336,53.428 L242.336,26.828 C242.336,19.304 238.08,15.808 231.316,15.808 C225.54,15.808 220.752,19.152 218.624,22.344 C217.104,18.012 213.456,15.808 208.212,15.808 C202.436,15.808 197.724,19.076 196.128,21.204 L196.128,16.72 L184.424,16.72 L184.424,53.428 L196.128,53.428 Z M268.48,54.34 C281.096,54.34 288.544,45.372 288.544,35.036 C288.544,24.7 281.096,15.808 268.48,15.808 C256.016,15.808 248.492,24.7 248.492,35.036 C248.492,45.372 256.016,54.34 268.48,54.34 Z M268.48,44.004 C263.388,44.004 260.576,39.976 260.576,35.036 C260.576,30.172 263.388,26.144 268.48,26.144 C273.648,26.144 276.536,30.172 276.536,35.036 C276.536,39.976 273.648,44.004 268.48,44.004 Z M306.404,53.428 L306.404,29.716 C307.772,28.044 310.052,26.144 313.548,26.144 C317.196,26.144 319.552,27.74 319.552,32.224 L319.552,53.428 L331.256,53.428 L331.256,27.436 C331.256,20.672 327.456,15.808 319.096,15.808 C312.94,15.808 308.608,18.62 306.404,21.204 L306.404,16.72 L294.7,16.72 L294.7,53.428 L306.404,53.428 Z M345.62,13.452 C349.344,13.452 352.308,10.412 352.308,6.688 C352.308,2.964 349.344,6.75015599e-14 345.62,6.75015599e-14 C341.896,6.75015599e-14 338.932,2.964 338.932,6.688 C338.932,10.412 341.896,13.452 345.62,13.452 Z M351.472,53.428 L351.472,16.72 L339.768,16.72 L339.768,53.428 L351.472,53.428 Z M370.244,54.34 C374.956,54.34 379.364,52.516 381.644,49.78 L381.644,53.428 L393.348,53.428 L393.348,30.476 C393.348,19.076 385.064,15.808 376.248,15.808 C370.624,15.808 364.316,17.48 359.604,21.508 L363.784,28.88 C366.748,26.372 370.548,25.004 374.196,25.004 C378.908,25.004 381.644,27.132 381.644,30.324 L381.644,34.732 C379.44,31.996 375.108,30.476 370.244,30.476 C364.62,30.476 357.628,33.364 357.628,42.256 C357.628,50.54 364.62,54.34 370.244,54.34 Z M375.108,46.664 C371.992,46.664 369.256,45.296 369.256,42.408 C369.256,39.52 371.992,38.152 375.108,38.152 C377.692,38.152 380.428,39.064 381.644,40.736 L381.644,44.004 C380.428,45.752 377.692,46.664 375.108,46.664 Z M413.564,53.428 L413.564,2.736 L401.86,2.736 L401.86,53.428 L413.564,53.428 Z M436.136,54.34 C446.7,54.34 452.856,49.172 452.856,42.18 C452.856,27.132 431.5,31.312 431.5,27.056 C431.5,25.536 433.4,24.396 436.136,24.396 C440.544,24.396 444.724,26.296 446.928,28.424 L451.412,20.672 C447.46,17.784 442.216,15.808 436.06,15.808 C425.876,15.808 420.328,21.432 420.328,27.892 C420.328,42.636 441.684,37.924 441.684,42.712 C441.684,44.384 440.24,45.524 436.744,45.524 C432.412,45.524 426.56,43.092 423.824,40.66 L418.96,48.716 C422.836,52.136 429.6,54.34 436.136,54.34 Z" id="Testimonials" fill="#303030" fill-rule="nonzero" opacity="0.100000001"></path>
                    <rect id="Rectangle" fill="url(#linearGradient-1)" x="0" y="29.428" width="464" height="79"></rect>
                </g>
            </g>
        </g>
    </g>
</svg>