<?xml version="1.0" encoding="UTF-8"?>
<svg width="50px" height="50px" viewBox="0 0 50 50" version="1.1" xmlns="http://www.w3.org/2000/svg" xmlns:xlink="http://www.w3.org/1999/xlink">
    <title>globe</title>
    <g id="Final-UI" stroke="none" stroke-width="1" fill="none" fill-rule="evenodd">
        <g id="website-home" transform="translate(-136.000000, -2085.000000)" fill-rule="nonzero">
            <g id="Group-37" transform="translate(136.000000, 2053.000000)">
                <g id="globe" transform="translate(0.000000, 32.000000)">
                    <path d="M47.3,32 L29.7,32 C27.490861,32 25.7,33.790861 25.7,36 C25.7046966,36.2688037 25.7341545,36.5366027 25.788,36.8 L42.5,36.8 C42.9418278,36.8 43.3,37.1581722 43.3,37.6 C43.3,38.0418278 42.9418278,38.4 42.5,38.4 L13.588,38.4 C11.5904364,38.3920379 9.91187601,39.8991036 9.7053403,41.8859772 C9.49880459,43.8728507 10.8315072,45.6929375 12.788,46.096 L29.54,49.6 C29.6453162,49.6240038 29.7546838,49.6240038 29.86,49.6 L47.788,45.864 C48.9083316,45.6313729 49.7086403,44.6401956 49.7000693,43.496 L49.7000693,34.4 C49.7000693,33.0745166 48.6254834,32 47.3,32 L47.3,32 Z" id="Path" fill="#FF7AC4"></path>
                    <path d="M12.1,27.2 L29.699999,27.2 C31.909139,27.2 33.699999,25.409139 33.699999,23.2 C33.6953034,22.9311963 33.6658455,22.6633973 33.612,22.4 L16.9,22.4 C16.4581722,22.4 16.1,22.0418278 16.1,21.6 C16.1,21.1581722 16.4581722,20.8 16.9,20.8 L45.812,20.8 C47.8095636,20.8079621 49.488124,19.3008964 49.6946597,17.3140228 C49.9011954,15.3271493 48.5684928,13.5070625 46.612,13.104 L29.86,9.6 C29.7546838,9.5759962 29.6453162,9.5759962 29.54,9.6 L11.612,13.352 C10.4975814,13.5834327 9.69898661,14.5658046 9.69999904,15.704 L9.69999904,24.8 C9.69999904,26.1254834 10.7745166,27.2 12.1,27.2 Z" id="Path" fill="#FF7AC4"></path>
                    <path d="M28.212,1.72 L28.1,1.68 C25.5792206,0.569632559 22.8544942,-0.00255998289 20.1,-8.5521439e-06 C9.86126768,-0.0011692612 1.27513541,7.73043995 0.206872731,17.913291 C-0.861389949,28.0961421 5.93325075,37.4413176 15.9493104,39.5650384 C25.9653701,41.6887591 35.9678026,35.9050931 39.1238501,26.1649184 C42.2798977,16.4247436 37.5702013,5.87399912 28.212,1.72 Z M38.5000094,20 C38.5013387,21.3128952 38.359161,22.6220033 38.076,23.904 C36.6893562,23.4999774 35.3271054,23.0165119 33.996,22.456 C32.8052876,21.9409373 31.7925299,21.0867709 31.084,20 C29.98,18.56 28.844,17.08 25.572,17.6 C23.6663834,17.966075 21.7006616,17.3980677 20.284,16.072 C19.994322,15.8099678 19.7790516,15.4760227 19.66,15.104 C21.556,14.16 22.42,12.36 24.06,7.448 C25.244,3.896 27.124,3.328 27.684,3.232 C34.2700961,6.21147688 38.5014396,12.7713112 38.5000094,20 L38.5000094,20 Z M1.69997718,20 C1.69472197,16.6613969 2.60506462,13.3852701 4.332,10.528 C5.932,11.136 10.94,13.528 9.716,19.04 C9.372,20.768 9.668,22.112 10.588,23.04 C11.812,24.256 14.044,24.584 17.06,23.984 C18.204,23.752 18.532,24.304 18.66,24.736 C19.0491248,26.6704611 18.1980796,28.6434833 16.524,29.688 C15.7709414,29.9506704 15.2521426,30.6434565 15.212,31.44 C15.212,32.296 15.868,33.096 17.068,33.696 C18.908,34.616 21.788,34.928 23.764,33.44 C24.2164485,33.0854996 24.7970431,32.937448 25.364,33.032 C26.86,33.264 28.468,34.84 29.364,35.872 C26.5573831,37.5273572 23.3584208,38.4003037 20.1,38.4000001 C9.9379606,38.4000001 1.69997718,30.1620394 1.69997718,20 L1.69997718,20 Z M30.732,35 C29.932,33.976 27.876,31.8 25.652,31.448 C24.649962,31.2786814 23.6228186,31.536918 22.82,32.16 C21.476,33.168 19.244,32.96 17.828,32.28 C17.068,31.904 16.828,31.536 16.828,31.48 C16.828,31.424 16.884,31.336 17.26,31.144 C19.6524643,29.7447658 20.8428767,26.9411168 20.188,24.248 C19.7453442,22.7862282 18.2023437,21.9592372 16.74,22.4 C14.34,22.88 12.524,22.688 11.724,21.888 C11.196,21.368 11.052,20.512 11.284,19.36 C12.54,13.68 8.292,10.392 5.244,9.144 C9.88858735,2.77632354 18.0729181,0.073950166 25.596,2.424 C24.1047858,3.54369342 23.0294246,5.12858434 22.54,6.928 C20.94,11.64 20.236,13.024 18.94,13.672 C18.1936547,14.0542373 17.8690237,14.947845 18.196,15.72 C18.788,17.552 21.852,19.832 25.828,19.176 C28.156,18.792 28.78,19.6 29.828,20.936 C30.7093058,22.2610527 31.9574704,23.3007266 33.42,23.928 C34.8149869,24.5197999 36.2442209,25.0273783 37.7,25.448 C36.4881907,29.3102343 34.0397196,32.6666919 30.732,35 Z" id="Shape" fill="#151A6A"></path>
                </g>
            </g>
        </g>
    </g>
</svg>