<?xml version="1.0" encoding="UTF-8"?>
<svg width="50px" height="50px" viewBox="0 0 50 50" version="1.1" xmlns="http://www.w3.org/2000/svg" xmlns:xlink="http://www.w3.org/1999/xlink">
    <title>Group 5</title>
    <g id="Final-UI" stroke="none" stroke-width="1" fill="none" fill-rule="evenodd">
        <g id="course-page" transform="translate(-558.000000, -3117.000000)" fill-rule="nonzero">
            <g id="Group-5" transform="translate(558.000000, 3117.000000)">
                <polygon id="Path" fill="#CFA4BD" points="42.768 16.304112 42.768 22.176 48.639888 22.176"></polygon>
                <path d="M41.976,23.76 C41.5385905,23.76 41.184,23.4054095 41.184,22.968 L41.184,15.84 L24.552,15.84 C23.2397714,15.84 22.176,16.9037714 22.176,18.216 L22.176,46.728 C22.176,48.0402286 23.2397714,49.104 24.552,49.104 L46.728,49.104 C48.0402286,49.104 49.104,48.0402286 49.104,46.728 L49.104,23.76 L41.976,23.76 Z M26.928,22.176 L36.432,22.176 C36.8694095,22.176 37.224,22.5305905 37.224,22.968 C37.224,23.4054095 36.8694095,23.76 36.432,23.76 L26.928,23.76 C26.4905905,23.76 26.136,23.4054095 26.136,22.968 C26.136,22.5305905 26.4905905,22.176 26.928,22.176 Z M44.352,42.768 L26.928,42.768 C26.4905905,42.768 26.136,42.4134095 26.136,41.976 C26.136,41.5385905 26.4905905,41.184 26.928,41.184 L44.352,41.184 C44.7894095,41.184 45.144,41.5385905 45.144,41.976 C45.144,42.4134095 44.7894095,42.768 44.352,42.768 Z M44.352,36.432 L26.928,36.432 C26.4905905,36.432 26.136,36.0774095 26.136,35.64 C26.136,35.2025905 26.4905905,34.848 26.928,34.848 L44.352,34.848 C44.7894095,34.848 45.144,35.2025905 45.144,35.64 C45.144,36.0774095 44.7894095,36.432 44.352,36.432 Z M44.352,30.096 L26.928,30.096 C26.4905905,30.096 26.136,29.7414095 26.136,29.304 C26.136,28.8665905 26.4905905,28.512 26.928,28.512 L44.352,28.512 C44.7894095,28.512 45.144,28.8665905 45.144,29.304 C45.144,29.7414095 44.7894095,30.096 44.352,30.096 Z" id="Shape" fill="#FF66BD"></path>
                <path d="M32.053032,14.954544 L29.304,9.801 L29.304,7.92 C29.304,6.60777143 28.2402286,5.544 26.928,5.544 L26.136,5.544 L26.136,2.376 C26.136,1.06377143 25.0722286,-3.83693077e-14 23.76,-3.83693077e-14 L9.504,-3.83693077e-14 C8.19177143,-3.83693077e-14 7.128,1.06377143 7.128,2.376 L7.128,5.544 L6.336,5.544 C5.02377143,5.544 3.96,6.60777143 3.96,7.92 L3.96,9.801 L1.210968,14.954544 C0.417449465,16.4464831 0.0016656194,18.1101624 1.27897692e-14,19.8 L1.27897692e-14,30.096 C1.27897692e-14,31.4082286 1.06377143,32.472 2.376,32.472 L30.888,32.472 C32.2002286,32.472 33.264,31.4082286 33.264,30.096 L33.264,19.8 C33.2623344,18.1101624 32.8465505,16.4464831 32.053032,14.954544 Z M29.304,13.167 L30.655152,15.7014 C30.942872,16.2496211 31.1709528,16.8271249 31.33548,17.424 L29.304,17.424 L29.304,13.167 Z M8.712,2.376 C8.712,1.93859048 9.06659048,1.584 9.504,1.584 L23.76,1.584 C24.1974095,1.584 24.552,1.93859048 24.552,2.376 L24.552,5.544 L8.712,5.544 L8.712,2.376 Z M5.544,7.92 C5.544,7.48259048 5.89859048,7.128 6.336,7.128 L26.928,7.128 C27.3654095,7.128 27.72,7.48259048 27.72,7.92 L27.72,17.424 L22.968,17.424 C22.7579657,17.4240449 22.5565502,17.5075169 22.408056,17.656056 L20.264112,19.8 L13.017312,19.8 L10.8504,17.65368 C10.7028816,17.5073626 10.5037732,17.4248749 10.296,17.424 L5.544,17.424 L5.544,7.92 Z M3.96,13.167 L3.96,17.424 L1.92852,17.424 C2.09294018,16.8265816 2.32102309,16.2485414 2.608848,15.699816 L3.96,13.167 Z M31.68,30.096 C31.68,30.5334095 31.3254095,30.888 30.888,30.888 L2.376,30.888 C1.93859048,30.888 1.584,30.5334095 1.584,30.096 L1.584,19.8 C1.584,19.3625905 1.93859048,19.008 2.376,19.008 L9.969696,19.008 L12.13344,21.15432 C12.2809584,21.3006374 12.4800668,21.3831251 12.68784,21.384 L20.592,21.384 C20.8020343,21.3839551 21.0034498,21.3004831 21.151944,21.151944 L23.295888,19.008 L30.888,19.008 C31.3254095,19.008 31.68,19.3625905 31.68,19.8 L31.68,30.096 Z" id="Shape" fill="#151A6A"></path>
                <path d="M19.8,25.344 L13.464,25.344 C13.0265905,25.344 12.672,25.6985905 12.672,26.136 C12.672,26.5734095 13.0265905,26.928 13.464,26.928 L19.8,26.928 C20.2374095,26.928 20.592,26.5734095 20.592,26.136 C20.592,25.6985905 20.2374095,25.344 19.8,25.344 Z" id="Path" fill="#151A6A"></path>
            </g>
        </g>
    </g>
</svg>