<?xml version="1.0" encoding="UTF-8"?>
<svg width="28px" height="28px" viewBox="0 0 28 28" version="1.1" xmlns="http://www.w3.org/2000/svg" xmlns:xlink="http://www.w3.org/1999/xlink">
    <title>productivity</title>
    <g id="Final-UI" stroke="none" stroke-width="1" fill="none" fill-rule="evenodd">
        <g id="website-home-copy-2" transform="translate(-324.000000, -209.000000)" fill-rule="nonzero">
            <g id="Group-28" transform="translate(315.000000, 76.000000)">
                <g id="productivity" transform="translate(9.000000, 133.000000)">
                    <g id="Group" transform="translate(5.005000, 5.445000)" fill="#FF7CB9">
                        <path d="M3.02368,11.363 L10.923,11.363 C11.1660053,11.363 11.363,11.1660053 11.363,10.923 L11.363,3.02368 C15.6147602,3.25834216 18.9188914,6.81476179 18.8406354,11.0722736 C18.7623795,15.3297854 15.3297854,18.7623795 11.0722736,18.8406354 C6.81476179,18.9188914 3.25834216,15.6147602 3.02368,11.363 L3.02368,11.363 Z" id="Path"></path>
                        <path d="M10.483,3.02368 L10.483,10.483 L3.02368,10.483 C3.25152401,6.46148527 6.46148527,3.25152401 10.483,3.02368 L10.483,3.02368 Z" id="Path"></path>
                        <path d="M20.95192,10.4830128 L20.49696,10.4830128 C20.0562014,10.481422 19.6845958,10.1540103 19.62752,9.71696 C19.0848676,5.82125659 16.0228879,2.75873797 12.12728,2.2154 C11.6904043,2.15812285 11.3632287,1.78657171 11.3616655,1.34596 L11.3616655,0.891 C11.3602388,0.639848441 11.4665541,0.400133403 11.6536795,0.232612435 C11.8408049,0.0650914668 12.0907775,-0.0141545039 12.34024,0.01496 C17.2855263,0.665942122 21.1769779,4.55739373 21.82796,9.50268 C21.8574723,9.75239564 21.7784217,10.0027715 21.6108695,10.1902684 C21.4433172,10.3777654 21.2033699,10.4843596 20.95192,10.4830128 L20.95192,10.4830128 Z" id="Path"></path>
                        <path d="M0.891,11.3629864 L1.34596,11.3629864 C1.78657171,11.3645487 2.15812285,11.6917243 2.2154,12.1286 C2.75913588,16.0232765 5.82086781,19.0844696 9.71564,19.62752 C10.1532139,19.6839908 10.4813344,20.0557604 10.483012,20.49696 L10.483012,20.95192 C10.4843138,21.2031112 10.3778973,21.4428177 10.1907055,21.6103228 C10.0035137,21.7778279 9.75350291,21.8570637 9.504,21.82796 C4.55820008,21.1775288 0.666079209,17.2859494 0.01496,12.34024 C-0.0137466188,12.0909905 0.0656842178,11.8413826 0.23315811,11.6545622 C0.400632001,11.4677417 0.640106724,11.3616041 0.891,11.3629864 L0.891,11.3629864 Z" id="Path"></path>
                        <path d="M12.12728,19.62752 C16.02247,19.0843258 19.0843258,16.02247 19.62752,12.12728 C19.6847972,11.6904043 20.0563483,11.3632287 20.49696,11.3616655 L20.95192,11.3616655 C21.2030716,11.3602388 21.4427866,11.4665541 21.6103076,11.6536795 C21.7778285,11.8408049 21.8570745,12.0907775 21.82796,12.34024 C21.1769779,17.2855263 17.2855263,21.1769779 12.34024,21.82796 C12.0909905,21.8566666 11.8413826,21.7772358 11.6545622,21.6097619 C11.4677417,21.442288 11.3616041,21.2028133 11.3629864,20.95192 L11.3629864,20.49696 C11.36446,20.0567883 11.690928,19.6854005 12.12728,19.62752 L12.12728,19.62752 Z" id="Path"></path>
                    </g>
                    <path d="M-3.12638804e-15,4.5804 L-3.12638804e-15,6.4196 C-3.12638804e-15,6.66260529 0.19699471,6.8596 0.44,6.8596 L1.60776,6.8596 C1.65782032,7.00555167 1.71659259,7.14836828 1.78376,7.28728 L0.95876,8.11492 C0.787284985,8.28668943 0.787284985,8.56487057 0.95876,8.73664 L1.81852,9.59816 C1.74220977,12.8116154 3.37352496,15.8251287 6.10588,17.51816 L6.10588,21.56 C6.10588,21.8030053 6.30287471,22 6.54588,22 L15.12588,22 C15.3688853,22 15.56588,21.8030053 15.56588,21.56 L15.56588,17.7012 L18.5394,17.7012 C19.2684159,17.7012 19.8594,17.1102159 19.8594,16.3812 L19.8594,11.2552 L21.56,11.2552 C21.7159911,11.2551373 21.8602884,11.1724869 21.9392643,11.0379654 C22.0182402,10.903444 22.0200877,10.7371629 21.94412,10.60092 L20.70068,8.37056 C19.56372,6.33072 19.65788,5.33456 17.97576,3.48656 L17.96388,3.476 C15.140201,0.367993008 10.5794291,-0.452620926 6.84948,1.4762 L6.84948,0.44 C6.84948,0.19699471 6.65248529,-1.25055521e-14 6.40948,-1.25055521e-14 L4.576,-1.25055521e-14 C4.33299471,-1.25055521e-14 4.136,0.19699471 4.136,0.44 L4.136,1.61084 C3.99051874,1.66100817 3.84814773,1.71977845 3.70964,1.78684 L2.882,0.96096 C2.79945225,0.878203303 2.68736799,0.83169347 2.57048,0.83169347 C2.45359201,0.83169347 2.34150775,0.878203303 2.25896,0.96096 L0.95876,2.26336 C0.787284985,2.43512943 0.787284985,2.71331057 0.95876,2.88508 L1.78508,3.71228 C1.71798913,3.85137635 1.65921898,3.99433473 1.60908,4.1404 L0.44,4.1404 C0.19699471,4.1404 -3.12638804e-15,4.33739471 -3.12638804e-15,4.5804 L-3.12638804e-15,4.5804 Z M2.7038,10.14772 C2.76940297,10.1228112 2.82982277,10.0859626 2.882,10.03904 L3.70744,9.21228 C3.84594773,9.27934155 3.98831874,9.33811183 4.1338,9.38828 L4.1338,10.56 C4.1338,10.8030053 4.33079471,11 4.5738,11 L6.40948,11 C6.65248529,11 6.84948,10.8030053 6.84948,10.56 L6.84948,9.38916 C6.99496126,9.33899183 7.13733227,9.28022155 7.27584,9.21316 L8.10128,10.03992 C8.18382775,10.1226767 8.29591201,10.1691865 8.4128,10.1691865 C8.52968799,10.1691865 8.64177225,10.1226767 8.72432,10.03992 L10.02452,8.73752 C10.195995,8.56575057 10.195995,8.28756943 10.02452,8.1158 L9.1982,7.2886 C9.26510579,7.14942113 9.32387141,7.00647375 9.3742,6.86048 L10.54196,6.86048 C10.7849653,6.86048 10.98196,6.66348529 10.98196,6.42048 L10.98196,4.5804 C10.98196,4.33739471 10.7849653,4.1404 10.54196,4.1404 L9.37552,4.1404 C9.32527002,3.99451987 9.26650233,3.85171439 9.19952,3.71272 L10.02584,2.88508 C10.197315,2.71331057 10.197315,2.43512943 10.02584,2.26336 L9.284,1.5202 C12.2276647,0.87014144 15.2941273,1.84507108 17.32192,4.07572 L17.33556,4.0898 C18.8276,5.7354 18.8518,6.8618 19.93376,8.7978 L20.81376,10.37388 L19.41896,10.37388 C19.1759547,10.37388 18.97896,10.5708747 18.97896,10.81388 L18.97896,16.3812 C18.97896,16.6242053 18.7819653,16.8212 18.53896,16.8212 L15.12456,16.8212 C14.8815547,16.8212 14.68456,17.0181947 14.68456,17.2612 L14.68456,21.12 L6.98456,21.12 L6.98456,17.2612 C6.98455526,17.0950389 6.89094663,16.9430525 6.74256,16.86828 C4.94252,16.04284 2.80852,13.112 2.7038,10.14772 Z M0.88,5.0204 L1.936,5.0204 C2.13592891,5.02035917 2.31069806,4.88553209 2.36148,4.69216 C2.43552684,4.4009459 2.55174191,4.12211869 2.70644,3.86452 C2.81221138,3.69048357 2.784727,3.46660419 2.64,3.32332 L1.892,2.574 L2.57048,1.89464 L3.31848,2.64264 C3.46262617,2.78717889 3.68725478,2.81359507 3.861,2.70644 C4.11793715,2.55198316 4.39600302,2.43577653 4.68644,2.36148 C4.88033601,2.31120268 5.01580225,2.13630834 5.016,1.936 L5.016,0.88 L5.97168,0.88 L5.97168,1.936 C5.97168,2.3364 6.3536,2.36412 6.58284,2.44904 C6.77187966,2.5172252 6.95386413,2.60357572 7.12624,2.70688 C7.30084255,2.80897622 7.5220033,2.78274595 7.66788,2.64264 L8.41588,1.89464 L9.09128,2.574 L8.34328,3.322 C8.19941545,3.46593806 8.17303071,3.6897534 8.27948,3.8632 C8.43399288,4.12089223 8.55019634,4.39969159 8.62444,4.69084 C8.67522194,4.88421209 8.84999109,5.01903917 9.04992,5.01908 L10.10372,5.01908 L10.10372,5.97828 L9.04948,5.97828 C8.84955109,5.97832083 8.67478194,6.11314791 8.624,6.30652 C8.54975634,6.59766841 8.43355288,6.87646777 8.27904,7.13416 C8.17259071,7.3076066 8.19897545,7.53142194 8.34284,7.67536 L9.09084,8.42336 L8.4128,9.10536 L7.6648,8.35736 C7.52065383,8.21282111 7.29602522,8.18640493 7.12228,8.29356 C6.86526386,8.44786072 6.5872214,8.56405757 6.29684,8.63852 C6.10346791,8.68930194 5.96864083,8.86407109 5.9686,9.064 L5.9686,10.12 L5.016,10.12 L5.016,9.064 C5.01595917,8.86407109 4.88113209,8.68930194 4.68776,8.63852 C4.39732302,8.56422347 4.11925715,8.44801684 3.86232,8.29356 C3.68857478,8.18640493 3.46394617,8.21282111 3.3198,8.35736 L2.5718,9.10536 L1.892,8.426 L2.64,7.678 C2.78386455,7.53406194 2.81024929,7.3102466 2.7038,7.1368 C2.54910191,6.87920131 2.43288684,6.6003741 2.35884,6.30916 C2.3088132,6.11621047 2.13532451,5.980994 1.936,5.9796 L0.88,5.9796 L0.88,5.0204 Z" id="Shape" fill="#151A6A"></path>
                    <path d="M3.21552,5.5 C3.21722059,6.75672129 4.2371154,7.77425322 5.49383725,7.77303998 C6.7505591,7.77182457 7.76848559,6.75232356 7.76775792,5.49560133 C7.76702948,4.2388791 6.74792242,3.22055821 5.4912,3.22079996 C4.23400868,3.22322599 3.21600287,4.24280643 3.21552,5.5 Z M4.09551993,5.5 C4.09722032,4.72929018 4.72312478,4.10574792 5.49383552,4.10696003 C6.26454625,4.10817568 6.88848343,4.73368648 6.88775662,5.50439783 C6.88702853,6.27510918 6.26191166,6.89944102 5.4912,6.89920007 C4.71971749,6.89750127 4.09527545,6.27148435 4.09551993,5.5 Z" id="Shape" fill="#151A6A"></path>
                </g>
            </g>
        </g>
    </g>
</svg>