<?xml version="1.0" encoding="UTF-8"?>
<svg width="45px" height="56px" viewBox="0 0 45 56" version="1.1" xmlns="http://www.w3.org/2000/svg" xmlns:xlink="http://www.w3.org/1999/xlink">
    <title>Group 28</title>
    <defs>
        <linearGradient x1="50%" y1="123.136521%" x2="50%" y2="50%" id="linearGradient-1">
            <stop stop-color="#FFE2F2" offset="0%"></stop>
            <stop stop-color="#FFA4D7" offset="100%"></stop>
        </linearGradient>
        <linearGradient x1="50%" y1="100%" x2="50%" y2="0.583235589%" id="linearGradient-2">
            <stop stop-color="#FFC7E6" offset="0%"></stop>
            <stop stop-color="#FFEDF7" offset="100%"></stop>
        </linearGradient>
        <linearGradient x1="50%" y1="100.000196%" x2="50%" y2="3.64381604e-15%" id="linearGradient-3">
            <stop stop-color="#FF008E" offset="0%"></stop>
            <stop stop-color="#FFA4D7" offset="100%"></stop>
        </linearGradient>
        <linearGradient x1="50%" y1="100.000196%" x2="50%" y2="3.64381604e-15%" id="linearGradient-4">
            <stop stop-color="#FF008E" offset="0%"></stop>
            <stop stop-color="#FFA4D7" offset="100%"></stop>
        </linearGradient>
        <linearGradient x1="50%" y1="100.000196%" x2="50%" y2="3.64381604e-15%" id="linearGradient-5">
            <stop stop-color="#FF008E" offset="0%"></stop>
            <stop stop-color="#FFA4D7" offset="100%"></stop>
        </linearGradient>
        <linearGradient x1="50%" y1="100.000196%" x2="50%" y2="3.64381604e-15%" id="linearGradient-6">
            <stop stop-color="#FF008E" offset="0%"></stop>
            <stop stop-color="#FFA4D7" offset="100%"></stop>
        </linearGradient>
        <linearGradient x1="50%" y1="100.000196%" x2="50%" y2="3.64381604e-15%" id="linearGradient-7">
            <stop stop-color="#FF008E" offset="0%"></stop>
            <stop stop-color="#FFA4D7" offset="100%"></stop>
        </linearGradient>
    </defs>
    <g id="Desktop-Course-page" stroke="none" stroke-width="1" fill="none" fill-rule="evenodd">
        <g id="course--modules-copy-4" transform="translate(-228.000000, -5957.000000)" fill-rule="nonzero">
            <g id="Group-28" transform="translate(228.000000, 5957.000000)">
                <g id="certificate-(2)">
                    <g id="diploma-copy">
                        <path d="M31.5,0.2 C31.3389,0.2 31.1792,0.2264 31.0254,0.2776 L22.5,0.2776 L13.9746,0.2776 C13.8208,0.2264 13.6611,0.2 13.5,0.2 L1.5,0.2 C0.6709,0.2 0,0.8709 0,1.7 L0,25.7 C0,26.5291 0.6709,27.2 1.5,27.2 L16.0003,27.2 C15.9952,27.2052 15.9894,27.2094 15.9844,27.2146 L29.0158,27.2146 C29.011,27.2095 29.0058,27.2049 29.0009,27.2 L43.5,27.2 C44.3291,27.2 45,26.5291 45,25.7 L45,1.7 C45,0.8709 44.3291,0.2 43.5,0.2 L31.5,0.2 Z" id="Shape" fill="url(#linearGradient-1)"></path>
                        <path d="M13.5,15.2 L7.5,15.2 C6.6709,15.2 6,15.8709 6,16.7 C6,17.5291 6.6709,18.2 7.5,18.2 L13.5,18.2 C14.3291,18.2 15,17.5291 15,16.7 C15,15.8709 14.3291,15.2 13.5,15.2 Z M37.5,9.2 L7.5,9.2 C6.6709,9.2 6,9.8709 6,10.7 C6,11.5291 6.6709,12.2 7.5,12.2 L37.5,12.2 C38.3291,12.2 39,11.5291 39,10.7 C39,9.8709 38.3291,9.2 37.5,9.2 Z M37.5,15.2 L31.5,15.2 C30.6709,15.2 30,15.8709 30,16.7 C30,17.5291 30.6709,18.2 31.5,18.2 L37.5,18.2 C38.3291,18.2 39,17.5291 39,16.7 C39,15.8709 38.3291,15.2 37.5,15.2 Z" id="Shape" fill="url(#linearGradient-2)"></path>
                    </g>
                </g>
                <g id="Group" transform="translate(15.000000, 12.000000)">
                    <circle id="Oval" fill="url(#linearGradient-3)" cx="14.96176" cy="14.95912" r="7.04"></circle>
                    <path d="M29.45888,8.95488 C28.6401425,6.93261539 26.7635662,5.53442864 24.5916,5.3284 C24.3693316,3.16281318 22.9770621,1.29366949 20.9657733,0.460670678 C18.9544845,-0.372328131 16.648347,-0.0349230495 14.96,1.33936 C13.2716482,-0.0344308599 10.9658403,-0.371541498 8.95486204,0.46140483 C6.94388375,1.29435116 5.55175996,3.16314344 5.32928,5.3284 C3.16400739,5.55123931 1.29540916,6.94372962 0.462821324,8.95491344 C-0.369766513,10.9660973 -0.0321839247,13.2719001 1.342,14.96 C-0.0311617485,16.6485271 -0.367903814,18.9540289 0.464942633,20.9647661 C1.29778908,22.9755032 3.16610435,24.3676712 5.33104,24.59072 C5.55479584,26.7548385 6.9467827,28.6221795 8.95684714,29.4547158 C10.9669116,30.2872521 13.2715874,29.9510092 14.96,28.57888 C16.6483566,29.9521788 18.9538348,30.2889952 20.9645027,29.4561013 C22.9751706,28.6232074 24.3671487,26.7547664 24.58984,24.58984 C26.7547598,24.3671507 28.6232693,22.9753491 29.4564742,20.9648174 C30.2896792,18.9542857 29.9534089,16.6487788 28.58064,14.96 C29.9710943,13.2790334 30.3097183,10.9636324 29.45888,8.95488 L29.45888,8.95488 Z M14.96,23.76 C10.0998942,23.76 6.16,19.8201058 6.16,14.96 C6.16,10.0998942 10.0998942,6.16 14.96,6.16 C19.8201058,6.16 23.76,10.0998942 23.76,14.96 C23.7546651,19.8178943 19.8178943,23.7546651 14.96,23.76 L14.96,23.76 Z" id="Shape" fill="url(#linearGradient-4)"></path>
                    <path d="M13.2,31.42656 L13.2,40.57856 C14.3080392,40.0249835 15.6119608,40.0249835 16.72,40.57856 L16.72,31.42656 C16.1052144,31.2641396 15.5137431,31.0237065 14.96,30.71112 C14.4061271,31.0234376 13.814691,31.2638564 13.2,31.42656 L13.2,31.42656 Z" id="Path" fill="url(#linearGradient-5)"></path>
                    <path d="M7.0399999,30.42336 L7.0399999,42.24 C7.03985783,42.5450239 7.19768046,42.8283678 7.45709277,42.9888198 C7.71650507,43.1492718 8.04050578,43.1639457 8.31336,43.0276 L11.44,41.46296 L11.44,31.66856 C9.88127554,31.7070704 8.34738382,31.2729791 7.0399999,30.42336 Z" id="Path" fill="url(#linearGradient-6)"></path>
                    <path d="M18.48,31.66856 L18.48,41.46296 L21.60576,43.02672 C21.8785482,43.1634141 22.2026772,43.1490473 22.4623016,42.9887543 C22.721926,42.8284613 22.88,42.5451207 22.88,42.24 L22.88,30.42248 C21.5728999,31.2728149 20.0388724,31.7072515 18.48,31.66856 L18.48,31.66856 Z" id="Path" fill="url(#linearGradient-7)"></path>
                </g>
            </g>
        </g>
    </g>
</svg>