<?xml version="1.0" encoding="UTF-8"?>
<svg width="42px" height="42px" viewBox="0 0 42 42" version="1.1" xmlns="http://www.w3.org/2000/svg" xmlns:xlink="http://www.w3.org/1999/xlink">
    <title>business-and-finance (2)</title>
    <g id="Final-UI" stroke="none" stroke-width="1" fill="none" fill-rule="evenodd">
        <g id="course-page" transform="translate(-966.000000, -1096.000000)" fill-rule="nonzero">
            <g id="business-and-finance-(2)" transform="translate(966.000000, 1096.000000)">
                <g id="Group" transform="translate(12.534439, 7.916488)">
                    <path d="M11.8523017,18.5925313 C11.7233841,19.0787011 11.8718754,19.5963934 12.2388901,19.9403134 C12.5362641,20.1653927 12.856436,20.3586456 13.1941463,20.5168976 L13.1941463,17.1833965 C12.4959979,17.325925 11.9605261,17.8882493 11.8523017,18.5925313 Z" id="Path" fill="#C4A2FC"></path>
                    <path d="M14.513561,22.4782074 L14.513561,26.6475577 C15.337237,26.3591541 15.9389669,25.6457213 16.0843241,24.7852039 C16.2835557,23.5964113 15.6522158,22.8878857 14.513561,22.4782074 L14.513561,22.4782074 Z" id="Path" fill="#C4A2FC"></path>
                    <path d="M27.3705969,26.8289772 C23.2903071,12.1636835 18.2666359,10.6364611 18.056849,10.5784068 C17.9769026,10.5583752 17.8943796,10.55059 17.8120976,10.5553171 L17.8120976,8.70813659 C19.4244222,7.6097239 22.7335141,5.01971298 21.5064585,2.96208585 C20.8375153,1.84058341 20.0181588,0.633978732 18.7614164,0.512592585 C18.1019937,0.479400145 17.4528542,0.686093676 16.9340271,1.09445444 C16.6013645,0.425962066 15.9199548,0.00241064 15.1732683,1.1718756e-15 L12.534439,1.1718756e-15 C11.7888598,0.00256196244 11.1083032,0.424879583 10.7749996,1.09181561 C10.2567097,0.68202427 9.60673204,0.475373132 8.94695063,0.510613463 C7.6902082,0.63199961 6.87085171,1.83860429 6.20190849,2.96010673 C4.97419317,5.01773385 8.28328507,7.60774478 9.89626946,8.70615746 L9.89626946,10.5553171 C9.81399813,10.5511273 9.73155433,10.558905 9.65151805,10.5784068 C9.439752,10.6364611 4.4180599,12.1617044 0.337770146,26.8289772 C-0.175193547,28.0439893 -0.0884915581,29.4292672 0.571966244,30.5708371 C1.59979024,32.1732661 3.89952995,32.9853659 7.40719376,32.9853659 L20.3005136,32.9853659 C23.8081774,32.9853659 26.105938,32.1732661 27.1364008,30.5708371 C27.7968586,29.4292672 27.8835606,28.0439893 27.3705969,26.8289772 Z M11.2150244,9.23590244 L16.4926829,9.23590244 L16.4926829,10.5553171 L11.2150244,10.5553171 L11.2150244,9.23590244 Z M17.3852669,25.0029073 C17.1431183,26.5060964 16.0025112,27.7061838 14.513561,28.0243668 L14.513561,29.027122 C14.513561,29.3914682 14.2181999,29.6868293 13.8538537,29.6868293 C13.4895074,29.6868293 13.1941463,29.3914682 13.1941463,29.027122 L13.1941463,28.0989138 C12.2175509,28.0998301 11.2658647,27.7907631 10.4761522,27.2162254 C10.278879,27.0871847 10.1654335,26.8627022 10.1785494,26.6273383 C10.1916654,26.3919745 10.3293501,26.1814865 10.5397392,26.0751633 C10.7501283,25.9688401 11.0012586,25.9828346 11.1985317,26.1118753 C11.7717251,26.5492876 12.4731206,26.7855593 13.1941463,26.7841171 L13.1941463,21.9682537 C12.5636358,21.7167536 11.9686194,21.3840944 11.4241516,20.9786927 C10.666532,20.3326819 10.3315638,19.318621 10.5553171,18.3484396 C10.7809201,17.0175641 11.8542144,15.9931047 13.1941463,15.8296771 L13.1941463,15.1732683 C13.1941463,14.808922 13.4895074,14.513561 13.8538537,14.513561 C14.2181999,14.513561 14.513561,14.808922 14.513561,15.1732683 L14.513561,15.8112053 C15.221214,15.9142242 15.8865596,16.2110497 16.4359481,16.6688248 C16.6953041,16.9167317 16.7089912,17.3264599 16.4667576,17.5911224 C16.2245241,17.855785 15.8151883,17.8783397 15.5453432,17.6418931 C15.2435314,17.4019894 14.8904524,17.2349316 14.513561,17.1537097 L14.513561,21.070392 C16.515113,21.827736 17.7461268,22.8549003 17.3852669,25.0029073 L17.3852669,25.0029073 Z" id="Shape" fill="#FF7CB9"></path>
                </g>
                <path d="M29.3569756,25.7285854 L18.9599883,25.7285854 C19.8536402,24.645316 20.0419561,23.1436364 19.4434614,21.8732466 C18.8449666,20.6028568 17.567139,19.7918936 16.1628293,19.7912195 L6.47568702,19.7912195 C6.19712261,19.0032975 5.45365884,18.4752693 4.61795122,18.4718049 L1.97912195,18.4718049 C0.88608308,18.4718049 0,19.357888 0,20.4509268 L0,31.0062439 C0,32.0992828 0.88608308,32.9853659 1.97912195,32.9853659 L4.61795122,32.9853659 C5.71099009,32.9853659 6.59707317,32.0992828 6.59707317,31.0062439 L6.59707317,30.7542357 L10.6417387,32.7768983 C10.9165778,32.9137578 11.219377,32.985111 11.5264062,32.9853659 L29.3569756,32.9853659 C31.3608802,32.9853659 32.9853659,31.3608802 32.9853659,29.3569756 C32.9853659,27.353071 31.3608802,25.7285854 29.3569756,25.7285854 L29.3569756,25.7285854 Z M5.27765854,31.0062439 C5.27765854,31.3705902 4.98229751,31.6659512 4.61795122,31.6659512 L1.97912195,31.6659512 C1.61477566,31.6659512 1.31941463,31.3705902 1.31941463,31.0062439 L1.31941463,20.4509268 C1.31941463,20.0865805 1.61477566,19.7912195 1.97912195,19.7912195 L4.61795122,19.7912195 C4.98229751,19.7912195 5.27765854,20.0865805 5.27765854,20.4509268 L5.27765854,31.0062439 Z M29.3569756,31.665991 L11.5264062,31.665991 C11.4243296,31.6670727 11.3233854,31.6444901 11.2315171,31.5999805 L6.59707317,29.2791301 L6.59707317,21.1106322 L16.1628293,21.1106322 C17.4380413,21.1089946 18.473134,22.1414291 18.4747736,23.4166411 C18.4764131,24.6918531 17.4439787,25.7269458 16.1687666,25.7285854 L14.513561,25.7285854 C14.1492147,25.7285854 13.8538537,26.0239464 13.8538537,26.3882927 C13.8538537,26.752639 14.1492147,27.048 14.513561,27.048 L29.3569756,27.048 C30.6321876,27.048 31.6659512,28.0817636 31.6659512,29.3569756 C31.6659512,30.6321876 30.6321876,31.665991 29.3569756,31.665991 L29.3569756,31.665991 Z" id="Shape" fill="#151A6A"></path>
                <path d="M16.4926829,17.1523902 C21.2291847,17.1523902 25.068878,13.3126969 25.068878,8.57619512 C25.068878,3.83969334 21.2291847,1.1718756e-15 16.4926829,1.1718756e-15 C11.7561811,1.1718756e-15 7.9164878,3.83969334 7.9164878,8.57619512 C7.92194096,13.3104363 11.7584418,17.1469371 16.4926829,17.1523902 Z M16.4926829,1.31941463 C20.5004921,1.31941463 23.7494634,4.56838593 23.7494634,8.57619512 C23.7494634,12.5840043 20.5004921,15.8329756 16.4926829,15.8329756 C12.4848737,15.8329756 9.23590244,12.5840043 9.23590244,8.57619512 C9.24062825,4.57034505 12.4868329,1.32414045 16.4926829,1.31941463 Z" id="Shape" fill="#151A6A"></path>
                <path d="M11.8747317,8.57619512 C11.8776401,6.02697676 13.9434646,3.96115231 16.4926829,3.9582439 C16.8570292,3.9582439 17.1523902,3.66288288 17.1523902,3.29853659 C17.1523902,2.93419029 16.8570292,2.63882927 16.4926829,2.63882927 C13.2150735,2.642465 10.5589528,5.29858566 10.5553171,8.57619512 C10.5553171,8.94054141 10.8506781,9.23590244 11.2150244,9.23590244 C11.5793707,9.23590244 11.8747317,8.94054141 11.8747317,8.57619512 L11.8747317,8.57619512 Z" id="Path" fill="#151A6A"></path>
            </g>
        </g>
    </g>
</svg>