<?xml version="1.0" encoding="UTF-8"?>
<svg width="45px" height="52px" viewBox="0 0 45 52" version="1.1" xmlns="http://www.w3.org/2000/svg" xmlns:xlink="http://www.w3.org/1999/xlink">
    <title>diploma</title>
    <defs>
        <linearGradient x1="50%" y1="100.000196%" x2="50%" y2="3.64381604e-15%" id="linearGradient-1">
            <stop stop-color="#FF008E" offset="0%"></stop>
            <stop stop-color="#FFA4D7" offset="100%"></stop>
        </linearGradient>
        <linearGradient x1="50%" y1="100%" x2="50%" y2="0.583235589%" id="linearGradient-2">
            <stop stop-color="#FFC7E6" offset="0%"></stop>
            <stop stop-color="#FFEDF7" offset="100%"></stop>
        </linearGradient>
    </defs>
    <g id="Desktop-Course-page" stroke="none" stroke-width="1" fill="none" fill-rule="evenodd">
        <g id="course--modules-copy-4" transform="translate(-228.000000, -5845.000000)" fill-rule="nonzero">
            <g id="Group-29" transform="translate(228.000000, 5845.000000)">
                <g id="diploma">
                    <path d="M43.5,12.2 L31.5,12.2 C31.3389,12.2 31.1792,12.2264 31.0254,12.2776 L22.5,15.1194 L13.9746,12.2776 C13.8208,12.2264 13.6611,12.2 13.5,12.2 L1.5,12.2 C0.6709,12.2 -2.84217094e-15,12.8709 -2.84217094e-15,13.7 L-2.84217094e-15,37.7 C-2.84217094e-15,38.5291 0.6709,39.2 1.5,39.2 L16.0003,39.2 C15.9952,39.2052 15.9894,39.2094 15.9844,39.2146 L10.4048,45.0637 C10.084,45.4006 9.9375,45.8664 10.0078,46.3264 C10.0781,46.7864 10.3579,47.1863 10.7637,47.4118 L17.2735,51.0124 C17.6451,51.2175 18.0688,51.2493 18.4454,51.1325 C18.835,51.0109 19.1588,50.737 19.3419,50.3708 L22.4327,44.1906 C22.4765,44.1032 22.4744,44.0058 22.5001,43.9134 C22.5257,44.0059 22.5237,44.1033 22.5675,44.1906 L25.6583,50.3708 C25.8414,50.737 26.1651,51.0109 26.5548,51.1325 C26.9314,51.2492 27.3551,51.2175 27.7267,51.0124 L34.2365,47.4118 C34.6423,47.1862 34.922,46.7863 34.9924,46.3264 C35.0627,45.8664 34.9162,45.4006 34.5954,45.0637 L29.0158,39.2146 C29.011,39.2095 29.0058,39.2049 29.0009,39.2 L43.5,39.2 C44.3291,39.2 45,38.5291 45,37.7 L45,13.7 C45,12.8709 44.3291,12.2 43.5,12.2 L43.5,12.2 Z M17.5017,38.8147 C17.807,38.5403 18,38.1434 18,37.7 C18,38.3841 18.1541,39.0327 18.4284,39.6138 C18.4259,39.6086 18.423,39.6036 18.4205,39.5984 C18.2377,39.2178 17.9016,38.9358 17.5017,38.8147 Z M22.5498,42.8855 C22.5156,42.9589 22.5218,43.0402 22.5,43.1171 C22.4782,43.0402 22.4844,42.9589 22.4502,42.8855 C22.2799,42.5217 21.974,42.2443 21.6022,42.1098 C21.8924,42.1688 22.1927,42.1999 22.5001,42.1999 C22.8075,42.1999 23.1077,42.1687 23.398,42.1098 C23.026,42.2443 22.7202,42.5218 22.5498,42.8855 L22.5498,42.8855 Z M26.5796,39.5984 C26.5771,39.6036 26.5742,39.6086 26.5717,39.6137 C26.8459,39.0326 27,38.3841 27,37.7 C27,38.1434 27.193,38.5403 27.4983,38.8147 C27.0984,38.9358 26.7624,39.2178 26.5796,39.5984 Z" id="Shape" fill="url(#linearGradient-1)"></path>
                    <path d="M40.5,0 L4.5,0 C3.6709,0 3,0.6709 3,1.5 C3,2.3291 3.6709,3 4.5,3 L12,3 L12,13.7 C12,14.346 12.4131,14.9188 13.0254,15.1224 L22.0254,18.1224 C22.3339,18.2252 22.6625,18.2265 22.9746,18.1224 L31.9746,15.1224 C32.5869,14.9188 33,14.346 33,13.7 L33,3 L40.5,3 C41.3291,3 42,2.3291 42,1.5 C42,0.6709 41.3291,0 40.5,0 Z M13.5,27.2 L7.5,27.2 C6.6709,27.2 6,27.8709 6,28.7 C6,29.5291 6.6709,30.2 7.5,30.2 L13.5,30.2 C14.3291,30.2 15,29.5291 15,28.7 C15,27.8709 14.3291,27.2 13.5,27.2 Z M37.5,21.2 L7.5,21.2 C6.6709,21.2 6,21.8709 6,22.7 C6,23.5291 6.6709,24.2 7.5,24.2 L37.5,24.2 C38.3291,24.2 39,23.5291 39,22.7 C39,21.8709 38.3291,21.2 37.5,21.2 Z M37.5,27.2 L31.5,27.2 C30.6709,27.2 30,27.8709 30,28.7 C30,29.5291 30.6709,30.2 31.5,30.2 L37.5,30.2 C38.3291,30.2 39,29.5291 39,28.7 C39,27.8709 38.3291,27.2 37.5,27.2 Z M22.5,30.2 C18.36,30.2 15,33.56 15,37.7 C15,41.84 18.36,45.2 22.5,45.2 C26.64,45.2 30,41.84 30,37.7 C30,33.56 26.64,30.2 22.5,30.2 Z M22.5,39.2 C21.6599,39.2 21,38.5399 21,37.7 C21,36.8599 21.6599,36.2 22.5,36.2 C23.3401,36.2 24,36.8599 24,37.7 C24,38.5399 23.3401,39.2 22.5,39.2 Z" id="Shape" fill="url(#linearGradient-2)"></path>
                </g>
            </g>
        </g>
    </g>
</svg>