<?xml version="1.0" encoding="UTF-8"?>
<svg width="19px" height="20px" viewBox="0 0 19 20" version="1.1" xmlns="http://www.w3.org/2000/svg" xmlns:xlink="http://www.w3.org/1999/xlink">
    <title>noun_Plus_2048208</title>
    <g id="Final-UI" stroke="none" stroke-width="1" fill="none" fill-rule="evenodd" opacity="0.300000012">
        <g id="course-page" transform="translate(-1255.000000, -5934.000000)" fill="#000000" fill-rule="nonzero">
            <g id="noun_Plus_2048208" transform="translate(1255.000000, 5934.000000)">
                <g id="Group" transform="translate(0.000000, 0.223237)">
                    <path d="M9.1,0.126756 C8.52012,0.126756 8.05,0.5968585 8.05,1.176756 L8.05,8.1767735 L1.05,8.1767735 C0.470085,8.1767735 0,8.646855 0,9.22677 C0,9.80665 0.470085,10.27677 1.05,10.27677 L8.05,10.27677 L8.05,17.27677 C8.05,17.85665 8.52012,18.32677 9.1,18.32677 C9.679915,18.32677 10.15,17.85665 10.15,17.27677 L10.15,10.27677 L17.15,10.27677 C17.72988,10.27677 18.2,9.80665 18.2,9.22677 C18.2,8.646855 17.72988,8.1767735 17.15,8.1767735 L10.15,8.1767735 L10.15,1.176756 C10.15,0.5968585 9.679915,0.126756 9.1,0.126756 Z" id="Path"></path>
                </g>
            </g>
        </g>
    </g>
</svg>