<?xml version="1.0" encoding="UTF-8"?>
<svg width="66px" height="58px" viewBox="0 0 66 58" version="1.1" xmlns="http://www.w3.org/2000/svg" xmlns:xlink="http://www.w3.org/1999/xlink">
    <title>digital-library</title>
    <g id="Desktop-Course-page" stroke="none" stroke-width="1" fill="none" fill-rule="evenodd">
        <g id="course--modules-copy-4" transform="translate(-1134.000000, -5344.000000)" fill-rule="nonzero">
            <g id="digital-library" transform="translate(1134.000000, 5344.000000)">
                <path d="M41.184,23.046144 L21.952128,14.804064 C21.2994558,14.5242795 20.5498693,14.591216 19.9570969,14.9822162 C19.3643244,15.3732164 19.0077233,16.0359352 19.0079998,16.746048 L19.0079998,45.431232 C19.0079998,46.6982929 19.7632391,47.843402 20.927808,48.342624 L41.184,57.024 L41.184,23.046144 Z M25.425312,24.216192 C25.6652558,23.6857463 26.289249,23.4495642 26.820288,23.688192 L36.335904,27.953376 C36.8683772,28.19191 37.1066619,28.8169348 36.8681279,29.349408 C36.629594,29.8818811 36.0045692,30.120166 35.472096,29.881632 L25.95648,25.612224 C25.7008839,25.4975741 25.5013161,25.2860641 25.4016975,25.0242434 C25.3020788,24.7624228 25.3105735,24.4717483 25.425312,24.216192 Z M36.867072,47.297184 C36.6271282,47.8276297 36.003135,48.0638118 35.472096,47.825184 L25.95648,43.564224 C25.4240068,43.32569 25.185722,42.7006652 25.424256,42.168192 C25.66279,41.6357188 26.2878148,41.397434 26.820288,41.635968 L36.335904,45.901152 C36.5915001,46.0158019 36.7910679,46.2273119 36.8906865,46.4891326 C36.9903052,46.7509532 36.9818105,47.0416277 36.867072,47.297184 Z M36.867072,40.961184 C36.6271282,41.4916297 36.003135,41.7278118 35.472096,41.489184 L25.95648,37.228224 C25.4240068,36.98969 25.185722,36.3646652 25.424256,35.832192 C25.66279,35.2997188 26.2878148,35.061434 26.820288,35.299968 L36.335904,39.565152 C36.5915001,39.6798019 36.7910679,39.8913119 36.8906865,40.1531326 C36.9903052,40.4149532 36.9818105,40.7056277 36.867072,40.961184 Z M36.867072,35.681184 C36.6271282,36.2116297 36.003135,36.4478118 35.472096,36.209184 L25.95648,31.948224 C25.4240068,31.70969 25.185722,31.0846652 25.424256,30.552192 C25.66279,30.0197188 26.2878148,29.781434 26.820288,30.019968 L36.335904,34.285152 C36.5915001,34.3998019 36.7910679,34.6113119 36.8906865,34.8731326 C36.9903052,35.1349532 36.9818105,35.4256277 36.867072,35.681184 Z M62.527872,14.804064 L43.296,23.046144 L43.296,57.024 L63.553248,48.342624 C64.7174033,47.8430794 65.472,46.69804 65.472,45.431232 L65.472,16.746048 C65.472,16.036219 65.1156648,15.373802 64.5231937,14.9828604 C63.9307227,14.5919188 63.1814913,14.5247463 62.528928,14.804064 L62.527872,14.804064 Z M58.52352,43.564224 L49.007904,47.829408 C48.4754308,48.0679419 47.8504061,47.8296571 47.6118721,47.297184 C47.3733381,46.7647108 47.6116229,46.139686 48.144096,45.901152 L57.6576,41.635968 C58.1900732,41.397434 58.815098,41.6357188 59.053632,42.168192 C59.292166,42.7006652 59.0538812,43.32569 58.521408,43.564224 L58.52352,43.564224 Z M58.52352,37.228224 L49.007904,41.493408 C48.4754308,41.7319419 47.8504061,41.4936571 47.6118721,40.961184 C47.3733381,40.4287108 47.6116229,39.803686 48.144096,39.565152 L57.6576,35.299968 C58.1900732,35.061434 58.815098,35.2997188 59.053632,35.832192 C59.292166,36.3646652 59.0538812,36.98969 58.521408,37.228224 L58.52352,37.228224 Z M58.52352,31.948224 L49.007904,36.213408 C48.6634542,36.3677124 48.2628491,36.3265339 47.9569927,36.1053838 C47.6511362,35.8842338 47.4864953,35.5167103 47.5250887,35.1412558 C47.563682,34.7658014 47.7996462,34.4394564 48.144096,34.285152 L57.6576,30.019968 C58.1900732,29.781434 58.815098,30.0197189 59.0536319,30.552192 C59.2921659,31.0846652 59.0538812,31.70969 58.521408,31.948224 L58.52352,31.948224 Z M58.52352,25.612224 L49.007904,29.877408 C48.4754308,30.115942 47.850406,29.8776571 47.6118721,29.345184 C47.3733381,28.8127108 47.6116228,28.187686 48.144096,27.949152 L57.6576,23.683968 C58.1900732,23.445434 58.815098,23.6837188 59.053632,24.216192 C59.292166,24.7486652 59.0538812,25.37369 58.521408,25.612224 L58.52352,25.612224 Z" id="Shape" fill="#FF008E" opacity="0.600000024"></path>
                <path d="M49.632,0 L3.168,0 C1.41836191,0 0,1.41836191 0,3.168 L0,36.96 C0,38.7096381 1.41836191,40.128 3.168,40.128 L18.71232,40.128 L16.07232,50.688 L13.728,50.688 C13.1447873,50.688 12.672,51.1607873 12.672,51.744 C12.672,52.3272127 13.1447873,52.8 13.728,52.8 L39.072,52.8 C39.6552127,52.8 40.128,52.3272127 40.128,51.744 C40.128,51.1607873 39.6552127,50.688 39.072,50.688 L36.72768,50.688 L34.08768,40.128 L49.632,40.128 C51.3816381,40.128 52.8,38.7096381 52.8,36.96 L52.8,3.168 C52.8,1.41836191 51.3816381,0 49.632,0 Z M3.168,2.112 L49.632,2.112 C50.2152127,2.112 50.688,2.5847873 50.688,3.168 L50.688,28.512 L2.112,28.512 L2.112,3.168 C2.112,2.5847873 2.5847873,2.112 3.168,2.112 Z M34.55232,50.688 L18.24768,50.688 L20.88768,40.128 L31.91232,40.128 L34.55232,50.688 Z M49.632,38.016 L3.168,38.016 C2.5847873,38.016 2.112,37.5432127 2.112,36.96 L2.112,30.624 L50.688,30.624 L50.688,36.96 C50.688,37.5432127 50.2152127,38.016 49.632,38.016 Z" id="Shape" fill="#333333"></path>
            </g>
        </g>
    </g>
</svg>