<?xml version="1.0" encoding="UTF-8"?>
<svg width="42px" height="42px" viewBox="0 0 42 42" version="1.1" xmlns="http://www.w3.org/2000/svg" xmlns:xlink="http://www.w3.org/1999/xlink">
    <title>Group 8</title>
    <defs>
        <circle id="path-1" cx="17" cy="17" r="17"></circle>
        <filter x="-20.6%" y="-14.7%" width="141.2%" height="141.2%" filterUnits="objectBoundingBox" id="filter-2">
            <feOffset dx="0" dy="2" in="SourceAlpha" result="shadowOffsetOuter1"></feOffset>
            <feGaussianBlur stdDeviation="2" in="shadowOffsetOuter1" result="shadowBlurOuter1"></feGaussianBlur>
            <feColorMatrix values="0 0 0 0 0   0 0 0 0 0   0 0 0 0 0  0 0 0 0.5 0" type="matrix" in="shadowBlurOuter1"></feColorMatrix>
        </filter>
    </defs>
    <g id="Final-UI" stroke="none" stroke-width="1" fill="none" fill-rule="evenodd">
        <g id="course-page" transform="translate(-841.000000, -1686.000000)">
            <g id="Group-8" transform="translate(845.000000, 1688.000000)">
                <g id="Oval-Copy">
                    <use fill="black" fill-opacity="1" filter="url(#filter-2)" xlink:href="#path-1"></use>
                    <use fill="#FFFFFF" fill-rule="evenodd" xlink:href="#path-1"></use>
                </g>
                <g id="noun_back_1517223-copy" opacity="0.5" transform="translate(13.000000, 10.000000)" fill="#000000" fill-rule="nonzero">
                    <path d="M7.40178,0.15822 C7.19064,-0.05292 6.84936,-0.05292 6.63822,0.15822 L0.15822,6.63822 C-0.05292,6.84936 -0.05292,7.19064 0.15822,7.40178 L6.63822,13.88178 C6.74352,13.98708 6.88176,14.04 7.02,14.04 C7.15824,14.04 7.29648,13.98708 7.40178,13.88178 C7.61292,13.67064 7.61292,13.32936 7.40178,13.11822 L1.30356,7.02 L7.40178,0.92178 C7.61292,0.71064 7.61292,0.36936 7.40178,0.15822 Z" id="Path"></path>
                </g>
            </g>
        </g>
    </g>
</svg>