<?xml version="1.0" encoding="UTF-8"?>
<svg width="24px" height="24px" viewBox="0 0 24 24" version="1.1" xmlns="http://www.w3.org/2000/svg" xmlns:xlink="http://www.w3.org/1999/xlink">
    <title>Group 25</title>
    <g id="Final-UI" stroke="none" stroke-width="1" fill="none" fill-rule="evenodd">
        <g id="course--eligibility" transform="translate(-138.000000, -552.000000)">
            <g id="Group-3" transform="translate(138.000000, 552.000000)">
                <g id="Group-25">
                    <circle id="Oval" fill="#FFFFFF" cx="12" cy="12" r="12"></circle>
                    <g id="share-(2)" transform="translate(7.000000, 7.000000)" fill="#FF4796" fill-rule="nonzero">
                        <path d="M10.6579922,3.12670312 L7.74596485,0.102703125 C7.65097265,0.004183599 7.5053672,-0.026742198 7.3786289,0.02428125 C7.25139845,0.075796875 7.1680547,0.199007802 7.1680547,0.336082026 L7.1680547,1.79213672 L7.05608203,1.79213672 C4.64764453,1.79213672 2.68808203,3.75169922 2.68808203,6.16013672 L2.68808203,6.83213672 C2.68808203,6.9879961 2.79783985,7.1179336 2.9496797,7.1533711 C2.9743711,7.15960547 2.99898047,7.1623125 3.02358985,7.1623125 C3.15041015,7.1623125 3.2718164,7.08791015 3.33046875,6.97101562 C3.96038672,5.71076953 5.2268672,4.92810937 6.63583595,4.92810937 L7.1680547,4.92810937 L7.1680547,6.38408203 C7.1680547,6.52123828 7.25139845,6.64444922 7.3786289,6.69547265 C7.50454687,6.74698828 7.65097265,6.71565235 7.74596485,6.61705078 L10.6579922,3.59305078 C10.783418,3.46270312 10.783418,3.25754297 10.6579922,3.12670312 L10.6579922,3.12670312 Z" id="Path"></path>
                        <path d="M9.40808203,10.752082 L1.34408203,10.752082 C0.60309375,10.752082 8.203125e-05,10.1491523 8.203125e-05,9.40808203 L8.203125e-05,3.13613672 C8.203125e-05,2.39514845 0.60309375,1.79213672 1.34408203,1.79213672 L2.68808203,1.79213672 C2.9358164,1.79213672 3.1360547,1.992375 3.1360547,2.24010937 C3.1360547,2.48784375 2.9358164,2.68808203 2.68808203,2.68808203 L1.34408203,2.68808203 C1.0967578,2.68808203 0.896027349,2.8888125 0.896027349,3.13613672 L0.896027349,9.40808203 C0.896027349,9.65540625 1.0967578,9.85613672 1.34408203,9.85613672 L9.40808203,9.85613672 C9.65532422,9.85613672 9.8560547,9.65540625 9.8560547,9.40808203 L9.8560547,5.82413672 C9.8560547,5.57640235 10.056293,5.37608203 10.3040273,5.37608203 C10.5518438,5.37608203 10.752082,5.57640235 10.752082,5.82413672 L10.752082,9.40808203 C10.752082,10.1491523 10.1490703,10.752082 9.40808203,10.752082 L9.40808203,10.752082 Z" id="Path"></path>
                    </g>
                </g>
            </g>
        </g>
    </g>
</svg>