<?xml version="1.0" encoding="UTF-8"?>
<svg width="65px" height="58px" viewBox="0 0 65 58" version="1.1" xmlns="http://www.w3.org/2000/svg" xmlns:xlink="http://www.w3.org/1999/xlink">
    <title>online-course</title>
    <g id="Desktop-Course-page" stroke="none" stroke-width="1" fill="none" fill-rule="evenodd">
        <g id="course--modules-copy-4" transform="translate(-237.000000, -5343.000000)" fill-rule="nonzero">
            <g id="online-course" transform="translate(237.000000, 5343.000000)">
                <path d="M61.05792,24.83712 L21.73248,24.83712 C20.0178347,24.83712 18.62784,26.2271147 18.62784,27.94176 L18.62784,54.84864 C18.62784,56.5632853 20.0178347,57.95328 21.73248,57.95328 L61.05792,57.95328 C62.7725653,57.95328 64.16256,56.5632853 64.16256,54.84864 L64.16256,27.94176 C64.16256,26.2271147 62.7725653,24.83712 61.05792,24.83712 Z M46.5851232,43.257984 L37.25568,48.63936 C36.6153022,49.0090823 35.8263253,49.0090873 35.1859428,48.6393731 C34.5455602,48.269659 34.1510398,47.5863925 34.1510398,46.8469478 L34.1510398,35.9631149 C34.1507144,35.2198584 34.5489408,34.533494 35.1943604,34.1648967 C35.83978,33.7962994 36.633283,33.8020706 37.273273,34.1800166 L46.6027162,39.6845434 C47.2357105,40.0588567 47.6225583,40.7409332 47.618963,41.4763101 C47.6153174,42.211687 47.2217725,42.8899215 46.5851232,43.257984 L46.5851232,43.257984 Z" id="Shape" fill="#FF008E" opacity="0.600000024"></path>
                <path d="M48.63936,0 L3.10464,0 C1.38999467,0 0,1.38999467 0,3.10464 L0,42.43008 C0,44.1447253 1.38999467,45.53472 3.10464,45.53472 L48.63936,45.53472 C50.3540053,45.53472 51.744,44.1447253 51.744,42.43008 L51.744,3.10464 C51.744,1.38999467 50.3540053,0 48.63936,0 Z M3.10464,2.06976 L48.63936,2.06976 C49.2109084,2.06976 49.67424,2.53309156 49.67424,3.10464 L49.67424,6.20928 L2.06976,6.20928 L2.06976,3.10464 C2.06976,2.53309156 2.53309156,2.06976 3.10464,2.06976 Z M11.073216,27.42432 C11.073216,25.4239005 12.6948765,23.80224 14.695296,23.80224 C16.6957155,23.80224 18.317376,25.4239005 18.317376,27.42432 C18.317376,29.4247395 16.6957155,31.0464 14.695296,31.0464 C12.6948765,31.0464 11.073216,29.4247395 11.073216,27.42432 L11.073216,27.42432 Z M21.111552,43.46496 L8.27904,43.46496 L8.27904,39.532416 C8.27904,35.9888157 11.1516957,33.11616 14.695296,33.11616 C18.2388963,33.11616 21.111552,35.9888157 21.111552,39.532416 L21.111552,43.46496 Z M48.63936,43.46496 L23.181312,43.46496 L23.181312,39.532416 C23.1770483,36.2341303 21.2620323,33.2371001 18.2708064,31.8473971 C20.1482302,30.3319977 20.8662583,27.7975695 20.0626783,25.5226157 C19.2590982,23.2476619 17.1085205,21.7265089 14.6958134,21.7265089 C12.2831063,21.7265089 10.1325286,23.2476619 9.32894861,25.5226157 C8.52536857,27.7975695 9.24339666,30.3319977 11.1208205,31.8473971 C8.12919084,33.2367982 6.21373099,36.2338915 6.20928,39.532416 L6.20928,43.46496 L3.10464,43.46496 C2.53309156,43.46496 2.06976,43.0016284 2.06976,42.43008 L2.06976,8.27904 L49.67424,8.27904 L49.67424,42.43008 C49.67424,43.0016284 49.2109084,43.46496 48.63936,43.46496 Z M44.49984,21.73248 C44.49984,22.3040284 44.0365084,22.76736 43.46496,22.76736 L27.94176,22.76736 C27.3702116,22.76736 26.90688,22.3040284 26.90688,21.73248 C26.90688,21.1609316 27.3702116,20.6976 27.94176,20.6976 L43.46496,20.6976 C44.0365084,20.6976 44.49984,21.1609316 44.49984,21.73248 Z M44.49984,16.55808 C44.49984,17.1296284 44.0365084,17.59296 43.46496,17.59296 L27.94176,17.59296 C27.3702116,17.59296 26.90688,17.1296284 26.90688,16.55808 C26.90688,15.9865316 27.3702116,15.5232 27.94176,15.5232 L43.46496,15.5232 C44.0365084,15.5232 44.49984,15.9865316 44.49984,16.55808 Z M44.49984,26.90688 C44.49984,27.4784284 44.0365084,27.94176 43.46496,27.94176 L27.94176,27.94176 C27.3702116,27.94176 26.90688,27.4784284 26.90688,26.90688 C26.90688,26.3353316 27.3702116,25.872 27.94176,25.872 L43.46496,25.872 C44.0365084,25.872 44.49984,26.3353316 44.49984,26.90688 Z M34.15104,32.08128 C34.15104,32.6528284 33.6877084,33.11616 33.11616,33.11616 L27.94176,33.11616 C27.3702116,33.11616 26.90688,32.6528284 26.90688,32.08128 C26.90688,31.5097316 27.3702116,31.0464 27.94176,31.0464 L33.11616,31.0464 C33.6877084,31.0464 34.15104,31.5097316 34.15104,32.08128 Z M44.49984,32.08128 C44.49984,32.6528284 44.0365084,33.11616 43.46496,33.11616 L38.29056,33.11616 C37.7190116,33.11616 37.25568,32.6528284 37.25568,32.08128 C37.25568,31.5097316 37.7190116,31.0464 38.29056,31.0464 L43.46496,31.0464 C44.0365084,31.0464 44.49984,31.5097316 44.49984,32.08128 Z" id="Shape" fill="#333333"></path>
            </g>
        </g>
    </g>
</svg>