<?xml version="1.0" encoding="UTF-8"?>
<svg width="39px" height="39px" viewBox="0 0 39 39" version="1.1" xmlns="http://www.w3.org/2000/svg" xmlns:xlink="http://www.w3.org/1999/xlink">
    <title>facebook (2)</title>
    <g id="Insights" stroke="none" stroke-width="1" fill="none" fill-rule="evenodd">
        <g id="Insights-view" transform="translate(-856.000000, -290.000000)" fill-rule="nonzero">
            <g id="facebook-(2)" transform="translate(856.000000, 290.000000)">
                <path d="M19.4790748,0.47914 C29.9730693,0.47914 38.47914,8.98638464 38.47914,19.4792052 C38.47914,29.9731998 29.9730693,38.47914 19.4790748,38.47914 C8.98508022,38.47914 0.47914,29.9730693 0.47914,19.4792052 C0.47914,8.98638464 8.98521066,0.47914 19.4790748,0.47914 Z" id="Path" fill="#1977F2"></path>
                <path d="M22.3935794,12.6334554 L25.47812,12.6334554 L25.47812,8.44518 L21.8521581,8.44518 L21.8521581,8.46028377 C17.4586759,8.60331647 16.5582241,10.8734131 16.4788594,13.2576942 L16.469822,13.2576942 L16.469822,15.3491132 L13.47812,15.3491132 L13.47812,19.4506929 L16.469822,19.4506929 L16.469822,30.44518 L20.9784897,30.44518 L20.9784897,19.4506929 L24.6718212,19.4506929 L25.3852814,15.3491132 L20.9799686,15.3491132 L20.9799686,14.0855318 C20.9799686,13.2797457 21.5632905,12.6334554 22.3935794,12.6334554 Z" id="Path" fill="#FFFFFF"></path>
            </g>
        </g>
    </g>
</svg>