<?xml version="1.0" encoding="UTF-8"?>
<svg width="91px" height="49px" viewBox="0 0 91 49" version="1.1" xmlns="http://www.w3.org/2000/svg" xmlns:xlink="http://www.w3.org/1999/xlink">
    <title>GMU Logo Reverse in Pin</title>
    <g id="Desktop-Course-page" stroke="none" stroke-width="1" fill="none" fill-rule="evenodd">
        <g id="course--modules-copy-6" transform="translate(-136.000000, -185.000000)" fill="#FFFFFF">
            <g id="GMU-Logo-Reverse-in-Pin" transform="translate(136.000000, 185.000000)">
                <g id="Group-31">
                    <path d="M76.80576,0.01724 C84.12086,0.01724 90.12306,6.01934 90.12306,13.33454 C90.12306,20.64964 84.12086,26.55804 76.80576,26.55804 C72.58556,26.55804 68.83416,24.58854 66.39576,21.49374 C68.17766,19.24284 69.30316,16.42944 69.30316,13.33454 C69.30316,10.23964 68.17766,7.33234 66.39576,5.08154 C68.83416,1.98674 72.58556,0.01724 76.80576,0.01724 Z M73.89854,6.58208 L71.92904,6.58208 L71.92904,15.11638 C71.92904,17.83618 73.99224,20.08698 76.80574,20.08698 C79.52554,20.08698 81.77634,17.92998 81.77634,15.30398 L81.77634,15.30398 L81.77634,6.58208 L79.80684,6.58208 L79.80684,15.21018 C79.80684,16.89828 78.58774,18.21128 76.80574,18.21128 C75.02394,18.21128 73.89854,16.89828 73.89854,15.11638 L73.89854,15.11638 L73.89854,6.58208 Z" id="Combined-Shape"></path>
                    <path d="M55.70449,0.01724 C63.01949,0.01724 68.92789,6.01934 68.92789,13.33454 C68.92789,20.64964 63.01949,26.55804 55.70449,26.55804 C51.48419,26.55804 47.73279,24.58854 45.29439,21.49374 C47.07639,19.24284 48.10799,16.42944 48.10799,13.33454 C48.10799,10.23964 47.07639,7.33234 45.29439,5.08154 C47.73279,1.98674 51.48419,0.01724 55.70449,0.01724 Z M51.2028,6.58208 L49.6085,6.58208 L49.6085,20.08698 L51.5779,20.08698 L51.5779,10.33348 L55.7982,15.96048 L59.831,10.52108 L59.831,20.08698 L61.7066,20.08698 L61.7066,6.58208 L60.2999,6.58208 L55.7045,12.77178 L51.2028,6.58208 Z" id="Combined-Shape"></path>
                    <path d="M34.50933,0.01724 C41.82443,0.01724 47.82663,6.01934 47.82663,13.33454 C47.82663,20.64964 41.82443,26.55804 34.50933,26.55804 C30.28903,26.55804 26.53773,24.58854 24.09933,21.49374 C25.88123,19.24284 26.91283,16.42944 26.91283,13.33454 C26.91283,10.23964 25.88123,7.33234 24.09933,5.08154 C26.53773,1.98674 30.28903,0.01724 34.50933,0.01724 Z M34.50933,6.58208 C30.75803,6.58208 27.75693,9.58318 27.75693,13.33448 C27.75693,16.99208 30.75803,20.08698 34.50933,20.08698 C38.16693,20.08698 41.16793,17.17968 41.26173,13.52208 L41.26173,13.52208 L33.57153,13.52208 L33.57153,15.49158 L38.72963,15.49158 C37.97933,16.99208 36.38503,18.02378 34.50933,18.02378 C31.88343,18.02378 29.82013,15.96048 29.82013,13.33448 C29.82013,10.70858 31.88343,8.55158 34.50933,8.55158 C36.47883,8.55158 38.16693,9.77078 38.82343,11.36508 L38.82343,11.36508 L40.98043,11.36508 C40.13643,8.64528 37.60423,6.58208 34.50933,6.58208 Z" id="Combined-Shape"></path>
                    <path d="M13.40801,0.01721 C20.62931,0.01721 26.63151,6.01941 26.63151,13.33451 C26.63151,20.64971 20.62931,26.55801 13.40801,26.55801 C6.09291,26.55801 0.09071,20.64971 0.09071,13.33451 C0.09071,6.01941 6.09291,0.01721 13.40801,0.01721 Z M17.1594,3.95615 C16.9718,4.04995 17.0656,4.14375 16.878,4.14375 C16.6904,4.23755 16.5966,4.14375 16.4091,4.23755 C16.2215,4.51885 16.4091,4.61265 16.4091,4.80015 C16.5029,4.98775 16.5029,5.17535 16.5966,5.36285 C16.7842,5.45665 16.878,5.45665 17.0656,5.64425 C17.1594,5.73805 17.2531,5.92565 17.3469,6.01935 C17.8158,6.39455 18.0972,5.92565 18.4723,7.14475 C18.4723,7.42615 18.6599,7.42615 18.7537,7.61375 C18.6599,7.80125 18.5661,7.89505 18.4723,8.08265 C18.7537,8.36405 19.1288,8.45775 19.4102,8.64535 C19.4102,8.92665 19.4102,9.11425 19.035,9.11425 C19.2226,9.95835 18.7537,9.77075 19.4102,10.70855 C19.8791,11.27125 20.1605,11.27125 20.2542,11.92775 C20.4418,12.86555 21.4734,13.42835 20.5355,13.99105 C20.348,14.08485 20.2542,14.17855 20.1605,14.36615 C20.0667,14.55375 20.1605,14.45995 19.9729,14.55375 C20.0667,14.17855 19.9729,14.27235 19.9729,13.89725 C19.9729,13.42835 20.0667,13.52205 19.8791,13.24075 C19.5978,13.24075 19.4102,13.24075 19.2226,13.42835 C18.8475,13.80345 19.035,13.52205 18.7537,13.70965 C18.5661,13.89725 18.6599,14.08485 18.5661,14.36615 C18.4723,14.55375 18.2848,14.55375 18.191,14.74125 C18.2848,15.11645 18.3786,15.21025 18.4723,15.49155 L18.4723,15.49155 L18.8475,16.14805 C18.8475,16.33555 18.5661,16.71075 18.4723,16.80445 C17.8158,17.17965 18.3786,16.24185 17.3469,17.83615 C17.2531,18.02375 17.2531,18.11745 17.1594,18.21125 C16.6904,18.68015 16.5029,18.11745 16.3153,18.02375 C15.8464,18.02375 15.0023,18.58635 14.6272,18.77395 C14.3459,18.96155 14.2521,19.24285 13.8769,18.86775 C13.5018,18.58635 13.5956,18.68015 13.0329,18.86775 C12.7515,19.05535 12.4702,19.14915 12.1888,18.86775 C11.7199,18.30505 11.5323,18.21125 10.6883,17.92995 C10.5007,17.92995 10.4069,17.83615 10.2193,17.92995 C10.1256,18.02375 10.0318,18.11745 10.0318,18.21125 L10.0318,18.21125 L10.0318,18.30505 C9.0939,18.21125 8.6251,16.52315 7.4996,16.14805 C7.8748,15.49155 7.8748,14.74125 7.781,13.99105 C7.6872,13.70965 7.5934,13.52205 7.5934,13.24075 C7.3121,13.24075 7.4996,13.24075 7.3121,13.33455 C7.3121,12.95935 7.0307,12.58425 6.8432,12.39665 C6.6556,12.49045 6.5618,12.67805 6.468,12.95935 C6.3742,13.33455 6.3742,13.42835 6.2804,13.80345 C6.1867,14.74125 6.5618,14.92885 6.6556,15.49155 L6.6556,15.49155 L6.5618,15.49155 L6.468,15.21025 C6.3742,15.11645 6.3742,15.02265 6.2804,14.83505 C6.0929,14.45995 5.624,13.33455 5.8115,12.86555 L5.8115,12.86555 L5.9053,12.49045 C6.1867,11.83395 6.468,11.08365 6.8432,10.42725 C7.0307,9.86455 7.3121,9.39565 7.2183,8.73915 C7.1245,8.55155 7.3121,8.27025 7.4059,7.98885 C7.781,6.67585 6.9369,7.70755 8.7188,6.30075 C9.0001,6.11315 9.0939,6.01935 9.2815,5.83185 C9.4691,5.55045 10.2193,4.70635 9.4691,4.61265 L9.4691,4.61265 L9.4691,4.14375 C7.781,4.14375 7.0307,6.01935 6.7494,6.20695 C6.7494,5.92565 6.8432,5.17535 6.3742,5.45665 C6.1867,5.64425 5.9991,5.92565 5.9053,6.20695 C5.624,6.48825 5.3426,7.51995 5.3426,8.08265 L5.3426,8.08265 L5.2488,8.08265 C5.155,7.51995 4.7799,7.42615 4.4048,8.17645 C3.7483,9.67695 3.7483,11.92775 4.7799,13.14695 C5.155,13.52205 5.4364,13.70965 5.4364,14.36615 C5.2488,14.17855 5.0613,13.99105 4.8737,13.80345 C4.6861,13.61585 4.4985,13.42835 4.2172,13.42835 C3.8421,14.17855 4.5923,15.49155 5.0613,16.05425 C5.2488,16.24185 5.4364,16.52315 5.7177,16.80445 C5.9053,16.89825 5.9991,16.99205 6.0929,17.08585 C7.2183,18.11745 7.4996,17.92995 8.3437,18.58635 C8.5313,18.68015 8.5313,18.68015 8.8126,18.77395 C9.0939,18.86775 9.3753,18.86775 9.6566,19.05535 C9.8442,19.05535 9.8442,19.05535 9.8442,19.24285 C9.4691,19.33665 9.0001,19.33665 8.5313,19.33665 C8.2499,19.33665 7.6872,19.24285 7.4059,19.14915 C7.1245,18.86775 6.3742,18.02375 6.0929,17.64855 C5.9991,17.36725 5.9053,17.08585 5.624,16.80445 C5.4364,16.61695 5.155,16.42935 4.7799,16.33555 C3.7483,16.24185 4.1234,16.71075 3.7483,17.36725 C3.3731,18.02375 3.1856,17.74235 4.7799,19.14915 L4.7799,19.14915 L6.2804,20.36835 C7.0307,20.93105 7.1245,21.02475 8.1561,21.11855 L8.1561,21.11855 L9.4691,21.21235 C9.938,21.11855 10.2193,21.02475 10.7821,21.02475 C10.6883,21.21235 10.4069,21.30615 10.2193,21.39995 C10.0318,21.58755 9.938,21.58755 9.7504,21.86885 C9.8442,22.15015 10.1256,22.33775 10.4069,22.52535 C10.9696,22.90045 11.6261,21.77505 12.1888,21.30615 C13.1267,20.55585 12.6577,21.11855 13.5018,21.02475 C13.9707,21.02475 14.0645,20.93105 14.5334,21.30615 C15.0023,21.77505 15.3774,22.71285 16.1277,22.52535 C16.3153,22.43155 16.5029,22.33775 16.5966,22.24395 C16.5966,21.96265 16.5029,21.86885 16.3153,21.68125 C16.2215,21.58755 15.9402,21.39995 15.8464,21.30615 L15.8464,21.30615 L18.7405458,21.3058927 C19.1728037,21.303834 19.3580778,21.2853056 19.6915,21.11855 L19.6915,21.11855 L20.4418,20.46215 C20.6293,20.36835 20.6293,20.36835 20.8169,20.18075 C21.3796,19.71185 21.9423,19.05535 22.505,18.58635 C22.7864,18.39885 23.1615,18.02375 23.2553,17.74235 L23.2553,17.74235 L23.2553,17.64855 C23.2553,17.55475 23.1615,17.46095 23.1615,17.36725 C22.9739,16.99205 23.0677,16.05425 22.4112,16.14805 C21.7547,16.24185 21.7547,16.80445 21.0045,17.46095 C20.6293,17.92995 20.1605,18.39885 19.6915,18.77395 C19.4102,19.05535 19.3164,19.24285 18.8475,19.24285 C18.5661,19.33665 18.0034,19.43045 17.6283,19.43045 L17.6283,19.43045 L17.6283,19.33665 C18.2848,19.33665 19.2226,18.77395 19.7853,18.49265 C20.1605,18.30505 20.0667,18.39885 20.1605,18.02375 C20.2542,17.74235 20.4418,17.64855 20.6293,17.36725 C20.7231,17.27345 20.6293,17.27345 20.8169,17.17965 C21.0045,17.08585 21.0983,17.08585 21.2858,16.80445 C21.3796,16.61695 21.2858,16.52315 21.4734,16.33555 C21.661,16.05425 21.9423,15.67915 22.0361,15.30395 C22.1299,15.02265 22.3175,14.92885 22.4112,14.55375 C22.505,14.36615 22.505,14.45995 22.505,14.27235 C22.5988,14.17855 22.6926,13.24075 22.5988,13.05315 C22.505,12.86555 22.3175,12.95935 22.0361,12.95935 C21.8485,12.67805 22.0361,12.39665 22.2237,12.11535 C22.3175,11.92775 22.7864,11.36505 22.4112,11.27125 C22.5988,11.08365 22.6926,11.08365 22.6926,10.70855 C22.5988,10.42725 22.505,10.33345 22.505,10.05215 C22.4112,9.02045 22.4112,9.39565 22.1299,8.64535 C22.0361,8.27025 22.2237,8.27025 21.8485,8.08265 C21.0045,7.51995 21.0983,6.86345 20.8169,6.39455 C20.7231,6.58205 20.8169,6.48825 20.6293,6.58205 C20.5355,6.39455 20.348,5.73805 20.0667,5.83185 C19.6915,5.92565 19.4102,5.55045 19.035,5.26915 C18.8475,5.17535 18.8475,5.26915 18.6599,4.98775 C18.4723,4.80015 18.3786,4.51885 18.0972,4.42515 C17.9096,4.33135 17.7221,4.33135 17.6283,4.23755 C17.4407,4.14375 17.4407,4.04995 17.1594,3.95615 Z M10.5945,21.96265 C10.9696,21.96265 10.8758,22.43155 10.5007,22.33775 C10.4069,22.33775 9.8442,21.96265 10.2193,21.96265 L10.5945,21.96265 Z M16.3153,22.15015 C16.2215,22.24395 16.1277,22.33775 15.9402,22.33775 L15.6588,22.24395 C15.6588,21.68125 16.2215,21.86885 16.3153,22.15015 Z M14.5334,21.02475 C14.8147,21.02475 15.565,21.39995 15.6588,21.68125 C15.2837,21.68125 15.4712,21.77505 15.1899,21.86885 C15.1899,21.58755 14.721,21.30615 14.5334,21.02475 Z M12.1888,20.93105 C12.095,21.02475 11.251,21.86885 11.0634,21.86885 C10.8758,21.86885 10.9696,21.77505 10.7821,21.77505 C10.6883,21.68125 10.5007,21.68125 10.4069,21.68125 C10.5007,21.58755 10.9696,21.30615 11.1572,21.21235 C11.5323,21.02475 11.6261,20.93105 12.1888,20.93105 Z M22.5988,16.52315 C22.7864,16.52315 22.7864,16.89825 22.7864,17.08585 C23.0677,17.74235 23.4429,17.64855 21.9423,18.86775 L19.5978,20.83725 C19.4102,21.02475 19.2226,21.02475 18.8475,21.02475 C18.0034,21.02475 16.878,21.11855 16.0339,21.02475 C15.6588,21.02475 15.0961,20.93105 14.721,20.74345 C14.3459,20.55585 15.0023,20.36835 14.2521,19.33665 L15.0023,19.33665 C16.1277,19.52425 18.3786,19.89935 19.4102,19.33665 C19.504,19.24285 19.7853,19.05535 19.8791,18.96155 L20.4418,18.39885 C20.9107,18.02375 21.4734,17.46095 21.9423,16.89825 C22.1299,16.61695 22.1299,16.52315 22.5988,16.52315 Z M4.311,16.71075 C4.6861,16.80445 5.7177,17.55475 5.9991,17.92995 C6.2804,18.21125 7.1245,19.14915 7.4996,19.33665 C7.781,19.43045 8.2499,19.52425 8.7188,19.52425 C9.0001,19.52425 9.0001,19.43045 9.3753,19.43045 L10.1256,19.43045 C10.4069,19.43045 11.0634,19.33665 11.4385,19.33665 L12.7515,19.33665 C12.8453,19.71185 13.1267,19.89935 13.0329,20.46215 C12.564,20.64965 9.6566,21.02475 8.8126,20.93105 C8.3437,20.93105 7.5934,20.93105 7.3121,20.74345 C7.0307,20.64965 3.7483,17.92995 3.7483,17.83615 C3.7483,17.55475 3.9358,17.55475 4.1234,17.36725 C4.2172,17.17965 4.2172,16.89825 4.311,16.71075 Z M13.2205,19.14915 C13.4666375,19.14915 13.7128516,19.3645203 13.8333309,19.4812016 L14.1583,19.80565 L14.1583,19.80565 C14.6272,20.46215 14.0645,20.46215 13.8769,20.46215 C13.6894,20.55585 13.7832,20.74345 13.408,20.74345 C13.408,20.46215 13.5956,20.46215 13.5956,20.08695 C13.5956,19.80565 12.8453,19.14915 13.2205,19.14915 Z M18.7537,17.74235 C18.9413,18.02375 19.035,18.39885 18.8475,18.68015 C18.7537,18.77395 18.5661,18.77395 18.4723,18.86775 C18.191,19.05535 18.191,19.24285 17.6283,19.24285 L16.9718,19.24285 C16.7842,19.24285 16.9718,19.24285 16.878,19.14915 C16.878,19.05535 16.7842,19.14915 16.878,19.05535 C16.9718,19.05535 16.9718,18.96155 17.0656,18.96155 C18.3786,18.49265 17.7221,18.96155 18.4723,17.92995 C18.6599,17.74235 18.5661,17.74235 18.7537,17.74235 Z M16.2215,18.77395 C16.2215,19.05535 16.2215,19.14915 15.9402,19.24285 L15.9402,18.77395 L16.2215,18.77395 Z M9.938,18.68015 C10.1256,18.77395 10.2193,18.86775 10.4069,18.96155 C10.7821,19.05535 10.6883,18.86775 10.8758,18.86775 C11.0634,18.86775 11.251,19.05535 11.251,19.24285 C10.8758,19.24285 10.1256,18.96155 9.8442,18.77395 C9.4691,18.49265 9.2815,18.49265 8.8126,18.39885 C8.8126,18.39885 8.7188,18.39885 8.6251,18.30505 C8.5313,18.30505 8.5313,18.30505 8.4375,18.21125 C9.8442,18.21125 8.7188,17.92995 9.938,18.68015 Z M16.0339,18.39885 L15.3774,18.77395 C15.1899,18.86775 14.9085,18.96155 14.6272,19.05535 C14.799075,18.8833833 15.6014944,18.4750465 15.9507101,18.4081846 L16.0339,18.39885 Z M11.3448,18.49265 C11.6261,18.58635 11.9075,18.77395 11.9075,18.96155 C11.5323,18.96155 11.1572,18.68015 10.8758,18.49265 C10.5007,18.68015 10.5007,19.05535 10.2193,18.39885 C10.7821,18.02375 10.5007,18.21125 11.3448,18.49265 Z M19.6915,15.96045 C19.5978,16.05425 18.7537,16.99205 18.6599,17.17965 C18.2848,17.74235 17.7221,17.74235 17.7221,18.68015 C17.4407,18.58635 17.4407,18.58635 17.1594,18.77395 C16.9718,18.86775 16.7842,18.96155 16.5966,18.96155 C16.7842,18.68015 17.1594,18.49265 17.4407,18.30505 C17.8158,18.11745 17.9096,17.83615 18.0972,17.36725 C18.191,17.08585 18.191,17.17965 18.4723,17.08585 C18.5661,16.99205 19.1288,16.24185 19.6915,15.96045 Z M19.5978,17.92995 C19.6915,17.92995 19.7853,18.02375 19.8791,18.02375 C19.7853,18.30505 19.3164,18.39885 19.1288,18.58635 C19.1288,18.39885 19.1288,18.30505 19.2226,18.21125 C19.2226,17.92995 19.3164,17.92995 19.5978,17.92995 Z M13.12671,6.39454 C12.09501,6.39454 10.87581,6.76964 10.12561,7.33234 C9.28151,7.89504 8.62501,8.55154 8.15611,9.48944 C7.96851,9.95834 7.59341,10.89614 7.59341,11.64644 C7.59341,12.77184 7.68721,13.33454 8.15611,14.45994 C9.00011,16.14804 10.87581,17.55474 12.93911,17.55474 C14.81471,17.55474 15.94021,17.08584 17.15941,15.86674 C20.62931,12.39664 18.19101,6.39454 13.12671,6.39454 Z M7.4059,16.42935 C7.5934,16.42935 7.8748,16.71075 8.0624,16.89825 C8.2499,17.08585 8.4375,17.27345 8.5313,17.55475 L8.2499,17.27345 C8.0624,17.17965 8.0624,17.17965 7.8748,16.99205 C7.781,16.80445 7.4996,16.61695 7.4059,16.42935 Z M21.5672,14.36615 C21.661,14.64745 21.661,14.55375 21.661,14.83505 C21.661,15.30395 22.1299,15.30395 21.4734,15.96045 C21.0045,16.33555 21.192,16.14805 21.0983,16.61695 C21.0045,16.89825 21.0045,16.89825 20.9107,16.99205 C20.7231,16.99205 20.6293,17.08585 20.4418,17.08585 C20.0667,17.36725 20.4418,17.46095 19.8791,17.55475 C19.9729,17.17965 20.5355,16.89825 20.8169,16.71075 C20.8169,16.52315 20.8169,16.61695 20.6293,16.52315 C20.8169,16.42935 20.8169,16.33555 20.9107,16.24185 C21.192,15.96045 21.0045,16.05425 21.0045,15.77295 C21.0045,15.58535 21.3796,15.58535 21.4734,15.49155 C21.3796,15.39775 21.4734,15.39775 21.192,15.39775 C21.2858,15.11645 21.3796,15.11645 21.3796,14.74125 C21.2858,14.74125 21.192,14.74125 21.0983,14.83505 C21.0983,15.30395 21.0045,15.39775 20.9107,15.77295 L20.8169,15.77295 C20.8169,15.58535 20.8169,15.58535 20.7231,15.49155 C20.7231,15.77295 20.9107,16.24185 20.4418,16.61695 C20.3167667,16.5856833 20.2646667,16.5544167 20.2472963,16.5300981 L20.24471,16.52421 L20.2147245,16.5309662 C20.1605,16.5570194 20.1605,16.6482 20.1605,16.80445 C20.1605,16.9607833 20.1605,16.9868389 20.1062176,17.0454639 L20.0667,17.08585 C19.9729,17.17965 19.8791,17.27345 19.7853,17.27345 C19.8791,16.42935 20.0667,16.99205 20.0667,16.24185 C20.2542,16.33555 20.1605,16.33555 20.348,16.33555 C20.348,15.96045 20.1605,15.77295 20.1605,15.49155 C20.348,15.39775 20.4418,15.30395 20.5355,15.21025 C20.5355,15.02265 20.4418,15.02265 20.348,14.74125 L20.6463915,14.7418683 C20.9202266,14.7445477 20.60585,14.7588375 20.9107,14.83505 C21.0045,14.83505 21.2858,14.45995 21.5672,14.36615 Z M4.6861,16.52315 C4.9675,16.61695 5.155,16.61695 5.3426,16.80445 C5.5302,16.99205 5.624,17.08585 5.7177,17.27345 C5.5302,17.27345 5.155,16.89825 4.9675,16.80445 L4.7799,16.61695 C4.6861,16.61695 4.6861,16.52315 4.6861,16.52315 Z M17.15941,15.21024 C16.97181,16.24184 14.90851,17.17964 14.15821,17.17964 L13.22051,17.17964 C12.84531,17.17964 12.65771,17.08584 12.37641,17.08584 C13.40801,17.08584 14.34581,16.80454 15.09611,16.52324 C15.47121,16.33564 15.94021,16.14804 16.22151,15.96044 C16.40911,15.86674 16.59661,15.77294 16.69041,15.58534 C16.87801,15.49154 17.06561,15.30394 17.15941,15.21024 Z M4.4048,13.80345 C5.0613,14.17855 6.6556,16.61695 6.7494,17.17965 C6.3742,16.99205 5.4364,15.67915 5.155,15.30395 C5.0613,15.11645 5.0613,15.02265 4.9675,14.92885 L4.7799,14.64745 C4.6861,14.55375 4.7799,14.55375 4.6861,14.55375 C4.6861,15.02265 4.9675,15.39775 5.2488,15.67915 C5.3426,15.77295 5.4364,15.96045 5.5302,16.05425 C5.624,16.24185 5.8115,16.42935 5.8115,16.61695 C4.8737,15.96045 4.4048,15.02265 4.4048,13.80345 Z M13.87691,14.92884 C13.68931,15.21024 13.40801,15.49154 13.40801,15.96044 C13.40801,16.24184 13.59551,16.42944 13.68931,16.61694 C13.31421,16.71074 11.71991,16.99214 11.34481,16.52324 C11.06341,15.96044 11.15721,15.58534 11.15721,15.21024 C11.81371,15.49154 13.59551,14.92884 13.87691,14.92884 Z M9.09391,14.55374 L9.84421,14.92884 C10.12561,15.02264 10.50071,15.11644 10.78211,15.11644 C10.50071,15.67914 10.96961,16.33564 10.96961,16.52324 C10.59451,16.52324 9.93801,16.14804 9.65661,15.96044 C9.28151,15.67914 9.09391,15.21024 9.09391,14.55374 Z M17.15941,14.92884 C16.78421,15.49154 14.72101,16.42944 14.25201,16.42944 C14.25201,16.42944 14.06451,16.24184 13.97071,16.24184 C13.03291,15.11644 16.78421,13.52204 17.15941,14.92884 Z M6.8432,12.67805 C7.0307,13.33455 7.4059,14.08485 7.4059,15.11645 L7.4059,15.58535 L7.3121,15.96045 L6.8432,13.33455 C6.7494,13.24075 6.8432,13.24075 6.7494,13.24075 L6.7494,13.42835 C6.7494,14.08485 7.0307,15.39775 7.0307,16.05425 L6.468,14.45995 C6.468,14.08485 6.468,13.89725 6.5618,13.52205 C6.6556,13.33455 6.7494,12.86555 6.8432,12.67805 Z M18.4723,14.74125 C18.9413,14.74125 18.5661,14.92885 18.7537,15.21025 C18.8475,15.49155 19.1288,15.58535 19.1288,15.86675 L19.1288,15.96045 C18.5661,15.58535 18.5661,15.02265 18.4723,14.74125 Z M19.8791,15.11645 C20.0667,15.49155 19.6915,15.58535 19.504,15.67915 C19.504,15.49155 19.6915,15.21025 19.8791,15.11645 Z M19.035,13.99105 C19.035,14.55375 19.504,15.02265 19.2226,15.58535 C19.1288,15.49155 19.035,15.30395 18.9413,15.21025 C18.7537,14.92885 18.9413,14.92885 18.9413,14.64745 C18.9413,14.27235 18.7537,14.17855 19.035,13.99105 Z M8.24991,13.80344 C8.34371,13.99104 8.53121,14.17854 8.71881,14.27234 C8.71881,14.55374 8.71881,14.74124 8.81261,14.92884 C8.62501,14.74124 8.24991,14.08484 8.24991,13.80344 Z M22.4112,13.33455 C22.3175,13.52205 22.3175,13.70965 22.3175,13.89725 C22.3175,14.17855 22.4112,13.99105 22.2237,14.36615 C22.0361,14.55375 22.1299,14.55375 22.2237,14.74125 C22.1299,14.83505 22.1299,14.83505 21.9423,14.83505 C21.9423,14.27235 21.8485,14.55375 22.0361,14.17855 C21.4734,14.17855 22.0361,13.70965 22.0361,13.42835 C21.9423,13.52205 21.9423,13.52205 21.7547,13.61585 C21.661,13.70965 21.5672,13.89725 21.5672,13.80345 C21.4734,13.61585 21.7547,13.24075 21.9423,13.24075 C22.2237,13.24075 22.1299,13.24075 22.4112,13.33455 Z M12.84531,12.39664 C12.75151,12.49044 12.37641,12.77184 12.28261,12.86554 C11.62611,13.42834 11.25101,13.99104 10.87581,14.74124 C10.59451,14.64744 10.21931,14.64744 9.93801,14.55374 L9.09391,14.17854 C9.28151,13.42834 9.37531,13.05314 9.75041,12.39664 C10.03181,12.39664 10.21931,12.49044 10.50071,12.58424 C11.34481,12.67804 12.09501,12.58424 12.84531,12.39664 Z M17.25311,11.74014 C17.44071,11.83394 17.53451,11.92774 17.72211,11.92774 C16.97181,13.33454 15.09611,14.17854 13.50181,14.55374 C12.84531,14.74124 12.28261,14.74124 11.43851,14.74124 C11.81371,13.89724 12.56401,13.14694 13.40801,12.67804 C14.34581,12.11534 15.94021,11.45884 17.25311,11.74014 Z M17.90961,12.02154 C18.19101,12.20914 18.47231,12.58424 18.47231,12.86554 C18.47231,13.42834 18.09721,13.99104 17.81581,14.36614 C17.72211,14.55374 17.53451,14.64744 17.34691,14.74124 C17.34691,14.08484 16.78421,13.89724 16.22151,13.89724 C16.22151,13.80344 16.22151,13.80344 16.31531,13.80344 C16.31531,13.70964 16.31531,13.70964 16.40911,13.70964 C16.97181,13.24074 17.62831,12.67804 17.90961,12.02154 Z M19.6915,13.42835 C19.7853,13.89725 19.9729,14.45995 19.5978,14.55375 L19.5978,13.99105 L19.504,13.99105 C19.504,14.17855 19.4102,14.36615 19.4102,14.55375 L19.3164,14.55375 C19.3164,14.36615 19.2226,14.36615 19.2226,14.27235 C19.3164,14.17855 19.3164,14.17855 19.3164,14.08485 C19.4102,13.80345 19.3164,13.99105 19.3164,13.80345 C19.3164,13.52205 19.504,13.42835 19.6915,13.42835 Z M5.9991,8.64535 C5.9991,9.11425 5.8115,9.48945 5.624,9.86455 C5.3426,10.42725 5.2488,11.92775 5.3426,12.58425 L5.624,13.89725 L5.2488,12.67805 C5.0613,11.92775 5.2488,10.52105 5.5302,9.77075 C5.624,9.58315 5.7177,9.48945 5.7177,9.20805 L5.9053,8.83295 C5.9991,8.64535 5.9053,8.73915 5.9991,8.64535 Z M8.24991,11.27134 C8.34371,11.36504 8.81261,12.02154 9.37531,12.20914 C9.28151,12.49044 8.81261,13.24074 8.81261,13.89724 C8.62501,13.80344 8.53121,13.80344 8.43741,13.61584 C8.34371,13.52204 8.24991,13.42834 8.15611,13.33454 C7.59341,12.49044 8.15611,11.64644 8.24991,11.27134 Z M6.9369,8.64535 C6.9369,9.39565 6.9369,9.67695 6.6556,10.33345 L6.468,10.61475 C6.5618,10.14595 6.7494,9.77075 6.7494,9.30185 L5.9053,11.74015 C5.9053,11.83395 5.8115,11.92775 5.8115,12.11535 L5.624,12.49045 C5.624,11.92775 5.7177,11.83395 5.7177,11.36505 C5.8115,10.98995 5.9053,10.61475 5.9991,10.23965 C6.1867,9.77075 6.468,8.92665 6.9369,8.64535 Z M4.8737,7.98885 C4.9675,8.36405 5.0613,8.64535 5.0613,9.02045 L4.8737,10.61475 L4.8737,12.39665 C4.7799,12.20915 4.6861,11.83395 4.6861,11.64645 C4.5923,11.36505 4.5923,11.08365 4.5923,10.70855 C4.5923,10.42725 4.6861,9.20805 4.7799,9.02045 C4.311,9.11425 4.4048,11.17745 4.4048,11.45885 C4.4985,11.83395 4.5923,12.11535 4.5923,12.39665 L4.4048,11.92775 C4.1234,11.27125 4.1234,10.14595 4.2172,9.48945 C4.2172,9.30185 4.311,9.11425 4.4048,8.92665 C4.5923,8.36405 4.7799,8.17645 4.7799,7.98885 L4.8737,7.98885 Z M20.9107,11.36505 C21.2858,11.55265 21.192,11.92775 21.192,12.11535 L21.0983,12.11535 C21.0045,11.83395 20.9107,11.74015 20.9107,11.36505 Z M16.50291,9.20804 C16.12771,10.98994 13.22051,12.11534 11.34481,12.11534 C10.78211,12.11534 10.40691,12.02154 10.12561,12.02154 C10.12561,11.83394 10.68831,11.36504 10.87581,11.17754 C11.90751,10.33344 13.03291,9.77074 14.34581,9.39564 C15.47121,9.11424 15.47121,9.20804 16.50291,9.20804 Z M18.37861,10.80234 C18.56611,11.08374 18.47231,11.83394 18.47231,12.11534 C18.37861,12.02154 18.37861,11.92774 18.09721,11.74014 C18.19101,11.36504 18.37861,11.27134 18.37861,10.80234 Z M21.661,11.36505 C21.7547,11.64645 21.7547,11.64645 21.7547,12.02155 C21.5672,11.92775 21.661,12.02155 21.5672,11.92775 C21.4734,11.83395 21.4734,11.74015 21.3796,11.74015 C21.4734,11.55265 21.4734,11.45885 21.661,11.36505 Z M21.3796,7.89505 C21.5672,8.27025 21.3796,8.27025 21.661,8.36405 C21.8485,8.36405 21.661,8.27025 21.8485,8.36405 L22.2237,9.39565 L22.2237,10.14595 C22.1299,10.52105 22.0361,10.14595 22.0361,10.70855 C22.1299,10.70855 22.505,10.42725 22.4112,10.80235 C22.4112,10.98995 22.1299,11.17745 22.0361,11.36505 C22.1299,11.45885 22.1299,11.45885 22.3175,11.45885 L21.9423,12.02155 C21.9423,11.45885 22.0361,12.11535 21.9423,11.45885 C21.8485,11.27125 22.0361,11.08365 22.0361,10.98995 C21.9423,10.89615 21.8485,10.89615 21.8485,10.70855 C21.7547,10.61475 21.8485,10.42725 21.8485,10.33345 C22.0361,9.95835 22.2237,9.77075 22.0361,9.67695 C21.9423,9.86455 21.9423,9.86455 21.8485,9.95835 C21.4734,9.48945 21.7547,8.92665 21.7547,8.64535 C21.5672,8.73915 21.7547,8.73915 21.4734,8.83295 C21.4734,8.73915 21.4734,8.17645 21.3796,8.17645 C21.0045,8.45775 21.3796,8.45775 21.3796,9.30185 C21.192,9.39565 21.2858,9.30185 21.2858,9.39565 C21.3796,9.58315 21.4734,9.67695 21.5672,9.86455 C21.661,10.23965 21.4734,10.14595 21.3796,10.42725 C21.5672,10.61475 21.7547,10.61475 21.7547,10.98995 C21.661,11.17745 21.661,11.08365 21.5672,10.98995 L21.3796,10.80235 C21.192,10.61475 21.3796,10.52105 21.192,10.14595 C21.0983,9.95835 21.192,9.86455 21.2858,9.58315 C21.0045,9.48945 21.0045,9.48945 20.9107,9.11425 C20.9107,8.92665 20.7231,8.92665 20.7231,8.55155 C20.8169,8.45775 20.9107,8.45775 20.9107,8.36405 C21.0045,8.17645 21.0045,8.08265 21.0983,7.89505 L21.3796,7.89505 Z M9.84421,9.11424 C9.93801,9.48944 10.21931,9.58314 10.40691,9.77074 C10.96961,9.95834 11.25101,9.95834 11.81371,9.86454 L11.15721,10.33344 C10.96961,10.42724 10.78211,10.61484 10.59451,10.70854 C10.40691,10.89614 9.75041,11.64644 9.65661,11.83394 C9.37531,11.83394 8.24991,11.17754 8.62501,10.52104 C8.90641,10.14594 9.46911,9.39564 9.84421,9.11424 Z M16.78421,9.20804 C17.25311,9.20804 17.90961,9.58314 18.09721,9.86454 C18.37861,10.33344 18.09721,11.17754 17.90961,11.55264 C17.62831,11.36504 17.25311,11.27134 16.78421,11.17754 C15.84641,11.17754 15.75261,11.27134 15.37741,11.27134 L15.84641,10.89614 C16.22151,10.52104 16.78421,9.77074 16.78421,9.20804 Z M21.0045,9.77075 C21.0045,9.95835 20.9107,9.77075 20.9107,9.95835 C20.8169,10.70855 21.0045,10.05215 20.5355,10.80235 L20.7231,10.98995 C20.5355,11.27125 20.0667,11.36505 20.6293,10.33345 C20.8169,9.95835 20.7231,10.14595 20.6293,9.77075 L21.0045,9.77075 Z M19.4102,9.58315 C19.6915,9.67695 19.7853,9.86455 19.8791,10.23965 C19.6915,10.14595 19.6915,10.14595 19.504,10.05215 C19.586075,10.2982875 19.7398891,10.2572391 19.8398988,10.4944188 L19.86071,10.55921 L19.8460824,10.5412892 C19.819068,10.52105 19.7853,10.52105 19.7853,10.52105 C19.035,10.05215 19.4102,10.14595 19.4102,9.58315 Z M20.5355,9.02045 C20.5355,9.30185 20.5355,9.67695 20.348,9.77075 L20.348,9.95835 C20.4418,10.05215 20.4418,10.05215 20.5355,10.05215 C20.4418,10.23965 20.348,10.42725 20.1605,10.42725 C19.9729,9.77075 19.9729,9.95835 20.2542,9.48945 C20.4418,9.20805 20.348,9.11425 20.5355,9.02045 Z M13.59551,7.05104 C9.56291,7.98884 9.00011,9.77074 8.43741,10.23964 C8.62501,8.92664 10.31311,7.14474 11.62611,6.86344 C12.00131,6.86344 13.22051,6.76964 13.59551,7.05104 Z M20.1605,9.20805 C20.1605,9.39565 20.1605,9.39565 20.0667,9.58315 L19.9729,9.58315 C19.9729,9.39565 19.9729,8.92665 19.7853,8.92665 C19.6915,9.02045 19.7853,9.30185 19.7853,9.58315 C19.4102,9.39565 19.504,9.11425 19.5978,8.73915 C19.6915,8.36405 20.1605,8.55155 20.1605,9.20805 Z M13.97071,7.23854 C14.06451,7.42614 14.25201,7.51994 14.25201,7.70754 C14.25201,8.64534 12.65771,9.39564 11.62611,9.39564 C11.15721,9.39564 10.40691,9.48944 10.21931,8.92664 C10.68831,8.27024 13.03291,7.33234 13.97071,7.23854 Z M6.468,5.64425 C6.468,6.86345 5.9991,8.17645 5.4364,9.20805 C5.4364,9.20805 5.4364,9.268082 5.3883744,9.2920948 L5.36671,9.29621 L5.7177,7.89505 C5.9991,6.95725 6.1867,7.05105 6.1867,6.39455 C6.0929,6.39455 6.0929,6.39455 6.0929,6.48825 L5.7177,7.33235 C5.66148,7.38863 5.638992,7.377374 5.6299968,7.3796252 L5.62871,7.38221 L5.63627031,7.31275156 C5.69139531,7.03192031 5.917025,6.6524 5.9991,6.48825 C6.1867,6.11315 6.2804,5.92565 6.468,5.64425 Z M14.34581,7.23854 C15.09611,7.23854 16.12771,7.33234 16.50291,7.98884 C16.59661,8.17644 16.59661,8.36404 16.59661,8.83294 C16.22151,8.55154 14.72101,8.83294 14.25201,8.92664 C13.97071,9.02044 13.78311,9.11424 13.50181,9.11424 C13.59551,9.02044 13.87691,8.83294 14.15821,8.36404 C14.34581,8.17644 14.53341,7.61374 14.34581,7.23854 Z M16.78421,8.08264 C17.06561,8.17644 17.06561,8.36404 17.25311,8.55154 C17.44071,8.73914 17.62831,8.92664 17.72211,9.11424 C17.53451,9.11424 17.44071,9.02044 17.34691,8.92664 C17.15941,8.92664 17.06561,8.83294 16.87801,8.83294 C16.87801,8.36404 16.87801,8.45774 16.78421,8.08264 Z M19.2226,7.61375 C19.5978,7.70755 19.3164,7.80125 19.8791,7.98885 C20.1605,8.08265 20.7231,8.27025 20.5355,8.45775 C20.348,8.64535 20.1605,8.27025 19.8791,8.17645 C19.3164,7.98885 19.4102,7.98885 19.2226,7.61375 Z M7.4059,6.76965 C7.4059,7.05105 7.3121,8.27025 6.8432,8.27025 L6.6556,8.27025 C6.6556,7.70755 7.2183,7.33235 7.2183,6.76965 C6.9369,6.95725 6.8432,7.33235 6.7494,7.61375 C6.6556,7.80125 6.5618,7.89505 6.5618,8.08265 L6.2804,8.45775 C6.2804,8.17645 6.468,7.80125 6.6556,7.51995 L7.1245,6.67585 C7.3121,6.58205 7.4059,6.48825 7.4059,6.76965 Z M19.5978,5.92565 L19.7853,6.01935 C20.0667,6.20695 20.1605,6.11315 20.348,6.30075 C20.4418,6.58205 20.348,6.58205 20.4418,6.76965 C20.5355,7.05105 20.5355,6.86345 20.8169,6.95725 C20.8169,7.05105 20.8169,7.05105 20.7231,7.05105 L20.6293,7.23855 C20.5355,7.33235 20.5355,7.42615 20.5355,7.61375 C20.4418,7.51995 20.1605,7.05105 20.1605,7.05105 L20.2542,6.39455 C20.0667,6.48825 20.1605,6.48825 20.0667,6.58205 C20.0667,6.76965 19.9729,6.86345 19.9729,7.05105 L19.9729,7.14475 L19.5978,7.14475 C19.6915,7.51995 20.4418,7.23855 20.4418,8.08265 C20.2542,7.98885 20.2542,7.98885 20.0667,7.89505 C19.8791,7.80125 19.5978,7.70755 19.5978,7.70755 C19.4102,7.51995 19.504,7.33235 19.4102,7.14475 C19.3164,6.95725 19.1288,6.95725 19.1288,6.76965 C19.3164,6.67585 19.3164,6.58205 19.4102,6.39455 C19.504,6.01935 19.4102,6.20695 19.5978,5.92565 Z M13.59551,6.67584 C13.87691,6.67584 14.72101,6.76964 15.00231,6.95724 L14.53341,6.95724 C14.15821,6.95724 14.34581,7.05104 13.97071,6.86344 L13.59551,6.67584 Z M18.7537,5.73805 C18.9413,5.92565 18.9413,6.01935 19.2226,6.11315 L18.9413,6.11315 C18.9413,6.30075 18.9413,6.39455 19.035,6.48825 L18.7537,6.48825 C18.8475,6.67585 18.8475,6.67585 18.8475,6.86345 C18.2848,6.58205 18.6599,6.30075 18.7537,6.20695 L18.7537,5.73805 Z M9.3753,4.80015 L9.5629,4.98775 C9.4691,5.26915 9.2815,5.45665 9.0001,5.64425 C8.8126,5.83185 8.3437,6.30075 7.781,6.48825 C8.0624,6.11315 8.9064,5.55045 9.1877,5.08155 C8.7188,5.08155 8.3437,5.83185 7.9686,6.11315 C8.0624,5.64425 9.0001,4.80015 9.3753,4.80015 Z M9.1877,4.33135 C9.0939,4.70635 9.0939,4.70635 8.8126,4.89395 C8.2499,5.17535 8.0624,5.55045 7.781,5.83185 C7.5934,6.01935 7.4059,6.30075 7.1245,6.30075 C7.4996,5.73805 8.3437,5.17535 8.7188,4.61265 C8.2499,4.80015 7.8748,5.26915 7.5934,5.45665 C7.6872,5.08155 8.6251,4.33135 9.1877,4.33135 Z M18.3786,5.73805 C18.4723,5.92565 18.4723,5.92565 18.4723,6.11315 C18.191,6.11315 18.2848,6.11315 18.2848,5.83185 L17.6283,5.92565 L17.6283,5.73805 L18.3786,5.73805 Z M17.7221,5.26915 C17.9096,5.26915 18.0034,5.45665 18.0034,5.64425 L17.4407,5.64425 C17.3469,5.55045 17.0656,5.26915 17.4407,5.26915 L17.7221,5.26915 Z M17.2531,4.33135 C17.5345,4.42515 17.6283,4.51885 17.8158,4.61265 C18.2848,4.70635 18.0972,4.61265 18.0034,4.89395 C18.191,5.08155 18.191,5.08155 18.2848,5.36285 C18.0972,5.17535 18.191,5.36285 18.0034,5.26915 C17.9096,5.17535 18.0034,5.36285 17.9096,5.17535 L17.6283,4.70635 C17.4407,4.80015 17.5345,4.80015 17.3469,4.70635 C17.1594,4.70635 17.2531,4.61265 17.0656,4.80015 C17.1594,4.98775 17.2531,4.89395 17.3469,5.08155 C17.2531,5.17535 17.0656,5.08155 16.7842,5.08155 C16.7842,4.80015 16.878,4.98775 16.7842,4.70635 C16.6904,4.61265 16.5029,4.42515 16.7842,4.42515 C17.2531,4.42515 16.878,4.61265 17.2531,4.33135 Z" id="Combined-Shape"></path>
                    <path d="M19.59775,6.20698 C19.59775,6.39448 19.78525,6.86338 19.87905,6.76968 C19.97285,6.67588 19.87905,6.48828 19.87905,6.39448 C19.78525,6.20698 19.78525,6.20698 19.59775,6.20698" id="Fill-14"></path>
                    <path d="M8.7188,4.61265 L8.8126,4.61265 L8.7188,4.61265 Z" id="Fill-16"></path>
                    <path d="M10.78208,19.89937 C10.68828,19.80567 10.68828,19.80567 10.59448,19.80567 C10.40698,19.89937 10.31318,19.99317 10.40698,20.08697 C10.40698,20.18077 10.50078,20.18077 10.59448,20.27447 C10.68828,20.27447 10.68828,20.27447 10.68828,20.36827 C10.68828,20.46207 10.68828,20.46207 10.59448,20.46207 L10.40698,20.46207 L10.40698,20.55587 L10.59448,20.55587 C10.78208,20.55587 10.78208,20.46207 10.78208,20.36827 C10.78208,20.27447 10.78208,20.18077 10.59448,20.18077 L10.50078,20.08697 C10.50078,19.99317 10.50078,19.89937 10.59448,19.89937 C10.68828,19.89937 10.68828,19.89937 10.68828,19.99317 L10.78208,19.89937 Z M12.47018,20.36827 L12.56398,20.36827 L12.47018,19.80567 L12.37638,19.80567 L12.47018,20.36827 Z M11.90748,19.99317 L12.00128,19.99317 C12.09498,19.89937 12.18878,19.99317 12.18878,20.18077 C12.18878,20.27447 12.18878,20.36827 12.00128,20.36827 L11.90748,19.99317 Z M11.90748,20.46207 L12.00128,20.46207 C12.09498,20.46207 12.18878,20.36827 12.28258,20.36827 L12.28258,20.08697 C12.28258,19.99317 12.18878,19.89937 12.00128,19.89937 L11.81368,19.89937 L11.90748,20.46207 Z M11.71988,19.89937 L11.62608,19.89937 L11.62608,20.27447 C11.62608,20.36827 11.62608,20.46207 11.53228,20.46207 C11.53228,20.46207 11.43848,20.36827 11.43848,20.27447 L11.43848,19.89937 L11.34478,19.99317 L11.34478,20.27447 C11.34478,20.46207 11.43848,20.46207 11.53228,20.46207 C11.71988,20.46207 11.71988,20.36827 11.71988,20.27447 L11.71988,19.89937 Z M11.25098,19.99317 L10.87578,19.99317 L10.87578,20.08697 L10.96958,20.08697 L11.06338,20.55587 L11.15718,20.55587 L11.06338,20.08697 L11.25098,19.99317 Z M9.84428,20.64967 L9.93798,20.64967 L9.93798,20.08697 L9.84428,20.08697 L9.84428,20.64967 Z M9.75048,20.55587 L9.56288,20.64967 L9.46908,20.08697 L9.37528,20.08697 L9.46908,20.64967 L9.75048,20.64967 L9.75048,20.55587 Z M9.28158,20.36827 L9.18778,20.36827 L9.18778,20.46207 L9.28158,20.46207 L9.28158,20.64967 L9.18778,20.64967 C9.09398,20.64967 9.00018,20.55587 9.00018,20.46207 C9.00018,20.27447 9.00018,20.18077 9.18778,20.18077 L9.28158,20.18077 L9.18778,20.18077 C9.00018,20.18077 8.90638,20.27447 8.90638,20.46207 C8.90638,20.55587 8.90638,20.74337 9.18778,20.74337 C9.28158,20.74337 9.28158,20.64967 9.37528,20.64967 L9.28158,20.36827 Z M8.81258,20.64967 L8.62508,20.64967 L8.62508,20.46207 L8.81258,20.46207 L8.81258,20.36827 L8.62508,20.36827 L8.62508,20.27447 L8.81258,20.27447 L8.81258,20.18077 L8.53128,20.18077 L8.53128,20.74337 L8.81258,20.74337 L8.81258,20.64967 Z M8.06238,19.99317 L8.15608,20.08697 C8.34368,20.08697 8.43748,20.18077 8.34368,20.36827 C8.34368,20.55587 8.24988,20.64967 8.06238,20.55587 L7.96858,20.55587 L8.06238,19.99317 Z M7.87478,20.64967 L7.96858,20.64967 C8.15608,20.74337 8.24988,20.64967 8.34368,20.64967 C8.43748,20.55587 8.43748,20.46207 8.43748,20.36827 C8.53128,20.18077 8.43748,19.99317 8.15608,19.99317 C8.15608,19.99317 8.06238,19.89937 7.96858,19.89937 L7.87478,20.64967 Z M7.31208,20.18077 L7.40588,19.99317 C7.40588,19.99317 7.49958,19.99317 7.49958,19.89937 L7.49958,19.99317 L7.40588,20.08697 L7.40588,20.18077 L7.31208,20.18077 Z M7.59338,19.89937 L7.49958,19.89937 L7.03068,20.27447 L7.12448,20.27447 L7.21828,20.18077 L7.40588,20.27447 L7.40588,20.46207 L7.59338,19.89937 Z M7.31208,19.80567 L7.03068,19.52427 L6.93688,19.61807 L7.12448,19.71187 L6.84318,20.08697 L6.84318,20.18077 L7.12448,19.71187 L7.31208,19.80567 Z M6.56178,19.89937 L6.65558,19.99317 L6.93688,19.52427 L6.93688,19.43047 L6.56178,19.89937 Z M6.84318,19.43047 C6.74938,19.43047 6.74938,19.33667 6.74938,19.33667 C6.65558,19.24287 6.56178,19.24287 6.46798,19.33667 L6.46798,19.52427 C6.56178,19.61807 6.56178,19.61807 6.46798,19.71187 L6.37418,19.71187 C6.37418,19.61807 6.28038,19.61807 6.28038,19.61807 L6.18668,19.61807 C6.28038,19.61807 6.28038,19.71187 6.28038,19.71187 C6.37418,19.80567 6.46798,19.80567 6.56178,19.71187 C6.65558,19.71187 6.65558,19.61807 6.56178,19.52427 L6.56178,19.33667 L6.65558,19.33667 L6.74938,19.43047 L6.84318,19.43047 Z M6.18668,19.14917 L6.28038,19.05537 C6.37418,19.14917 6.37418,19.14917 6.37418,19.24287 L6.18668,19.24287 L6.18668,19.14917 Z M6.28038,19.33667 C6.28038,19.33667 6.37418,19.33667 6.37418,19.24287 C6.46798,19.24287 6.46798,19.14917 6.46798,19.14917 C6.46798,19.05537 6.37418,19.05537 6.37418,19.05537 L6.28038,18.96157 L5.90528,19.33667 L5.90528,19.43047 L6.09288,19.24287 L6.18668,19.24287 L6.18668,19.43047 C6.09288,19.43047 6.09288,19.52427 6.09288,19.52427 L6.18668,19.61807 L6.18668,19.43047 C6.28038,19.43047 6.28038,19.33667 6.28038,19.33667 L6.28038,19.33667 Z M5.81148,19.24287 L5.71768,19.05537 L5.81148,18.96157 L5.90528,19.05537 L5.99908,19.05537 L5.81148,18.86777 L5.90528,18.77397 L6.09288,18.86777 L6.18668,18.86777 L5.90528,18.68017 L5.53018,19.05537 L5.81148,19.24287 Z M5.81148,18.58637 L5.53018,18.68017 C5.53018,18.77397 5.43638,18.77397 5.34258,18.86777 C5.43638,18.77397 5.43638,18.68017 5.43638,18.58637 L5.62398,18.39887 L5.53018,18.30507 L5.24878,18.86777 L5.34258,18.96157 L5.90528,18.58637 L5.81148,18.58637 Z M5.06128,18.68017 L5.06128,18.68017 L5.43638,18.30507 L5.34258,18.21127 L5.06128,18.68017 Z M5.24878,18.11747 L5.24878,18.11747 L5.06128,18.21127 C5.06128,18.30507 4.96748,18.39887 4.96748,18.39887 L4.96748,18.21127 L5.06128,17.92997 L4.96748,17.83617 L4.59238,18.30507 L4.68618,18.30507 L4.77988,18.21127 C4.87368,18.11747 4.87368,18.02377 4.96748,18.02377 C4.96748,18.02377 4.96748,18.11747 4.87368,18.21127 L4.87368,18.49267 L4.87368,18.58637 L5.24878,18.11747 Z M4.96748,17.64857 L4.87368,17.55477 L4.59238,17.92997 C4.49858,18.02377 4.40478,18.02377 4.31098,17.92997 C4.31098,17.92997 4.31098,17.83617 4.40478,17.74237 L4.68618,17.36727 L4.59238,17.27347 L4.31098,17.64857 C4.12348,17.83617 4.12348,17.92997 4.31098,18.02377 C4.40478,18.11747 4.49858,18.11747 4.68618,17.92997 L4.96748,17.64857 Z" id="Fill-18"></path>
                    <path d="M22.59883,17.92993 L22.69253,17.83613 L22.22373,17.46103 L22.59883,17.92993 Z M22.12993,17.55483 L22.03613,17.64863 L22.22373,17.83613 L22.31753,17.92993 L22.12993,17.92993 L21.84853,17.83613 L22.22373,18.30503 L22.22373,18.21123 L22.12993,18.02373 C22.03613,18.02373 21.94233,17.92993 21.94233,17.92993 L22.12993,17.92993 L22.41123,18.02373 L22.50503,18.02373 L22.12993,17.55483 Z M21.56723,18.11743 C21.66103,18.11743 21.75473,18.11743 21.84853,18.21123 C21.94233,18.30503 21.94233,18.39883 21.84853,18.49263 C21.84853,18.58633 21.66103,18.49263 21.66103,18.39883 C21.56723,18.30503 21.47343,18.21123 21.56723,18.11743 L21.56723,18.11743 Z M21.56723,18.11743 C21.47343,18.21123 21.47343,18.39883 21.56723,18.49263 C21.66103,18.58633 21.84853,18.58633 21.94233,18.49263 C22.03613,18.39883 22.03613,18.30503 21.94233,18.11743 C21.75473,18.02373 21.66103,18.02373 21.56723,18.11743 L21.56723,18.11743 Z M21.66103,18.68013 L21.56723,18.77393 C21.47343,18.86773 21.37963,18.86773 21.28583,18.77393 C21.19203,18.68013 21.19203,18.58633 21.28583,18.49263 C21.28583,18.39883 21.28583,18.39883 21.37963,18.39883 L21.28583,18.39883 L21.19203,18.39883 C21.09833,18.49263 21.09833,18.68013 21.19203,18.86773 C21.37963,18.96153 21.47343,18.96153 21.56723,18.86773 L21.66103,18.77393 L21.66103,18.68013 Z M20.91073,19.05533 L20.81693,18.96153 L20.81693,18.86773 C20.91073,18.86773 20.91073,18.77393 21.00453,18.86773 L21.00453,19.05533 L20.91073,19.05533 Z M21.09833,18.96153 C21.09833,18.96153 21.09833,18.86773 21.00453,18.77393 L20.91073,18.77393 C20.91073,18.77393 20.81693,18.77393 20.81693,18.86773 C20.72313,18.86773 20.72313,18.86773 20.72313,18.96153 L21.09833,19.33663 L21.09833,19.24283 L21.00453,19.05533 L21.19203,19.05533 C21.19203,19.14913 21.28583,19.14913 21.28583,19.14913 L21.37963,19.05533 C21.28583,19.05533 21.28583,19.05533 21.19203,18.96153 L21.09833,18.96153 Z M20.62933,19.43043 L20.53553,19.33663 L20.53553,19.24283 L20.62933,19.24283 L20.72313,19.33663 L20.62933,19.43043 Z M20.44183,19.14913 L20.44183,19.14913 L20.62933,19.71183 L20.72313,19.61803 L20.62933,19.52423 L20.81693,19.43043 L20.91073,19.43043 L21.00453,19.43043 L20.44183,19.14913 Z M20.16043,19.24283 L19.97283,19.33663 L20.16043,19.71183 C20.16043,19.71183 20.16043,19.80563 20.25423,19.89933 C20.16043,19.89933 20.06663,19.80563 19.97283,19.71183 L19.69153,19.52423 L19.59773,19.61803 L20.06663,20.27453 L20.06663,20.18073 L19.97283,19.89933 C19.87913,19.89933 19.78533,19.80563 19.78533,19.71183 C19.87913,19.71183 19.87913,19.80563 19.97283,19.89933 L20.25423,20.08693 L20.34803,19.99313 L20.25423,19.71183 C20.16043,19.61803 20.16043,19.52423 20.16043,19.43043 C20.16043,19.52423 20.25423,19.61803 20.34803,19.61803 L20.53553,19.89933 L20.62933,19.80563 L20.16043,19.24283 Z M19.22263,20.18073 C19.31633,20.08693 19.31633,20.18073 19.41013,20.27453 C19.41013,20.36833 19.41013,20.55583 19.31633,20.55583 C19.22263,20.55583 19.12883,20.55583 19.12883,20.36833 C19.12883,20.27453 19.03503,20.18073 19.22263,20.18073 L19.22263,20.18073 Z M19.12883,20.08693 C19.03503,20.18073 18.94123,20.27453 19.03503,20.46213 C19.12883,20.55583 19.22263,20.64963 19.41013,20.64963 C19.50393,20.55583 19.59773,20.46213 19.50393,20.27453 C19.41013,20.08693 19.31633,19.99313 19.12883,20.08693 L19.12883,20.08693 Z M18.94123,20.18073 L18.84743,20.18073 L18.75363,20.46213 L18.75363,20.64963 C18.75363,20.64963 18.65993,20.55583 18.65993,20.46213 L18.56613,20.27453 L18.47233,20.27453 L18.47233,20.83723 L18.56613,20.83723 L18.56613,20.55583 C18.56613,20.55583 18.56613,20.46213 18.47233,20.36833 L18.56613,20.36833 C18.56613,20.46213 18.56613,20.46213 18.65993,20.55583 L18.75363,20.83723 L18.84743,20.74343 L18.84743,20.55583 L18.84743,20.27453 C18.84743,20.36833 18.84743,20.46213 18.94123,20.55583 L18.94123,20.74343 L19.03503,20.74343 L18.94123,20.18073 Z M18.37853,20.74343 L18.19093,20.74343 L18.19093,20.27453 L18.09713,20.27453 L18.09713,20.83723 L18.37853,20.83723 L18.37853,20.74343 Z M18.00343,20.74343 L17.72203,20.74343 L17.81583,20.55583 L18.00343,20.55583 L17.81583,20.46213 L17.81583,20.36833 L18.00343,20.36833 L18.00343,20.27453 L17.72203,20.27453 L17.62823,20.83723 L18.00343,20.83723 L18.00343,20.74343 Z M17.44073,20.83723 L17.53443,20.83723 L17.53443,20.27453 L17.44073,20.27453 L17.44073,20.83723 Z M17.34693,20.74343 L17.15933,20.64963 L17.15933,20.18073 L17.06553,20.18073 L17.06553,20.74343 L17.34693,20.74343 Z M16.87803,20.46213 L16.69043,20.46213 L16.78423,20.46213 L16.78423,20.64963 L16.69043,20.64963 C16.59663,20.64963 16.59663,20.55583 16.59663,20.46213 C16.59663,20.27453 16.69043,20.18073 16.78423,20.27453 L16.87803,20.27453 L16.87803,20.18073 L16.78423,20.18073 C16.59663,20.18073 16.50293,20.27453 16.50293,20.46213 C16.50293,20.55583 16.50293,20.74343 16.69043,20.74343 L16.87803,20.74343 L16.87803,20.46213 Z M16.40913,20.08693 L16.31533,20.08693 L16.22153,20.46213 C16.22153,20.55583 16.22153,20.64963 16.12773,20.64963 C16.03393,20.64963 16.03393,20.55583 16.03393,20.46213 L16.03393,20.08693 L15.94023,20.08693 L15.94023,20.46213 C15.94023,20.55583 16.03393,20.64963 16.12773,20.64963 C16.22153,20.64963 16.31533,20.64963 16.31533,20.46213 L16.40913,20.08693 Z M15.84643,20.27453 L15.56503,20.27453 L15.65883,20.36833 L15.65883,20.55583 L15.56503,20.55583 C15.47123,20.55583 15.37743,20.46213 15.37743,20.27453 C15.37743,20.08693 15.47123,19.99313 15.65883,19.99313 L15.75263,19.99313 L15.84643,19.89933 L15.65883,19.89933 C15.47123,19.89933 15.28373,19.99313 15.28373,20.27453 C15.18993,20.36833 15.28373,20.55583 15.56503,20.64963 L15.75263,20.64963 L15.84643,20.27453 Z" id="Fill-20"></path>
                    <path d="M88.9039,37.4369 L90.123,37.4369 L90.123,31.2472 L88.9039,31.2472 L88.9039,37.4369 Z M82.7142,37.4369 L83.8396,37.4369 L83.8396,33.498 L86.4655,37.4369 L87.4972,37.4369 L87.4972,31.2472 L86.3717,31.2472 L86.3717,35.0923 L83.7458,31.2472 L82.7142,31.2472 L82.7142,37.4369 Z M78.6814,36.3115 C77.7437,36.3115 77.0871,35.3737 77.0871,34.3421 C77.0871,33.3104 77.7437,32.3727 78.6814,32.3727 C79.6193,32.3727 80.3695,33.3104 80.3695,34.3421 C80.3695,35.3737 79.7131,36.3115 78.6814,36.3115 L78.6814,36.3115 Z M78.6814,37.5307 C80.3695,37.5307 81.5888,36.1239 81.5888,34.3421 C81.5888,32.5602 80.3695,31.1534 78.6814,31.1534 C76.9934,31.1534 75.7741,32.5602 75.7741,34.3421 C75.7741,36.1239 76.9934,37.5307 78.6814,37.5307 L78.6814,37.5307 Z M72.9606,37.5307 C73.9923,37.5307 74.6487,37.0618 75.2114,36.4053 L74.4612,35.5612 C73.9923,36.0302 73.6172,36.3115 73.0544,36.3115 C72.1166,36.3115 71.4602,35.3737 71.4602,34.3421 C71.4602,33.3104 72.1166,32.3727 73.0544,32.3727 C73.5233,32.3727 73.9923,32.654 74.4612,33.1229 L75.2114,32.0913 C74.6487,31.5285 74.086,31.1534 73.0544,31.1534 C71.3663,31.1534 70.1472,32.5602 70.1472,34.3421 C70.1472,36.1239 71.3663,37.5307 72.9606,37.5307 L72.9606,37.5307 Z M65.9269,34.2482 L65.9269,32.4664 L67.1461,32.4664 C67.7088,32.4664 68.0839,32.7478 68.0839,33.4042 C68.0839,33.8731 67.8025,34.2482 67.1461,34.2482 L65.9269,34.2482 Z M64.8015,37.4369 L65.9269,37.4369 L65.9269,35.4675 L66.9585,35.4675 L68.0839,37.4369 L69.4906,37.4369 L68.1776,35.1861 C68.8342,34.9048 69.3031,34.3421 69.3031,33.3104 C69.3031,32.7478 69.2093,32.1851 68.8342,31.9037 C68.4591,31.4348 67.9901,31.2472 67.2398,31.2472 L64.8015,31.2472 L64.8015,37.4369 Z M60.2999,34.8109 L61.0501,32.8415 L61.7066,34.8109 L60.2999,34.8109 Z M58.1429,37.4369 L59.362,37.4369 L59.831,36.0302 L62.1755,36.0302 L62.6444,37.4369 L63.9574,37.4369 L61.6128,31.2472 L60.4874,31.2472 L58.1429,37.4369 Z M51.8593,37.4369 L52.9848,37.4369 L52.9848,33.4042 L54.4853,36.0302 L54.579,36.0302 L56.0796,33.4042 L56.0796,37.4369 L57.2987,37.4369 L57.2987,31.2472 L55.9858,31.2472 L54.579,33.8731 L53.0785,31.2472 L51.8593,31.2472 L51.8593,37.4369 Z M45.482,36.3115 C44.5442,36.3115 43.8877,35.3737 43.8877,34.3421 C43.8877,33.3104 44.5442,32.3727 45.482,32.3727 C46.4198,32.3727 47.1701,33.3104 47.1701,34.3421 C47.1701,35.3737 46.5137,36.3115 45.482,36.3115 L45.482,36.3115 Z M45.482,37.5307 C47.1701,37.5307 48.3894,36.1239 48.3894,34.3421 C48.3894,32.5602 47.1701,31.1534 45.482,31.1534 C43.7939,31.1534 42.5748,32.5602 42.5748,34.3421 C42.5748,36.1239 43.7939,37.5307 45.482,37.5307 L45.482,37.5307 Z M36.0099,37.4369 L37.2291,37.4369 L37.2291,33.4042 L38.7296,36.0302 L38.8234,36.0302 L40.3239,33.4042 L40.3239,37.4369 L41.5431,37.4369 L41.5431,31.2472 L40.2301,31.2472 L38.8234,33.8731 L37.3229,31.2472 L36.0099,31.2472 L36.0099,37.4369 Z M31.2269,37.4369 L35.1658,37.4369 L35.1658,36.2178 L32.4461,36.2178 L32.4461,31.2472 L31.2269,31.2472 L31.2269,37.4369 Z M25.975,37.4369 L30.1015,37.4369 L30.1015,36.2178 L27.1942,36.2178 L27.1942,34.9048 L29.7264,34.9048 L29.7264,33.6855 L27.1942,33.6855 L27.1942,32.4664 L30.1015,32.4664 L30.1015,31.2472 L25.975,31.2472 L25.975,37.4369 Z M23.4429,37.4369 L24.5683,37.4369 L24.5683,31.2472 L23.4429,31.2472 L23.4429,37.4369 Z M18.4723,37.4369 L22.4112,37.4369 L22.4112,36.2178 L19.6915,36.2178 L19.6915,31.2472 L18.4723,31.2472 L18.4723,37.4369 Z M15.0023,37.5307 C16.0339,37.5307 16.7842,37.0618 17.3469,36.5929 L17.3469,33.8731 L15.0023,33.8731 L15.0023,34.9985 L16.2215,34.9985 L16.2215,35.9364 C15.8464,36.1239 15.4712,36.3115 15.0961,36.3115 C14.0645,36.3115 13.408,35.4675 13.408,34.3421 C13.408,33.3104 14.0645,32.3727 15.0023,32.3727 C15.565,32.3727 15.9402,32.654 16.4091,33.0291 L17.1594,31.9975 C16.5966,31.4348 16.0339,31.1534 15.0023,31.1534 C13.3142,31.1534 12.095,32.5602 12.095,34.3421 C12.095,36.2178 13.3142,37.5307 15.0023,37.5307 L15.0023,37.5307 Z M8.7188,37.5307 C10.2193,37.5307 11.1572,36.5929 11.1572,34.7172 L11.1572,31.2472 L9.938,31.2472 L9.938,34.8109 C9.938,35.7488 9.4691,36.3115 8.8126,36.3115 C8.0624,36.3115 7.5934,35.7488 7.5934,34.7172 L7.5934,31.2472 L6.3742,31.2472 L6.3742,34.8109 C6.3742,36.5929 7.3121,37.5307 8.7188,37.5307 L8.7188,37.5307 Z M2.998,37.5307 C3.9358,37.5307 4.7799,37.0618 5.3426,36.5929 L5.3426,33.8731 L2.9042,33.8731 L2.9042,34.9985 L4.1234,34.9985 L4.1234,35.9364 C3.8421,36.1239 3.4669,36.3115 2.998,36.3115 C2.0602,36.3115 1.4037,35.4675 1.4037,34.3421 C1.4037,33.3104 2.0602,32.3727 2.9042,32.3727 C3.5607,32.3727 3.9358,32.654 4.4048,33.0291 L5.155,31.9975 C4.5923,31.4348 3.9358,31.1534 2.998,31.1534 C1.3099,31.1534 0.0907,32.5602 0.0907,34.3421 C0.0907,36.2178 1.3099,37.5307 2.998,37.5307 L2.998,37.5307 Z" id="Fill-28"></path>
                    <path d="M66.67715,47.94072 L67.89625,47.94072 L67.89625,45.50232 L70.05335,41.84472 L68.64655,41.84472 L67.33355,44.28312 L66.02075,41.84472 L64.61385,41.84472 L66.67715,45.59612 L66.67715,47.94072 Z M61.42525,47.94072 L62.55065,47.94072 L62.55065,43.06392 L64.23875,43.06392 L64.23875,41.84472 L59.73715,41.84472 L59.73715,43.06392 L61.42525,43.06392 L61.42525,47.94072 Z M57.58005,47.94072 L58.70555,47.94072 L58.70555,41.84472 L57.58005,41.84472 L57.58005,47.94072 Z M54.48525,48.03442 C55.61065,48.03442 56.45465,47.37802 56.45465,46.15882 C56.45465,45.03342 55.79825,44.65832 54.67285,44.28312 C53.73495,44.00172 53.54745,43.90802 53.54745,43.43902 C53.54745,43.15772 53.73495,42.97012 54.20395,42.97012 C54.67285,42.97012 55.14175,43.15772 55.70445,43.53292 L56.26715,42.50122 C55.70445,42.03232 55.04795,41.75102 54.29765,41.75102 C53.17225,41.75102 52.32825,42.50122 52.32825,43.62662 C52.32825,44.84592 53.07855,45.12712 54.11015,45.50232 C55.04795,45.78372 55.23555,45.97132 55.23555,46.25262 C55.23555,46.62772 54.95425,46.90912 54.48525,46.90912 C53.82885,46.90912 53.35985,46.53402 52.79715,46.15882 L52.14065,47.09672 C52.79715,47.75312 53.64125,48.03442 54.48525,48.03442 L54.48525,48.03442 Z M48.01415,44.84592 L48.01415,43.06392 L49.23345,43.06392 C49.79605,43.06392 50.17115,43.34532 50.17115,43.90802 C50.17115,44.47072 49.88985,44.84592 49.23345,44.84592 L48.01415,44.84592 Z M46.88875,47.94072 L48.01415,47.94072 L48.01415,45.97132 L48.95205,45.97132 L50.17115,47.94072 L51.57795,47.94072 L50.26505,45.78372 C50.92145,45.50232 51.39045,44.84592 51.39045,43.90802 L51.39045,43.81422 C51.39045,43.25142 51.20285,42.78262 50.92145,42.40752 C50.54635,42.03232 50.07745,41.84472 49.32715,41.84472 L46.88875,41.84472 L46.88875,47.94072 Z M41.63695,47.94072 L45.76335,47.94072 L45.76335,46.81532 L42.76235,46.81532 L42.76235,45.50232 L45.38825,45.50232 L45.38825,44.28312 L42.76235,44.28312 L42.76235,43.06392 L45.76335,43.06392 L45.76335,41.84472 L41.63695,41.84472 L41.63695,47.94072 Z M37.51045,48.03442 L38.54205,48.03442 L40.79285,41.84472 L39.47985,41.84472 L38.07305,46.15882 L36.57255,41.84472 L35.25965,41.84472 L37.51045,48.03442 Z M33.19635,47.94072 L34.41555,47.94072 L34.41555,41.84472 L33.19635,41.84472 L33.19635,47.94072 Z M26.91285,47.94072 L28.13205,47.94072 L28.13205,44.09562 L30.75805,47.94072 L31.78965,47.94072 L31.78965,41.84472 L30.66425,41.84472 L30.66425,45.59612 L28.03825,41.84472 L26.91285,41.84472 L26.91285,47.94072 Z M23.34905,48.03442 C24.75585,48.03442 25.69365,47.19042 25.69365,45.31472 L25.69365,41.84472 L24.47445,41.84472 L24.47445,45.31472 C24.47445,46.34642 24.09935,46.81532 23.34905,46.81532 C22.59885,46.81532 22.12985,46.34642 22.12985,45.31472 L22.12985,41.84472 L20.91065,41.84472 L20.91065,45.31472 C20.91065,47.19042 21.84855,48.03442 23.34905,48.03442 L23.34905,48.03442 Z" id="Fill-30"></path>
                </g>
            </g>
        </g>
    </g>
</svg>