<?xml version="1.0" encoding="UTF-8"?>
<svg width="38px" height="38px" viewBox="0 0 38 38" version="1.1" xmlns="http://www.w3.org/2000/svg" xmlns:xlink="http://www.w3.org/1999/xlink">
    <title>linkedin (4)</title>
    <g id="Insights" stroke="none" stroke-width="1" fill="none" fill-rule="evenodd">
        <g id="Insights-view" transform="translate(-857.000000, -400.000000)" fill-rule="nonzero">
            <g id="linkedin-(4)" transform="translate(857.000000, 400.000000)">
                <circle id="Oval" fill="#007AB9" cx="18.8093294" cy="18.8089941" r="18.8093294"></circle>
                <path d="M30.0477176,20.3225118 L30.0477176,28.0771941 L25.5517588,28.0771941 L25.5517588,20.8422176 C25.5517588,19.0255941 24.9026294,17.7850059 23.2747765,17.7850059 C22.0325118,17.7850059 21.2945294,18.6202235 20.9686235,19.4289529 C20.8502647,19.7179765 20.8197529,20.1193235 20.8197529,20.5246941 L20.8197529,28.0768588 L16.3234588,28.0768588 C16.3234588,28.0768588 16.3838118,15.8232 16.3234588,14.5547824 L20.8200882,14.5547824 L20.8200882,16.4709882 C20.8110353,16.4860765 20.7982941,16.5008294 20.7902471,16.5152471 L20.8200882,16.5152471 L20.8200882,16.4709882 C21.4175824,15.5516118 22.4831471,14.2372588 24.8721176,14.2372588 C27.8300824,14.2372588 30.0477176,16.1698941 30.0477176,20.3225118 L30.0477176,20.3225118 Z M11.6199529,8.03666471 C10.0819588,8.03666471 9.07574118,9.04623529 9.07574118,10.3726588 C9.07574118,11.6709176 10.0527882,12.7096588 11.5609412,12.7096588 L11.5901118,12.7096588 C13.1582824,12.7096588 14.1333176,11.6709176 14.1333176,10.3726588 C14.1034765,9.04623529 13.1582824,8.03666471 11.6199529,8.03666471 L11.6199529,8.03666471 Z M9.34297059,28.0771941 L13.8375882,28.0771941 L13.8375882,14.5547824 L9.34297059,14.5547824 L9.34297059,28.0771941 Z" id="Shape" fill="#F1F2F2"></path>
            </g>
        </g>
    </g>
</svg>