<?xml version="1.0" encoding="UTF-8"?>
<svg width="38px" height="38px" viewBox="0 0 38 38" version="1.1" xmlns="http://www.w3.org/2000/svg" xmlns:xlink="http://www.w3.org/1999/xlink">
    <title>Group 25</title>
    <g id="Insights" stroke="none" stroke-width="1" fill="none" fill-rule="evenodd">
        <g id="Insights-view" transform="translate(-857.000000, -451.000000)" fill-rule="nonzero">
            <g id="Group-25" transform="translate(857.000000, 451.000000)">
                <path d="M18.9999348,0 C29.4939293,0 38,8.50724464 38,19.0000652 C38,29.4940598 29.4939293,38 18.9999348,38 C8.50594022,38 0,29.4939293 0,19.0000652 C0,8.50724464 8.50607066,0 18.9999348,0 Z" id="Path-Copy" fill="#686FC7"></path>
                <g id="mail-(3)" transform="translate(10.000000, 13.000000)" fill="#FFFFFF">
                    <path d="M18.175968,0.753588 L9.539784,7.451892 C9.443808,7.524144 9.329904,7.56 9.216,7.56 C9.102096,7.56 8.988192,7.524144 8.892216,7.451892 L0.256032,0.753588 C0.095904,1.004724 0,1.30068 0,1.62 L0,10.26 C0,11.153304 0.726696,11.88 1.62,11.88 L16.812,11.88 C17.705304,11.88 18.432,11.153304 18.432,10.26 L18.432,1.62 C18.432,1.30068 18.336096,1.004724 18.175968,0.753588 Z" id="Path"></path>
                    <path d="M16.812,0 L1.62,0 C1.453752,0 1.296468,0.032436 1.145376,0.079164 L9.216,6.345 L17.286624,0.079164 C17.135532,0.032436 16.978248,0 16.812,0 Z" id="Path"></path>
                </g>
            </g>
        </g>
    </g>
</svg>