<?xml version="1.0" encoding="UTF-8"?>
<svg width="41px" height="41px" viewBox="0 0 41 41" version="1.1" xmlns="http://www.w3.org/2000/svg" xmlns:xlink="http://www.w3.org/1999/xlink">
    <title>Group 22</title>
    <g id="Insights" stroke="none" stroke-width="1" fill="none" fill-rule="evenodd">
        <g id="Insights-view" transform="translate(-855.000000, -237.000000)">
            <g id="Group-22" transform="translate(855.000000, 237.000000)">
                <circle id="Oval" fill="#D8D8D8" cx="20.5" cy="20.5" r="20.5"></circle>
                <g id="noun_Share_3095508" opacity="0.5" transform="translate(10.000000, 10.000000)" fill="#000000" fill-rule="nonzero">
                    <path d="M20.8,16.8 C20.8082153,18.0202058 20.1217667,19.1388765 19.0301684,19.6842049 C17.9385702,20.2295333 16.631849,20.1065882 15.6611235,19.3672224 C14.690398,18.6278566 14.2246531,17.4007797 14.46032,16.20352 L6.44608,12.4384 C5.58632604,13.4788289 4.16620792,13.8679591 2.89618272,13.4111165 C1.62615753,12.9542739 0.779315836,11.7496922 0.779315836,10.4 C0.779315836,9.05030775 1.62615753,7.8457261 2.89618272,7.38888349 C4.16620792,6.93204087 5.58632604,7.32117111 6.44608,8.3616 L14.46032,4.59648 C14.1359977,2.99155779 15.0573934,1.39626251 16.6096302,0.875185749 C18.1618671,0.354108989 19.8592174,1.0703067 20.5689849,2.54583722 C21.2787524,4.02136775 20.7788359,5.79450636 19.4028456,6.68198092 C18.0268554,7.56945548 16.2053679,7.29355642 15.15392,6.0384 L7.13968,9.80352 C7.22010596,10.1971068 7.22010596,10.6028932 7.13968,10.99648 L15.15392,14.7616 C16.0101354,13.7209849 17.4284654,13.3316234 18.6959745,13.7892313 C19.9634837,14.2468392 20.8059898,15.4524286 20.8,16.8 L20.8,16.8 Z" id="Path"></path>
                </g>
            </g>
        </g>
    </g>
</svg>