<?xml version="1.0" encoding="UTF-8"?>
<svg width="38px" height="38px" viewBox="0 0 38 38" version="1.1" xmlns="http://www.w3.org/2000/svg" xmlns:xlink="http://www.w3.org/1999/xlink">
    <title>twitter (3)</title>
    <g id="Insights" stroke="none" stroke-width="1" fill="none" fill-rule="evenodd">
        <g id="Insights-view" transform="translate(-857.000000, -346.000000)" fill-rule="nonzero">
            <g id="twitter-(3)" transform="translate(857.000000, 346.000000)">
                <circle id="Oval" fill="#55ACEE" cx="18.8651504" cy="18.8648142" r="18.8648142"></circle>
                <path d="M30.4205133,13.5575929 C29.6120885,13.9160708 28.7424602,14.158531 27.8304602,14.2668142 C28.7616283,13.7089204 29.4762301,12.826177 29.8135221,11.7726018 C28.9422124,12.289469 27.9767434,12.6644248 26.9500708,12.866531 C26.1275221,11.9905133 24.9555752,11.4430442 23.6578584,11.4430442 C21.1680177,11.4430442 19.1486372,13.4624248 19.1486372,15.9522655 C19.1486372,16.3056991 19.1886549,16.6497168 19.266,16.9799469 C15.5184602,16.7919646 12.195646,14.996885 9.97146903,12.2679469 C9.58339823,12.9337876 9.36077876,13.7089204 9.36077876,14.5351681 C9.36077876,16.0992212 10.1574336,17.48 11.366708,18.2884248 C10.6278938,18.2652212 9.93212389,18.0624425 9.32446018,17.7238053 C9.32412389,17.7429735 9.32412389,17.7621416 9.32412389,17.7809735 C9.32412389,19.9658053 10.8790973,21.7881239 12.9415221,22.2020885 C12.5635398,22.3056637 12.1643717,22.3604779 11.7537699,22.3604779 C11.4625487,22.3604779 11.1804071,22.3325664 10.9053274,22.2801062 C11.4790265,24.0711504 13.1439646,25.3749204 15.1176106,25.4115752 C13.5740708,26.6211858 11.6300177,27.3418407 9.51681416,27.3418407 C9.15362832,27.3418407 8.79380531,27.3206549 8.44171681,27.2786195 C10.4362124,28.5585133 12.8070088,29.3047257 15.3533451,29.3047257 C23.6474336,29.3047257 28.1832212,22.4337876 28.1832212,16.4745133 C28.1832212,16.2791327 28.1788496,16.0844248 28.1701062,15.8913982 C29.0518407,15.255823 29.8162124,14.4618584 30.4205133,13.5575929 L30.4205133,13.5575929 Z" id="Path" fill="#F1F2F2"></path>
            </g>
        </g>
    </g>
</svg>