<?xml version="1.0" encoding="UTF-8"?>
<svg width="42px" height="44px" viewBox="0 0 42 44" version="1.1" xmlns="http://www.w3.org/2000/svg" xmlns:xlink="http://www.w3.org/1999/xlink">
    <title>desktop</title>
    <g id="Final-UI" stroke="none" stroke-width="1" fill="none" fill-rule="evenodd">
        <g id="course-page" transform="translate(-965.000000, -1000.000000)" fill-rule="nonzero">
            <g id="desktop" transform="translate(965.000000, 1000.000000)">
                <g id="Group" transform="translate(7.000000, 19.600000)" fill="#FF7CB9">
                    <path d="M29.7094,1.2467 C29.3721664,0.488360018 28.6199434,-0.000228290142 27.79,-7.99658903e-08 L7.21,-7.99658903e-08 C6.38005663,-0.000228290142 5.62783364,0.488360018 5.2906,1.2467 L0.245,12.6 L34.755,12.6 L29.7094,1.2467 Z" id="Path"></path>
                    <polygon id="Path" points="4.2 18.2 14.7 18.2 14.7 19.6 4.2 19.6"></polygon>
                    <circle id="Oval" cx="29.4" cy="18.9" r="1.4"></circle>
                    <circle id="Oval" cx="22.05" cy="18.9" r="1.05"></circle>
                    <path d="M0,14 L0,21.7 C0,22.859798 0.940202025,23.8 2.1,23.8 L32.9,23.8 C34.059798,23.8 35,22.859798 35,21.7 L35,14 L0,14 Z M16.1,20.3 C16.1,20.6865993 15.7865993,21 15.4,21 L3.5,21 C3.11340068,21 2.8,20.6865993 2.8,20.3 L2.8,17.5 C2.8,17.1134007 3.11340068,16.8 3.5,16.8 L15.4,16.8 C15.7865993,16.8 16.1,17.1134007 16.1,17.5 L16.1,20.3 Z M29.4,21.7000107 C28.1271119,21.6952296 27.0176153,20.8324796 26.6994,19.6 L24.3894,19.6 C24.0418364,20.7657638 22.8915518,21.499955 21.6878231,21.3243334 C20.4840945,21.1487118 19.5915286,20.1164726 19.5915286,18.9 C19.5915286,17.6835274 20.4840945,16.6512882 21.6878231,16.4756666 C22.8915518,16.300045 24.0418364,17.0342362 24.3894,18.2 L26.7029,18.2 C27.0692645,16.7942538 28.4514068,15.9034902 29.8829522,16.1505187 C31.3144976,16.3975472 32.3181753,17.7000098 32.1922276,19.1472425 C32.0662799,20.5944752 30.8526973,21.7039772 29.4,21.7000107 L29.4,21.7000107 Z" id="Shape"></path>
                </g>
                <path d="M32.9,0 L2.1,0 C0.940202025,0 0,0.940202025 0,2.1 L0,25.2 C0,26.359798 0.940202025,27.3 2.1,27.3 L11.9,27.3 L11.9,29.4 L8.4,29.4 C7.24020203,29.4 6.3,30.340202 6.3,31.5 L6.3,32.9 C6.3,33.2865993 6.61340068,33.6 7,33.6 L28,33.6 C28.3865993,33.6 28.7,33.2865993 28.7,32.9 L28.7,31.5 C28.7,30.340202 27.759798,29.4 26.6,29.4 L23.1,29.4 L23.1,27.3 L32.9,27.3 C34.059798,27.3 35,26.359798 35,25.2 L35,2.1 C35,0.940202025 34.059798,0 32.9,0 Z M2.1,1.4 L32.9,1.4 C33.2865993,1.4 33.6,1.71340068 33.6,2.1 L33.6,21 L1.4,21 L1.4,2.1 C1.4,1.71340068 1.71340068,1.4 2.1,1.4 Z M27.3,31.5 L27.3,32.2 L7.7,32.2 L7.7,31.5 C7.7,31.1134007 8.01340068,30.8 8.4,30.8 L26.6,30.8 C26.9865993,30.8 27.3,31.1134007 27.3,31.5 Z M21.7,29.4 L13.3,29.4 L13.3,27.3 L21.7,27.3 L21.7,29.4 Z M32.9,25.9 L29.4,25.9 L29.4,24.5 C29.4,24.1134007 29.0865993,23.8 28.7,23.8 C28.3134007,23.8 28,24.1134007 28,24.5 L28,25.9 L26.6,25.9 L26.6,24.5 C26.6,24.1134007 26.2865993,23.8 25.9,23.8 C25.5134007,23.8 25.2,24.1134007 25.2,24.5 L25.2,25.9 L2.1,25.9 C1.71340068,25.9 1.4,25.5865993 1.4,25.2 L1.4,22.4 L33.6,22.4 L33.6,25.2 C33.6,25.5865993 33.2865993,25.9 32.9,25.9 Z" id="Shape" fill="#151A6A"></path>
                <path d="M6.5303,5.9899 L8.2012,14.3794 C8.38426952,15.3760256 9.25289999,16.0997861 10.2662,16.1 L14.4102,16.1 L17.0051,18.6949 C17.2784499,18.9681674 17.7215501,18.9681674 17.9949,18.6949 L20.5898,16.1 L24.7338,16.1 C25.7437266,16.1016763 26.6111149,15.38263 26.7967,14.3899 L28.4718,5.9801 C28.5846415,5.3669635 28.4192231,4.73538615 28.0203101,4.2562849 C27.6213971,3.77718365 27.0302337,3.5 26.4068,3.5 L8.5932,3.5 C7.96976631,3.5 7.37860289,3.77718365 6.97968991,4.2562849 C6.58077693,4.73538615 6.41535849,5.3669635 6.5282,5.9801 L6.5303,5.9899 Z M8.5932,4.9 L26.4068,4.9 C26.6128946,4.9 26.8085203,4.9908038 26.9415306,5.1482308 C27.0745409,5.30565779 27.1314178,5.51369957 27.097,5.7169 L25.4219,14.1274 C25.3604958,14.459151 25.0711858,14.6998993 24.7338,14.7 L20.3,14.7 C20.1143636,14.7000396 19.9363449,14.7738154 19.8051,14.9051 L17.5,17.2102 L15.1949,14.9051 C15.0636551,14.7738154 14.8856364,14.7000396 14.7,14.7 L10.2662,14.7 C9.92469915,14.7000147 9.63303064,14.4536051 9.576,14.1169 L7.9044,5.7225 C7.8681726,5.51868104 7.92401854,5.30927993 8.05693026,5.15056929 C8.18984197,4.99185866 8.38618653,4.9 8.5932,4.9 L8.5932,4.9 Z" id="Shape" fill="#151A6A"></path>
            </g>
        </g>
    </g>
</svg>