<?xml version="1.0" encoding="utf-8"?>
<!-- Generator: Adobe Illustrator 23.0.0, SVG Export Plug-In . SVG Version: 6.00 Build 0)  -->
<svg version="1.1" id="Layer_1" xmlns="http://www.w3.org/2000/svg" xmlns:xlink="http://www.w3.org/1999/xlink" x="0px" y="0px"
	 viewBox="0 0 300 100" style="enable-background:new 0 0 300 100;" xml:space="preserve">
<style type="text/css">
	.st0{clip-path:url(#SVGID_2_);}
	.st1{clip-path:url(#SVGID_4_);fill:#FFFFFF;}
	.st2{clip-path:url(#SVGID_6_);}
	.st3{clip-path:url(#SVGID_8_);fill:#FFFFFF;}
	.st4{clip-path:url(#SVGID_10_);}
	.st5{clip-path:url(#SVGID_12_);fill:#FFFFFF;}
	.st6{clip-path:url(#SVGID_14_);}
	.st7{clip-path:url(#SVGID_16_);fill:#FFFFFF;}
	.st8{clip-path:url(#SVGID_18_);}
	.st9{clip-path:url(#SVGID_20_);fill:#FFFFFF;}
	.st10{clip-path:url(#SVGID_22_);}
	.st11{clip-path:url(#SVGID_24_);fill:#FFFFFF;}
</style>
<g>
	<g>
		<defs>
			<path id="SVGID_1_" d="M266.7,68.1c-0.5,0-1.1-0.1-1.7-0.2c-0.6-0.1-1.1-0.3-1.5-0.6c-0.4-0.3-0.8-0.6-1.1-1.1
				c-0.3-0.4-0.4-1-0.4-1.6c0-1,0.3-1.8,0.9-2.4c0.6-0.6,1.4-1.1,2.4-1.4c1-0.3,2-0.5,3.3-0.6c1.2-0.1,2.4-0.2,3.6-0.2h1.4v1.1
				c0,2.1-0.6,3.7-1.8,4.9C270.6,67.5,268.9,68.1,266.7,68.1z M264,75.4c2,0,3.8-0.4,5.5-1.1c1.7-0.8,3-1.8,3.8-3.2h0.2v3.5h10V57.9
				c0-3-0.3-5.6-0.8-7.8c-0.6-2.2-1.4-4-2.6-5.4c-1.2-1.4-2.8-2.5-4.7-3.2c-1.9-0.7-4.3-1-7.1-1c-2.7,0-5.3,0.5-7.9,1.4
				c-2.6,0.9-4.9,2.3-6.8,4.2l5.5,5.9c1-0.9,2.2-1.7,3.7-2.4c1.4-0.7,2.9-1,4.5-1c1.7,0,3.1,0.4,4.3,1.2s1.7,2,1.7,3.6v0.5
				c-2.4,0-4.8,0.1-7.4,0.4c-2.5,0.3-4.8,0.8-6.9,1.6c-2.1,0.8-3.7,1.9-5,3.4c-1.3,1.5-2,3.4-2,5.8c0,1.9,0.4,3.6,1.1,4.9
				c0.8,1.3,1.7,2.4,2.9,3.2c1.2,0.8,2.5,1.4,3.9,1.7S262.7,75.4,264,75.4z M228,74.6V56.6c0-0.9,0.1-1.8,0.4-2.7
				c0.2-0.9,0.6-1.6,1.1-2.3c0.5-0.7,1.1-1.2,1.8-1.6c0.7-0.4,1.6-0.6,2.6-0.6c1,0,1.8,0.2,2.4,0.6c0.6,0.4,1.1,0.9,1.5,1.5
				c0.4,0.6,0.6,1.4,0.8,2.2c0.2,0.8,0.2,1.7,0.2,2.7v18.1h11V54.1c0-1.6-0.2-3.3-0.6-4.9c-0.4-1.6-1.1-3.1-2.1-4.4
				c-1-1.3-2.2-2.3-3.8-3.1s-3.4-1.2-5.6-1.2c-1.2,0-2.2,0.2-3.3,0.5s-2,0.7-2.8,1.2c-0.9,0.5-1.6,1.1-2.3,1.8s-1.2,1.4-1.6,2.1
				h-0.1v-4.6h-10.6v33.1H228z M204.2,54.3h-14c0-0.8,0.3-1.6,0.7-2.4c0.4-0.8,0.9-1.5,1.6-2c0.7-0.6,1.4-1,2.3-1.4
				c0.9-0.3,1.9-0.5,2.9-0.5c2.2,0,3.8,0.6,4.9,1.9C203.7,51,204.2,52.5,204.2,54.3z M198,75.6c3.4,0,6.3-0.6,8.9-1.8
				c2.5-1.2,4.6-3,6.1-5.2l-7.6-4.8c-0.8,1-1.7,1.8-2.9,2.5c-1.2,0.6-2.7,1-4.4,1c-1,0-1.9-0.2-2.8-0.5c-0.9-0.3-1.7-0.7-2.5-1.3
				c-0.7-0.6-1.3-1.2-1.8-2c-0.5-0.8-0.7-1.6-0.8-2.5h24c0-0.4,0.1-0.8,0.1-1.3v-1.3c0-2.8-0.4-5.4-1.2-7.6c-0.8-2.2-2-4.1-3.4-5.6
				c-1.5-1.6-3.2-2.7-5.2-3.6c-2-0.8-4.3-1.2-6.7-1.2c-2.5,0-4.9,0.4-7,1.3s-4.1,2-5.6,3.6c-1.6,1.5-2.9,3.4-3.8,5.6
				c-0.9,2.2-1.4,4.6-1.4,7.3c0,2.8,0.5,5.3,1.4,7.4c1,2.2,2.3,4,3.9,5.5c1.7,1.5,3.6,2.6,5.8,3.4S195.5,75.6,198,75.6z M155.4,74.6
				V56.7c0-2,0.5-3.7,1.5-5c1-1.4,2.5-2,4.4-2c1,0,1.8,0.2,2.4,0.6s1.1,0.9,1.5,1.5c0.4,0.6,0.6,1.4,0.8,2.2
				c0.1,0.8,0.2,1.7,0.2,2.7v17.9h11V54.1c0-1.6-0.2-3.3-0.6-4.9c-0.4-1.6-1.1-3.1-2.1-4.4c-1-1.3-2.2-2.3-3.7-3.1s-3.4-1.2-5.7-1.2
				c-2.3,0-4.3,0.5-5.9,1.6c-1.6,1-2.8,2.2-3.6,3.6h-0.1V24.4h-10.9v50.2H155.4z M136.6,75.4c1.2,0,2.3-0.1,3.5-0.3
				c1.2-0.2,2.1-0.4,2.9-0.7l-0.1-8c-0.4,0.2-0.9,0.3-1.5,0.4s-1.2,0.1-1.7,0.1c-1.6,0-2.6-0.4-3.2-1.2s-0.9-1.9-0.9-3.5V49.7h7.8
				v-8.2h-7.8v-8.7h-10.7v8.7h-5.2v8.2h5.3v14c0,1.8,0.2,3.4,0.6,4.8c0.4,1.4,1.1,2.7,2,3.7s2.1,1.8,3.6,2.4
				C132.5,75.1,134.4,75.4,136.6,75.4z M103.4,68.1c-0.5,0-1.1-0.1-1.7-0.2s-1.1-0.3-1.5-0.6c-0.4-0.3-0.8-0.6-1.1-1.1
				c-0.3-0.4-0.4-1-0.4-1.6c0-1,0.3-1.8,0.9-2.4c0.6-0.6,1.4-1.1,2.4-1.4c1-0.3,2-0.5,3.3-0.6c1.2-0.1,2.4-0.2,3.6-0.2h1.4v1.1
				c0,2.1-0.6,3.7-1.8,4.9C107.3,67.5,105.6,68.1,103.4,68.1z M100.6,75.4c2,0,3.8-0.4,5.5-1.1c1.7-0.8,3-1.8,3.8-3.2h0.2v3.5h10
				V57.9c0-3-0.3-5.6-0.8-7.8c-0.6-2.2-1.4-4-2.6-5.4c-1.2-1.4-2.8-2.5-4.7-3.2c-1.9-0.7-4.3-1-7.1-1c-2.7,0-5.3,0.5-7.9,1.4
				c-2.6,0.9-4.9,2.3-6.8,4.2l5.5,5.9c1-0.9,2.2-1.7,3.7-2.4c1.4-0.7,2.9-1,4.5-1c1.7,0,3.1,0.4,4.3,1.2c1.2,0.8,1.7,2,1.7,3.6v0.5
				c-2.4,0-4.8,0.1-7.4,0.4c-2.5,0.3-4.8,0.8-6.9,1.6c-2.1,0.8-3.7,1.9-5,3.4c-1.3,1.5-2,3.4-2,5.8c0,1.9,0.4,3.6,1.1,4.9
				c0.8,1.3,1.7,2.4,2.9,3.2c1.2,0.8,2.5,1.4,3.9,1.7C97.9,75.2,99.3,75.4,100.6,75.4z"/>
		</defs>
		<use xlink:href="#SVGID_1_"  style="overflow:visible;fill:#FFFFFF;"/>
		<clipPath id="SVGID_2_">
			<use xlink:href="#SVGID_1_"  style="overflow:visible;"/>
		</clipPath>
		<g class="st0">
			<defs>
				<rect id="SVGID_3_" x="-454" y="-538.7" width="1207.3" height="1549.8"/>
			</defs>
			<use xlink:href="#SVGID_3_"  style="overflow:visible;fill:#FFFFFF;"/>
			<clipPath id="SVGID_4_">
				<use xlink:href="#SVGID_3_"  style="overflow:visible;"/>
			</clipPath>
			<rect x="82.2" y="18" class="st1" width="207.7" height="64.1"/>
		</g>
	</g>
	<g>
		<defs>
			<path id="SVGID_5_" d="M48,74.6V56.6c0-0.9,0.1-1.8,0.4-2.7c0.2-0.9,0.6-1.6,1.1-2.3c0.5-0.7,1.1-1.2,1.8-1.6
				c0.7-0.4,1.6-0.6,2.6-0.6s1.8,0.2,2.4,0.6c0.6,0.4,1.1,0.9,1.5,1.5c0.4,0.6,0.6,1.4,0.8,2.2s0.2,1.7,0.2,2.7v18.1h11V54.1
				c0-1.6-0.2-3.3-0.6-4.9c-0.4-1.6-1.1-3.1-2.1-4.4c-1-1.3-2.2-2.3-3.8-3.1s-3.4-1.2-5.6-1.2c-1.2,0-2.2,0.2-3.3,0.5
				s-2,0.7-2.8,1.2c-0.9,0.5-1.6,1.1-2.3,1.8s-1.2,1.4-1.6,2.1h-0.1c0-2.5-2.1-4.6-4.6-4.6h-0.7c-2.9,0-5.3,2.4-5.3,5.3v27.8H48z"/>
		</defs>
		<use xlink:href="#SVGID_5_"  style="overflow:visible;fill:#FFFFFF;"/>
		<clipPath id="SVGID_6_">
			<use xlink:href="#SVGID_5_"  style="overflow:visible;"/>
		</clipPath>
		<g class="st2">
			<defs>
				<rect id="SVGID_7_" x="-454" y="-538.7" width="1207.3" height="1549.8"/>
			</defs>
			<use xlink:href="#SVGID_7_"  style="overflow:visible;fill:#FFFFFF;"/>
			<clipPath id="SVGID_8_">
				<use xlink:href="#SVGID_7_"  style="overflow:visible;"/>
			</clipPath>
			<rect x="30.6" y="34.2" class="st3" width="45.5" height="46.8"/>
		</g>
	</g>
	<g>
		<defs>
			<path id="SVGID_9_" d="M26.9,75.4c1.2,0,2.2-0.2,3.3-0.5c1-0.3,2-0.7,2.9-1.2s1.6-1.1,2.3-1.7c0.6-0.7,1.2-1.4,1.6-2.1H37v4.6
				h10.5V46.8c0-3-2.4-5.4-5.4-5.4s-5.4,2.4-5.4,5.4v12.4c0,1.9-0.5,3.6-1.5,5c-1,1.4-2.4,2.1-4.4,2.1c-1,0-1.8-0.2-2.5-0.6
				c-0.6-0.4-1.1-0.9-1.5-1.6c-0.4-0.7-0.6-1.4-0.8-2.3c-0.1-0.8-0.2-1.7-0.2-2.7v-7c0-6.1-4.9-11-11-11v20.5c0,1.7,0.2,3.3,0.6,4.9
				c0.4,1.6,1.1,3.1,2.1,4.3c1,1.3,2.2,2.3,3.7,3.1C22.8,75,24.7,75.4,26.9,75.4z"/>
		</defs>
		<use xlink:href="#SVGID_9_"  style="overflow:visible;fill:#FFFFFF;"/>
		<clipPath id="SVGID_10_">
			<use xlink:href="#SVGID_9_"  style="overflow:visible;"/>
		</clipPath>
		<g class="st4">
			<defs>
				<rect id="SVGID_11_" x="-454" y="-538.7" width="1207.3" height="1549.8"/>
			</defs>
			<use xlink:href="#SVGID_11_"  style="overflow:visible;fill:#FFFFFF;"/>
			<clipPath id="SVGID_12_">
				<use xlink:href="#SVGID_11_"  style="overflow:visible;"/>
			</clipPath>
			<rect x="8.5" y="35" class="st5" width="45.4" height="46.8"/>
		</g>
	</g>
	<g>
		<defs>
			<rect id="SVGID_13_" x="73.6" y="41.4" width="11.5" height="33.2"/>
		</defs>
		<use xlink:href="#SVGID_13_"  style="overflow:visible;fill:#FFFFFF;"/>
		<clipPath id="SVGID_14_">
			<use xlink:href="#SVGID_13_"  style="overflow:visible;"/>
		</clipPath>
		<g class="st6">
			<defs>
				<rect id="SVGID_15_" x="-454" y="-538.7" width="1207.3" height="1549.8"/>
			</defs>
			<use xlink:href="#SVGID_15_"  style="overflow:visible;fill:#FFFFFF;"/>
			<clipPath id="SVGID_16_">
				<use xlink:href="#SVGID_15_"  style="overflow:visible;"/>
			</clipPath>
			<rect x="67.2" y="35" class="st7" width="24.3" height="46"/>
		</g>
	</g>
	<g>
		<defs>
			<path id="SVGID_17_" d="M80,36.3c0.9,0,1.7-0.1,2.5-0.4c0.8-0.3,1.5-0.7,2-1.2s1-1.1,1.4-1.8c0.3-0.7,0.5-1.5,0.5-2.3
				s-0.2-1.6-0.5-2.3c-0.3-0.7-0.8-1.3-1.4-1.8c-0.6-0.5-1.2-0.9-2-1.2s-1.6-0.4-2.5-0.4c-0.9,0-1.7,0.2-2.5,0.5
				c-0.8,0.3-1.4,0.7-2,1.2s-1,1.1-1.4,1.8c-0.3,0.7-0.5,1.4-0.5,2.2c0,1.6,0.6,2.9,1.8,4.1C76.7,35.7,78.2,36.3,80,36.3z"/>
		</defs>
		<use xlink:href="#SVGID_17_"  style="overflow:visible;fill-rule:evenodd;clip-rule:evenodd;fill:#FFFFFF;"/>
		<clipPath id="SVGID_18_">
			<use xlink:href="#SVGID_17_"  style="overflow:visible;"/>
		</clipPath>
		<g class="st8">
			<defs>
				<rect id="SVGID_19_" x="-454" y="-538.7" width="1207.3" height="1549.8"/>
			</defs>
			<use xlink:href="#SVGID_19_"  style="overflow:visible;fill:#FFFFFF;"/>
			<clipPath id="SVGID_20_">
				<use xlink:href="#SVGID_19_"  style="overflow:visible;"/>
			</clipPath>
			<rect x="67.2" y="18.4" class="st9" width="25.6" height="24.3"/>
		</g>
	</g>
	<g>
		<defs>
			<path id="SVGID_21_" d="M198.1,24.9c-0.3-0.2-0.7-0.2-1,0L181.2,39c-0.1,0.1-0.2,0.3-0.2,0.5v5.1c0,0.4,0.3,0.6,0.7,0.6
				c0.2,0,0.4-0.1,0.5-0.2l15.4-13.6L212.9,45c0.3,0.2,0.7,0.3,1,0c0.1-0.1,0.2-0.3,0.2-0.5v-5.1c0-0.2-0.1-0.3-0.2-0.5L198.1,24.9z
				"/>
		</defs>
		<use xlink:href="#SVGID_21_"  style="overflow:visible;fill:#FFFFFF;"/>
		<clipPath id="SVGID_22_">
			<use xlink:href="#SVGID_21_"  style="overflow:visible;"/>
		</clipPath>
		<g class="st10">
			<defs>
				<rect id="SVGID_23_" x="-454" y="-538.7" width="1207.3" height="1549.8"/>
			</defs>
			<use xlink:href="#SVGID_23_"  style="overflow:visible;fill:#FFFFFF;"/>
			<clipPath id="SVGID_24_">
				<use xlink:href="#SVGID_23_"  style="overflow:visible;"/>
			</clipPath>
			<rect x="174.6" y="18.4" class="st11" width="46" height="33.2"/>
		</g>
	</g>
</g>
</svg>
