<?xml version="1.0" encoding="UTF-8"?>
<svg width="42px" height="39px" viewBox="0 0 42 39" version="1.1" xmlns="http://www.w3.org/2000/svg" xmlns:xlink="http://www.w3.org/1999/xlink">
    <title>rich</title>
    <g id="Final-UI" stroke="none" stroke-width="1" fill="none" fill-rule="evenodd">
        <g id="course-page" transform="translate(-965.000000, -758.000000)" fill-rule="nonzero">
            <g id="rich" transform="translate(965.000000, 758.000000)">
                <g id="Group" transform="translate(7.948800, 4.719600)" fill="#FF7CB9">
                    <ellipse id="Oval" cx="11.240928" cy="5.3031744" rx="11.240928" ry="5.3031744"></ellipse>
                    <path d="M11.240928,11.9324736 C6.1583328,11.9324736 2.0560896,10.5705792 0.0384192,8.4429504 L0.0582912,10.0658304 C0.0582912,13.0002624 5.8496544,14.5840608 11.2992192,14.5840608 C16.748784,14.5840608 22.5401472,13.0002624 22.5401472,10.0572192 L22.5216,8.356176 C20.5344,10.53216 16.3917504,11.9324736 11.240928,11.9324736 L11.240928,11.9324736 Z" id="Path"></path>
                    <path d="M10.94616,15.9062112 C12.181536,18.206064 16.51032,19.862064 21.8207808,19.862064 C28.1241792,19.862064 33.0617088,17.5324032 33.0617088,14.5588896 C33.0617088,11.9139264 29.1535488,9.7829856 23.8543488,9.343152 L23.86296,10.0413216 C23.86296,14.6847456 15.669072,15.96384 10.94616,15.9062112 Z" id="Path"></path>
                    <path d="M33.0988032,17.6118912 C31.1116032,19.7885376 26.9709408,21.1888512 21.8207808,21.1888512 C16.7381856,21.1888512 12.63528,19.8269568 10.6176096,17.699328 L10.638144,19.3328064 C10.638144,22.2612768 16.4295072,23.8404384 21.879072,23.8404384 C27.3286368,23.8404384 33.12,22.259952 33.12,19.3235328 L33.0988032,17.6118912 Z" id="Path"></path>
                    <path d="M11.240928,29.1456 C16.5705984,29.1456 20.911968,27.4783392 22.1287968,25.1659008 C17.4787488,25.20432 9.3153312,23.9338368 9.3153312,19.3367808 L9.30672,18.61344 C3.9585024,19.0387008 -4.70663508e-15,21.1782528 -4.70663508e-15,23.8391136 C-4.70663508e-15,26.8132896 4.938192,29.1456 11.240928,29.1456 L11.240928,29.1456 Z" id="Path"></path>
                    <path d="M11.240928,30.4704 C6.1583328,30.4704 2.0554272,29.1085056 0.0377568,26.9808768 L0.0582912,28.6143552 C0.0582912,31.5421632 5.8496544,33.1219872 11.2992192,33.1219872 C16.748784,33.1219872 22.5401472,31.5421632 22.5401472,28.605744 L22.5216,26.89344 C20.5344,29.0687616 16.391088,30.4704 11.240928,30.4704 Z" id="Path"></path>
                </g>
                <path d="M15.96384,21.5624448 C20.7726368,19.3531872 23.3942718,14.0935645 22.2635296,8.92377069 C21.1327874,3.75397689 16.5547949,0.0690635415 11.2627872,0.0690635415 C5.97077946,0.0690635415 1.392787,3.75397689 0.262044778,8.92377069 C-0.868697441,14.0935645 1.75293758,19.3531872 6.5617344,21.5624448 C3.2411232,21.9645216 -2.35331754e-15,22.8541248 -2.35331754e-15,24.5916 L-2.35331754e-15,28.1977056 C-2.35331754e-15,30.579696 7.0784064,31.2156 11.2608,31.2156 C15.4431936,31.2156 22.5216,30.579696 22.5216,28.1977056 L22.5216,24.5916 C22.5216,22.8541248 19.2804768,21.9645216 15.96384,21.5624448 Z M1.3248,11.3436 C1.3248,5.85609873 5.77329873,1.4076 11.2608,1.4076 C16.7483013,1.4076 21.1968,5.85609873 21.1968,11.3436 C21.1968,16.8311013 16.7483013,21.2796 11.2608,21.2796 C5.77587127,21.2733943 1.33100571,16.8285287 1.3248,11.3436 Z M11.2608,22.6044 C17.7145632,22.6044 21.1968,24.0146496 21.1968,24.5916 C21.1968,25.1685504 17.7145632,26.5788 11.2608,26.5788 C4.8070368,26.5788 1.3248,25.1685504 1.3248,24.5916 C1.3248,24.0146496 4.8070368,22.6044 11.2608,22.6044 Z M11.2608,29.8908 C5.1243264,29.8908 1.579824,28.7832672 1.3248,28.1977056 L1.3248,26.2767456 C3.6239904,27.5253696 8.385984,27.9036 11.2608,27.9036 C14.135616,27.9036 18.9009216,27.5253696 21.1968,26.2734336 L21.1968,28.1632608 C20.941776,28.7832672 17.3972736,29.8908 11.2608,29.8908 L11.2608,29.8908 Z" id="Shape" fill="#151A6A"></path>
                <path d="M11.9232,10.48248 L11.9232,6.8962464 C12.2154291,6.97822395 12.4889766,7.11612247 12.7286784,7.3022976 C13.0002003,7.53426015 13.4067261,7.50922764 13.6477377,7.24570496 C13.8887493,6.98218228 13.877478,6.57504255 13.622256,6.3252576 C13.1338391,5.91873209 12.5484983,5.64557302 11.9232,5.5323648 L11.9232,4.7196 C11.9232,4.35376658 11.6266334,4.0572 11.2608,4.0572 C10.8949666,4.0572 10.5984,4.35376658 10.5984,4.7196 L10.5984,5.517792 C9.30601547,5.65871123 8.26322798,6.63853694 8.0421984,7.9196544 C7.82933118,8.8447844 8.14934568,9.81146826 8.8721856,10.4268384 C9.40300566,10.8197024 9.98344035,11.1406565 10.5984,11.3813568 L10.5984,15.78168 C9.91815751,15.7902491 9.25442022,15.5721107 8.7118848,15.1616736 C8.51380647,15.0321062 8.26165117,15.0180546 8.05040337,15.1248118 C7.83915558,15.2315689 7.70090884,15.442916 7.68773937,15.6792406 C7.67456991,15.9155651 7.78847847,16.1409638 7.9865568,16.2705312 C8.74498076,16.8220948 9.66066134,17.1151683 10.5984,17.10648 L10.5984,17.9676 C10.5984,18.3334334 10.8949666,18.63 11.2608,18.63 C11.6266334,18.63 11.9232,18.3334334 11.9232,17.9676 L11.9232,16.997184 C13.2761662,16.6565075 14.2982949,15.5459278 14.5257696,14.1693984 C14.8536576,12.2159808 13.7573856,11.1654144 11.9232,10.48248 Z M9.6895872,9.3842208 C9.35880984,9.07226396 9.22600684,8.6038917 9.3438144,8.1647424 C9.44452945,7.51107511 9.94794395,6.99277612 10.5984,6.8730624 L10.5984,9.9280512 C10.2771628,9.77927248 9.97253585,9.59698478 9.6895872,9.3842208 L9.6895872,9.3842208 Z M13.2188544,13.9494816 C13.0955561,14.6871318 12.6082502,15.3127071 11.9232,15.612768 L11.9232,11.8914048 C12.83604,12.1204554 13.4069618,13.0273338 13.2188544,13.9494816 Z" id="Shape" fill="#151A6A"></path>
            </g>
        </g>
    </g>
</svg>