<?xml version="1.0" encoding="UTF-8"?>
<svg width="36px" height="36px" viewBox="0 0 36 36" version="1.1" xmlns="http://www.w3.org/2000/svg" xmlns:xlink="http://www.w3.org/1999/xlink">
    <title>Group 29</title>
    <g id="Final-UI" stroke="none" stroke-width="1" fill="none" fill-rule="evenodd">
        <g id="course-page" transform="translate(-585.000000, -5239.000000)" fill-rule="nonzero">
            <g id="Group-21" transform="translate(516.000000, 5174.000000)">
                <g id="Group-20">
                    <g id="Group-29" transform="translate(69.100671, 65.610738)">
                        <circle id="Oval-Copy-2" fill="#FFFFFF" cx="17.4496644" cy="17.4496644" r="17.4496644"></circle>
                        <g id="linkedin-(2)-copy" transform="translate(3.489933, 3.489933)" fill="#007AB9">
                            <circle id="Oval" cx="14.0822955" cy="14.0820445" r="14.0822955"></circle>
                        </g>
                        <g id="noun_Mail_3461322" transform="translate(11.167785, 12.563758)" fill="#FFFFFF">
                            <path d="M0.411812081,1.99624161 C0.660172286,0.951252625 1.59221615,0.21254294 2.66630872,0.209395973 L11.2934228,0.209395973 C12.3675154,0.21254294 13.2995593,0.951252625 13.5479195,1.99624161 L6.97986577,5.19302013 L0.411812081,1.99624161 Z M7.13342282,5.89798658 C7.03631627,5.94441787 6.92341528,5.94441787 6.82630872,5.89798658 L0.348993289,2.74308725 L0.348993289,8.64107383 C0.348993289,9.25566409 0.593138321,9.84508234 1.02771927,10.2796633 C1.46230021,10.7142442 2.05171846,10.9583893 2.66630872,10.9583893 L11.2934228,10.9583893 C12.5732408,10.9583893 13.6107383,9.9208918 13.6107383,8.64107383 L13.6107383,2.74308725 L7.13342282,5.89798658 Z" id="Shape"></path>
                        </g>
                    </g>
                </g>
            </g>
        </g>
    </g>
</svg>