<?xml version="1.0" encoding="UTF-8"?>
<svg width="77px" height="78px" viewBox="0 0 77 78" version="1.1" xmlns="http://www.w3.org/2000/svg" xmlns:xlink="http://www.w3.org/1999/xlink">
    <title>Group 13</title>
    <defs>
        <path d="M60.6521586,10.2317905 C42.6521586,-7.54863177 27.3200407,0.537677283 24.6521586,14.0838212 C21.9842765,27.6299652 -2.79876327,30.3346666 0.261187502,46.3346666 C3.32113827,62.3346666 36.6521586,52.8346666 36.6521586,67.3346666 C36.6521586,81.8346666 75.1895892,81.3346666 75.1895892,62.3346666 C75.1895892,43.3346666 78.6521586,28.0122127 60.6521586,10.2317905 Z" id="path-1"></path>
    </defs>
    <g id="Final-UI" stroke="none" stroke-width="1" fill="none" fill-rule="evenodd">
        <g id="acadamic" transform="translate(-253.000000, -856.000000)">
            <g id="Group-41" transform="translate(192.000000, 856.000000)">
                <g id="step-1">
                    <g id="Group-13" transform="translate(61.500000, 0.000000)">
                        <g id="Icon">
                            <g id="bgicon">
                                <mask id="mask-2" fill="white">
                                    <use xlink:href="#path-1"></use>
                                </mask>
                                <use fill-opacity="0.2" fill="#FFFFFF" xlink:href="#path-1"></use>
                                <g id="Color/Blue" opacity="0.2" mask="url(#mask-2)" fill="#FF2AA0">
                                    <rect id="Rectangle" x="0" y="0" width="76" height="78"></rect>
                                </g>
                            </g>
                        </g>
                        <g id="find-(1)" transform="translate(13.500000, 10.000000)" fill-rule="nonzero">
                            <path d="M57.0043945,56.855957 L53.519043,50.819336 C53.1206055,50.1293945 52.3808594,49.7729493 51.649414,49.821289 L50.5234375,47.8710937 C52.9550781,45.3959961 54.456543,42.0048828 54.456543,38.2700195 C54.456543,32.8730469 51.3222656,28.1953125 46.777832,25.9604492 L46.777832,22.9951172 C46.777832,20.7661132 44.9648438,18.953125 42.7358399,18.953125 L37.5498047,18.9526367 L37.5498047,5.10888675 C37.5493164,2.29150387 35.540039,-1.0658141e-14 33.0698242,-1.0658141e-14 L13.7705077,-1.0658141e-14 C11.300293,-1.0658141e-14 9.29101562,2.29150387 9.29101562,5.10888675 L9.29101562,12.1796875 L3.741211,12.1796875 C1.71289062,12.1796875 0.0625,13.8300781 0.0625,15.8583985 L0.0625,42.2402344 C0.0625,44.9482422 2.265625,47.1518555 4.97412112,47.1518555 L30.3071289,47.1518555 C33.7216798,51.1542969 39.1010742,52.8486327 44.159668,51.5483399 L45.2851562,53.4975586 C44.8745118,54.1118164 44.8198243,54.9321289 45.2133789,55.6142577 L48.6992188,61.6513672 C49.9882812,63.8842774 52.8642578,64.6723632 55.1176758,63.3710937 C55.1298828,63.3637695 55.296875,63.2675781 55.2841798,63.2749024 C57.5283203,61.9794922 58.2998048,59.1000976 57.0043945,56.855957 L57.0043945,56.855957 Z M11.7895507,5.10888675 C11.7895507,3.69384762 12.6967774,2.49853512 13.7705077,2.49853512 L33.0698242,2.49853512 C34.1435547,2.49853512 35.0507812,3.69384762 35.0507812,5.10888675 L35.0507812,18.9521485 L18.4624024,18.9501952 L18.4624024,15.8583985 C18.4624024,13.8300781 16.8120117,12.1801757 14.7836914,12.1801757 L11.7895507,12.1801757 L11.7895507,5.10888675 Z M40.7485351,49.4790039 C35.6547851,49.4790039 31.1435547,46.0209961 29.8774414,41.015625 C29.7089844,40.3466797 29.0302735,39.940918 28.3608399,40.109375 C27.6918945,40.277832 27.2861327,40.9570313 27.4545899,41.6259765 C27.7177735,42.6699219 28.1040039,43.6855469 28.6132812,44.652832 L4.97412112,44.652832 C3.64355475,44.652832 2.56103512,43.5703125 2.56103512,42.2402344 L2.56103512,15.8583985 C2.56103512,15.2080078 3.09082025,14.678711 3.741211,14.678711 L14.7836914,14.678711 C15.4345702,14.678711 15.9638672,15.2080078 15.9638672,15.8583985 L15.9638672,18.9501953 C15.9638672,20.3295899 17.0859375,21.4516601 18.465332,21.4516601 L42.7358399,21.4516601 C43.586914,21.4516601 44.2792969,22.144043 44.2792969,22.9951173 L44.2792969,25.022461 C43.1523437,24.722168 41.9692382,24.5615235 40.7485351,24.5615235 C35.7177735,24.5615235 31.0996094,27.3100586 28.6958008,31.7348633 C28.3666992,32.3413086 28.5908203,33.0996094 29.1972656,33.4291993 C29.803711,33.7583008 30.5620117,33.5336914 30.8916015,32.9277344 C32.8574219,29.3085938 36.6347656,27.0605469 40.7485351,27.0605469 C46.9296875,27.0605469 51.9580077,32.0888672 51.9580077,38.2695313 C51.9580077,44.4506836 46.9291992,49.4790039 40.7485351,49.4790039 L40.7485351,49.4790039 Z M46.5488281,50.6894531 C47.2631836,50.3544922 47.944336,49.9594726 48.5854492,49.5112305 L49.383789,50.894043 L47.3461914,52.0703125 L46.5488281,50.6894531 Z M54.0351562,61.1108399 L53.8686524,61.2070312 C52.8173828,61.8134765 51.4697265,61.4521485 50.862793,60.4018555 L47.6254883,54.7944336 L51.6030274,52.4980469 L54.840332,58.1054687 C55.4472656,59.15625 55.0859375,60.5043945 54.0351563,61.1108399 L54.0351562,61.1108399 Z" id="Shape" fill="#000000"></path>
                            <path d="M28.4765625,35.3754882 C27.7866211,35.3754882 27.2270508,35.9365235 27.2270508,36.6264649 C27.2270508,37.3168945 27.7866211,37.8759765 28.4765625,37.8759765 C29.1665039,37.8759765 29.7260742,37.3168945 29.7260742,36.6264649 L29.7260742,36.6235351 C29.7260742,35.9335938 29.1665039,35.3754882 28.4765625,35.3754882 Z" id="Path" fill="#000000"></path>
                            <path d="M40.7861328,29.4853515 C35.9423828,29.4853515 32.0014649,33.4257812 32.0014649,38.2700195 C32.0014649,43.1137695 35.9423828,47.0541992 40.7861328,47.0541992 C45.6298828,47.0541992 49.5703125,43.1137695 49.5703125,38.2700195 C49.5703125,33.4257812 45.6293945,29.4853515 40.7861328,29.4853515 L40.7861328,29.4853515 Z M40.7861328,44.555664 C37.3198243,44.555664 34.5,41.7358399 34.5,38.2700195 C34.5,34.803711 37.3198243,31.9838868 40.7861328,31.9838868 C44.2519531,31.9838868 47.0717774,34.803711 47.0717774,38.2700195 C47.0717774,41.7358399 44.2519531,44.555664 40.7861328,44.555664 L40.7861328,44.555664 Z" id="Shape" fill="#FF016F"></path>
                        </g>
                    </g>
                </g>
            </g>
        </g>
    </g>
</svg>