<svg xmlns="http://www.w3.org/2000/svg" width="90" height="40" viewBox="0 0 90 40">
    <g fill="none" fill-rule="evenodd">
        <path fill="#0050A2" fill-rule="nonzero" d="M89.7 15.641c.1.115.1.3 0 .416l-5.577 6.467c-.047.055-.112.086-.179.086h-3.358c-.14 0-.254-.131-.254-.293 0-.079.027-.154.074-.21l5.399-6.258-5.399-6.259c-.099-.114-.099-.3 0-.415.048-.056.112-.087.18-.087h3.358c.067 0 .132.031.18.086l5.577 6.467z"/>
        <rect width="25.27" height="25.27" fill="#0050A2" rx="1.995"/>
        <text fill="#FFF" font-family="AvenirNext-DemiBold, Avenir Next" font-size="19.95" font-weight="500">
            <tspan x="7.98" y="21.995">I</tspan> <tspan x="13.606" y="21.995" letter-spacing=".332">n</tspan> <tspan x="25.549" y="21.995">sights</tspan>
        </text>
        <text fill="#FFF" font-family="AvenirNext-DemiBold, Avenir Next" font-size="7.98" font-weight="500">
            <tspan x="0" y="38.59">Interviews I UniAthena </tspan>
        </text>
    </g>
</svg>
