<?xml version="1.0" encoding="UTF-8"?>
<svg width="34px" height="34px" viewBox="0 0 34 34" version="1.1" xmlns="http://www.w3.org/2000/svg" xmlns:xlink="http://www.w3.org/1999/xlink">
    <title>Group 7</title>
    <g id="Final-UI" stroke="none" stroke-width="1" fill="none" fill-rule="evenodd">
        <g id="website-home" transform="translate(-648.000000, -3453.000000)">
            <g id="Group-7" transform="translate(648.000000, 3453.000000)">
                <g id="Group-21-Copy">
                    <circle id="Oval" fill="#FFFFFF" cx="17" cy="17.0002518" r="17"></circle>
                    <circle id="Oval" fill="#007AB9" fill-rule="nonzero" cx="17.1229175" cy="17.1229175" r="14.1229175"></circle>
                </g>
                <g id="linkedin-(2)-copy-3" transform="translate(3.000000, 3.000000)" fill="#F1F2F2" fill-rule="nonzero">
                    <path d="M22.5612211,15.2590851 L22.5612211,21.0816605 L19.1854465,21.0816605 L19.1854465,15.6493044 C19.1854465,14.2852991 18.69805,13.3538079 17.4757825,13.3538079 C16.5430325,13.3538079 15.9889211,13.9809281 15.7442158,14.5881596 C15.6553465,14.8051719 15.6324368,15.1065219 15.6324368,15.410893 L15.6324368,21.0814088 L12.2564105,21.0814088 C12.2564105,21.0814088 12.3017263,11.880793 12.2564105,10.9284061 L15.6326886,10.9284061 L15.6326886,12.3671825 C15.6258912,12.3785114 15.6163246,12.3895886 15.6102825,12.400414 L15.6326886,12.400414 L15.6326886,12.3671825 C16.0813149,11.6768719 16.8813904,10.6899947 18.6751404,10.6899947 C20.8961175,10.6899947 22.5612211,12.141107 22.5612211,15.2590851 L22.5612211,15.2590851 Z M8.7248,6.03430088 C7.57000263,6.03430088 6.81448772,6.79233333 6.81448772,7.78827368 C6.81448772,8.76306667 7.5481,9.54300175 8.68049123,9.54300175 L8.70239386,9.54300175 C9.87984912,9.54300175 10.6119509,8.76306667 10.6119509,7.78827368 C10.5895447,6.79233333 9.87984912,6.03430088 8.7248,6.03430088 L8.7248,6.03430088 Z M7.01513596,21.0816605 L10.3899035,21.0816605 L10.3899035,10.9284061 L7.01513596,10.9284061 L7.01513596,21.0816605 Z" id="Shape"></path>
                </g>
            </g>
        </g>
    </g>
</svg>