<?xml version="1.0" encoding="UTF-8"?>
<svg width="47px" height="47px" viewBox="0 0 47 47" version="1.1" xmlns="http://www.w3.org/2000/svg" xmlns:xlink="http://www.w3.org/1999/xlink">
    <title>Group 3</title>
    <g id="Final-UI" stroke="none" stroke-width="1" fill="none" fill-rule="evenodd">
        <g id="acadamic" transform="translate(-739.000000, -2577.000000)">
            <g id="Group-3" transform="translate(739.000000, 2577.000000)">
                <g id="Group-21">
                    <circle id="Oval" fill="#FFFFFF" cx="23.1" cy="23.1003421" r="23.1"></circle>
                    <circle id="Oval" fill="#007AB9" fill-rule="nonzero" cx="23.2670233" cy="23.2670233" r="19.1905527"></circle>
                </g>
                <g id="linkedin-(2)" transform="translate(13.200000, 12.100000)" fill="#F1F2F2" fill-rule="nonzero">
                    <path d="M22.0077363,13.1365438 L22.0077363,21.0873709 L17.398058,21.0873709 L17.398058,13.669395 C17.398058,11.8068223 16.7325097,10.5348549 15.0634823,10.5348549 C13.789796,10.5348549 13.0331474,11.3911983 12.6989981,12.2203835 C12.5776456,12.5167175 12.546362,12.9282162 12.546362,13.3438401 L12.546362,21.0870272 L7.93633989,21.0870272 C7.93633989,21.0870272 7.99821938,8.52342766 7.93633989,7.22292701 L12.5467058,7.22292701 L12.5467058,9.18760087 C12.5374239,9.20307074 12.5243604,9.21819684 12.5161098,9.23297917 L12.5467058,9.23297917 L12.5467058,9.18760087 C13.1593128,8.24496995 14.2518296,6.89737212 16.7012261,6.89737212 C19.7340088,6.89737212 22.0077363,8.87889096 22.0077363,13.1365438 L22.0077363,13.1365438 Z M3.11386483,0.539941887 C1.53696911,0.539941887 0.505300472,1.57504828 0.505300472,2.935022 C0.505300472,4.26611862 1.50706069,5.33113343 3.05336044,5.33113343 L3.08326886,5.33113343 C4.69110432,5.33113343 5.69080189,4.26611862 5.69080189,2.935022 C5.66020592,1.57504828 4.69110432,0.539941887 3.11386483,0.539941887 L3.11386483,0.539941887 Z M0.779289111,21.0873709 L5.38759238,21.0873709 L5.38759238,7.22292701 L0.779289111,7.22292701 L0.779289111,21.0873709 Z" id="Shape"></path>
                </g>
            </g>
        </g>
    </g>
</svg>