<?xml version="1.0" encoding="UTF-8"?>
<svg width="18px" height="23px" viewBox="0 0 18 23" version="1.1" xmlns="http://www.w3.org/2000/svg" xmlns:xlink="http://www.w3.org/1999/xlink">
    <title>noun_Location_3460589 Copy</title>
    <g id="Final-UI" stroke="none" stroke-width="1" fill="none" fill-rule="evenodd">
        <g id="website-home" transform="translate(-925.000000, -5742.000000)" fill="#FF008E" fill-rule="nonzero">
            <g id="Group-25" transform="translate(714.000000, 5632.000000)">
                <g id="Group-27" transform="translate(211.000000, 110.000000)">
                    <g id="noun_Location_3460589-Copy">
                        <path d="M8.5925,22.75 C8.5925,22.75 0,13.5 0,8.7775 C0,4.03199336 3.84699336,0.185000181 8.5925,0.185000181 C13.3380066,0.185000181 17.185,4.03199336 17.185,8.7775 C17.185,13.5 8.5925,22.75 8.5925,22.75 Z M12.25,8.5975 C12.2621562,7.11550989 11.3787836,5.77267298 10.0130769,5.19709692 C8.64737029,4.62152085 7.06931924,4.92699258 6.0170521,5.97062869 C4.96478496,7.01426479 4.64632682,8.58974647 5.21063546,9.96014722 C5.77494409,11.330548 7.11046004,12.2249501 8.5925,12.2250311 C9.55855354,12.2289864 10.4866228,11.8490421 11.1725389,11.1687521 C11.8584549,10.4884622 12.2460299,9.56355361 12.25,8.5975 Z" id="Shape"></path>
                    </g>
                </g>
            </g>
        </g>
    </g>
</svg>