<?xml version="1.0" encoding="UTF-8"?>
<svg width="464px" height="105px" viewBox="0 0 464 105" version="1.1" xmlns="http://www.w3.org/2000/svg" xmlns:xlink="http://www.w3.org/1999/xlink">
    <title>Group 32</title>
    <defs>
        <linearGradient x1="50%" y1="0%" x2="50%" y2="29.001139%" id="linearGradient-1">
            <stop stop-color="#FFFFFF" stop-opacity="0" offset="0%"></stop>
            <stop stop-color="#FFFFFF" offset="100%"></stop>
        </linearGradient>
    </defs>
    <g id="Final-UI" stroke="none" stroke-width="1" fill="none" fill-rule="evenodd">
        <g id="website-home" transform="translate(-128.000000, -3862.000000)">
            <g id="Group-32" transform="translate(128.000000, 3862.000000)">
                <path d="M32.1293236,52 C47.6317942,52 59.1826546,41.2985507 59.1826546,26 C59.1826546,10.7014493 47.6317942,0 32.1293236,0 C16.626853,0 5,10.7014493 5,26 C5,41.2985507 16.626853,52 32.1293236,52 Z M32.1293236,40.5449275 C23.6941557,40.5449275 18.298688,34.1391304 18.298688,26 C18.298688,17.7855072 23.6941557,11.4550725 32.1293236,11.4550725 C40.4884989,11.4550725 45.8839666,17.7855072 45.8839666,26 C45.8839666,34.1391304 40.4884989,40.5449275 32.1293236,40.5449275 Z M77.5728403,52 C83.7282331,52 87.9838133,49.2869565 90.2635883,46.7246377 L90.2635883,51.0956522 L101.966434,51.0956522 L101.966434,14.6956522 L90.2635883,14.6956522 L90.2635883,38.2086957 C88.8957233,39.942029 86.6159482,41.7507246 83.2722781,41.7507246 C79.4726529,41.7507246 77.1928778,40.2434783 77.1928778,35.8724638 L77.1928778,14.6956522 L65.4900324,14.6956522 L65.4900324,40.6202899 C65.4900324,47.3275362 69.213665,52 77.5728403,52 Z M122.18044,51.0956522 L122.18044,27.884058 C123.70029,25.8492754 127.727892,24.5681159 130.767592,24.5681159 C131.983472,24.5681159 132.971375,24.7188406 133.655308,24.8695652 L133.655308,13.715942 C129.247742,13.715942 124.6122,16.2028986 122.18044,19.142029 L122.18044,14.6956522 L110.477594,14.6956522 L110.477594,51.0956522 L122.18044,51.0956522 Z M171.803544,51.0956522 L171.803544,34.2144928 L184.11433,34.2144928 C195.513205,34.2144928 201.74459,26.6028986 201.74459,17.5594203 C201.74459,8.44057971 195.513205,0.828985507 184.11433,0.828985507 L158.732834,0.828985507 L158.732834,51.0956522 L171.803544,51.0956522 Z M182.366502,22.9101449 L171.803544,22.9101449 L171.803544,12.1333333 L182.366502,12.1333333 C185.862157,12.1333333 188.445902,14.0927536 188.445902,17.5594203 C188.445902,20.9507246 185.862157,22.9101449 182.366502,22.9101449 Z M217.551031,52 C222.262566,52 226.670131,50.1913043 228.949906,47.4782609 L228.949906,51.0956522 L240.652752,51.0956522 L240.652752,28.3362319 C240.652752,17.0318841 232.369569,13.7913043 223.554439,13.7913043 C217.930993,13.7913043 211.623616,15.4492754 206.91208,19.4434783 L211.091668,26.7536232 C214.055376,24.2666667 217.855001,22.9101449 221.502641,22.9101449 C226.214176,22.9101449 228.949906,25.0202899 228.949906,28.1855072 L228.949906,32.5565217 C226.746124,29.8434783 222.414551,28.3362319 217.551031,28.3362319 C211.927586,28.3362319 204.936275,31.2 204.936275,40.0173913 C204.936275,48.2318841 211.927586,52 217.551031,52 Z M222.414551,44.3884058 C219.298858,44.3884058 216.563128,43.0318841 216.563128,40.1681159 C216.563128,37.3043478 219.298858,35.9478261 222.414551,35.9478261 C224.998296,35.9478261 227.734026,36.8521739 228.949906,38.5101449 L228.949906,41.7507246 C227.734026,43.484058 224.998296,44.3884058 222.414551,44.3884058 Z M260.866758,51.0956522 L260.866758,27.884058 C262.386608,25.8492754 266.41421,24.5681159 269.45391,24.5681159 C270.66979,24.5681159 271.657693,24.7188406 272.341625,24.8695652 L272.341625,13.715942 C267.93406,13.715942 263.298518,16.2028986 260.866758,19.142029 L260.866758,14.6956522 L249.163912,14.6956522 L249.163912,51.0956522 L260.866758,51.0956522 Z M291.567729,52 C295.899301,52 298.787017,50.9449275 300.230874,49.5884058 L297.951099,40.8463768 C297.571136,41.2985507 296.279264,41.7507246 294.987391,41.7507246 C292.935594,41.7507246 291.719714,40.1681159 291.719714,38.057971 L291.719714,24.7942029 L299.166979,24.7942029 L299.166979,14.6956522 L291.719714,14.6956522 L291.719714,4.74782609 L280.092861,4.74782609 L280.092861,14.6956522 L274.013461,14.6956522 L274.013461,24.7942029 L280.092861,24.7942029 L280.092861,41.2985507 C280.092861,48.3072464 284.120463,52 291.567729,52 Z M316.721247,51.0956522 L316.721247,27.5826087 C318.089112,25.9246377 320.368887,24.0405797 323.864543,24.0405797 C327.512183,24.0405797 329.86795,25.6231884 329.86795,30.0695652 L329.86795,51.0956522 L341.570796,51.0956522 L341.570796,25.3217391 C341.570796,18.6144928 337.771171,13.7913043 329.411995,13.7913043 C323.256602,13.7913043 318.92503,16.5797101 316.721247,19.142029 L316.721247,14.6956522 L305.018402,14.6956522 L305.018402,51.0956522 L316.721247,51.0956522 Z M367.712217,52 C373.335662,52 379.415062,50.4173913 383.062702,47.1768116 L378.12319,39.942029 C376.071392,41.9014493 371.587834,43.0318841 369.004089,43.0318841 C363.684614,43.0318841 360.492929,39.942029 359.808996,36.5507246 L385.950417,36.5507246 L385.950417,34.0637681 C385.950417,21.7043478 378.047197,13.7913043 367.180269,13.7913043 C355.705401,13.7913043 347.650196,22.3072464 347.650196,32.857971 C347.650196,44.6898551 356.389334,52 367.712217,52 Z M374.77952,29.0144928 L359.657011,29.0144928 C360.112966,26.3768116 362.088772,22.7594203 367.180269,22.7594203 C372.575737,22.7594203 374.475549,26.4521739 374.77952,29.0144928 Z M403.428693,51.0956522 L403.428693,27.884058 C404.948543,25.8492754 408.976146,24.5681159 412.015846,24.5681159 C413.231726,24.5681159 414.219629,24.7188406 414.903561,24.8695652 L414.903561,13.715942 C410.495996,13.715942 405.860453,16.2028986 403.428693,19.142029 L403.428693,14.6956522 L391.725848,14.6956522 L391.725848,51.0956522 L403.428693,51.0956522 Z M434.281649,52 C444.844607,52 451,46.8753623 451,39.942029 C451,25.0202899 429.646107,29.1652174 429.646107,24.9449275 C429.646107,23.4376812 431.545919,22.3072464 434.281649,22.3072464 C438.689215,22.3072464 442.868802,24.1913043 445.072585,26.3014493 L449.556142,18.6144928 C445.604532,15.7507246 440.36105,13.7913043 434.205657,13.7913043 C424.022661,13.7913043 418.475209,19.3681159 418.475209,25.773913 C418.475209,40.3942029 439.829102,35.7217391 439.829102,40.4695652 C439.829102,42.1275362 438.385245,43.257971 434.889589,43.257971 C430.558017,43.257971 424.706594,40.8463768 421.970864,38.4347826 L417.107344,46.4231884 C420.982961,49.8144928 427.746294,52 434.281649,52 Z" id="OurPartners" fill="#303030" fill-rule="nonzero" opacity="0.100000001"></path>
                <rect id="Rectangle" fill="url(#linearGradient-1)" x="0" y="26" width="464" height="79"></rect>
            </g>
        </g>
    </g>
</svg>