<?xml version="1.0" encoding="UTF-8"?>
<svg width="46px" height="45px" viewBox="0 0 46 45" version="1.1" xmlns="http://www.w3.org/2000/svg" xmlns:xlink="http://www.w3.org/1999/xlink">
    <title>calendar (1)</title>
    <g id="Final-UI" stroke="none" stroke-width="1" fill="none" fill-rule="evenodd">
        <g id="website-home" transform="translate(-136.000000, -1763.000000)" fill-rule="nonzero">
            <g id="Group-35" transform="translate(136.000000, 1713.000000)">
                <g id="calendar-(1)" transform="translate(0.000000, 50.000000)">
                    <polygon id="Path" fill="#FF7CB9" points="21.5292 27.3504 25.2252 27.3504 25.2252 31.0464 21.5292 31.0464"></polygon>
                    <polygon id="Path" fill="#FF7CB9" points="21.5292 35.4816 25.2252 35.4816 25.2252 39.1776 21.5292 39.1776"></polygon>
                    <polygon id="Path" fill="#FF7CB9" points="13.398 35.4816 17.094 35.4816 17.094 39.1776 13.398 39.1776"></polygon>
                    <polygon id="Path" fill="#FF7CB9" points="45.3543552 39.2980896 40.7550528 38.1515904 39.2870016 44.03784"></polygon>
                    <polygon id="Path" fill="#FF7CB9" points="13.398 27.3504 17.094 27.3504 17.094 31.0464 13.398 31.0464"></polygon>
                    <path d="M39.499152,37.0767936 C39.5464807,36.8865188 39.6674662,36.7228428 39.835487,36.6217808 C40.0035077,36.5207188 40.2047967,36.4905515 40.3950624,36.5379168 L45.9228,37.9157856 L45.9228,16.2624 C45.9228,15.0376533 44.9299467,14.0448 43.7052,14.0448 L40.0092,14.0448 L40.0092,17.1376128 C41.0274825,17.49763 41.6383022,18.5388893 41.4556634,19.6033867 C41.2730245,20.6678841 40.3500517,21.4459861 39.27,21.4459861 C38.1899483,21.4459861 37.2669755,20.6678841 37.0843366,19.6033867 C36.9016978,18.5388893 37.5125175,17.49763 38.5308,17.1376128 L38.5308,14.0448 L28.182,14.0448 L28.182,17.1376128 C29.2002825,17.49763 29.8111022,18.5388893 29.6284634,19.6033867 C29.4458245,20.6678841 28.5228517,21.4459861 27.4428,21.4459861 C26.3627483,21.4459861 25.4397755,20.6678841 25.2571366,19.6033867 C25.0744978,18.5388893 25.6853175,17.49763 26.7036,17.1376128 L26.7036,14.0448 L16.3548,14.0448 L16.3548,17.1376128 C17.3730825,17.49763 17.9839022,18.5388893 17.8012634,19.6033867 C17.6186245,20.6678841 16.6956517,21.4459861 15.6156,21.4459861 C14.5355483,21.4459861 13.6125755,20.6678841 13.4299366,19.6033867 C13.2472978,18.5388893 13.8581175,17.49763 14.8764,17.1376128 L14.8764,14.0448 L11.1804,14.0448 C9.95565334,14.0448 8.9628,15.0376533 8.9628,16.2624 L8.9628,42.1344 C8.9628,43.3591467 9.95565334,44.352 11.1804,44.352 L37.6851552,44.352 L39.499152,37.0767936 Z M12.6588,22.9152 L42.2268,22.9152 C42.6350489,22.9152 42.966,23.2461511 42.966,23.6544 C42.966,24.0626489 42.6350489,24.3936 42.2268,24.3936 L12.6588,24.3936 C12.2505511,24.3936 11.9196,24.0626489 11.9196,23.6544 C11.9196,23.2461511 12.2505511,22.9152 12.6588,22.9152 Z M18.5724,39.9168 C18.5724,40.3250489 18.2414489,40.656 17.8332,40.656 L12.6588,40.656 C12.2505511,40.656 11.9196,40.3250489 11.9196,39.9168 L11.9196,34.7424 C11.9196,34.3341511 12.2505511,34.0032 12.6588,34.0032 L17.8332,34.0032 C18.2414489,34.0032 18.5724,34.3341511 18.5724,34.7424 L18.5724,39.9168 Z M18.5724,31.7856 C18.5724,32.1938489 18.2414489,32.5248 17.8332,32.5248 L12.6588,32.5248 C12.2505511,32.5248 11.9196,32.1938489 11.9196,31.7856 L11.9196,26.6112 C11.9196,26.2029511 12.2505511,25.872 12.6588,25.872 L17.8332,25.872 C18.2414489,25.872 18.5724,26.2029511 18.5724,26.6112 L18.5724,31.7856 Z M26.7036,39.9168 C26.7036,40.3250489 26.3726489,40.656 25.9644,40.656 L20.79,40.656 C20.3817511,40.656 20.0508,40.3250489 20.0508,39.9168 L20.0508,34.7424 C20.0508,34.3341511 20.3817511,34.0032 20.79,34.0032 L25.9644,34.0032 C26.3726489,34.0032 26.7036,34.3341511 26.7036,34.7424 L26.7036,39.9168 Z M26.7036,31.7856 C26.7036,32.1938489 26.3726489,32.5248 25.9644,32.5248 L20.79,32.5248 C20.3817511,32.5248 20.0508,32.1938489 20.0508,31.7856 L20.0508,26.6112 C20.0508,26.2029511 20.3817511,25.872 20.79,25.872 L25.9644,25.872 C26.3726489,25.872 26.7036,26.2029511 26.7036,26.6112 L26.7036,31.7856 Z M34.8348,39.9168 C34.8348,40.3250489 34.5038489,40.656 34.0956,40.656 L28.9212,40.656 C28.5129511,40.656 28.182,40.3250489 28.182,39.9168 L28.182,34.7424 C28.182,34.3341511 28.5129511,34.0032 28.9212,34.0032 L34.0956,34.0032 C34.5038489,34.0032 34.8348,34.3341511 34.8348,34.7424 L34.8348,39.9168 Z M34.8348,31.7856 C34.8348,32.1938489 34.5038489,32.5248 34.0956,32.5248 L28.9212,32.5248 C28.5129511,32.5248 28.182,32.1938489 28.182,31.7856 L28.182,26.6112 C28.182,26.2029511 28.5129511,25.872 28.9212,25.872 L34.0956,25.872 C34.5038489,25.872 34.8348,26.2029511 34.8348,26.6112 L34.8348,31.7856 Z M36.3132,31.7856 L36.3132,26.6112 C36.3132,26.2029511 36.6441511,25.872 37.0524,25.872 L42.2268,25.872 C42.6350489,25.872 42.966,26.2029511 42.966,26.6112 L42.966,31.7856 C42.966,32.1938489 42.6350489,32.5248 42.2268,32.5248 L37.0524,32.5248 C36.6441511,32.5248 36.3132,32.1938489 36.3132,31.7856 Z" id="Shape" fill="#FF7CB9"></path>
                    <polygon id="Path" fill="#FF7CB9" points="37.7916 27.3504 41.4876 27.3504 41.4876 31.0464 37.7916 31.0464"></polygon>
                    <polygon id="Path" fill="#FF7CB9" points="29.6604 27.3504 33.3564 27.3504 33.3564 31.0464 29.6604 31.0464"></polygon>
                    <polygon id="Path" fill="#FF7CB9" points="29.6604 35.4816 33.3564 35.4816 33.3564 39.1776 29.6604 39.1776"></polygon>
                    <g id="Group" fill="#151A6A">
                        <path d="M29.1074784,4.9733376 C24.3875533,0.268243895 17.3579999,-1.25370453 11.1146112,1.0777536 C10.8616921,1.16609205 10.676365,1.38436079 10.6302091,1.6482573 C10.5840532,1.91215382 10.6842937,2.18036874 10.8922144,2.34930871 C11.1001351,2.51824869 11.3831889,2.56146848 11.6320512,2.4622752 C19.0607339,-0.323466547 27.3944898,2.94079187 30.9549032,10.0308652 C34.5153165,17.1209386 32.1563888,25.7547287 25.4854353,30.0493838 C18.8144818,34.3440388 9.97869752,32.9172284 4.99856814,26.7411459 C0.0184387714,20.5650635 0.496929956,11.6276188 6.1080096,6.0185664 L6.9381312,5.189184 L6.9381312,7.5864096 C6.9381312,7.99465849 7.26908231,8.3256096 7.6773312,8.3256096 C8.08558009,8.3256096 8.4165312,7.99465849 8.4165312,7.5864096 L8.4165312,3.40032 C8.4165312,2.99207111 8.08558009,2.66112 7.6773312,2.66112 L3.49272,2.66112 C3.08447111,2.66112 2.75352,2.99207111 2.75352,3.40032 C2.75352,3.80856889 3.08447111,4.13952 3.49272,4.13952 L5.8929024,4.13952 L5.06352,4.9733376 C-1.57599135,11.6128849 -1.57597192,22.3776859 5.0635634,29.0172092 C11.7030987,35.6567325 22.4678997,35.6567325 29.107435,29.0172092 C35.7469703,22.3776859 35.7469897,11.6128849 29.1074784,4.9733376 L29.1074784,4.9733376 Z" id="Path"></path>
                        <path d="M17.0858688,5.9069472 C17.4941177,5.9069472 17.8250688,5.57599609 17.8250688,5.1677472 L17.8250688,3.6893472 C17.8250688,3.28109831 17.4941177,2.9501472 17.0858688,2.9501472 C16.6776199,2.9501472 16.3466688,3.28109831 16.3466688,3.6893472 L16.3466688,5.1677472 C16.3466688,5.57599609 16.6776199,5.9069472 17.0858688,5.9069472 Z" id="Path"></path>
                        <path d="M10.5321216,7.1214528 C10.6632273,7.35204682 10.9078372,7.49471422 11.1730954,7.49529916 C11.4383537,7.49588051 11.6835885,7.35428998 11.8157068,7.12427463 C11.9478251,6.89425929 11.9465693,6.61108725 11.812416,6.3822528 L11.073216,5.1019584 C10.9421103,4.87136438 10.6975004,4.72869698 10.4322422,4.72811204 C10.1669839,4.72753069 9.92174907,4.86912122 9.78963079,5.09913657 C9.6575125,5.32915191 9.65876835,5.61232395 9.7929216,5.8411584 L10.5321216,7.1214528 Z" id="Path"></path>
                        <path d="M7.2123744,10.4412 L5.93208,9.702 C5.57884591,9.50116654 5.1297372,9.62309664 4.92656507,9.97499077 C4.72339293,10.3268849 4.8423413,10.7767925 5.19288,10.9822944 L6.4731744,11.7214944 C6.70200885,11.8556477 6.98518089,11.8569035 7.21519623,11.7247852 C7.44521158,11.5926669 7.58680211,11.3474321 7.58622076,11.0821738 C7.58563582,10.8169156 7.44296842,10.5723057 7.2123744,10.4412 Z" id="Path"></path>
                        <path d="M5.9978688,16.9949472 C5.9978688,16.5866983 5.66691769,16.2557472 5.2586688,16.2557472 L3.7802688,16.2557472 C3.37201991,16.2557472 3.0410688,16.5866983 3.0410688,16.9949472 C3.0410688,17.4031961 3.37201991,17.7341472 3.7802688,17.7341472 L5.2586688,17.7341472 C5.66691769,17.7341472 5.9978688,17.4031961 5.9978688,16.9949472 Z" id="Path"></path>
                        <path d="M5.93208,24.2878944 L7.2123744,23.5486944 C7.44296842,23.4175887 7.58563582,23.1729788 7.58622076,22.9077206 C7.58680211,22.6424623 7.44521158,22.3972275 7.21519623,22.2651092 C6.98518089,22.1329909 6.70200885,22.1342467 6.4731744,22.2684 L5.19288,23.0076 C4.96228598,23.1387057 4.81961858,23.3833156 4.81903364,23.6485738 C4.81845229,23.9138321 4.96004282,24.1590669 5.19005817,24.2911852 C5.42007351,24.4233035 5.70324555,24.4220477 5.93208,24.2878944 L5.93208,24.2878944 Z" id="Path"></path>
                        <path d="M10.0634688,29.157744 C10.4170136,29.3618588 10.8690856,29.2407326 11.073216,28.8871968 L11.812416,27.6069024 C12.0132495,27.2536683 11.8913194,26.8045596 11.5394252,26.6013875 C11.1875311,26.3982153 10.7376235,26.5171637 10.5321216,26.8677024 L9.7929216,28.1479968 C9.58880679,28.5015416 9.70993298,28.9536136 10.0634688,29.157744 L10.0634688,29.157744 Z" id="Path"></path>
                        <path d="M16.3466688,30.3005472 C16.3466688,30.7087961 16.6776199,31.0397472 17.0858688,31.0397472 C17.4941177,31.0397472 17.8250688,30.7087961 17.8250688,30.3005472 L17.8250688,28.8221472 C17.8250688,28.4138983 17.4941177,28.0829472 17.0858688,28.0829472 C16.6776199,28.0829472 16.3466688,28.4138983 16.3466688,28.8221472 L16.3466688,30.3005472 Z" id="Path"></path>
                        <path d="M23.639616,26.8677024 C23.4341141,26.5171637 22.9842065,26.3982153 22.6323124,26.6013875 C22.2804182,26.8045596 22.1584881,27.2536683 22.3593216,27.6069024 L23.0985216,28.8871968 C23.3040235,29.2377355 23.7539311,29.3566839 24.1058252,29.1535117 C24.4577194,28.9503396 24.5796495,28.5012309 24.378816,28.1479968 L23.639616,26.8677024 Z" id="Path"></path>
                        <path d="M26.958624,23.5486944 L28.2396576,24.2878944 C28.4684921,24.4220477 28.7516641,24.4233035 28.9816794,24.2911852 C29.2116948,24.1590669 29.3532853,23.9138321 29.352704,23.6485738 C29.352119,23.3833156 29.2094516,23.1387057 28.9788576,23.0076 L27.697824,22.2684 C27.3445899,22.0675665 26.8954812,22.1894966 26.6923091,22.5413908 C26.4891369,22.8932849 26.6080853,23.3431925 26.958624,23.5486944 Z" id="Path"></path>
                        <path d="M28.1738688,16.9949472 C28.1738688,17.4031961 28.5048199,17.7341472 28.9130688,17.7341472 L30.3914688,17.7341472 C30.7997177,17.7341472 31.1306688,17.4031961 31.1306688,16.9949472 C31.1306688,16.5866983 30.7997177,16.2557472 30.3914688,16.2557472 L28.9130688,16.2557472 C28.5048199,16.2557472 28.1738688,16.5866983 28.1738688,16.9949472 Z" id="Path"></path>
                        <path d="M28.2396576,9.702 L26.958624,10.4412 C26.72803,10.5723057 26.5853626,10.8169156 26.5847776,11.0821738 C26.5841963,11.3474321 26.7257868,11.5926669 26.9558022,11.7247852 C27.1858175,11.8569035 27.4689895,11.8556477 27.697824,11.7214944 L28.9788576,10.9822944 C29.3293963,10.7767925 29.4483447,10.3268849 29.2451725,9.97499077 C29.0420004,9.62309664 28.5928917,9.50116654 28.2396576,9.702 L28.2396576,9.702 Z" id="Path"></path>
                        <path d="M24.1082688,4.8314112 C23.754724,4.62729639 23.302652,4.74842258 23.0985216,5.1019584 L22.3593216,6.3822528 C22.2251683,6.61108725 22.2239125,6.89425929 22.3560308,7.12427463 C22.4881491,7.35428998 22.7333839,7.49588051 22.9986422,7.49529916 C23.2639004,7.49471422 23.5085103,7.35204682 23.639616,7.1214528 L24.378816,5.8411584 C24.5829308,5.48761359 24.4618046,5.03554156 24.1082688,4.8314112 Z" id="Path"></path>
                        <path d="M16.3466688,16.9949472 C16.3466688,17.2590346 16.4875689,17.5030583 16.7162769,17.6350991 C16.944985,17.7671399 17.2267624,17.7671381 17.4554688,17.6350944 L23.8569408,13.9390944 C24.2074795,13.7335925 24.3264279,13.2836849 24.1232557,12.9317908 C23.9200836,12.5798966 23.4709749,12.4579665 23.1177408,12.6588 L17.8250688,15.7146528 L17.8250688,8.8637472 C17.8250688,8.45549831 17.4941177,8.1245472 17.0858688,8.1245472 C16.6776199,8.1245472 16.3466688,8.45549831 16.3466688,8.8637472 L16.3466688,16.9949472 Z" id="Path"></path>
                    </g>
                </g>
            </g>
        </g>
    </g>
</svg>