<?xml version="1.0" encoding="UTF-8"?>
<svg width="53px" height="48px" viewBox="0 0 53 48" version="1.1" xmlns="http://www.w3.org/2000/svg" xmlns:xlink="http://www.w3.org/1999/xlink">
    <title>rich</title>
    <g id="Final-UI" stroke="none" stroke-width="1" fill="none" fill-rule="evenodd">
        <g id="website-home" transform="translate(-138.000000, -1925.000000)" fill-rule="nonzero">
            <g id="Group-36" transform="translate(138.000000, 1892.000000)">
                <g id="rich" transform="translate(0.000000, 33.000000)">
                    <g id="Group" transform="translate(10.015488, 5.946696)" fill="#FF7CB9">
                        <ellipse id="Oval" cx="14.1635693" cy="6.68199974" rx="14.1635693" ry="6.68199974"></ellipse>
                        <path d="M14.1635693,15.0349167 C7.75949933,15.0349167 2.5906729,13.3189298 0.048408192,10.6381175 L0.073446912,12.6829463 C0.073446912,16.3803306 7.37056454,18.3759166 14.2370162,18.3759166 C21.1034678,18.3759166 28.4005855,16.3803306 28.4005855,12.6720962 L28.377216,10.5287818 C25.873344,13.2705216 20.6536055,15.0349167 14.1635693,15.0349167 L14.1635693,15.0349167 Z" id="Path"></path>
                        <path d="M13.7921616,20.0418261 C15.3487354,22.9396406 20.8030032,25.0262006 27.4941838,25.0262006 C35.4364658,25.0262006 41.6577531,22.090828 41.6577531,18.3442009 C41.6577531,15.0115473 36.7334715,12.3265619 30.0564795,11.7723715 L30.0673296,12.6520652 C30.0673296,18.5027795 19.7430307,20.1144384 13.7921616,20.0418261 Z" id="Path"></path>
                        <path d="M41.704492,22.1909829 C39.20062,24.9335574 33.9833854,26.6979525 27.4941838,26.6979525 C21.0901139,26.6979525 15.9204528,24.9819656 13.3781881,22.3011533 L13.4040614,24.3593361 C13.4040614,28.0492088 20.7011791,30.0389524 27.5676307,30.0389524 C34.4340824,30.0389524 41.7312,28.0475395 41.7312,24.3476513 L41.704492,22.1909829 Z" id="Path"></path>
                        <path d="M14.1635693,36.723456 C20.878954,36.723456 26.3490797,34.6227074 27.882284,31.709035 C22.0232235,31.7574432 11.7373173,30.1566344 11.7373173,24.3643438 L11.7264672,23.4529344 C4.98771302,23.988763 -5.9303602e-15,26.6845985 -5.9303602e-15,30.0372831 C-5.9303602e-15,33.7847449 6.22212192,36.723456 14.1635693,36.723456 L14.1635693,36.723456 Z" id="Path"></path>
                        <path d="M14.1635693,38.392704 C7.75949933,38.392704 2.58983827,36.6767171 0.047573568,33.9959048 L0.073446912,36.0540876 C0.073446912,39.7431256 7.37056454,41.7337039 14.2370162,41.7337039 C21.1034678,41.7337039 28.4005855,39.7431256 28.4005855,36.0432374 L28.377216,33.8857344 C25.873344,36.6266396 20.6527709,38.392704 14.1635693,38.392704 Z" id="Path"></path>
                    </g>
                    <path d="M20.1144384,27.1686804 C26.1735224,24.3850159 29.4767825,17.7578913 28.0520473,11.2439511 C26.6273121,4.73001088 20.8590416,0.0870200623 14.1911119,0.0870200623 C7.52318212,0.0870200623 1.75491162,4.73001088 0.33017642,11.2439511 C-1.09455878,17.7578913 2.20870135,24.3850159 8.26778534,27.1686804 C4.08381523,27.6752972 -2.9651801e-15,28.7961972 -2.9651801e-15,30.985416 L-2.9651801e-15,35.5291091 C-2.9651801e-15,38.530417 8.91879206,39.331656 14.188608,39.331656 C19.4584239,39.331656 28.377216,38.530417 28.377216,35.5291091 L28.377216,30.985416 C28.377216,28.7961972 24.2934008,27.6752972 20.1144384,27.1686804 Z M1.669248,14.292936 C1.669248,7.37868439 7.27435639,1.773576 14.188608,1.773576 C21.1028596,1.773576 26.707968,7.37868439 26.707968,14.292936 C26.707968,21.2071876 21.1028596,26.812296 14.188608,26.812296 C7.2775978,26.8044768 1.67706719,21.2039462 1.669248,14.292936 Z M14.188608,28.481544 C22.3203496,28.481544 26.707968,30.2584585 26.707968,30.985416 C26.707968,31.7123735 22.3203496,33.489288 14.188608,33.489288 C6.05686637,33.489288 1.669248,31.7123735 1.669248,30.985416 C1.669248,30.2584585 6.05686637,28.481544 14.188608,28.481544 Z M14.188608,37.662408 C6.45665126,37.662408 1.99057824,36.2669167 1.669248,35.5291091 L1.669248,33.1086995 C4.5662279,34.6819657 10.5663398,35.158536 14.188608,35.158536 C17.8108762,35.158536 23.8151612,34.6819657 26.707968,33.1045263 L26.707968,35.4857086 C26.3866378,36.2669167 21.9205647,37.662408 14.188608,37.662408 L14.188608,37.662408 Z" id="Shape" fill="#151A6A"></path>
                    <path d="M15.023232,13.2079248 L15.023232,8.68927046 C15.3914406,8.79256218 15.7361105,8.96631431 16.0381348,9.20089498 C16.3802524,9.49316779 16.8924749,9.46162682 17.1961495,9.12958825 C17.4998241,8.79754968 17.4856223,8.28455361 17.1640426,7.96982458 C16.5486373,7.45760243 15.8111078,7.113422 15.023232,6.97077965 L15.023232,5.946696 C15.023232,5.48574589 14.6495581,5.112072 14.188608,5.112072 C13.7276579,5.112072 13.353984,5.48574589 13.353984,5.946696 L13.353984,6.95241792 C11.7255795,7.12997615 10.4116673,8.36455655 10.13317,9.97876454 C9.86495729,11.1444283 10.2681756,12.36245 11.1789539,13.1378164 C11.8477871,13.632825 12.5791348,14.0372271 13.353984,14.3405096 L13.353984,19.8849168 C12.4968785,19.8957138 11.6605695,19.6208594 10.9769748,19.1037087 C10.7273961,18.9404539 10.4096805,18.9227488 10.1435083,19.0572628 C9.87733603,19.1917769 9.70314514,19.4580742 9.68655161,19.7558431 C9.66995808,20.053612 9.81348287,20.3376144 10.0630616,20.5008693 C11.0186758,21.1958394 12.1724333,21.565112 13.353984,21.5541648 L13.353984,22.639176 C13.353984,23.1001261 13.7276579,23.4738 14.188608,23.4738 C14.6495581,23.4738 15.023232,23.1001261 15.023232,22.639176 L15.023232,21.4164518 C16.7279694,20.9871995 18.0158516,19.587869 18.3024697,17.853442 C18.7156086,15.3921358 17.3343059,14.0684221 15.023232,13.2079248 Z M12.2088799,11.8241182 C11.7921004,11.4310526 11.6247686,10.8409035 11.7732061,10.2875754 C11.9001071,9.46395463 12.5344094,8.81089792 13.353984,8.66005862 L13.353984,12.5093445 C12.9492251,12.3218833 12.5653952,12.0922008 12.2088799,11.8241182 L12.2088799,11.8241182 Z M16.6557565,17.5763468 C16.5004007,18.5057861 15.8863952,19.2940109 15.023232,19.6720877 L15.023232,14.98317 C16.1734104,15.2717738 16.8927719,16.4144405 16.6557565,17.5763468 Z" id="Shape" fill="#151A6A"></path>
                </g>
            </g>
        </g>
    </g>
</svg>